<svg width="96" height="96" viewBox="0 0 96 96" fill="none" xmlns="http://www.w3.org/2000/svg">
<path d="M85 35.25V69.25C85 73.6683 81.4183 77.25 77 77.25H19C14.5817 77.25 11 73.6683 11 69.25V26.75C11 22.3317 14.5817 18.75 19 18.75H34.5434C36.7493 18.75 38.8572 19.6608 40.369 21.2671L43.631 24.7329C45.1428 26.3392 47.2507 27.25 49.4566 27.25H77C81.4183 27.25 85 30.8317 85 35.25Z" fill="#ABACBA" stroke="#ABACBA" stroke-width="6"/>
<path d="M64 42.903L48 49.402" stroke="#7A7C8E" stroke-width="4" stroke-linecap="round"/>
<path d="M64 61.9049L48 68.4039" stroke="#7A7C8E" stroke-width="4" stroke-linecap="round"/>
<path d="M64 42.903L48 36.4039" stroke="#7A7C8E" stroke-width="4" stroke-linecap="round"/>
<path d="M48 68.404V49.402" stroke="#7A7C8E" stroke-width="4" stroke-linecap="round"/>
<path d="M64 61.9049V42.9029" stroke="#7A7C8E" stroke-width="4" stroke-linecap="round"/>
<path d="M32 42.903L48 49.402" stroke="#7A7C8E" stroke-width="4" stroke-linecap="round"/>
<path d="M32 42.903L48 49.402" stroke="#7A7C8E" stroke-width="4" stroke-linecap="round"/>
<path d="M32 61.9049L48 68.4039" stroke="#7A7C8E" stroke-width="4" stroke-linecap="round"/>
<path d="M32 42.903L48 36.4039" stroke="#7A7C8E" stroke-width="4" stroke-linecap="round"/>
<path d="M32 61.9049V42.9029" stroke="#7A7C8E" stroke-width="4" stroke-linecap="round"/>
</svg>
