<svg width="96" height="96" viewBox="0 0 96 96" fill="none" xmlns="http://www.w3.org/2000/svg">
<path d="M85 35.25V69.25C85 73.6683 81.4183 77.25 77 77.25H19C14.5817 77.25 11 73.6683 11 69.25V26.75C11 22.3317 14.5817 18.75 19 18.75H34.5434C36.7493 18.75 38.8572 19.6608 40.369 21.2671L43.631 24.7329C45.1428 26.3392 47.2507 27.25 49.4566 27.25H77C81.4183 27.25 85 30.8317 85 35.25Z" fill="#ABACBA" stroke="#ABACBA" stroke-width="6"/>
<rect x="29" y="55.0349" width="16" height="16" rx="4" stroke="#7A7C8E" stroke-width="4"/>
<rect x="51" y="55.0349" width="16" height="16" rx="8" stroke="#7A7C8E" stroke-width="4"/>
<path d="M47.134 35.5795C47.5189 34.9128 48.4811 34.9128 48.866 35.5795L55.7942 47.5795C56.1791 48.2462 55.698 49.0795 54.9282 49.0795H41.0718C40.302 49.0795 39.8209 48.2462 40.2058 47.5795L47.134 35.5795Z" stroke="#7A7C8E" stroke-width="4"/>
</svg>
