<svg width="96" height="96" viewBox="0 0 96 96" fill="none" xmlns="http://www.w3.org/2000/svg">
<path d="M85 35.25V69.25C85 73.6683 81.4183 77.25 77 77.25H19C14.5817 77.25 11 73.6683 11 69.25V26.75C11 22.3317 14.5817 18.75 19 18.75H34.5434C36.7493 18.75 38.8572 19.6608 40.369 21.2671L43.631 24.7329C45.1428 26.3392 47.2507 27.25 49.4566 27.25H77C81.4183 27.25 85 30.8317 85 35.25Z" fill="#ABACBA" stroke="#ABACBA" stroke-width="6"/>
<path d="M48 41.2088C55.1661 36.6542 59.5838 35.6323 67.1649 36.8004C67.6471 36.8746 68 37.2926 68 37.7804V63.1006C68 63.7196 67.441 64.1885 66.8286 64.0983C59.6579 63.0425 55.3075 64.0131 48.5861 68.1891C48.236 68.4066 47.761 68.4128 47.4077 68.1991L45.8648 67.2655M28 37.6374V63.2435C28 63.7823 28.5786 64.1853 29.1999 64.0942C35.9805 63.0998 40.2403 63.9226 46.3824 67.5626C47.058 67.963 48 67.5595 48 66.8568V41.6383C48 41.3681 47.8479 41.1117 47.5928 40.952C40.6556 36.6106 36.2608 35.6522 28.8076 36.8046C28.3379 36.8772 28 37.2295 28 37.6374Z" stroke="#7A7C8E" stroke-width="4" stroke-linecap="round"/>
</svg>
