<svg width="96" height="96" viewBox="0 0 96 96" fill="none" xmlns="http://www.w3.org/2000/svg">
  <path
    d="M85 35.25V69.25C85 73.6683 81.4183 77.25 77 77.25H19C14.5817 77.25 11 73.6683 11 69.25V26.75C11 22.3317 14.5817 18.75 19 18.75H34.5434C36.7493 18.75 38.8572 19.6608 40.369 21.2671L43.631 24.7329C45.1428 26.3392 47.2507 27.25 49.4566 27.25H77C81.4183 27.25 85 30.8317 85 35.25Z"
    fill="#ABACBA" stroke="#ABACBA" stroke-width="6" />
  <path
    d="M68 36.2554H28C25.7909 36.2554 24 38.0462 24 40.2554V64.2554C24 66.4645 25.7909 68.2554 28 68.2554H68C70.2091 68.2554 72 66.4645 72 64.2554V40.2554C72 38.0462 70.2091 36.2554 68 36.2554Z"
    stroke="#7A7C8E" stroke-width="4" stroke-linecap="round" />
  <path d="M32 60.2554H64" stroke="#7A7C8E" stroke-width="4" stroke-linecap="round" />
</svg>