<svg width="128" height="128" viewBox="0 0 128 128" fill="none" xmlns="http://www.w3.org/2000/svg">
<path d="M102.513 40.9953C107.752 40.9953 112 45.1143 112 50.1948L111.988 91.2493C111.988 97.891 107.745 100.696 102.501 100.511H25.4988C20.2546 100.722 16.0119 97.9174 16.0119 91.5139L16 36.6875C16 31.607 20.2475 27.4886 25.4869 27.4886C25.4869 27.4886 54.5514 27.4783 56.1326 27.4783C57.1867 28.5002 66.6736 40.9953 66.6736 40.9953H102.513Z" fill="#1F7FD8" stroke="#1F7FD8" stroke-width="8" stroke-linecap="round" stroke-linejoin="round"/>
<path d="M63.531 49.0704H67.7521L79.9461 61.2644V66.2943M63.531 49.0704L52.2595 49.1021C49.9369 49.1021 48.054 51.0113 48.054 53.3664V87.9543C48.054 90.3094 49.9369 92.2186 52.2595 92.2186H75.7406C78.0632 92.2186 79.9461 90.3094 79.9461 87.9543V66.2943M63.531 49.0704C65.8675 49.0704 67.5315 50.9974 67.5315 53.3664V59.2986C67.5315 60.7296 68.5863 61.7624 69.9847 61.7624H75.7306C78.6511 61.7624 79.9461 63.9253 79.9461 66.2943" stroke="#ABACBA" stroke-width="5" stroke-linecap="round" stroke-linejoin="round"/>
</svg>
