<svg width="96" height="96" viewBox="0 0 96 96" fill="none" xmlns="http://www.w3.org/2000/svg">
<path d="M85 35.25V69.25C85 73.6683 81.4183 77.25 77 77.25H19C14.5817 77.25 11 73.6683 11 69.25V26.75C11 22.3317 14.5817 18.75 19 18.75H34.5434C36.7493 18.75 38.8572 19.6608 40.369 21.2671L43.631 24.7329C45.1428 26.3392 47.2507 27.25 49.4566 27.25H77C81.4183 27.25 85 30.8317 85 35.25Z" fill="#ABACBA" stroke="#ABACBA" stroke-width="6"/>
<path d="M36.2837 63.7706V40.2431C36.2837 38.0339 38.0746 36.2431 40.2837 36.2431H47.8343C48.8952 36.2431 49.9126 36.6645 50.6627 37.4147L58.5447 45.2966C59.2949 46.0468 59.7163 47.0642 59.7163 48.1251V63.7706C59.7163 65.9797 57.9254 67.7706 55.7163 67.7706H40.2837C38.0746 67.7706 36.2837 65.9797 36.2837 63.7706Z" stroke="#7A7C8E" stroke-width="4" stroke-linecap="round"/>
<path d="M47.4912 36.6691V46.4682C47.4912 47.5728 48.3866 48.4682 49.4912 48.4682L59.2902 48.4682" stroke="#7A7C8E" stroke-width="4" stroke-linecap="round"/>
</svg>
