<svg width="96" height="96" viewBox="0 0 96 96" fill="none" xmlns="http://www.w3.org/2000/svg">
<path d="M85 35.25V69.25C85 73.6683 81.4183 77.25 77 77.25H19C14.5817 77.25 11 73.6683 11 69.25V26.75C11 22.3317 14.5817 18.75 19 18.75H34.5434C36.7493 18.75 38.8572 19.6608 40.369 21.2671L43.631 24.7329C45.1428 26.3392 47.2507 27.25 49.4566 27.25H77C81.4183 27.25 85 30.8317 85 35.25Z" fill="#ABACBA" stroke="#ABACBA" stroke-width="6"/>
<path d="M38.8039 47.0786L38.4117 45.1175L38.4117 45.1175L38.8039 47.0786ZM56.8039 43.4786L56.4116 41.5175L56.4116 41.5175L56.8039 43.4786ZM36 59.2394C36 60.344 36.8954 61.2394 38 61.2394C39.1046 61.2394 40 60.344 40 59.2394H36ZM56 55.2394C56 56.344 56.8954 57.2394 58 57.2394C59.1046 57.2394 60 56.344 60 55.2394H56ZM38.8039 39.0786L38.4117 37.1175L38.4117 37.1175L38.8039 39.0786ZM56.8039 35.4786L56.4116 33.5175L56.4116 33.5175L56.8039 35.4786ZM31.1784 66.7389L30.3159 64.9345L28.0284 66.0279L29.6244 67.9979L31.1784 66.7389ZM33.5202 69.6295L31.9662 70.8885L33.2068 72.4199L34.7562 71.2019L33.5202 69.6295ZM52.5676 59.5035L51.8512 57.6362L51.8512 57.6362L52.5676 59.5035ZM57.8556 62.1706L59.7832 61.6374L57.8556 62.1706ZM36 67.2394C36 68.344 35.1046 69.2394 34 69.2394V73.2394C37.3137 73.2394 40 70.5531 40 67.2394H36ZM34 69.2394C32.8954 69.2394 32 68.344 32 67.2394H28C28 70.5531 30.6863 73.2394 34 73.2394V69.2394ZM32 67.2394C32 66.1348 32.8954 65.2394 34 65.2394V61.2394C30.6863 61.2394 28 63.9257 28 67.2394H32ZM36 48.0592V67.2394H40V48.0592H36ZM56 44.4592V63.2394H60V44.4592H56ZM39.1961 49.0398L57.1961 45.4398L56.4116 41.5175L38.4117 45.1175L39.1961 49.0398ZM60 44.4592C60 42.566 58.268 41.1462 56.4116 41.5175L57.1961 45.4398C56.5773 45.5635 56 45.0902 56 44.4592H60ZM40 48.0592C40 48.5359 39.6635 48.9463 39.1961 49.0398L38.4117 45.1175C37.0094 45.3979 36 46.6292 36 48.0592H40ZM36 40.0592V59.2394H40V40.0592H36ZM56 36.4592V55.2394H60V36.4592H56ZM39.1961 41.0398L57.1961 37.4398L56.4116 33.5175L38.4117 37.1175L39.1961 41.0398ZM60 36.4592C60 34.566 58.268 33.1462 56.4116 33.5175L57.1961 37.4398C56.5773 37.5635 56 37.0902 56 36.4592H60ZM40 40.0592C40 40.5359 39.6635 40.9463 39.1961 41.0398L38.4117 37.1175C37.0094 37.3979 36 38.6292 36 40.0592H40ZM56 63.2394C56 64.344 55.1046 65.2394 54 65.2394V69.2394C57.3137 69.2394 60 66.5531 60 63.2394H56ZM54 65.2394C52.8954 65.2394 52 64.344 52 63.2394H48C48 66.5531 50.6863 69.2394 54 69.2394V65.2394ZM34 65.2394C34.4887 65.2394 34.9319 65.4121 35.2795 65.7021L37.8417 62.6304C36.8017 61.763 35.4594 61.2394 34 61.2394V65.2394ZM35.2795 65.7021C35.7231 66.0721 36 66.6225 36 67.2394H40C40 65.3861 39.1574 63.7278 37.8417 62.6304L35.2795 65.7021ZM35.698 62.3618L30.3159 64.9345L32.041 68.5434L37.4231 65.9707L35.698 62.3618ZM29.6244 67.9979L31.9662 70.8885L35.0742 68.3706L32.7325 65.48L29.6244 67.9979ZM34.7562 71.2019L37.7966 68.8117L35.3245 65.6671L32.2841 68.0572L34.7562 71.2019ZM52 63.2394C52 62.3903 52.5299 61.6601 53.284 61.3708L51.8512 57.6362C49.6021 58.4991 48 60.6797 48 63.2394H52ZM53.284 61.3708C53.5037 61.2865 53.744 61.2394 54 61.2394V57.2394C53.2465 57.2394 52.521 57.3792 51.8512 57.6362L53.284 61.3708ZM55.1948 65.3966L54.5568 59.2955L50.5785 59.7115L51.2165 65.8126L55.1948 65.3966ZM54 61.2394C54.9166 61.2394 55.694 61.8578 55.928 62.7037L59.7832 61.6374C59.0822 59.103 56.7613 57.2394 54 57.2394V61.2394ZM55.928 62.7037C55.9745 62.872 56 63.0511 56 63.2394H60C60 62.6873 59.9249 62.1496 59.7832 61.6374L55.928 62.7037ZM57.27 60.2582L52.9859 61.5701L54.1571 65.3948L58.4412 64.0829L57.27 60.2582Z" fill="#7A7C8E"/>
</svg>
