<svg width="96" height="96" viewBox="0 0 96 96" fill="none" xmlns="http://www.w3.org/2000/svg">
<path d="M85 35.25V69.25C85 73.6683 81.4183 77.25 77 77.25H19C14.5817 77.25 11 73.6683 11 69.25V26.75C11 22.3317 14.5817 18.75 19 18.75H34.5434C36.7493 18.75 38.8572 19.6608 40.369 21.2671L43.631 24.7329C45.1428 26.3392 47.2507 27.25 49.4566 27.25H77C81.4183 27.25 85 30.8317 85 35.25Z" fill="#ABACBA" stroke="#ABACBA" stroke-width="6"/>
<path d="M38 67.2394C38 69.4485 36.2091 71.2394 34 71.2394C31.7909 71.2394 30 69.4485 30 67.2394C30 65.0303 31.7909 63.2394 34 63.2394C36.2091 63.2394 38 65.0303 38 67.2394ZM38 67.2394V48.0592C38 47.5825 38.3365 47.1721 38.8039 47.0786L56.8039 43.4786C57.4227 43.3549 58 43.8281 58 44.4592V63.2394M58 63.2394C58 65.4485 56.2091 67.2394 54 67.2394C51.7909 67.2394 50 65.4485 50 63.2394C50 61.0303 51.7909 59.2394 54 59.2394C56.2091 59.2394 58 61.0303 58 63.2394ZM38 59.2394V40.0592C38 39.5825 38.3365 39.1721 38.8039 39.0786L56.8039 35.4786C57.4227 35.3549 58 35.8281 58 36.4592V55.2394" stroke="#7A7C8E" stroke-width="4" stroke-linecap="round"/>
</svg>
