<svg width="96" height="96" viewBox="0 0 96 96" fill="none" xmlns="http://www.w3.org/2000/svg">
<path d="M85 35.25V69.25C85 73.6683 81.4183 77.25 77 77.25H19C14.5817 77.25 11 73.6683 11 69.25V26.75C11 22.3317 14.5817 18.75 19 18.75H34.5434C36.7493 18.75 38.8572 19.6608 40.369 21.2671L43.631 24.7329C45.1428 26.3392 47.2507 27.25 49.4566 27.25H77C81.4183 27.25 85 30.8317 85 35.25Z" fill="#ABACBA" stroke="#ABACBA" stroke-width="6"/>
<path d="M40.6567 44.5L50.3753 61.3331L48.2644 64.9892C47.7237 65.9258 47.8666 66.9939 48.4371 67.75H27.2333C26.0786 67.75 25.3569 66.5 25.9343 65.5L38.0587 44.5C38.636 43.5 40.0794 43.5 40.6567 44.5ZM64.2859 67.7393H53.4905C54.0475 66.9845 54.1827 65.9277 53.6471 65L51.53 61.3331L56.0586 53.4892C56.636 52.4892 58.0794 52.4892 58.6567 53.4892L65.5849 65.4892C66.1623 66.4892 65.4406 67.7393 64.2859 67.7393ZM49.1304 65.4892L50.9527 62.3331L52.7811 65.5C53.3272 66.4459 52.7111 67.6154 51.6656 67.7393H50.4295C49.2748 67.7393 48.5531 66.4892 49.1304 65.4892ZM74.1424 41.25C74.1424 44.2876 71.6799 46.75 68.6424 46.75C65.6048 46.75 63.1424 44.2876 63.1424 41.25C63.1424 38.2124 65.6048 35.75 68.6424 35.75C71.6799 35.75 74.1424 38.2124 74.1424 41.25Z" fill="#7A7C8E" stroke="#7A7C8E"/>
</svg>
