<svg width="128" height="128" viewBox="0 0 128 128" fill="none" xmlns="http://www.w3.org/2000/svg">
<path d="M102.513 40.9953C107.752 40.9953 112 45.1143 112 50.1948L111.988 91.2493C111.988 97.891 107.745 100.696 102.501 100.511H25.4988C20.2546 100.722 16.0119 97.9174 16.0119 91.5139L16 36.6875C16 31.607 20.2475 27.4886 25.4869 27.4886C25.4869 27.4886 54.5514 27.4783 56.1326 27.4783C57.1867 28.5002 66.6736 40.9953 66.6736 40.9953H102.513Z" fill="#1F7FD8" stroke="#1F7FD8" stroke-width="8" stroke-linecap="round" stroke-linejoin="round"/>
<path d="M47.634 61.6223C48.0189 60.9556 48.9811 60.9556 49.366 61.6223L63.2224 85.6223C63.6073 86.289 63.1262 87.1223 62.3564 87.1223H34.6436C33.8738 87.1223 33.3927 86.289 33.7776 85.6223L47.634 61.6223Z" fill="#ABACBA" stroke="#ABACBA" stroke-width="8"/>
<path d="M69.634 73.6223C70.0189 72.9556 70.9811 72.9556 71.366 73.6223L78.2942 85.6223C78.6791 86.289 78.198 87.1223 77.4282 87.1223H63.5718C62.802 87.1223 62.3209 86.289 62.7058 85.6223L69.634 73.6223Z" fill="#ABACBA" stroke="#ABACBA" stroke-width="8"/>
<circle cx="89.5" cy="56.1223" r="8" fill="#ABACBA"/>
</svg>
