<svg width="96" height="96" viewBox="0 0 96 96" fill="none" xmlns="http://www.w3.org/2000/svg">
<path d="M85 35.25V69.25C85 73.6683 81.4183 77.25 77 77.25H19C14.5817 77.25 11 73.6683 11 69.25V26.75C11 22.3317 14.5817 18.75 19 18.75H34.5434C36.7493 18.75 38.8572 19.6608 40.369 21.2671L43.631 24.7329C45.1428 26.3392 47.2507 27.25 49.4566 27.25H77C81.4183 27.25 85 30.8317 85 35.25Z" fill="#ABACBA" stroke="#ABACBA" stroke-width="6"/>
<path d="M38 41.3959L23.0667 52.5959C22.5333 52.9959 22.5333 53.7959 23.0667 54.1959L38 65.3959" stroke="#7A7C8E" stroke-width="4" stroke-linecap="round"/>
<path d="M58 65.3959L72.9333 54.1958C73.4667 53.7958 73.4667 52.9958 72.9333 52.5958L58 41.3959" stroke="#7A7C8E" stroke-width="4" stroke-linecap="round"/>
</svg>
