<svg width="96" height="96" viewBox="0 0 96 96" fill="none" xmlns="http://www.w3.org/2000/svg">
<path d="M85 35.25V69.25C85 73.6683 81.4183 77.25 77 77.25H19C14.5817 77.25 11 73.6683 11 69.25V26.75C11 22.3317 14.5817 18.75 19 18.75H34.5434C36.7493 18.75 38.8572 19.6608 40.369 21.2671L43.631 24.7329C45.1428 26.3392 47.2507 27.25 49.4566 27.25H77C81.4183 27.25 85 30.8317 85 35.25Z" fill="#ABACBA" stroke="#ABACBA" stroke-width="6"/>
<path d="M41 57.5813L35.7071 62.8742C35.3166 63.2647 35.3166 63.8979 35.7071 64.2884L41 69.5813" stroke="#7A7C8E" stroke-width="4" stroke-linecap="round"/>
<path d="M71 51.5813C71 50.4767 70.1046 49.5813 69 49.5813C67.8954 49.5813 67 50.4767 67 51.5813H71ZM68.0866 56.1735L69.9343 56.9389L69.9343 56.9389L68.0866 56.1735ZM65.4853 60.0666L66.8995 61.4808L66.8995 61.4808L65.4853 60.0666ZM61.5922 62.6679L62.3576 64.5156L62.3576 64.5156L61.5922 62.6679ZM67 51.5813C67 52.8945 66.7413 54.1949 66.2388 55.4081L69.9343 56.9389C70.6379 55.2403 71 53.4198 71 51.5813H67ZM66.2388 55.4081C65.7362 56.6214 64.9997 57.7238 64.0711 58.6524L66.8995 61.4808C68.1995 60.1808 69.2307 58.6374 69.9343 56.9389L66.2388 55.4081ZM64.0711 58.6524C63.1425 59.581 62.0401 60.3176 60.8268 60.8201L62.3576 64.5156C64.0561 63.8121 65.5995 62.7808 66.8995 61.4808L64.0711 58.6524ZM60.8268 60.8201C59.6136 61.3227 58.3132 61.5813 57 61.5813V65.5813C58.8385 65.5813 60.659 65.2192 62.3576 64.5156L60.8268 60.8201Z" fill="#7A7C8E"/>
<path d="M35 63.5813H57.2792" stroke="#7A7C8E" stroke-width="4"/>
<path d="M54 47.5813L59.2929 42.2884C59.6834 41.8979 59.6834 41.2647 59.2929 40.8742L54 35.5813" stroke="#7A7C8E" stroke-width="4" stroke-linecap="round"/>
<path d="M24 53.5813C24 54.6859 24.8954 55.5813 26 55.5813C27.1046 55.5813 28 54.6859 28 53.5813H24ZM26.9134 48.9891L25.0657 48.2237L25.0657 48.2237L26.9134 48.9891ZM29.5147 45.096L28.1005 43.6818L28.1005 43.6818L29.5147 45.096ZM33.4078 42.4948L32.6424 40.647L32.6424 40.647L33.4078 42.4948ZM28 53.5813C28 52.2681 28.2587 50.9677 28.7612 49.7545L25.0657 48.2237C24.3621 49.9223 24 51.7428 24 53.5813H28ZM28.7612 49.7545C29.2638 48.5412 30.0003 47.4388 30.9289 46.5102L28.1005 43.6818C26.8005 44.9818 25.7693 46.5252 25.0657 48.2237L28.7612 49.7545ZM30.9289 46.5102C31.8575 45.5817 32.9599 44.8451 34.1732 44.3425L32.6424 40.647C30.9439 41.3506 29.4005 42.3818 28.1005 43.6818L30.9289 46.5102ZM34.1732 44.3425C35.3864 43.84 36.6868 43.5813 38 43.5813V39.5813C36.1615 39.5813 34.341 39.9434 32.6424 40.647L34.1732 44.3425Z" fill="#7A7C8E"/>
<path d="M60 41.5813H37.7208" stroke="#7A7C8E" stroke-width="4"/>
</svg>
