<svg width="128" height="128" viewBox="0 0 128 128" fill="none" xmlns="http://www.w3.org/2000/svg">
<path d="M102.513 40.9953C107.752 40.9953 112 45.1143 112 50.1948L111.988 91.2493C111.988 97.891 107.745 100.696 102.501 100.511H25.4988C20.2546 100.722 16.0119 97.9174 16.0119 91.5139L16 36.6875C16 31.607 20.2475 27.4886 25.4869 27.4886C25.4869 27.4886 54.5514 27.4783 56.1326 27.4783C57.1867 28.5002 66.6736 40.9953 66.6736 40.9953H102.513Z" fill="#1F7FD8" stroke="#1F7FD8" stroke-width="8" stroke-linecap="round" stroke-linejoin="round"/>
<path d="M64.2304 78.2726C73.4414 78.3047 83.4866 81.9997 86.604 93.0716L41.3446 93.0569C44.6035 81.7442 55.0194 78.2404 64.2304 78.2726Z" stroke="white" stroke-width="6" stroke-linecap="round" stroke-linejoin="round"/>
<path d="M64.0001 70.3797C70.3848 70.3797 75.5605 65.204 75.5605 58.8193C75.5605 52.4347 70.3848 47.2589 64.0001 47.2589C57.6155 47.2589 52.4397 52.4347 52.4397 58.8193C52.4397 65.204 57.6155 70.3797 64.0001 70.3797Z" stroke="white" stroke-width="6" stroke-linecap="round" stroke-linejoin="round"/>
</svg>
