<svg width="128" height="128" viewBox="0 0 128 128" fill="none" xmlns="http://www.w3.org/2000/svg">
<path d="M102.513 40.9953C107.752 40.9953 112 45.1143 112 50.1948L111.988 91.2493C111.988 97.891 107.745 100.696 102.501 100.511H25.4988C20.2546 100.722 16.0119 97.9174 16.0119 91.5139L16 36.6875C16 31.607 20.2475 27.4886 25.4869 27.4886C25.4869 27.4886 54.5514 27.4783 56.1326 27.4783C57.1867 28.5002 66.6736 40.9953 66.6736 40.9953H102.513Z" fill="#D72C2C" stroke="#D72C2C" stroke-width="8" stroke-linecap="round" stroke-linejoin="round"/>
<path d="M54.9397 56.6718C54.9397 55.902 55.7731 55.4209 56.4397 55.8058L80.6204 69.7665C81.2871 70.1514 81.2871 71.1137 80.6204 71.4986L56.4397 85.4593C55.773 85.8442 54.9397 85.3631 54.9397 84.5933L54.9397 56.6718Z" fill="#ABACBA" stroke="#ABACBA" stroke-width="8"/>
</svg>
