<svg width="128" height="128" viewBox="0 0 128 128" fill="none" xmlns="http://www.w3.org/2000/svg">
<g filter="url(#filter0_d_150_6)">
<path fill-rule="evenodd" clip-rule="evenodd" d="M116 44.3898C116 43.1552 116 41.9205 115.993 40.6857C115.987 39.6456 115.975 38.6057 115.946 37.5661C115.885 35.3002 115.752 33.0149 115.349 30.7742C114.94 28.5012 114.273 26.3858 113.221 24.3205C112.187 22.2907 110.836 20.4332 109.225 18.8228C107.614 17.2125 105.756 15.8628 103.725 14.8294C101.658 13.7775 99.5401 13.1103 97.2646 12.7017C95.0237 12.2994 92.7377 12.166 90.4718 12.1048C89.4315 12.0766 88.3911 12.0647 87.3505 12.0583C86.1151 12.0507 84.8797 12.0514 83.6444 12.0514L69.3005 12H58.5725L44.4825 12.0514C43.2447 12.0514 42.0069 12.0507 40.7692 12.0583C39.7264 12.0647 38.6841 12.0766 37.6417 12.1048C35.3705 12.166 33.0794 12.2995 30.8332 12.7024C28.5547 13.1108 26.4338 13.7777 24.3637 14.8289C22.3287 15.8624 20.4667 17.2122 18.8522 18.8228C17.238 20.4331 15.8848 22.2902 14.849 24.3197C13.7944 26.3859 13.1257 28.5026 12.716 30.7769C12.3126 33.0166 12.179 35.3012 12.1175 37.5661C12.0895 38.6059 12.0774 39.6457 12.0711 40.6857C12.0635 41.9206 12 43.4545 12 44.6892L12.0004 58.584L12 69.427L12.0641 83.617C12.0641 84.8534 12.0636 86.0898 12.0711 87.3261C12.0774 88.3677 12.0895 89.4089 12.1176 90.45C12.179 92.7188 12.3129 95.0075 12.7166 97.2512C13.1262 99.5272 13.7947 101.646 14.8485 103.714C15.8844 105.746 17.2378 107.606 18.8522 109.219C20.4666 110.831 22.3281 112.183 24.3627 113.218C26.4341 114.271 28.5559 114.939 30.8359 115.348C33.081 115.751 35.3714 115.885 37.6417 115.946C38.6841 115.974 39.7265 115.986 40.7693 115.993C42.0071 116 43.2447 116 44.4825 116L58.6998 116H69.4545L83.6444 115.999C84.8797 115.999 86.1151 116 87.3505 115.993C88.3911 115.986 89.4315 115.974 90.4718 115.946C92.7386 115.885 95.0253 115.751 97.2673 115.348C99.5413 114.939 101.658 114.271 103.724 113.218C105.755 112.183 107.614 110.832 109.225 109.219C110.836 107.606 112.187 105.747 113.221 103.714C114.273 101.646 114.94 99.526 115.349 97.2485C115.752 95.0057 115.885 92.718 115.947 90.45C115.975 89.4088 115.987 88.3675 115.993 87.3261C116.001 86.0898 116 84.8534 116 83.617C116 83.617 115.999 69.6775 115.999 69.427V58.5726C115.999 58.3876 116 44.3898 116 44.3898" fill="#ABACBA"/>
</g>
<mask id="mask0_150_6" style="mask-type:luminance" maskUnits="userSpaceOnUse" x="12" y="12" width="104" height="104">
<path fill-rule="evenodd" clip-rule="evenodd" d="M116 44.3898C116 43.1552 116 41.9205 115.993 40.6857C115.987 39.6456 115.975 38.6057 115.946 37.5661C115.885 35.3002 115.752 33.0149 115.349 30.7742C114.94 28.5012 114.273 26.3858 113.221 24.3205C112.187 22.2907 110.836 20.4332 109.225 18.8228C107.614 17.2125 105.756 15.8628 103.725 14.8294C101.658 13.7775 99.5401 13.1103 97.2646 12.7017C95.0237 12.2994 92.7377 12.166 90.4718 12.1048C89.4315 12.0766 88.3911 12.0647 87.3505 12.0583C86.1151 12.0507 84.8797 12.0514 83.6444 12.0514L69.3005 12H58.5725L44.4825 12.0514C43.2447 12.0514 42.0069 12.0507 40.7692 12.0583C39.7264 12.0647 38.6841 12.0766 37.6417 12.1048C35.3705 12.166 33.0794 12.2995 30.8332 12.7024C28.5547 13.1108 26.4338 13.7777 24.3637 14.8289C22.3287 15.8624 20.4667 17.2122 18.8522 18.8228C17.238 20.4331 15.8848 22.2902 14.849 24.3197C13.7944 26.3859 13.1257 28.5026 12.716 30.7769C12.3126 33.0166 12.179 35.3012 12.1175 37.5661C12.0895 38.6059 12.0774 39.6457 12.0711 40.6857C12.0635 41.9206 12 43.4545 12 44.6892L12.0004 58.584L12 69.427L12.0641 83.617C12.0641 84.8534 12.0636 86.0898 12.0711 87.3261C12.0774 88.3677 12.0895 89.4089 12.1176 90.45C12.179 92.7188 12.3129 95.0075 12.7166 97.2512C13.1262 99.5272 13.7947 101.646 14.8485 103.714C15.8844 105.746 17.2378 107.606 18.8522 109.219C20.4666 110.831 22.3281 112.183 24.3627 113.218C26.4341 114.271 28.5559 114.939 30.8359 115.348C33.081 115.751 35.3714 115.885 37.6417 115.946C38.6841 115.974 39.7265 115.986 40.7693 115.993C42.0071 116 43.2447 116 44.4825 116L58.6998 116H69.4545L83.6444 115.999C84.8797 115.999 86.1151 116 87.3505 115.993C88.3911 115.986 89.4315 115.974 90.4718 115.946C92.7386 115.885 95.0253 115.751 97.2673 115.348C99.5413 114.939 101.658 114.271 103.724 113.218C105.755 112.183 107.614 110.832 109.225 109.219C110.836 107.606 112.187 105.747 113.221 103.714C114.273 101.646 114.94 99.526 115.349 97.2485C115.752 95.0057 115.885 92.718 115.947 90.45C115.975 89.4088 115.987 88.3675 115.993 87.3261C116.001 86.0898 116 84.8534 116 83.617C116 83.617 115.999 69.6775 115.999 69.427V58.5726C115.999 58.3876 116 44.3898 116 44.3898" fill="white"/>
</mask>
<g mask="url(#mask0_150_6)">
</g>
<path d="M91.75 54.4375V79.9375C91.75 83.2512 89.0637 85.9375 85.75 85.9375H42.25C38.9363 85.9375 36.25 83.2512 36.25 79.9375V48.0625C36.25 44.7488 38.9363 42.0625 42.25 42.0625H53.9076C55.5619 42.0625 57.1429 42.7456 58.2768 43.9503L60.7232 46.5497C61.8571 47.7544 63.4381 48.4375 65.0924 48.4375H85.75C89.0637 48.4375 91.75 51.1238 91.75 54.4375Z" fill="#7A7C8E" stroke="#7A7C8E" stroke-width="6"/>
<defs>
<filter id="filter0_d_150_6" x="10.75" y="12" width="106.5" height="106.5" filterUnits="userSpaceOnUse" color-interpolation-filters="sRGB">
<feFlood flood-opacity="0" result="BackgroundImageFix"/>
<feColorMatrix in="SourceAlpha" type="matrix" values="0 0 0 0 0 0 0 0 0 0 0 0 0 0 0 0 0 0 127 0" result="hardAlpha"/>
<feOffset dy="1.25"/>
<feGaussianBlur stdDeviation="0.625"/>
<feColorMatrix type="matrix" values="0 0 0 0 0 0 0 0 0 0 0 0 0 0 0 0 0 0 0.3 0"/>
<feBlend mode="normal" in2="BackgroundImageFix" result="effect1_dropShadow_150_6"/>
<feBlend mode="normal" in="SourceGraphic" in2="effect1_dropShadow_150_6" result="shape"/>
</filter>
</defs>
</svg>
