<svg width="128" height="128" viewBox="0 0 128 128" fill="none" xmlns="http://www.w3.org/2000/svg">
<path d="M99.4782 102.512C99.4782 107.752 95.289 112 90.1213 112H37.8786C32.711 112 28.5217 107.752 28.5217 102.512V25.5582C28.5217 20.3184 32.711 16.0707 37.8786 16.0707L62.9565 16C68.1548 16 67.857 17.2873 67.857 22.5582L78.0758 31.0445L93.0991 48.2383C99.5969 48.2383 99.4782 49.0506 99.4782 54.3214V102.512Z" fill="#084175"/>
<path d="M62.9565 16H72.3478L99.4782 43.1304V54.3214M62.9565 16L37.8786 16.0707C32.711 16.0707 28.5217 20.3184 28.5217 25.5582V102.512C28.5217 107.752 32.711 112 37.8786 112H90.1213C95.289 112 99.4782 107.752 99.4782 102.512V54.3214M62.9565 16C68.1548 16 67.857 17.2873 67.857 22.5582L78.0758 31.0445L93.0991 48.2383C99.5969 48.2383 99.4782 49.0506 99.4782 54.3214" stroke="#084175" stroke-width="8" stroke-linecap="round" stroke-linejoin="round"/>
<path d="M45.1043 104.373C43.7523 104.373 42.5996 104.217 41.6463 103.905C40.693 103.575 39.913 103.159 39.3063 102.657C38.6996 102.137 38.249 101.591 37.9543 101.019C37.6596 100.429 37.5036 99.8659 37.4863 99.3286C37.4863 99.1726 37.5383 99.0426 37.6423 98.9386C37.7636 98.8346 37.9023 98.7826 38.0583 98.7826H41.4383C41.6463 98.7826 41.811 98.8259 41.9323 98.9126C42.0536 98.9819 42.1663 99.1033 42.2703 99.2766C42.409 99.6059 42.6083 99.8746 42.8683 100.083C43.1456 100.291 43.475 100.438 43.8563 100.525C44.2376 100.594 44.6536 100.629 45.1043 100.629C45.9883 100.629 46.673 100.429 47.1583 100.031C47.661 99.6146 47.9123 99.0513 47.9123 98.3406C47.9123 97.5953 47.6783 97.0666 47.2103 96.7546C46.7423 96.4253 46.075 96.2606 45.2083 96.2606H42.3223C42.1316 96.2606 41.9756 96.1999 41.8543 96.0786C41.733 95.9573 41.6723 95.8013 41.6723 95.6106V94.1546C41.6723 93.9466 41.7156 93.7646 41.8023 93.6086C41.889 93.4526 41.9843 93.3399 42.0883 93.2706L46.3523 89.6566H39.1243C38.951 89.6566 38.795 89.5959 38.6563 89.4746C38.535 89.3533 38.4743 89.1973 38.4743 89.0066V86.5626C38.4743 86.3719 38.535 86.2159 38.6563 86.0946C38.795 85.9733 38.951 85.9126 39.1243 85.9126H51.0843C51.275 85.9126 51.431 85.9733 51.5523 86.0946C51.691 86.2159 51.7603 86.3719 51.7603 86.5626V88.7726C51.7603 88.9633 51.717 89.1366 51.6303 89.2926C51.5436 89.4313 51.4483 89.5439 51.3443 89.6306L47.3923 93.2966L47.5743 93.3486C48.5623 93.4699 49.4463 93.7386 50.2263 94.1546C51.0063 94.5533 51.6216 95.1166 52.0723 95.8446C52.523 96.5726 52.7483 97.4999 52.7483 98.6266C52.7483 99.8053 52.4103 100.828 51.7343 101.695C51.0756 102.544 50.1743 103.203 49.0303 103.671C47.8863 104.139 46.5776 104.373 45.1043 104.373ZM56.263 104.113C56.0896 104.113 55.9336 104.052 55.795 103.931C55.6736 103.809 55.613 103.653 55.613 103.463V86.5626C55.613 86.3719 55.6736 86.2159 55.795 86.0946C55.9336 85.9733 56.0896 85.9126 56.263 85.9126H59.071C59.3483 85.9126 59.5563 85.9906 59.695 86.1466C59.851 86.2853 59.9463 86.3979 59.981 86.4846L64.557 94.7006L69.133 86.4846C69.185 86.3979 69.2716 86.2853 69.393 86.1466C69.5316 85.9906 69.7483 85.9126 70.043 85.9126H72.825C73.0156 85.9126 73.1716 85.9733 73.293 86.0946C73.4316 86.2159 73.501 86.3719 73.501 86.5626V103.463C73.501 103.653 73.4316 103.809 73.293 103.931C73.1716 104.052 73.0156 104.113 72.825 104.113H69.731C69.5403 104.113 69.3756 104.052 69.237 103.931C69.1156 103.809 69.055 103.653 69.055 103.463V93.7126L66.117 99.1466C66.0476 99.3026 65.9436 99.4413 65.805 99.5626C65.6663 99.6839 65.4756 99.7446 65.233 99.7446H63.881C63.6383 99.7446 63.4476 99.6839 63.309 99.5626C63.1703 99.4413 63.0576 99.3026 62.971 99.1466L60.033 93.7126V103.463C60.033 103.653 59.9723 103.809 59.851 103.931C59.7296 104.052 59.5736 104.113 59.383 104.113H56.263ZM77.7688 104.113C77.5782 104.113 77.4222 104.052 77.3008 103.931C77.1795 103.809 77.1188 103.653 77.1188 103.463V86.5626C77.1188 86.3719 77.1795 86.2159 77.3008 86.0946C77.4222 85.9733 77.5782 85.9126 77.7688 85.9126H89.7028C89.8935 85.9126 90.0495 85.9733 90.1708 86.0946C90.3095 86.2159 90.3788 86.3719 90.3788 86.5626V89.1886C90.3788 89.3793 90.3095 89.5353 90.1708 89.6566C90.0495 89.7779 89.8935 89.8386 89.7028 89.8386H81.6948V93.6606H89.1828C89.3735 93.6606 89.5295 93.7299 89.6508 93.8686C89.7895 93.9899 89.8588 94.1459 89.8588 94.3366V96.9366C89.8588 97.1099 89.7895 97.2659 89.6508 97.4046C89.5295 97.5259 89.3735 97.5866 89.1828 97.5866H81.6948V103.463C81.6948 103.653 81.6342 103.809 81.5128 103.931C81.3915 104.052 81.2355 104.113 81.0448 104.113H77.7688Z" fill="white"/>
<path d="M82 44.9663L64 52.2777" stroke="white" stroke-width="4" stroke-linecap="round"/>
<path d="M82 66.3434L64 73.6549" stroke="white" stroke-width="4" stroke-linecap="round"/>
<path d="M82 44.9663L64 37.6549" stroke="white" stroke-width="4" stroke-linecap="round"/>
<path d="M64 73.6548V52.2777" stroke="white" stroke-width="4" stroke-linecap="round"/>
<path d="M82 66.3434V44.9663" stroke="white" stroke-width="4" stroke-linecap="round"/>
<path d="M46 44.9663L64 52.2777" stroke="white" stroke-width="4" stroke-linecap="round"/>
<path d="M46 44.9663L64 52.2777" stroke="white" stroke-width="4" stroke-linecap="round"/>
<path d="M46 66.3434L64 73.6549" stroke="white" stroke-width="4" stroke-linecap="round"/>
<path d="M46 44.9663L64 37.6549" stroke="white" stroke-width="4" stroke-linecap="round"/>
<path d="M46 66.3434V44.9663" stroke="white" stroke-width="4" stroke-linecap="round"/>
</svg>
