<svg width="128" height="128" viewBox="0 0 128 128" fill="none" xmlns="http://www.w3.org/2000/svg">
<path d="M99.4782 102.512C99.4782 107.752 95.289 112 90.1213 112H37.8786C32.711 112 28.5217 107.752 28.5217 102.512V25.5582C28.5217 20.3184 32.711 16.0707 37.8786 16.0707L62.9565 16C68.1548 16 67.857 17.2873 67.857 22.5582V38.7567C67.857 44.9405 71.2039 48.2383 77.3152 48.2383H93.0991C99.5969 48.2383 99.4782 49.0506 99.4782 54.3214V102.512Z" fill="#6399D1"/>
<path d="M62.9565 16H72.3478L99.4782 43.1304V54.3214M62.9565 16L37.8786 16.0707C32.711 16.0707 28.5217 20.3184 28.5217 25.5582V102.512C28.5217 107.752 32.711 112 37.8786 112H90.1213C95.289 112 99.4782 107.752 99.4782 102.512V54.3214M62.9565 16C68.1548 16 67.857 17.2873 67.857 22.5582V38.7567C67.857 44.9405 71.2039 48.2383 77.3152 48.2383H93.0991C99.5969 48.2383 99.4782 49.0506 99.4782 54.3214" stroke="#6399D1" stroke-width="8" stroke-linecap="round" stroke-linejoin="round"/>
<path d="M64.1541 80.76C62.5074 80.76 61.0947 80.4913 59.9161 79.954C58.7547 79.4167 57.8447 78.628 57.1861 77.588C56.5447 76.548 56.1894 75.2567 56.1201 73.714C56.1027 73.0033 56.0941 72.2407 56.0941 71.426C56.0941 70.6113 56.1027 69.8313 56.1201 69.086C56.1894 67.578 56.5534 66.304 57.2121 65.264C57.8707 64.2067 58.7894 63.4093 59.9681 62.872C61.1467 62.3173 62.5421 62.04 64.1541 62.04C65.2981 62.04 66.3554 62.1873 67.3261 62.482C68.2967 62.7593 69.1461 63.1753 69.8741 63.73C70.6021 64.2673 71.1654 64.926 71.5641 65.706C71.9801 66.4687 72.1967 67.3353 72.2141 68.306C72.2314 68.462 72.1794 68.592 72.0581 68.696C71.9541 68.8 71.8241 68.852 71.6681 68.852H68.1581C67.9327 68.852 67.7594 68.8087 67.6381 68.722C67.5167 68.618 67.4127 68.436 67.3261 68.176C67.0834 67.2573 66.6847 66.6333 66.1301 66.304C65.5927 65.9573 64.9254 65.784 64.1281 65.784C63.1747 65.784 62.4207 66.0527 61.8661 66.59C61.3114 67.11 61.0081 67.9853 60.9561 69.216C60.9041 70.6373 60.9041 72.0933 60.9561 73.584C61.0081 74.8147 61.3114 75.6987 61.8661 76.236C62.4207 76.756 63.1747 77.016 64.1281 77.016C64.9254 77.016 65.6014 76.8427 66.1561 76.496C66.7107 76.1493 67.1007 75.5253 67.3261 74.624C67.3954 74.364 67.4907 74.1907 67.6121 74.104C67.7507 74 67.9327 73.948 68.1581 73.948H71.6681C71.8241 73.948 71.9541 74 72.0581 74.104C72.1794 74.208 72.2314 74.338 72.2141 74.494C72.1967 75.4647 71.9801 76.34 71.5641 77.12C71.1654 77.8827 70.6021 78.5413 69.8741 79.096C69.1461 79.6333 68.2967 80.0493 67.3261 80.344C66.3554 80.6213 65.2981 80.76 64.1541 80.76Z" fill="white"/>
</svg>
