<svg width="128" height="128" viewBox="0 0 128 128" fill="none" xmlns="http://www.w3.org/2000/svg">
<path d="M99.4782 102.512C99.4782 107.752 95.289 112 90.1213 112H37.8786C32.711 112 28.5217 107.752 28.5217 102.512V25.5582C28.5217 20.3184 32.711 16.0707 37.8786 16.0707L62.9565 16C68.1548 16 67.857 17.2873 67.857 22.5582V38.7567C67.857 44.9405 71.2039 48.2383 77.3152 48.2383H93.0991C99.5969 48.2383 99.4782 49.0506 99.4782 54.3214V102.512Z" fill="#649AD2"/>
<path d="M62.9565 16H72.3478L99.4782 43.1304V54.3214M62.9565 16L37.8786 16.0707C32.711 16.0707 28.5217 20.3184 28.5217 25.5582V102.512C28.5217 107.752 32.711 112 37.8786 112H90.1213C95.289 112 99.4782 107.752 99.4782 102.512V54.3214M62.9565 16C68.1548 16 67.857 17.2873 67.857 22.5582V38.7567C67.857 44.9405 71.2039 48.2383 77.3152 48.2383H93.0991C99.5969 48.2383 99.4782 49.0506 99.4782 54.3214" stroke="#649AD2" stroke-width="8" stroke-linecap="round" stroke-linejoin="round"/>
<path d="M46.0838 80.76C44.4371 80.76 43.0244 80.4913 41.8458 79.954C40.6844 79.4167 39.7744 78.628 39.1158 77.588C38.4744 76.548 38.1191 75.2567 38.0498 73.714C38.0324 73.0033 38.0238 72.2407 38.0238 71.426C38.0238 70.6113 38.0324 69.8313 38.0498 69.086C38.1191 67.578 38.4831 66.304 39.1418 65.264C39.8004 64.2067 40.7191 63.4093 41.8978 62.872C43.0764 62.3173 44.4718 62.04 46.0838 62.04C47.2278 62.04 48.2851 62.1873 49.2558 62.482C50.2264 62.7593 51.0758 63.1753 51.8038 63.73C52.5318 64.2673 53.0951 64.926 53.4938 65.706C53.9098 66.4687 54.1264 67.3353 54.1438 68.306C54.1611 68.462 54.1091 68.592 53.9878 68.696C53.8838 68.8 53.7538 68.852 53.5978 68.852H50.0878C49.8624 68.852 49.6891 68.8087 49.5678 68.722C49.4464 68.618 49.3424 68.436 49.2558 68.176C49.0131 67.2573 48.6144 66.6333 48.0598 66.304C47.5224 65.9573 46.8551 65.784 46.0578 65.784C45.1044 65.784 44.3504 66.0527 43.7958 66.59C43.2411 67.11 42.9378 67.9853 42.8858 69.216C42.8338 70.6373 42.8338 72.0933 42.8858 73.584C42.9378 74.8147 43.2411 75.6987 43.7958 76.236C44.3504 76.756 45.1044 77.016 46.0578 77.016C46.8551 77.016 47.5311 76.8427 48.0858 76.496C48.6404 76.1493 49.0304 75.5253 49.2558 74.624C49.3251 74.364 49.4204 74.1907 49.5418 74.104C49.6804 74 49.8624 73.948 50.0878 73.948H53.5978C53.7538 73.948 53.8838 74 53.9878 74.104C54.1091 74.208 54.1611 74.338 54.1438 74.494C54.1264 75.4647 53.9098 76.34 53.4938 77.12C53.0951 77.8827 52.5318 78.5413 51.8038 79.096C51.0758 79.6333 50.2264 80.0493 49.2558 80.344C48.2851 80.6213 47.2278 80.76 46.0838 80.76ZM57.5276 80.5C57.337 80.5 57.181 80.4393 57.0596 80.318C56.9383 80.1967 56.8776 80.0407 56.8776 79.85V62.95C56.8776 62.7593 56.9383 62.6033 57.0596 62.482C57.181 62.3607 57.337 62.3 57.5276 62.3H64.8076C66.2463 62.3 67.4943 62.5253 68.5516 62.976C69.6263 63.4093 70.4583 64.068 71.0476 64.952C71.6543 65.836 71.9576 66.954 71.9576 68.306C71.9576 69.6407 71.6543 70.7413 71.0476 71.608C70.4583 72.4747 69.6263 73.116 68.5516 73.532C67.4943 73.948 66.2463 74.156 64.8076 74.156H61.7136V79.85C61.7136 80.0407 61.6443 80.1967 61.5056 80.318C61.3843 80.4393 61.2283 80.5 61.0376 80.5H57.5276ZM61.6356 70.568H64.6776C65.423 70.568 66.0123 70.3773 66.4456 69.996C66.8963 69.6147 67.1216 69.034 67.1216 68.254C67.1216 67.5953 66.931 67.0407 66.5496 66.59C66.1683 66.1393 65.5443 65.914 64.6776 65.914H61.6356V70.568ZM75.0979 80.5C74.9073 80.5 74.7513 80.4393 74.6299 80.318C74.5086 80.1967 74.4479 80.0407 74.4479 79.85V62.95C74.4479 62.7593 74.5086 62.6033 74.6299 62.482C74.7513 62.3607 74.9073 62.3 75.0979 62.3H82.3779C83.8166 62.3 85.0646 62.5253 86.1219 62.976C87.1966 63.4093 88.0286 64.068 88.6179 64.952C89.2246 65.836 89.5279 66.954 89.5279 68.306C89.5279 69.6407 89.2246 70.7413 88.6179 71.608C88.0286 72.4747 87.1966 73.116 86.1219 73.532C85.0646 73.948 83.8166 74.156 82.3779 74.156H79.2839V79.85C79.2839 80.0407 79.2146 80.1967 79.0759 80.318C78.9546 80.4393 78.7986 80.5 78.6079 80.5H75.0979ZM79.2059 70.568H82.2479C82.9933 70.568 83.5826 70.3773 84.0159 69.996C84.4666 69.6147 84.6919 69.034 84.6919 68.254C84.6919 67.5953 84.5013 67.0407 84.1199 66.59C83.7386 66.1393 83.1146 65.914 82.2479 65.914H79.2059V70.568Z" fill="white"/>
</svg>
