<svg width="128" height="128" viewBox="0 0 128 128" fill="none" xmlns="http://www.w3.org/2000/svg">
<path d="M99.4782 102.512C99.4782 107.752 95.289 112 90.1213 112H37.8786C32.711 112 28.5217 107.752 28.5217 102.512V25.5582C28.5217 20.3184 32.711 16.0707 37.8786 16.0707L62.9565 16C68.1548 16 67.857 17.2873 67.857 22.5582V38.7567C67.857 44.9405 71.2039 48.2383 77.3152 48.2383H93.0991C99.5969 48.2383 99.4782 49.0506 99.4782 54.3214V102.512Z" fill="#964C91"/>
<path d="M62.9565 16H72.3478L99.4782 43.1304V54.3214M62.9565 16L37.8786 16.0707C32.711 16.0707 28.5217 20.3184 28.5217 25.5582V102.512C28.5217 107.752 32.711 112 37.8786 112H90.1213C95.289 112 99.4782 107.752 99.4782 102.512V54.3214M62.9565 16C68.1548 16 67.857 17.2873 67.857 22.5582V38.7567C67.857 44.9405 71.2039 48.2383 77.3152 48.2383H93.0991C99.5969 48.2383 99.4782 49.0506 99.4782 54.3214" stroke="#964C91" stroke-width="8" stroke-linecap="round" stroke-linejoin="round"/>
<path d="M55.0466 80.76C53.4 80.76 51.9873 80.4913 50.8086 79.954C49.6473 79.4167 48.7373 78.628 48.0786 77.588C47.4373 76.548 47.082 75.2567 47.0126 73.714C46.9953 73.0033 46.9866 72.2407 46.9866 71.426C46.9866 70.6113 46.9953 69.8313 47.0126 69.086C47.082 67.578 47.446 66.304 48.1046 65.264C48.7633 64.2067 49.682 63.4093 50.8606 62.872C52.0393 62.3173 53.4346 62.04 55.0466 62.04C56.1906 62.04 57.248 62.1873 58.2186 62.482C59.1893 62.7593 60.0386 63.1753 60.7666 63.73C61.4946 64.2673 62.058 64.926 62.4566 65.706C62.8726 66.4687 63.0893 67.3353 63.1066 68.306C63.124 68.462 63.072 68.592 62.9506 68.696C62.8466 68.8 62.7166 68.852 62.5606 68.852H59.0506C58.8253 68.852 58.652 68.8087 58.5306 68.722C58.4093 68.618 58.3053 68.436 58.2186 68.176C57.976 67.2573 57.5773 66.6333 57.0226 66.304C56.4853 65.9573 55.818 65.784 55.0206 65.784C54.0673 65.784 53.3133 66.0527 52.7586 66.59C52.204 67.11 51.9006 67.9853 51.8486 69.216C51.7966 70.6373 51.7966 72.0933 51.8486 73.584C51.9006 74.8147 52.204 75.6987 52.7586 76.236C53.3133 76.756 54.0673 77.016 55.0206 77.016C55.818 77.016 56.494 76.8427 57.0486 76.496C57.6033 76.1493 57.9933 75.5253 58.2186 74.624C58.288 74.364 58.3833 74.1907 58.5046 74.104C58.6433 74 58.8253 73.948 59.0506 73.948H62.5606C62.7166 73.948 62.8466 74 62.9506 74.104C63.072 74.208 63.124 74.338 63.1066 74.494C63.0893 75.4647 62.8726 76.34 62.4566 77.12C62.058 77.8827 61.4946 78.5413 60.7666 79.096C60.0386 79.6333 59.1893 80.0493 58.2186 80.344C57.248 80.6213 56.1906 80.76 55.0466 80.76ZM72.6265 80.76C70.8932 80.76 69.4545 80.5173 68.3105 80.032C67.1665 79.5293 66.2998 78.8793 65.7105 78.082C65.1212 77.2847 64.8092 76.4353 64.7745 75.534C64.7745 75.3953 64.8265 75.274 64.9305 75.17C65.0518 75.0487 65.1905 74.988 65.3465 74.988H68.6225C68.8652 74.988 69.0472 75.0313 69.1685 75.118C69.3072 75.2047 69.4285 75.3173 69.5325 75.456C69.6712 75.716 69.8618 75.9673 70.1045 76.21C70.3645 76.4527 70.6938 76.652 71.0925 76.808C71.5085 76.9467 72.0198 77.016 72.6265 77.016C73.6318 77.016 74.3858 76.86 74.8885 76.548C75.4085 76.236 75.6685 75.8113 75.6685 75.274C75.6685 74.8927 75.5298 74.5807 75.2525 74.338C74.9752 74.078 74.5245 73.8527 73.9005 73.662C73.2938 73.454 72.4792 73.246 71.4565 73.038C70.1392 72.7607 69.0125 72.4053 68.0765 71.972C67.1578 71.5213 66.4558 70.9407 65.9705 70.23C65.4852 69.502 65.2425 68.6007 65.2425 67.526C65.2425 66.4687 65.5372 65.524 66.1265 64.692C66.7332 63.86 67.5738 63.21 68.6485 62.742C69.7232 62.274 70.9972 62.04 72.4705 62.04C73.6665 62.04 74.7152 62.196 75.6165 62.508C76.5352 62.82 77.3065 63.236 77.9305 63.756C78.5545 64.276 79.0225 64.8307 79.3345 65.42C79.6638 65.992 79.8372 66.5553 79.8545 67.11C79.8545 67.2487 79.8025 67.3787 79.6985 67.5C79.5945 67.604 79.4645 67.656 79.3085 67.656H75.8765C75.6858 67.656 75.5212 67.6213 75.3825 67.552C75.2438 67.4827 75.1225 67.37 75.0185 67.214C74.9145 66.8327 74.6372 66.5033 74.1865 66.226C73.7532 65.9313 73.1812 65.784 72.4705 65.784C71.7078 65.784 71.1098 65.9227 70.6765 66.2C70.2605 66.46 70.0525 66.8673 70.0525 67.422C70.0525 67.7687 70.1652 68.072 70.3905 68.332C70.6332 68.592 71.0232 68.8173 71.5605 69.008C72.1152 69.1987 72.8692 69.398 73.8225 69.606C75.3998 69.9007 76.6738 70.2733 77.6445 70.724C78.6152 71.1573 79.3258 71.7293 79.7765 72.44C80.2272 73.1333 80.4525 74.0087 80.4525 75.066C80.4525 76.2447 80.1145 77.2673 79.4385 78.134C78.7798 78.9833 77.8612 79.6333 76.6825 80.084C75.5038 80.5347 74.1518 80.76 72.6265 80.76Z" fill="white"/>
</svg>
