<svg width="128" height="128" viewBox="0 0 128 128" fill="none" xmlns="http://www.w3.org/2000/svg">
<path d="M99.4782 102.512C99.4782 107.752 95.289 112 90.1213 112H37.8786C32.711 112 28.5217 107.752 28.5217 102.512V25.5582C28.5217 20.3184 32.711 16.0707 37.8786 16.0707L62.9565 16C68.1548 16 67.857 17.2873 67.857 22.5582V38.7567C67.857 44.9405 71.2039 48.2383 77.3152 48.2383H93.0991C99.5969 48.2383 99.4782 49.0506 99.4782 54.3214V102.512Z" fill="#808080"/>
<path d="M62.9565 16H72.3478L99.4782 43.1304V54.3214M62.9565 16L37.8786 16.0707C32.711 16.0707 28.5217 20.3184 28.5217 25.5582V102.512C28.5217 107.752 32.711 112 37.8786 112H90.1213C95.289 112 99.4782 107.752 99.4782 102.512V54.3214M62.9565 16C68.1548 16 67.857 17.2873 67.857 22.5582V38.7567C67.857 44.9405 71.2039 48.2383 77.3152 48.2383H93.0991C99.5969 48.2383 99.4782 49.0506 99.4782 54.3214" stroke="#808080" stroke-width="8" stroke-linecap="round" stroke-linejoin="round"/>
<path d="M30.0725 80.5C29.8819 80.5 29.7259 80.4393 29.6045 80.318C29.4832 80.1967 29.4225 80.0407 29.4225 79.85V62.95C29.4225 62.7593 29.4832 62.6033 29.6045 62.482C29.7259 62.3607 29.8819 62.3 30.0725 62.3H36.8325C38.5312 62.3 39.9785 62.5773 41.1745 63.132C42.3705 63.6693 43.2892 64.4667 43.9305 65.524C44.5719 66.564 44.9185 67.8553 44.9705 69.398C44.9879 70.1607 44.9965 70.828 44.9965 71.4C44.9965 71.972 44.9879 72.6307 44.9705 73.376C44.9012 74.988 44.5545 76.3227 43.9305 77.38C43.3239 78.4373 42.4312 79.226 41.2525 79.746C40.0912 80.2487 38.6612 80.5 36.9625 80.5H30.0725ZM34.0765 76.756H36.8325C37.5779 76.756 38.1932 76.6433 38.6785 76.418C39.1812 76.1753 39.5539 75.8027 39.7965 75.3C40.0565 74.7973 40.1952 74.1387 40.2125 73.324C40.2472 72.8213 40.2645 72.3707 40.2645 71.972C40.2819 71.5733 40.2819 71.1747 40.2645 70.776C40.2645 70.3773 40.2472 69.9353 40.2125 69.45C40.1779 68.2713 39.8659 67.4133 39.2765 66.876C38.7045 66.3213 37.8465 66.044 36.7025 66.044H34.0765V76.756ZM55.4699 80.76C53.8752 80.76 52.4885 80.5 51.3099 79.98C50.1312 79.46 49.2125 78.68 48.5539 77.64C47.8952 76.5827 47.5312 75.2653 47.4619 73.688C47.4445 72.9427 47.4359 72.1973 47.4359 71.452C47.4359 70.7067 47.4445 69.9527 47.4619 69.19C47.5312 67.63 47.8952 66.3213 48.5539 65.264C49.2299 64.1893 50.1572 63.3833 51.3359 62.846C52.5145 62.3087 53.8925 62.04 55.4699 62.04C57.0299 62.04 58.3992 62.3087 59.5779 62.846C60.7739 63.3833 61.7099 64.1893 62.3859 65.264C63.0619 66.3213 63.4259 67.63 63.4779 69.19C63.5125 69.9527 63.5299 70.7067 63.5299 71.452C63.5299 72.1973 63.5125 72.9427 63.4779 73.688C63.4085 75.2653 63.0445 76.5827 62.3859 77.64C61.7272 78.68 60.8085 79.46 59.6299 79.98C58.4512 80.5 57.0645 80.76 55.4699 80.76ZM55.4699 77.016C56.3885 77.016 57.1339 76.7387 57.7059 76.184C58.2952 75.6293 58.6072 74.7453 58.6419 73.532C58.6765 72.7693 58.6939 72.05 58.6939 71.374C58.6939 70.698 58.6765 69.996 58.6419 69.268C58.6072 68.4533 58.4512 67.7947 58.1739 67.292C57.9139 66.772 57.5499 66.3907 57.0819 66.148C56.6139 65.9053 56.0765 65.784 55.4699 65.784C54.8805 65.784 54.3519 65.9053 53.8839 66.148C53.4159 66.3907 53.0432 66.772 52.7659 67.292C52.4885 67.7947 52.3325 68.4533 52.2979 69.268C52.2805 69.996 52.2719 70.698 52.2719 71.374C52.2719 72.05 52.2805 72.7693 52.2979 73.532C52.3499 74.7453 52.6619 75.6293 53.2339 76.184C53.8059 76.7387 54.5512 77.016 55.4699 77.016ZM74.0056 80.76C72.359 80.76 70.9463 80.4913 69.7676 79.954C68.6063 79.4167 67.6963 78.628 67.0376 77.588C66.3963 76.548 66.041 75.2567 65.9716 73.714C65.9543 73.0033 65.9456 72.2407 65.9456 71.426C65.9456 70.6113 65.9543 69.8313 65.9716 69.086C66.041 67.578 66.405 66.304 67.0636 65.264C67.7223 64.2067 68.641 63.4093 69.8196 62.872C70.9983 62.3173 72.3936 62.04 74.0056 62.04C75.1496 62.04 76.207 62.1873 77.1776 62.482C78.1483 62.7593 78.9976 63.1753 79.7256 63.73C80.4536 64.2673 81.017 64.926 81.4156 65.706C81.8316 66.4687 82.0483 67.3353 82.0656 68.306C82.083 68.462 82.031 68.592 81.9096 68.696C81.8056 68.8 81.6756 68.852 81.5196 68.852H78.0096C77.7843 68.852 77.611 68.8087 77.4896 68.722C77.3683 68.618 77.2643 68.436 77.1776 68.176C76.935 67.2573 76.5363 66.6333 75.9816 66.304C75.4443 65.9573 74.777 65.784 73.9796 65.784C73.0263 65.784 72.2723 66.0527 71.7176 66.59C71.163 67.11 70.8596 67.9853 70.8076 69.216C70.7556 70.6373 70.7556 72.0933 70.8076 73.584C70.8596 74.8147 71.163 75.6987 71.7176 76.236C72.2723 76.756 73.0263 77.016 73.9796 77.016C74.777 77.016 75.453 76.8427 76.0076 76.496C76.5623 76.1493 76.9523 75.5253 77.1776 74.624C77.247 74.364 77.3423 74.1907 77.4636 74.104C77.6023 74 77.7843 73.948 78.0096 73.948H81.5196C81.6756 73.948 81.8056 74 81.9096 74.104C82.031 74.208 82.083 74.338 82.0656 74.494C82.0483 75.4647 81.8316 76.34 81.4156 77.12C81.017 77.8827 80.4536 78.5413 79.7256 79.096C78.9976 79.6333 78.1483 80.0493 77.1776 80.344C76.207 80.6213 75.1496 80.76 74.0056 80.76ZM83.3043 80.5C83.1483 80.5 83.0096 80.448 82.8883 80.344C82.7843 80.2227 82.7323 80.0927 82.7323 79.954C82.7323 79.902 82.741 79.85 82.7583 79.798C82.7756 79.746 82.8016 79.694 82.8363 79.642L88.5043 71.218L83.2523 63.158C83.2003 63.054 83.1743 62.95 83.1743 62.846C83.1743 62.7073 83.2263 62.586 83.3303 62.482C83.4343 62.3607 83.5643 62.3 83.7203 62.3H87.4903C87.7503 62.3 87.9496 62.3693 88.0883 62.508C88.227 62.6293 88.3223 62.742 88.3743 62.846L91.4943 67.578L94.6403 62.846C94.7096 62.742 94.8136 62.6293 94.9523 62.508C95.091 62.3693 95.2903 62.3 95.5503 62.3H99.1123C99.2683 62.3 99.3983 62.3607 99.5023 62.482C99.6236 62.586 99.6843 62.7073 99.6843 62.846C99.6843 62.9673 99.6496 63.0713 99.5803 63.158L94.3023 71.192L100.022 79.642C100.057 79.694 100.074 79.746 100.074 79.798C100.092 79.85 100.1 79.902 100.1 79.954C100.1 80.0927 100.048 80.2227 99.9443 80.344C99.8403 80.448 99.7103 80.5 99.5543 80.5H95.6803C95.4203 80.5 95.2123 80.4393 95.0563 80.318C94.9176 80.1793 94.8223 80.0667 94.7703 79.98L91.3123 74.988L87.9323 79.98C87.8803 80.0667 87.785 80.1793 87.6463 80.318C87.5076 80.4393 87.3083 80.5 87.0483 80.5H83.3043Z" fill="white"/>
</svg>
