<svg width="128" height="128" viewBox="0 0 128 128" fill="none" xmlns="http://www.w3.org/2000/svg">
<path d="M99.4782 102.512C99.4782 107.752 95.289 112 90.1213 112H37.8786C32.711 112 28.5217 107.752 28.5217 102.512V25.5582C28.5217 20.3184 32.711 16.0707 37.8786 16.0707L62.9565 16C68.1548 16 67.857 17.2873 67.857 22.5582L78.0758 31.0445L93.0991 48.2383C99.5969 48.2383 99.4782 49.0506 99.4782 54.3214V102.512Z" fill="#00B250"/>
<path d="M62.9565 16H72.3478L99.4782 43.1304V54.3214M62.9565 16L37.8786 16.0707C32.711 16.0707 28.5217 20.3184 28.5217 25.5582V102.512C28.5217 107.752 32.711 112 37.8786 112H90.1213C95.289 112 99.4782 107.752 99.4782 102.512V54.3214M62.9565 16C68.1548 16 67.857 17.2873 67.857 22.5582L78.0758 31.0445L93.0991 48.2383C99.5969 48.2383 99.4782 49.0506 99.4782 54.3214" stroke="#00B250" stroke-width="8" stroke-linecap="round" stroke-linejoin="round"/>
<path d="M35.7972 99.3125C34.5305 99.3125 33.4372 99.1059 32.5172 98.6925C31.6105 98.2659 30.9039 97.6525 30.3972 96.8525C29.9039 96.0392 29.6305 95.0525 29.5772 93.8925C29.5639 93.3192 29.5572 92.7125 29.5572 92.0725C29.5572 91.4192 29.5639 90.7992 29.5772 90.2125C29.6305 89.0792 29.9105 88.1192 30.4172 87.3325C30.9239 86.5459 31.6372 85.9459 32.5572 85.5325C33.4772 85.1192 34.5572 84.9125 35.7972 84.9125C36.7972 84.9125 37.6839 85.0392 38.4572 85.2925C39.2305 85.5325 39.8772 85.8592 40.3972 86.2725C40.9305 86.6859 41.3305 87.1392 41.5972 87.6325C41.8772 88.1259 42.0239 88.6125 42.0372 89.0925C42.0505 89.2125 42.0105 89.3125 41.9172 89.3925C41.8372 89.4725 41.7372 89.5125 41.6172 89.5125H38.6972C38.5505 89.5125 38.4372 89.4925 38.3572 89.4525C38.2905 89.3992 38.2305 89.3259 38.1772 89.2325C38.0839 89.0325 37.9439 88.8259 37.7572 88.6125C37.5839 88.3859 37.3372 88.1925 37.0172 88.0325C36.7105 87.8725 36.3039 87.7925 35.7972 87.7925C35.0372 87.7925 34.4372 87.9925 33.9972 88.3925C33.5705 88.7925 33.3372 89.4325 33.2972 90.3125C33.2572 91.4592 33.2572 92.6192 33.2972 93.7925C33.3372 94.7259 33.5839 95.3992 34.0372 95.8125C34.4905 96.2259 35.0905 96.4325 35.8372 96.4325C36.3439 96.4325 36.7905 96.3459 37.1772 96.1725C37.5772 95.9992 37.8905 95.7325 38.1172 95.3725C38.3439 94.9992 38.4572 94.5259 38.4572 93.9525V93.5725H36.5772C36.4305 93.5725 36.3039 93.5259 36.1972 93.4325C36.1039 93.3259 36.0572 93.1992 36.0572 93.0525V91.5725C36.0572 91.4259 36.1039 91.3059 36.1972 91.2125C36.3039 91.1059 36.4305 91.0525 36.5772 91.0525H41.6172C41.7639 91.0525 41.8839 91.1059 41.9772 91.2125C42.0705 91.3059 42.1172 91.4259 42.1172 91.5725V93.8525C42.1172 94.9992 41.8572 95.9792 41.3372 96.7925C40.8172 97.6059 40.0772 98.2325 39.1172 98.6725C38.1705 99.0992 37.0639 99.3125 35.7972 99.3125ZM50.1517 99.3125C48.8851 99.3125 47.7984 99.1059 46.8917 98.6925C45.9984 98.2792 45.2984 97.6725 44.7917 96.8725C44.2984 96.0725 44.0251 95.0792 43.9717 93.8925C43.9584 93.3459 43.9517 92.7592 43.9517 92.1325C43.9517 91.5059 43.9584 90.9059 43.9717 90.3325C44.0251 89.1725 44.3051 88.1925 44.8117 87.3925C45.3184 86.5792 46.0251 85.9659 46.9317 85.5525C47.8384 85.1259 48.9117 84.9125 50.1517 84.9125C51.0317 84.9125 51.8451 85.0259 52.5917 85.2525C53.3384 85.4659 53.9917 85.7859 54.5517 86.2125C55.1117 86.6259 55.5451 87.1325 55.8517 87.7325C56.1717 88.3192 56.3384 88.9859 56.3517 89.7325C56.3651 89.8525 56.3251 89.9525 56.2317 90.0325C56.1517 90.1125 56.0517 90.1525 55.9317 90.1525H53.2317C53.0584 90.1525 52.9251 90.1192 52.8317 90.0525C52.7384 89.9725 52.6584 89.8325 52.5917 89.6325C52.4051 88.9259 52.0984 88.4459 51.6717 88.1925C51.2584 87.9259 50.7451 87.7925 50.1317 87.7925C49.3984 87.7925 48.8184 87.9992 48.3917 88.4125C47.9651 88.8125 47.7317 89.4859 47.6917 90.4325C47.6517 91.5259 47.6517 92.6459 47.6917 93.7925C47.7317 94.7392 47.9651 95.4192 48.3917 95.8325C48.8184 96.2325 49.3984 96.4325 50.1317 96.4325C50.7451 96.4325 51.2651 96.2992 51.6917 96.0325C52.1184 95.7659 52.4184 95.2859 52.5917 94.5925C52.6451 94.3925 52.7184 94.2592 52.8117 94.1925C52.9184 94.1125 53.0584 94.0725 53.2317 94.0725H55.9317C56.0517 94.0725 56.1517 94.1125 56.2317 94.1925C56.3251 94.2725 56.3651 94.3725 56.3517 94.4925C56.3384 95.2392 56.1717 95.9125 55.8517 96.5125C55.5451 97.0992 55.1117 97.6059 54.5517 98.0325C53.9917 98.4459 53.3384 98.7659 52.5917 98.9925C51.8451 99.2059 51.0317 99.3125 50.1517 99.3125ZM64.1747 99.3125C62.948 99.3125 61.8814 99.1125 60.9747 98.7125C60.068 98.3125 59.3614 97.7125 58.8547 96.9125C58.348 96.0992 58.068 95.0859 58.0147 93.8725C58.0014 93.2992 57.9947 92.7259 57.9947 92.1525C57.9947 91.5792 58.0014 90.9992 58.0147 90.4125C58.068 89.2125 58.348 88.2059 58.8547 87.3925C59.3747 86.5659 60.088 85.9459 60.9947 85.5325C61.9014 85.1192 62.9614 84.9125 64.1747 84.9125C65.3747 84.9125 66.428 85.1192 67.3347 85.5325C68.2547 85.9459 68.9747 86.5659 69.4947 87.3925C70.0147 88.2059 70.2947 89.2125 70.3347 90.4125C70.3614 90.9992 70.3747 91.5792 70.3747 92.1525C70.3747 92.7259 70.3614 93.2992 70.3347 93.8725C70.2814 95.0859 70.0014 96.0992 69.4947 96.9125C68.988 97.7125 68.2814 98.3125 67.3747 98.7125C66.468 99.1125 65.4014 99.3125 64.1747 99.3125ZM64.1747 96.4325C64.8814 96.4325 65.4547 96.2192 65.8947 95.7925C66.348 95.3659 66.588 94.6859 66.6147 93.7525C66.6414 93.1659 66.6547 92.6125 66.6547 92.0925C66.6547 91.5725 66.6414 91.0325 66.6147 90.4725C66.588 89.8459 66.468 89.3392 66.2547 88.9525C66.0547 88.5525 65.7747 88.2592 65.4147 88.0725C65.0547 87.8859 64.6414 87.7925 64.1747 87.7925C63.7214 87.7925 63.3147 87.8859 62.9547 88.0725C62.5947 88.2592 62.308 88.5525 62.0947 88.9525C61.8814 89.3392 61.7614 89.8459 61.7347 90.4725C61.7214 91.0325 61.7147 91.5725 61.7147 92.0925C61.7147 92.6125 61.7214 93.1659 61.7347 93.7525C61.7747 94.6859 62.0147 95.3659 62.4547 95.7925C62.8947 96.2192 63.468 96.4325 64.1747 96.4325ZM73.193 99.1125C73.0463 99.1125 72.9263 99.0659 72.833 98.9725C72.7396 98.8792 72.693 98.7592 72.693 98.6125V85.6125C72.693 85.4659 72.7396 85.3459 72.833 85.2525C72.9263 85.1592 73.0463 85.1125 73.193 85.1125H78.393C79.6996 85.1125 80.813 85.3259 81.733 85.7525C82.653 86.1659 83.3596 86.7792 83.853 87.5925C84.3463 88.3925 84.613 89.3859 84.653 90.5725C84.6663 91.1592 84.673 91.6725 84.673 92.1125C84.673 92.5525 84.6663 93.0592 84.653 93.6325C84.5996 94.8725 84.333 95.8992 83.853 96.7125C83.3863 97.5259 82.6996 98.1325 81.793 98.5325C80.8996 98.9192 79.7996 99.1125 78.493 99.1125H73.193ZM76.273 96.2325H78.393C78.9663 96.2325 79.4396 96.1459 79.813 95.9725C80.1996 95.7859 80.4863 95.4992 80.673 95.1125C80.873 94.7259 80.9796 94.2192 80.993 93.5925C81.0196 93.2059 81.033 92.8592 81.033 92.5525C81.0463 92.2459 81.0463 91.9392 81.033 91.6325C81.033 91.3259 81.0196 90.9859 80.993 90.6125C80.9663 89.7059 80.7263 89.0459 80.273 88.6325C79.833 88.2059 79.173 87.9925 78.293 87.9925H76.273V96.2325ZM87.5094 99.1125C87.3627 99.1125 87.2427 99.0659 87.1494 98.9725C87.056 98.8792 87.0094 98.7592 87.0094 98.6125V85.6125C87.0094 85.4659 87.056 85.3459 87.1494 85.2525C87.2427 85.1592 87.3627 85.1125 87.5094 85.1125H96.8494C96.996 85.1125 97.116 85.1592 97.2094 85.2525C97.3027 85.3459 97.3494 85.4659 97.3494 85.6125V87.4925C97.3494 87.6392 97.3027 87.7592 97.2094 87.8525C97.116 87.9459 96.996 87.9925 96.8494 87.9925H90.4694V90.6925H96.4094C96.556 90.6925 96.676 90.7459 96.7694 90.8525C96.8627 90.9459 96.9094 91.0659 96.9094 91.2125V92.9525C96.9094 93.0859 96.8627 93.2059 96.7694 93.3125C96.676 93.4059 96.556 93.4525 96.4094 93.4525H90.4694V96.2325H97.0094C97.156 96.2325 97.276 96.2792 97.3694 96.3725C97.4627 96.4659 97.5094 96.5859 97.5094 96.7325V98.6125C97.5094 98.7592 97.4627 98.8792 97.3694 98.9725C97.276 99.0659 97.156 99.1125 97.0094 99.1125H87.5094Z" fill="white"/>
<path d="M82 44.9663L64 52.2777" stroke="white" stroke-width="4" stroke-linecap="round"/>
<path d="M82 66.3434L64 73.6548" stroke="white" stroke-width="4" stroke-linecap="round"/>
<path d="M82 44.9663L64 37.6549" stroke="white" stroke-width="4" stroke-linecap="round"/>
<path d="M64 73.6549V52.2777" stroke="white" stroke-width="4" stroke-linecap="round"/>
<path d="M82 66.3434V44.9662" stroke="white" stroke-width="4" stroke-linecap="round"/>
<path d="M46 44.9663L64 52.2777" stroke="white" stroke-width="4" stroke-linecap="round"/>
<path d="M46 44.9663L64 52.2777" stroke="white" stroke-width="4" stroke-linecap="round"/>
<path d="M46 66.3434L64 73.6548" stroke="white" stroke-width="4" stroke-linecap="round"/>
<path d="M46 44.9663L64 37.6549" stroke="white" stroke-width="4" stroke-linecap="round"/>
<path d="M46 66.3434V44.9662" stroke="white" stroke-width="4" stroke-linecap="round"/>
</svg>
