<svg width="128" height="128" viewBox="0 0 128 128" fill="none" xmlns="http://www.w3.org/2000/svg">
<path d="M99.4782 102.512C99.4782 107.752 95.289 112 90.1213 112H37.8786C32.711 112 28.5217 107.752 28.5217 102.512V25.5582C28.5217 20.3184 32.711 16.0707 37.8786 16.0707L62.9565 16C68.1548 16 67.857 17.2873 67.857 22.5582V38.7567C67.857 44.9405 71.2039 48.2383 77.3152 48.2383H93.0991C99.5969 48.2383 99.4782 49.0506 99.4782 54.3214V102.512Z" fill="#808080"/>
<path d="M62.9565 16H72.3478L99.4782 43.1304V54.3214M62.9565 16L37.8786 16.0707C32.711 16.0707 28.5217 20.3184 28.5217 25.5582V102.512C28.5217 107.752 32.711 112 37.8786 112H90.1213C95.289 112 99.4782 107.752 99.4782 102.512V54.3214M62.9565 16C68.1548 16 67.857 17.2873 67.857 22.5582V38.7567C67.857 44.9405 71.2039 48.2383 77.3152 48.2383H93.0991C99.5969 48.2383 99.4782 49.0506 99.4782 54.3214" stroke="#808080" stroke-width="8" stroke-linecap="round" stroke-linejoin="round"/>
<path d="M44.1829 80.5C43.9923 80.5 43.8363 80.4393 43.7149 80.318C43.5936 80.1793 43.5329 80.0233 43.5329 79.85V77.302C43.5329 77.0593 43.5763 76.86 43.6629 76.704C43.7669 76.548 43.8536 76.4353 43.9229 76.366L52.2949 66.174H44.4169C44.2436 66.174 44.0876 66.1133 43.9489 65.992C43.8276 65.8707 43.7669 65.7147 43.7669 65.524V62.95C43.7669 62.7593 43.8276 62.6033 43.9489 62.482C44.0876 62.3607 44.2436 62.3 44.4169 62.3H57.5209C57.7116 62.3 57.8676 62.3607 57.9889 62.482C58.1276 62.6033 58.1969 62.7593 58.1969 62.95V65.472C58.1969 65.6627 58.1623 65.8273 58.0929 65.966C58.0409 66.1047 57.9629 66.2347 57.8589 66.356L49.7209 76.574H57.8329C58.0236 76.574 58.1796 76.6433 58.3009 76.782C58.4396 76.9033 58.5089 77.0593 58.5089 77.25V79.85C58.5089 80.0407 58.4396 80.1967 58.3009 80.318C58.1796 80.4393 58.0236 80.5 57.8329 80.5H44.1829ZM61.9251 80.5C61.7344 80.5 61.5784 80.4393 61.4571 80.318C61.3357 80.1967 61.2751 80.0407 61.2751 79.85V62.95C61.2751 62.7593 61.3357 62.6033 61.4571 62.482C61.5784 62.3607 61.7344 62.3 61.9251 62.3H65.4091C65.5997 62.3 65.7557 62.3607 65.8771 62.482C65.9984 62.6033 66.0591 62.7593 66.0591 62.95V79.85C66.0591 80.0407 65.9984 80.1967 65.8771 80.318C65.7557 80.4393 65.5997 80.5 65.4091 80.5H61.9251ZM70.3548 80.5C70.1641 80.5 70.0081 80.4393 69.8868 80.318C69.7654 80.1967 69.7048 80.0407 69.7048 79.85V62.95C69.7048 62.7593 69.7654 62.6033 69.8868 62.482C70.0081 62.3607 70.1641 62.3 70.3548 62.3H77.6348C79.0734 62.3 80.3214 62.5253 81.3788 62.976C82.4534 63.4093 83.2854 64.068 83.8748 64.952C84.4814 65.836 84.7848 66.954 84.7848 68.306C84.7848 69.6407 84.4814 70.7413 83.8748 71.608C83.2854 72.4747 82.4534 73.116 81.3788 73.532C80.3214 73.948 79.0734 74.156 77.6348 74.156H74.5408V79.85C74.5408 80.0407 74.4714 80.1967 74.3328 80.318C74.2114 80.4393 74.0554 80.5 73.8648 80.5H70.3548ZM74.4628 70.568H77.5048C78.2501 70.568 78.8394 70.3773 79.2728 69.996C79.7234 69.6147 79.9488 69.034 79.9488 68.254C79.9488 67.5953 79.7581 67.0407 79.3768 66.59C78.9954 66.1393 78.3714 65.914 77.5048 65.914H74.4628V70.568Z" fill="white"/>
</svg>
