<svg width="128" height="128" viewBox="0 0 128 128" fill="none" xmlns="http://www.w3.org/2000/svg">
<path d="M99.4782 102.512C99.4782 107.752 95.289 112 90.1213 112H37.8786C32.711 112 28.5217 107.752 28.5217 102.512V25.5582C28.5217 20.3184 32.711 16.0707 37.8786 16.0707L62.9565 16C68.1548 16 67.857 17.2873 67.857 22.5582V38.7567C67.857 44.9405 71.2039 48.2383 77.3152 48.2383H93.0991C99.5969 48.2383 99.4782 49.0506 99.4782 54.3214V102.512Z" fill="#ABACBA"/>
<path d="M62.9565 16H72.3478L99.4782 43.1304V54.3214M62.9565 16L37.8786 16.0707C32.711 16.0707 28.5217 20.3184 28.5217 25.5582V102.512C28.5217 107.752 32.711 112 37.8786 112H90.1213C95.289 112 99.4782 107.752 99.4782 102.512V54.3214M62.9565 16C68.1548 16 67.857 17.2873 67.857 22.5582V38.7567C67.857 44.9405 71.2039 48.2383 77.3152 48.2383H93.0991C99.5969 48.2383 99.4782 49.0506 99.4782 54.3214" stroke="#ABACBA" stroke-width="8" stroke-linecap="round" stroke-linejoin="round"/>
<path d="M37.7214 80.5C37.5827 80.5 37.4527 80.448 37.3314 80.344C37.2274 80.2227 37.1754 80.0927 37.1754 79.954C37.1754 79.8673 37.1841 79.7893 37.2014 79.72L43.3114 63.028C43.3634 62.8373 43.4674 62.6727 43.6234 62.534C43.7967 62.378 44.0307 62.3 44.3254 62.3H48.1734C48.4681 62.3 48.6934 62.378 48.8494 62.534C49.0227 62.6727 49.1354 62.8373 49.1874 63.028L55.2714 79.72C55.3061 79.7893 55.3234 79.8673 55.3234 79.954C55.3234 80.0927 55.2627 80.2227 55.1414 80.344C55.0374 80.448 54.9074 80.5 54.7514 80.5H51.5534C51.2934 80.5 51.0941 80.4393 50.9554 80.318C50.8341 80.1793 50.7561 80.058 50.7214 79.954L49.7074 77.302H42.7654L41.7774 79.954C41.7427 80.058 41.6647 80.1793 41.5434 80.318C41.4221 80.4393 41.2141 80.5 40.9194 80.5H37.7214ZM43.8314 73.558H48.6674L46.2234 66.694L43.8314 73.558ZM63.8794 80.76C62.1461 80.76 60.7074 80.5173 59.5634 80.032C58.4194 79.5293 57.5528 78.8793 56.9634 78.082C56.3741 77.2847 56.0621 76.4353 56.0274 75.534C56.0274 75.3953 56.0794 75.274 56.1834 75.17C56.3048 75.0487 56.4434 74.988 56.5994 74.988H59.8754C60.1181 74.988 60.3001 75.0313 60.4214 75.118C60.5601 75.2047 60.6814 75.3173 60.7854 75.456C60.9241 75.716 61.1148 75.9673 61.3574 76.21C61.6174 76.4527 61.9468 76.652 62.3454 76.808C62.7614 76.9467 63.2728 77.016 63.8794 77.016C64.8848 77.016 65.6388 76.86 66.1414 76.548C66.6614 76.236 66.9214 75.8113 66.9214 75.274C66.9214 74.8927 66.7828 74.5807 66.5054 74.338C66.2281 74.078 65.7774 73.8527 65.1534 73.662C64.5468 73.454 63.7321 73.246 62.7094 73.038C61.3921 72.7607 60.2654 72.4053 59.3294 71.972C58.4108 71.5213 57.7088 70.9407 57.2234 70.23C56.7381 69.502 56.4954 68.6007 56.4954 67.526C56.4954 66.4687 56.7901 65.524 57.3794 64.692C57.9861 63.86 58.8268 63.21 59.9014 62.742C60.9761 62.274 62.2501 62.04 63.7234 62.04C64.9194 62.04 65.9681 62.196 66.8694 62.508C67.7881 62.82 68.5594 63.236 69.1834 63.756C69.8074 64.276 70.2754 64.8307 70.5874 65.42C70.9168 65.992 71.0901 66.5553 71.1074 67.11C71.1074 67.2487 71.0554 67.3787 70.9514 67.5C70.8474 67.604 70.7174 67.656 70.5614 67.656H67.1294C66.9388 67.656 66.7741 67.6213 66.6354 67.552C66.4968 67.4827 66.3754 67.37 66.2714 67.214C66.1674 66.8327 65.8901 66.5033 65.4394 66.226C65.0061 65.9313 64.4341 65.784 63.7234 65.784C62.9608 65.784 62.3628 65.9227 61.9294 66.2C61.5134 66.46 61.3054 66.8673 61.3054 67.422C61.3054 67.7687 61.4181 68.072 61.6434 68.332C61.8861 68.592 62.2761 68.8173 62.8134 69.008C63.3681 69.1987 64.1221 69.398 65.0754 69.606C66.6528 69.9007 67.9268 70.2733 68.8974 70.724C69.8681 71.1573 70.5788 71.7293 71.0294 72.44C71.4801 73.1333 71.7054 74.0087 71.7054 75.066C71.7054 76.2447 71.3674 77.2673 70.6914 78.134C70.0328 78.9833 69.1141 79.6333 67.9354 80.084C66.7568 80.5347 65.4048 80.76 63.8794 80.76ZM74.9583 80.5C74.7676 80.5 74.6116 80.4393 74.4903 80.318C74.3689 80.1967 74.3083 80.0407 74.3083 79.85V62.95C74.3083 62.7593 74.3689 62.6033 74.4903 62.482C74.6116 62.3607 74.7676 62.3 74.9583 62.3H82.2383C83.6769 62.3 84.9249 62.5253 85.9823 62.976C87.0569 63.4093 87.8889 64.068 88.4783 64.952C89.0849 65.836 89.3883 66.954 89.3883 68.306C89.3883 69.6407 89.0849 70.7413 88.4783 71.608C87.8889 72.4747 87.0569 73.116 85.9823 73.532C84.9249 73.948 83.6769 74.156 82.2383 74.156H79.1443V79.85C79.1443 80.0407 79.0749 80.1967 78.9363 80.318C78.8149 80.4393 78.6589 80.5 78.4683 80.5H74.9583ZM79.0663 70.568H82.1083C82.8536 70.568 83.4429 70.3773 83.8763 69.996C84.3269 69.6147 84.5523 69.034 84.5523 68.254C84.5523 67.5953 84.3616 67.0407 83.9803 66.59C83.5989 66.1393 82.9749 65.914 82.1083 65.914H79.0663V70.568Z" fill="#ABACBA"/>
</svg>
