<svg width="128" height="128" viewBox="0 0 128 128" fill="none" xmlns="http://www.w3.org/2000/svg">
<path d="M99.4782 102.512C99.4782 107.752 95.289 112 90.1213 112H37.8786C32.711 112 28.5217 107.752 28.5217 102.512V25.5582C28.5217 20.3184 32.711 16.0707 37.8786 16.0707L62.9565 16C68.1548 16 67.857 17.2873 67.857 22.5582V38.7567C67.857 44.9405 71.2039 48.2383 77.3152 48.2383H93.0991C99.5969 48.2383 99.4782 49.0506 99.4782 54.3214V102.512Z" fill="#7F7F88"/>
<path d="M62.9565 16H72.3478L99.4782 43.1304V54.3214M62.9565 16L37.8786 16.0707C32.711 16.0707 28.5217 20.3184 28.5217 25.5582V102.512C28.5217 107.752 32.711 112 37.8786 112H90.1213C95.289 112 99.4782 107.752 99.4782 102.512V54.3214M62.9565 16C68.1548 16 67.857 17.2873 67.857 22.5582V38.7567C67.857 44.9405 71.2039 48.2383 77.3152 48.2383H93.0991C99.5969 48.2383 99.4782 49.0506 99.4782 54.3214" stroke="#7F7F88" stroke-width="8" stroke-linecap="round" stroke-linejoin="round"/>
<path d="M39.0305 80.5C38.8399 80.5 38.6839 80.4393 38.5625 80.318C38.4412 80.1967 38.3805 80.0407 38.3805 79.85V62.95C38.3805 62.7593 38.4412 62.6033 38.5625 62.482C38.6839 62.3607 38.8399 62.3 39.0305 62.3H46.9605C48.4512 62.3 49.6732 62.508 50.6265 62.924C51.5799 63.34 52.2819 63.938 52.7325 64.718C53.2005 65.4807 53.4345 66.3907 53.4345 67.448C53.4345 68.072 53.3132 68.6267 53.0705 69.112C52.8452 69.58 52.5592 69.97 52.2125 70.282C51.8832 70.594 51.5712 70.8193 51.2765 70.958C51.9352 71.27 52.5159 71.7813 53.0185 72.492C53.5385 73.2027 53.7985 74.0347 53.7985 74.988C53.7985 76.132 53.5385 77.12 53.0185 77.952C52.5159 78.7667 51.7705 79.3993 50.7825 79.85C49.8119 80.2833 48.6159 80.5 47.1945 80.5H39.0305ZM43.0345 77.12H46.6745C47.4199 77.12 47.9832 76.9033 48.3645 76.47C48.7459 76.0367 48.9365 75.5427 48.9365 74.988C48.9365 74.3813 48.7372 73.87 48.3385 73.454C47.9572 73.038 47.4025 72.83 46.6745 72.83H43.0345V77.12ZM43.0345 69.528H46.4405C47.1512 69.528 47.6799 69.346 48.0265 68.982C48.3905 68.618 48.5725 68.15 48.5725 67.578C48.5725 67.0233 48.3905 66.5727 48.0265 66.226C47.6799 65.862 47.1512 65.68 46.4405 65.68H43.0345V69.528ZM55.3933 80.5C55.2546 80.5 55.1246 80.448 55.0033 80.344C54.8993 80.2227 54.8473 80.0927 54.8473 79.954C54.8473 79.8673 54.8559 79.7893 54.8733 79.72L60.9833 63.028C61.0353 62.8373 61.1393 62.6727 61.2953 62.534C61.4686 62.378 61.7026 62.3 61.9973 62.3H65.8453C66.1399 62.3 66.3653 62.378 66.5213 62.534C66.6946 62.6727 66.8073 62.8373 66.8593 63.028L72.9433 79.72C72.9779 79.7893 72.9953 79.8673 72.9953 79.954C72.9953 80.0927 72.9346 80.2227 72.8133 80.344C72.7093 80.448 72.5793 80.5 72.4233 80.5H69.2253C68.9653 80.5 68.7659 80.4393 68.6273 80.318C68.5059 80.1793 68.4279 80.058 68.3933 79.954L67.3793 77.302H60.4373L59.4493 79.954C59.4146 80.058 59.3366 80.1793 59.2153 80.318C59.0939 80.4393 58.8859 80.5 58.5913 80.5H55.3933ZM61.5033 73.558H66.3393L63.8953 66.694L61.5033 73.558ZM75.6946 80.5C75.5039 80.5 75.3479 80.4393 75.2266 80.318C75.1053 80.1967 75.0446 80.0407 75.0446 79.85V62.95C75.0446 62.7593 75.1053 62.6033 75.2266 62.482C75.3479 62.3607 75.5039 62.3 75.6946 62.3H78.9706C79.1613 62.3 79.3173 62.3607 79.4386 62.482C79.5599 62.6033 79.6206 62.7593 79.6206 62.95V68.722L84.4306 62.794C84.4999 62.69 84.6126 62.586 84.7686 62.482C84.9419 62.3607 85.1673 62.3 85.4446 62.3H89.1886C89.3446 62.3 89.4746 62.3607 89.5786 62.482C89.6826 62.586 89.7346 62.7073 89.7346 62.846C89.7346 62.9673 89.6999 63.0713 89.6306 63.158L83.4166 71.01L90.1246 79.642C90.1939 79.7113 90.2286 79.8153 90.2286 79.954C90.2286 80.0927 90.1679 80.2227 90.0466 80.344C89.9426 80.448 89.8213 80.5 89.6826 80.5H85.8086C85.4966 80.5 85.2539 80.4307 85.0806 80.292C84.9246 80.1533 84.8206 80.0493 84.7686 79.98L79.6206 73.558V79.85C79.6206 80.0407 79.5599 80.1967 79.4386 80.318C79.3173 80.4393 79.1613 80.5 78.9706 80.5H75.6946Z" fill="white"/>
</svg>
