<svg width="128" height="128" viewBox="0 0 128 128" fill="none" xmlns="http://www.w3.org/2000/svg">
<path d="M99.4782 102.512C99.4782 107.752 95.289 112 90.1213 112H37.8786C32.711 112 28.5217 107.752 28.5217 102.512V25.5582C28.5217 20.3184 32.711 16.0707 37.8786 16.0707L62.9565 16C68.1548 16 67.857 17.2873 67.857 22.5582V38.7567C67.857 44.9405 71.2039 48.2383 77.3152 48.2383H93.0991C99.5969 48.2383 99.4782 49.0506 99.4782 54.3214V102.512Z" fill="#ABACBA"/>
<path d="M62.9565 16H72.3478L99.4782 43.1304V54.3214M62.9565 16L37.8786 16.0707C32.711 16.0707 28.5217 20.3184 28.5217 25.5582V102.512C28.5217 107.752 32.711 112 37.8786 112H90.1213C95.289 112 99.4782 107.752 99.4782 102.512V54.3214M62.9565 16C68.1548 16 67.857 17.2873 67.857 22.5582V38.7567C67.857 44.9405 71.2039 48.2383 77.3152 48.2383H93.0991C99.5969 48.2383 99.4782 49.0506 99.4782 54.3214" stroke="#ABACBA" stroke-width="8" stroke-linecap="round" stroke-linejoin="round"/>
<path d="M40.3763 80.5C40.1856 80.5 40.0296 80.4393 39.9083 80.318C39.7869 80.1967 39.7263 80.0407 39.7263 79.85V62.95C39.7263 62.7593 39.7869 62.6033 39.9083 62.482C40.0296 62.3607 40.1856 62.3 40.3763 62.3H48.3063C49.7969 62.3 51.0189 62.508 51.9723 62.924C52.9256 63.34 53.6276 63.938 54.0783 64.718C54.5463 65.4807 54.7803 66.3907 54.7803 67.448C54.7803 68.072 54.6589 68.6267 54.4163 69.112C54.1909 69.58 53.9049 69.97 53.5583 70.282C53.2289 70.594 52.9169 70.8193 52.6223 70.958C53.2809 71.27 53.8616 71.7813 54.3643 72.492C54.8843 73.2027 55.1443 74.0347 55.1443 74.988C55.1443 76.132 54.8843 77.12 54.3643 77.952C53.8616 78.7667 53.1163 79.3993 52.1283 79.85C51.1576 80.2833 49.9616 80.5 48.5403 80.5H40.3763ZM44.3803 77.12H48.0203C48.7656 77.12 49.3289 76.9033 49.7103 76.47C50.0916 76.0367 50.2823 75.5427 50.2823 74.988C50.2823 74.3813 50.0829 73.87 49.6843 73.454C49.3029 73.038 48.7483 72.83 48.0203 72.83H44.3803V77.12ZM44.3803 69.528H47.7863C48.4969 69.528 49.0256 69.346 49.3723 68.982C49.7363 68.618 49.9183 68.15 49.9183 67.578C49.9183 67.0233 49.7363 66.5727 49.3723 66.226C49.0256 65.862 48.4969 65.68 47.7863 65.68H44.3803V69.528ZM56.739 80.5C56.6003 80.5 56.4703 80.448 56.349 80.344C56.245 80.2227 56.193 80.0927 56.193 79.954C56.193 79.8673 56.2017 79.7893 56.219 79.72L62.329 63.028C62.381 62.8373 62.485 62.6727 62.641 62.534C62.8143 62.378 63.0483 62.3 63.343 62.3H67.191C67.4857 62.3 67.711 62.378 67.867 62.534C68.0403 62.6727 68.153 62.8373 68.205 63.028L74.289 79.72C74.3237 79.7893 74.341 79.8673 74.341 79.954C74.341 80.0927 74.2803 80.2227 74.159 80.344C74.055 80.448 73.925 80.5 73.769 80.5H70.571C70.311 80.5 70.1117 80.4393 69.973 80.318C69.8517 80.1793 69.7737 80.058 69.739 79.954L68.725 77.302H61.783L60.795 79.954C60.7603 80.058 60.6823 80.1793 60.561 80.318C60.4397 80.4393 60.2317 80.5 59.937 80.5H56.739ZM62.849 73.558H67.685L65.241 66.694L62.849 73.558ZM79.1908 80.5C79.0001 80.5 78.8441 80.4393 78.7228 80.318C78.6015 80.1967 78.5408 80.0407 78.5408 79.85V66.382H73.9128C73.7221 66.382 73.5661 66.3213 73.4448 66.2C73.3235 66.0613 73.2628 65.9053 73.2628 65.732V62.95C73.2628 62.7593 73.3235 62.6033 73.4448 62.482C73.5661 62.3607 73.7221 62.3 73.9128 62.3H87.9008C88.0915 62.3 88.2475 62.3607 88.3688 62.482C88.4901 62.6033 88.5508 62.7593 88.5508 62.95V65.732C88.5508 65.9053 88.4901 66.0613 88.3688 66.2C88.2475 66.3213 88.0915 66.382 87.9008 66.382H83.2728V79.85C83.2728 80.0407 83.2121 80.1967 83.0908 80.318C82.9695 80.4393 82.8135 80.5 82.6228 80.5H79.1908Z" fill="#ABACBA"/>
</svg>
