<svg width="128" height="128" viewBox="0 0 128 128" fill="none" xmlns="http://www.w3.org/2000/svg">
<path d="M99.4782 102.512C99.4782 107.752 95.289 112 90.1213 112H37.8786C32.711 112 28.5217 107.752 28.5217 102.512V25.5582C28.5217 20.3184 32.711 16.0707 37.8786 16.0707L62.9565 16C68.1548 16 67.857 17.2873 67.857 22.5582L78.0758 31.0445L93.0991 48.2383C99.5969 48.2383 99.4782 49.0506 99.4782 54.3214V102.512Z" fill="#EB7700"/>
<path d="M62.9565 16H72.3478L99.4782 43.1304V54.3214M62.9565 16L37.8786 16.0707C32.711 16.0707 28.5217 20.3184 28.5217 25.5582V102.512C28.5217 107.752 32.711 112 37.8786 112H90.1213C95.289 112 99.4782 107.752 99.4782 102.512V54.3214M62.9565 16C68.1548 16 67.857 17.2873 67.857 22.5582L78.0758 31.0445L93.0991 48.2383C99.5969 48.2383 99.4782 49.0506 99.4782 54.3214" stroke="#EB7700" stroke-width="8" stroke-linecap="round" stroke-linejoin="round"/>
<path d="M31.6598 99.1125C31.5131 99.1125 31.3931 99.0659 31.2998 98.9725C31.2064 98.8792 31.1598 98.7592 31.1598 98.6125V85.6125C31.1598 85.4659 31.2064 85.3459 31.2998 85.2525C31.3931 85.1592 31.5131 85.1125 31.6598 85.1125H37.7598C38.9064 85.1125 39.8464 85.2725 40.5798 85.5925C41.3131 85.9125 41.8531 86.3725 42.1998 86.9725C42.5598 87.5592 42.7398 88.2592 42.7398 89.0725C42.7398 89.5525 42.6464 89.9792 42.4598 90.3525C42.2864 90.7125 42.0664 91.0125 41.7998 91.2525C41.5464 91.4925 41.3064 91.6659 41.0798 91.7725C41.5864 92.0125 42.0331 92.4059 42.4198 92.9525C42.8198 93.4992 43.0198 94.1392 43.0198 94.8725C43.0198 95.7525 42.8198 96.5125 42.4198 97.1525C42.0331 97.7792 41.4598 98.2659 40.6998 98.6125C39.9531 98.9459 39.0331 99.1125 37.9398 99.1125H31.6598ZM34.7398 96.5125H37.5398C38.1131 96.5125 38.5464 96.3459 38.8398 96.0125C39.1331 95.6792 39.2798 95.2992 39.2798 94.8725C39.2798 94.4059 39.1264 94.0125 38.8198 93.6925C38.5264 93.3725 38.0998 93.2125 37.5398 93.2125H34.7398V96.5125ZM34.7398 90.6725H37.3598C37.9064 90.6725 38.3131 90.5325 38.5798 90.2525C38.8598 89.9725 38.9998 89.6125 38.9998 89.1725C38.9998 88.7459 38.8598 88.3992 38.5798 88.1325C38.3131 87.8525 37.9064 87.7125 37.3598 87.7125H34.7398V90.6725ZM45.7418 99.1125C45.5951 99.1125 45.4751 99.0659 45.3818 98.9725C45.2885 98.8792 45.2418 98.7592 45.2418 98.6125V85.6125C45.2418 85.4659 45.2885 85.3459 45.3818 85.2525C45.4751 85.1592 45.5951 85.1125 45.7418 85.1125H48.3818C48.5151 85.1125 48.6285 85.1592 48.7218 85.2525C48.8285 85.3459 48.8818 85.4659 48.8818 85.6125V96.0925H54.9218C55.0685 96.0925 55.1885 96.1459 55.2818 96.2525C55.3885 96.3459 55.4418 96.4659 55.4418 96.6125V98.6125C55.4418 98.7592 55.3885 98.8792 55.2818 98.9725C55.1885 99.0659 55.0685 99.1125 54.9218 99.1125H45.7418ZM57.6754 99.1125C57.5287 99.1125 57.4087 99.0659 57.3154 98.9725C57.2221 98.8792 57.1754 98.7592 57.1754 98.6125V85.6125C57.1754 85.4659 57.2221 85.3459 57.3154 85.2525C57.4087 85.1592 57.5287 85.1125 57.6754 85.1125H67.0154C67.1621 85.1125 67.2821 85.1592 67.3754 85.2525C67.4687 85.3459 67.5154 85.4659 67.5154 85.6125V87.4925C67.5154 87.6392 67.4687 87.7592 67.3754 87.8525C67.2821 87.9459 67.1621 87.9925 67.0154 87.9925H60.6354V90.6925H66.5754C66.7221 90.6925 66.8421 90.7459 66.9354 90.8525C67.0287 90.9459 67.0754 91.0659 67.0754 91.2125V92.9525C67.0754 93.0859 67.0287 93.2059 66.9354 93.3125C66.8421 93.4059 66.7221 93.4525 66.5754 93.4525H60.6354V96.2325H67.1754C67.3221 96.2325 67.4421 96.2792 67.5354 96.3725C67.6287 96.4659 67.6754 96.5859 67.6754 96.7325V98.6125C67.6754 98.7592 67.6287 98.8792 67.5354 98.9725C67.4421 99.0659 67.3221 99.1125 67.1754 99.1125H57.6754ZM70.4488 99.1125C70.3022 99.1125 70.1822 99.0659 70.0888 98.9725C69.9955 98.8792 69.9488 98.7592 69.9488 98.6125V85.6125C69.9488 85.4659 69.9955 85.3459 70.0888 85.2525C70.1822 85.1592 70.3022 85.1125 70.4488 85.1125H72.5688C72.7955 85.1125 72.9555 85.1659 73.0488 85.2725C73.1555 85.3659 73.2222 85.4392 73.2488 85.4925L78.1288 93.1925V85.6125C78.1288 85.4659 78.1755 85.3459 78.2688 85.2525C78.3622 85.1592 78.4822 85.1125 78.6288 85.1125H81.0288C81.1755 85.1125 81.2955 85.1592 81.3888 85.2525C81.4822 85.3459 81.5288 85.4659 81.5288 85.6125V98.6125C81.5288 98.7459 81.4822 98.8659 81.3888 98.9725C81.2955 99.0659 81.1755 99.1125 81.0288 99.1125H78.8888C78.6755 99.1125 78.5155 99.0592 78.4088 98.9525C78.3155 98.8459 78.2555 98.7725 78.2288 98.7325L73.3488 91.3325V98.6125C73.3488 98.7592 73.3022 98.8792 73.2088 98.9725C73.1155 99.0659 72.9955 99.1125 72.8488 99.1125H70.4488ZM84.8238 99.1125C84.6772 99.1125 84.5572 99.0659 84.4638 98.9725C84.3705 98.8792 84.3238 98.7592 84.3238 98.6125V85.6125C84.3238 85.4659 84.3705 85.3459 84.4638 85.2525C84.5572 85.1592 84.6772 85.1125 84.8238 85.1125H90.0238C91.3305 85.1125 92.4438 85.3259 93.3638 85.7525C94.2838 86.1659 94.9905 86.7792 95.4838 87.5925C95.9772 88.3925 96.2438 89.3859 96.2838 90.5725C96.2972 91.1592 96.3038 91.6725 96.3038 92.1125C96.3038 92.5525 96.2972 93.0592 96.2838 93.6325C96.2305 94.8725 95.9638 95.8992 95.4838 96.7125C95.0172 97.5259 94.3305 98.1325 93.4238 98.5325C92.5305 98.9192 91.4305 99.1125 90.1238 99.1125H84.8238ZM87.9038 96.2325H90.0238C90.5972 96.2325 91.0705 96.1459 91.4438 95.9725C91.8305 95.7859 92.1172 95.4992 92.3038 95.1125C92.5038 94.7259 92.6105 94.2192 92.6238 93.5925C92.6505 93.2059 92.6638 92.8592 92.6638 92.5525C92.6772 92.2459 92.6772 91.9392 92.6638 91.6325C92.6638 91.3259 92.6505 90.9859 92.6238 90.6125C92.5972 89.7059 92.3572 89.0459 91.9038 88.6325C91.4638 88.2059 90.8038 87.9925 89.9238 87.9925H87.9038V96.2325Z" fill="#ABACBA"/>
<path d="M82 44.9663L64 52.2777" stroke="#ABACBA" stroke-width="4" stroke-linecap="round"/>
<path d="M82 66.3434L64 73.6548" stroke="#ABACBA" stroke-width="4" stroke-linecap="round"/>
<path d="M82 44.9663L64 37.6549" stroke="#ABACBA" stroke-width="4" stroke-linecap="round"/>
<path d="M64 73.6549V52.2777" stroke="#ABACBA" stroke-width="4" stroke-linecap="round"/>
<path d="M82 66.3434V44.9662" stroke="#ABACBA" stroke-width="4" stroke-linecap="round"/>
<path d="M46 44.9663L64 52.2777" stroke="#ABACBA" stroke-width="4" stroke-linecap="round"/>
<path d="M46 44.9663L64 52.2777" stroke="#ABACBA" stroke-width="4" stroke-linecap="round"/>
<path d="M46 66.3434L64 73.6548" stroke="#ABACBA" stroke-width="4" stroke-linecap="round"/>
<path d="M46 44.9663L64 37.6549" stroke="#ABACBA" stroke-width="4" stroke-linecap="round"/>
<path d="M46 66.3434V44.9662" stroke="#ABACBA" stroke-width="4" stroke-linecap="round"/>
</svg>
