<svg width="128" height="128" viewBox="0 0 128 128" fill="none" xmlns="http://www.w3.org/2000/svg">
<path d="M99.4782 102.512C99.4782 107.752 95.289 112 90.1213 112H37.8786C32.711 112 28.5217 107.752 28.5217 102.512V25.5582C28.5217 20.3184 32.711 16.0707 37.8786 16.0707L62.9565 16C68.1548 16 67.857 17.2873 67.857 22.5582V38.7567C67.857 44.9405 71.2039 48.2383 77.3152 48.2383H93.0991C99.5969 48.2383 99.4782 49.0506 99.4782 54.3214V102.512Z" fill="#ABACBA"/>
<path d="M62.9565 16H72.3478L99.4782 43.1304V54.3214M62.9565 16L37.8786 16.0707C32.711 16.0707 28.5217 20.3184 28.5217 25.5582V102.512C28.5217 107.752 32.711 112 37.8786 112H90.1213C95.289 112 99.4782 107.752 99.4782 102.512V54.3214M62.9565 16C68.1548 16 67.857 17.2873 67.857 22.5582V38.7567C67.857 44.9405 71.2039 48.2383 77.3152 48.2383H93.0991C99.5969 48.2383 99.4782 49.0506 99.4782 54.3214" stroke="#ABACBA" stroke-width="8" stroke-linecap="round" stroke-linejoin="round"/>
<path d="M46.8377 80.76C45.191 80.76 43.7783 80.4913 42.5997 79.954C41.4383 79.4167 40.5283 78.628 39.8697 77.588C39.2283 76.548 38.873 75.2567 38.8037 73.714C38.7863 73.0033 38.7777 72.2407 38.7777 71.426C38.7777 70.6113 38.7863 69.8313 38.8037 69.086C38.873 67.578 39.237 66.304 39.8957 65.264C40.5543 64.2067 41.473 63.4093 42.6517 62.872C43.8303 62.3173 45.2257 62.04 46.8377 62.04C47.9817 62.04 49.039 62.1873 50.0097 62.482C50.9803 62.7593 51.8297 63.1753 52.5577 63.73C53.2857 64.2673 53.849 64.926 54.2477 65.706C54.6637 66.4687 54.8803 67.3353 54.8977 68.306C54.915 68.462 54.863 68.592 54.7417 68.696C54.6377 68.8 54.5077 68.852 54.3517 68.852H50.8417C50.6163 68.852 50.443 68.8087 50.3217 68.722C50.2003 68.618 50.0963 68.436 50.0097 68.176C49.767 67.2573 49.3683 66.6333 48.8137 66.304C48.2763 65.9573 47.609 65.784 46.8117 65.784C45.8583 65.784 45.1043 66.0527 44.5497 66.59C43.995 67.11 43.6917 67.9853 43.6397 69.216C43.5877 70.6373 43.5877 72.0933 43.6397 73.584C43.6917 74.8147 43.995 75.6987 44.5497 76.236C45.1043 76.756 45.8583 77.016 46.8117 77.016C47.609 77.016 48.285 76.8427 48.8397 76.496C49.3943 76.1493 49.7843 75.5253 50.0097 74.624C50.079 74.364 50.1743 74.1907 50.2957 74.104C50.4343 74 50.6163 73.948 50.8417 73.948H54.3517C54.5077 73.948 54.6377 74 54.7417 74.104C54.863 74.208 54.915 74.338 54.8977 74.494C54.8803 75.4647 54.6637 76.34 54.2477 77.12C53.849 77.8827 53.2857 78.5413 52.5577 79.096C51.8297 79.6333 50.9803 80.0493 50.0097 80.344C49.039 80.6213 47.9817 80.76 46.8377 80.76ZM58.2815 80.5C58.0909 80.5 57.9349 80.4393 57.8135 80.318C57.6922 80.1967 57.6315 80.0407 57.6315 79.85V62.95C57.6315 62.7593 57.6922 62.6033 57.8135 62.482C57.9349 62.3607 58.0909 62.3 58.2815 62.3H70.2155C70.4062 62.3 70.5622 62.3607 70.6835 62.482C70.8222 62.6033 70.8915 62.7593 70.8915 62.95V65.576C70.8915 65.7667 70.8222 65.9227 70.6835 66.044C70.5622 66.1653 70.4062 66.226 70.2155 66.226H62.2075V70.048H69.6955C69.8862 70.048 70.0422 70.1173 70.1635 70.256C70.3022 70.3773 70.3715 70.5333 70.3715 70.724V73.324C70.3715 73.4973 70.3022 73.6533 70.1635 73.792C70.0422 73.9133 69.8862 73.974 69.6955 73.974H62.2075V79.85C62.2075 80.0407 62.1469 80.1967 62.0255 80.318C61.9042 80.4393 61.7482 80.5 61.5575 80.5H58.2815ZM81.0654 80.76C79.4188 80.76 77.9974 80.4913 76.8014 79.954C75.6228 79.3993 74.7041 78.602 74.0454 77.562C73.4041 76.5047 73.0488 75.222 72.9794 73.714C72.9621 72.9687 72.9534 72.18 72.9534 71.348C72.9534 70.4987 72.9621 69.6927 72.9794 68.93C73.0488 67.4567 73.4128 66.2087 74.0714 65.186C74.7301 64.1633 75.6574 63.3833 76.8534 62.846C78.0494 62.3087 79.4534 62.04 81.0654 62.04C82.3654 62.04 83.5181 62.2047 84.5234 62.534C85.5288 62.846 86.3694 63.2707 87.0454 63.808C87.7388 64.3453 88.2588 64.9347 88.6054 65.576C88.9694 66.2173 89.1601 66.85 89.1774 67.474C89.1948 67.63 89.1428 67.76 89.0214 67.864C88.9174 67.968 88.7874 68.02 88.6314 68.02H84.8354C84.6448 68.02 84.4974 67.994 84.3934 67.942C84.3068 67.8727 84.2288 67.7773 84.1594 67.656C84.0381 67.396 83.8561 67.1273 83.6134 66.85C83.3881 66.5553 83.0674 66.304 82.6514 66.096C82.2528 65.888 81.7241 65.784 81.0654 65.784C80.0774 65.784 79.2974 66.044 78.7254 66.564C78.1708 67.084 77.8674 67.916 77.8154 69.06C77.7634 70.5507 77.7634 72.0587 77.8154 73.584C77.8674 74.7973 78.1881 75.6727 78.7774 76.21C79.3668 76.7473 80.1468 77.016 81.1174 77.016C81.7761 77.016 82.3568 76.9033 82.8594 76.678C83.3794 76.4527 83.7868 76.106 84.0814 75.638C84.3761 75.1527 84.5234 74.5373 84.5234 73.792V73.298H82.0794C81.8888 73.298 81.7241 73.2373 81.5854 73.116C81.4641 72.9773 81.4034 72.8127 81.4034 72.622V70.698C81.4034 70.5073 81.4641 70.3513 81.5854 70.23C81.7241 70.0913 81.8888 70.022 82.0794 70.022H88.6314C88.8221 70.022 88.9781 70.0913 89.0994 70.23C89.2208 70.3513 89.2814 70.5073 89.2814 70.698V73.662C89.2814 75.1527 88.9434 76.4267 88.2674 77.484C87.5914 78.5413 86.6294 79.356 85.3814 79.928C84.1508 80.4827 82.7121 80.76 81.0654 80.76Z" fill="#ABACBA"/>
</svg>
