<svg width="128" height="128" viewBox="0 0 128 128" fill="none" xmlns="http://www.w3.org/2000/svg">
<path d="M99.4782 102.512C99.4782 107.752 95.289 112 90.1213 112H37.8786C32.711 112 28.5217 107.752 28.5217 102.512V25.5582C28.5217 20.3184 32.711 16.0707 37.8786 16.0707L62.9565 16C68.1548 16 67.857 17.2873 67.857 22.5582V38.7567C67.857 44.9405 71.2039 48.2383 77.3152 48.2383H93.0991C99.5969 48.2383 99.4782 49.0506 99.4782 54.3214V102.512Z" fill="#ABACBA"/>
<path d="M62.9565 16H72.3478L99.4782 43.1304V54.3214M62.9565 16L37.8786 16.0707C32.711 16.0707 28.5217 20.3184 28.5217 25.5582V102.512C28.5217 107.752 32.711 112 37.8786 112H90.1213C95.289 112 99.4782 107.752 99.4782 102.512V54.3214M62.9565 16C68.1548 16 67.857 17.2873 67.857 22.5582V38.7567C67.857 44.9405 71.2039 48.2383 77.3152 48.2383H93.0991C99.5969 48.2383 99.4782 49.0506 99.4782 54.3214" stroke="#ABACBA" stroke-width="8" stroke-linecap="round" stroke-linejoin="round"/>
<path d="M39.068 78.74C37.548 78.74 36.244 78.492 35.156 77.996C34.084 77.5 33.244 76.772 32.636 75.812C32.044 74.852 31.716 73.66 31.652 72.236C31.636 71.58 31.628 70.876 31.628 70.124C31.628 69.372 31.636 68.652 31.652 67.964C31.716 66.572 32.052 65.396 32.66 64.436C33.268 63.46 34.116 62.724 35.204 62.228C36.292 61.716 37.58 61.46 39.068 61.46C40.124 61.46 41.1 61.596 41.996 61.868C42.892 62.124 43.676 62.508 44.348 63.02C45.02 63.516 45.54 64.124 45.908 64.844C46.292 65.548 46.492 66.348 46.508 67.244C46.524 67.388 46.476 67.508 46.364 67.604C46.268 67.7 46.148 67.748 46.004 67.748H42.764C42.556 67.748 42.396 67.708 42.284 67.628C42.172 67.532 42.076 67.364 41.996 67.124C41.772 66.276 41.404 65.7 40.892 65.396C40.396 65.076 39.78 64.916 39.044 64.916C38.164 64.916 37.468 65.164 36.956 65.66C36.444 66.14 36.164 66.948 36.116 68.084C36.068 69.396 36.068 70.74 36.116 72.116C36.164 73.252 36.444 74.068 36.956 74.564C37.468 75.044 38.164 75.284 39.044 75.284C39.78 75.284 40.404 75.124 40.916 74.804C41.428 74.484 41.788 73.908 41.996 73.076C42.06 72.836 42.148 72.676 42.26 72.596C42.388 72.5 42.556 72.452 42.764 72.452H46.004C46.148 72.452 46.268 72.5 46.364 72.596C46.476 72.692 46.524 72.812 46.508 72.956C46.492 73.852 46.292 74.66 45.908 75.38C45.54 76.084 45.02 76.692 44.348 77.204C43.676 77.7 42.892 78.084 41.996 78.356C41.1 78.612 40.124 78.74 39.068 78.74ZM55.8956 78.74C54.4236 78.74 53.1436 78.5 52.0556 78.02C50.9676 77.54 50.1196 76.82 49.5116 75.86C48.9036 74.884 48.5676 73.668 48.5036 72.212C48.4876 71.524 48.4796 70.836 48.4796 70.148C48.4796 69.46 48.4876 68.764 48.5036 68.06C48.5676 66.62 48.9036 65.412 49.5116 64.436C50.1356 63.444 50.9916 62.7 52.0796 62.204C53.1676 61.708 54.4396 61.46 55.8956 61.46C57.3356 61.46 58.5996 61.708 59.6876 62.204C60.7916 62.7 61.6556 63.444 62.2796 64.436C62.9036 65.412 63.2396 66.62 63.2876 68.06C63.3196 68.764 63.3356 69.46 63.3356 70.148C63.3356 70.836 63.3196 71.524 63.2876 72.212C63.2236 73.668 62.8876 74.884 62.2796 75.86C61.6716 76.82 60.8236 77.54 59.7356 78.02C58.6476 78.5 57.3676 78.74 55.8956 78.74ZM55.8956 75.284C56.7436 75.284 57.4316 75.028 57.9596 74.516C58.5036 74.004 58.7916 73.188 58.8236 72.068C58.8556 71.364 58.8716 70.7 58.8716 70.076C58.8716 69.452 58.8556 68.804 58.8236 68.132C58.7916 67.38 58.6476 66.772 58.3916 66.308C58.1516 65.828 57.8156 65.476 57.3836 65.252C56.9516 65.028 56.4556 64.916 55.8956 64.916C55.3516 64.916 54.8636 65.028 54.4316 65.252C53.9996 65.476 53.6556 65.828 53.3996 66.308C53.1436 66.772 52.9996 67.38 52.9676 68.132C52.9516 68.804 52.9436 69.452 52.9436 70.076C52.9436 70.7 52.9516 71.364 52.9676 72.068C53.0156 73.188 53.3036 74.004 53.8316 74.516C54.3596 75.028 55.0476 75.284 55.8956 75.284ZM66.7175 78.5C66.5415 78.5 66.3975 78.444 66.2855 78.332C66.1735 78.22 66.1175 78.076 66.1175 77.9V62.3C66.1175 62.124 66.1735 61.98 66.2855 61.868C66.3975 61.756 66.5415 61.7 66.7175 61.7H69.2615C69.5335 61.7 69.7255 61.764 69.8375 61.892C69.9655 62.004 70.0455 62.092 70.0775 62.156L75.9335 71.396V62.3C75.9335 62.124 75.9895 61.98 76.1015 61.868C76.2135 61.756 76.3575 61.7 76.5335 61.7H79.4135C79.5895 61.7 79.7335 61.756 79.8455 61.868C79.9575 61.98 80.0135 62.124 80.0135 62.3V77.9C80.0135 78.06 79.9575 78.204 79.8455 78.332C79.7335 78.444 79.5895 78.5 79.4135 78.5H76.8455C76.5895 78.5 76.3975 78.436 76.2695 78.308C76.1575 78.18 76.0855 78.092 76.0535 78.044L70.1975 69.164V77.9C70.1975 78.076 70.1415 78.22 70.0295 78.332C69.9175 78.444 69.7735 78.5 69.5975 78.5H66.7175ZM83.9675 78.5C83.7915 78.5 83.6475 78.444 83.5355 78.332C83.4235 78.22 83.3675 78.076 83.3675 77.9V62.3C83.3675 62.124 83.4235 61.98 83.5355 61.868C83.6475 61.756 83.7915 61.7 83.9675 61.7H94.9835C95.1595 61.7 95.3035 61.756 95.4155 61.868C95.5435 61.98 95.6075 62.124 95.6075 62.3V64.724C95.6075 64.9 95.5435 65.044 95.4155 65.156C95.3035 65.268 95.1595 65.324 94.9835 65.324H87.5915V68.852H94.5035C94.6795 68.852 94.8235 68.916 94.9355 69.044C95.0635 69.156 95.1275 69.3 95.1275 69.476V71.876C95.1275 72.036 95.0635 72.18 94.9355 72.308C94.8235 72.42 94.6795 72.476 94.5035 72.476H87.5915V77.9C87.5915 78.076 87.5355 78.22 87.4235 78.332C87.3115 78.444 87.1675 78.5 86.9915 78.5H83.9675Z" fill="white"/>
</svg>
