<svg width="128" height="128" viewBox="0 0 128 128" fill="none" xmlns="http://www.w3.org/2000/svg">
<path d="M99.4782 102.512C99.4782 107.752 95.289 112 90.1213 112H37.8786C32.711 112 28.5217 107.752 28.5217 102.512V25.5582C28.5217 20.3184 32.711 16.0707 37.8786 16.0707L62.9565 16C68.1548 16 67.857 17.2873 67.857 22.5582V38.7567C67.857 44.9405 71.2039 48.2383 77.3152 48.2383H93.0991C99.5969 48.2383 99.4782 49.0506 99.4782 54.3214V102.512Z" fill="#808080"/>
<path d="M62.9565 16H72.3478L99.4782 43.1304V54.3214M62.9565 16L37.8786 16.0707C32.711 16.0707 28.5217 20.3184 28.5217 25.5582V102.512C28.5217 107.752 32.711 112 37.8786 112H90.1213C95.289 112 99.4782 107.752 99.4782 102.512V54.3214M62.9565 16C68.1548 16 67.857 17.2873 67.857 22.5582V38.7567C67.857 44.9405 71.2039 48.2383 77.3152 48.2383H93.0991C99.5969 48.2383 99.4782 49.0506 99.4782 54.3214" stroke="#808080" stroke-width="8" stroke-linecap="round" stroke-linejoin="round"/>
<path d="M37.032 80.76C35.3853 80.76 33.9727 80.4913 32.794 79.954C31.6327 79.4167 30.7227 78.628 30.064 77.588C29.4227 76.548 29.0673 75.2567 28.998 73.714C28.9807 73.0033 28.972 72.2407 28.972 71.426C28.972 70.6113 28.9807 69.8313 28.998 69.086C29.0673 67.578 29.4313 66.304 30.09 65.264C30.7487 64.2067 31.6673 63.4093 32.846 62.872C34.0247 62.3173 35.42 62.04 37.032 62.04C38.176 62.04 39.2333 62.1873 40.204 62.482C41.1747 62.7593 42.024 63.1753 42.752 63.73C43.48 64.2673 44.0433 64.926 44.442 65.706C44.858 66.4687 45.0747 67.3353 45.092 68.306C45.1093 68.462 45.0573 68.592 44.936 68.696C44.832 68.8 44.702 68.852 44.546 68.852H41.036C40.8107 68.852 40.6373 68.8087 40.516 68.722C40.3947 68.618 40.2907 68.436 40.204 68.176C39.9613 67.2573 39.5627 66.6333 39.008 66.304C38.4707 65.9573 37.8033 65.784 37.006 65.784C36.0527 65.784 35.2987 66.0527 34.744 66.59C34.1893 67.11 33.886 67.9853 33.834 69.216C33.782 70.6373 33.782 72.0933 33.834 73.584C33.886 74.8147 34.1893 75.6987 34.744 76.236C35.2987 76.756 36.0527 77.016 37.006 77.016C37.8033 77.016 38.4793 76.8427 39.034 76.496C39.5887 76.1493 39.9787 75.5253 40.204 74.624C40.2733 74.364 40.3687 74.1907 40.49 74.104C40.6287 74 40.8107 73.948 41.036 73.948H44.546C44.702 73.948 44.832 74 44.936 74.104C45.0573 74.208 45.1093 74.338 45.092 74.494C45.0747 75.4647 44.858 76.34 44.442 77.12C44.0433 77.8827 43.48 78.5413 42.752 79.096C42.024 79.6333 41.1747 80.0493 40.204 80.344C39.2333 80.6213 38.176 80.76 37.032 80.76ZM55.2619 80.76C53.6672 80.76 52.2805 80.5 51.1019 79.98C49.9232 79.46 49.0045 78.68 48.3459 77.64C47.6872 76.5827 47.3232 75.2653 47.2539 73.688C47.2365 72.9427 47.2279 72.1973 47.2279 71.452C47.2279 70.7067 47.2365 69.9527 47.2539 69.19C47.3232 67.63 47.6872 66.3213 48.3459 65.264C49.0219 64.1893 49.9492 63.3833 51.1279 62.846C52.3065 62.3087 53.6845 62.04 55.2619 62.04C56.8219 62.04 58.1912 62.3087 59.3699 62.846C60.5659 63.3833 61.5019 64.1893 62.1779 65.264C62.8539 66.3213 63.2179 67.63 63.2699 69.19C63.3045 69.9527 63.3219 70.7067 63.3219 71.452C63.3219 72.1973 63.3045 72.9427 63.2699 73.688C63.2005 75.2653 62.8365 76.5827 62.1779 77.64C61.5192 78.68 60.6005 79.46 59.4219 79.98C58.2432 80.5 56.8565 80.76 55.2619 80.76ZM55.2619 77.016C56.1805 77.016 56.9259 76.7387 57.4979 76.184C58.0872 75.6293 58.3992 74.7453 58.4339 73.532C58.4685 72.7693 58.4859 72.05 58.4859 71.374C58.4859 70.698 58.4685 69.996 58.4339 69.268C58.3992 68.4533 58.2432 67.7947 57.9659 67.292C57.7059 66.772 57.3419 66.3907 56.8739 66.148C56.4059 65.9053 55.8685 65.784 55.2619 65.784C54.6725 65.784 54.1439 65.9053 53.6759 66.148C53.2079 66.3907 52.8352 66.772 52.5579 67.292C52.2805 67.7947 52.1245 68.4533 52.0899 69.268C52.0725 69.996 52.0639 70.698 52.0639 71.374C52.0639 72.05 52.0725 72.7693 52.0899 73.532C52.1419 74.7453 52.4539 75.6293 53.0259 76.184C53.5979 76.7387 54.3432 77.016 55.2619 77.016ZM66.9856 80.5C66.795 80.5 66.639 80.4393 66.5176 80.318C66.3963 80.1967 66.3356 80.0407 66.3356 79.85V62.95C66.3356 62.7593 66.3963 62.6033 66.5176 62.482C66.639 62.3607 66.795 62.3 66.9856 62.3H69.7416C70.0363 62.3 70.2443 62.3693 70.3656 62.508C70.5043 62.6293 70.591 62.7247 70.6256 62.794L76.9696 72.804V62.95C76.9696 62.7593 77.0303 62.6033 77.1516 62.482C77.273 62.3607 77.429 62.3 77.6196 62.3H80.7396C80.9303 62.3 81.0863 62.3607 81.2076 62.482C81.329 62.6033 81.3896 62.7593 81.3896 62.95V79.85C81.3896 80.0233 81.329 80.1793 81.2076 80.318C81.0863 80.4393 80.9303 80.5 80.7396 80.5H77.9576C77.6803 80.5 77.4723 80.4307 77.3336 80.292C77.2123 80.1533 77.1343 80.058 77.0996 80.006L70.7556 70.386V79.85C70.7556 80.0407 70.695 80.1967 70.5736 80.318C70.4523 80.4393 70.2963 80.5 70.1056 80.5H66.9856ZM85.6731 80.5C85.4825 80.5 85.3265 80.4393 85.2051 80.318C85.0838 80.1967 85.0231 80.0407 85.0231 79.85V62.95C85.0231 62.7593 85.0838 62.6033 85.2051 62.482C85.3265 62.3607 85.4825 62.3 85.6731 62.3H97.6071C97.7978 62.3 97.9538 62.3607 98.0751 62.482C98.2138 62.6033 98.2831 62.7593 98.2831 62.95V65.576C98.2831 65.7667 98.2138 65.9227 98.0751 66.044C97.9538 66.1653 97.7978 66.226 97.6071 66.226H89.5991V70.048H97.0871C97.2778 70.048 97.4338 70.1173 97.5551 70.256C97.6938 70.3773 97.7631 70.5333 97.7631 70.724V73.324C97.7631 73.4973 97.6938 73.6533 97.5551 73.792C97.4338 73.9133 97.2778 73.974 97.0871 73.974H89.5991V79.85C89.5991 80.0407 89.5385 80.1967 89.4171 80.318C89.2958 80.4393 89.1398 80.5 88.9491 80.5H85.6731Z" fill="white"/>
</svg>
