<svg width="128" height="128" viewBox="0 0 128 128" fill="none" xmlns="http://www.w3.org/2000/svg">
<path d="M99.4782 102.512C99.4782 107.752 95.289 112 90.1213 112H37.8786C32.711 112 28.5217 107.752 28.5217 102.512V25.5582C28.5217 20.3184 32.711 16.0707 37.8786 16.0707L62.9565 16C68.1548 16 67.857 17.2873 67.857 22.5582V38.7567C67.857 44.9405 71.2039 48.2383 77.3152 48.2383H93.0991C99.5969 48.2383 99.4782 49.0506 99.4782 54.3214V102.512Z" fill="#2D53E5"/>
<path d="M62.9565 16H72.3478L99.4782 43.1304V54.3214M62.9565 16L37.8786 16.0707C32.711 16.0707 28.5217 20.3184 28.5217 25.5582V102.512C28.5217 107.752 32.711 112 37.8786 112H90.1213C95.289 112 99.4782 107.752 99.4782 102.512V54.3214M62.9565 16C68.1548 16 67.857 17.2873 67.857 22.5582V38.7567C67.857 44.9405 71.2039 48.2383 77.3152 48.2383H93.0991C99.5969 48.2383 99.4782 49.0506 99.4782 54.3214" stroke="#2D53E5" stroke-width="8" stroke-linecap="round" stroke-linejoin="round"/>
<path d="M46.9392 80.76C45.2926 80.76 43.8799 80.4913 42.7012 79.954C41.5399 79.4167 40.6299 78.628 39.9712 77.588C39.3299 76.548 38.9746 75.2567 38.9052 73.714C38.8879 73.0033 38.8792 72.2407 38.8792 71.426C38.8792 70.6113 38.8879 69.8313 38.9052 69.086C38.9746 67.578 39.3386 66.304 39.9972 65.264C40.6559 64.2067 41.5746 63.4093 42.7532 62.872C43.9319 62.3173 45.3272 62.04 46.9392 62.04C48.0832 62.04 49.1406 62.1873 50.1112 62.482C51.0819 62.7593 51.9312 63.1753 52.6592 63.73C53.3872 64.2673 53.9506 64.926 54.3492 65.706C54.7652 66.4687 54.9819 67.3353 54.9992 68.306C55.0166 68.462 54.9646 68.592 54.8432 68.696C54.7392 68.8 54.6092 68.852 54.4532 68.852H50.9432C50.7179 68.852 50.5446 68.8087 50.4232 68.722C50.3019 68.618 50.1979 68.436 50.1112 68.176C49.8686 67.2573 49.4699 66.6333 48.9152 66.304C48.3779 65.9573 47.7106 65.784 46.9132 65.784C45.9599 65.784 45.2059 66.0527 44.6512 66.59C44.0966 67.11 43.7932 67.9853 43.7412 69.216C43.6892 70.6373 43.6892 72.0933 43.7412 73.584C43.7932 74.8147 44.0966 75.6987 44.6512 76.236C45.2059 76.756 45.9599 77.016 46.9132 77.016C47.7106 77.016 48.3866 76.8427 48.9412 76.496C49.4959 76.1493 49.8859 75.5253 50.1112 74.624C50.1806 74.364 50.2759 74.1907 50.3972 74.104C50.5359 74 50.7179 73.948 50.9432 73.948H54.4532C54.6092 73.948 54.7392 74 54.8432 74.104C54.9646 74.208 55.0166 74.338 54.9992 74.494C54.9819 75.4647 54.7652 76.34 54.3492 77.12C53.9506 77.8827 53.3872 78.5413 52.6592 79.096C51.9312 79.6333 51.0819 80.0493 50.1112 80.344C49.1406 80.6213 48.0832 80.76 46.9392 80.76ZM64.5191 80.76C62.7858 80.76 61.3471 80.5173 60.2031 80.032C59.0591 79.5293 58.1924 78.8793 57.6031 78.082C57.0138 77.2847 56.7018 76.4353 56.6671 75.534C56.6671 75.3953 56.7191 75.274 56.8231 75.17C56.9444 75.0487 57.0831 74.988 57.2391 74.988H60.5151C60.7578 74.988 60.9398 75.0313 61.0611 75.118C61.1998 75.2047 61.3211 75.3173 61.4251 75.456C61.5638 75.716 61.7544 75.9673 61.9971 76.21C62.2571 76.4527 62.5864 76.652 62.9851 76.808C63.4011 76.9467 63.9124 77.016 64.5191 77.016C65.5244 77.016 66.2784 76.86 66.7811 76.548C67.3011 76.236 67.5611 75.8113 67.5611 75.274C67.5611 74.8927 67.4224 74.5807 67.1451 74.338C66.8678 74.078 66.4171 73.8527 65.7931 73.662C65.1864 73.454 64.3718 73.246 63.3491 73.038C62.0318 72.7607 60.9051 72.4053 59.9691 71.972C59.0504 71.5213 58.3484 70.9407 57.8631 70.23C57.3778 69.502 57.1351 68.6007 57.1351 67.526C57.1351 66.4687 57.4298 65.524 58.0191 64.692C58.6258 63.86 59.4664 63.21 60.5411 62.742C61.6158 62.274 62.8898 62.04 64.3631 62.04C65.5591 62.04 66.6078 62.196 67.5091 62.508C68.4278 62.82 69.1991 63.236 69.8231 63.756C70.4471 64.276 70.9151 64.8307 71.2271 65.42C71.5564 65.992 71.7298 66.5553 71.7471 67.11C71.7471 67.2487 71.6951 67.3787 71.5911 67.5C71.4871 67.604 71.3571 67.656 71.2011 67.656H67.7691C67.5784 67.656 67.4138 67.6213 67.2751 67.552C67.1364 67.4827 67.0151 67.37 66.9111 67.214C66.8071 66.8327 66.5298 66.5033 66.0791 66.226C65.6458 65.9313 65.0738 65.784 64.3631 65.784C63.6004 65.784 63.0024 65.9227 62.5691 66.2C62.1531 66.46 61.9451 66.8673 61.9451 67.422C61.9451 67.7687 62.0578 68.072 62.2831 68.332C62.5258 68.592 62.9158 68.8173 63.4531 69.008C64.0078 69.1987 64.7618 69.398 65.7151 69.606C67.2924 69.9007 68.5664 70.2733 69.5371 70.724C70.5078 71.1573 71.2184 71.7293 71.6691 72.44C72.1198 73.1333 72.3451 74.0087 72.3451 75.066C72.3451 76.2447 72.0071 77.2673 71.3311 78.134C70.6724 78.9833 69.7538 79.6333 68.5751 80.084C67.3964 80.5347 66.0444 80.76 64.5191 80.76ZM81.7339 80.76C80.0006 80.76 78.5619 80.5173 77.4179 80.032C76.2739 79.5293 75.4073 78.8793 74.8179 78.082C74.2286 77.2847 73.9166 76.4353 73.8819 75.534C73.8819 75.3953 73.9339 75.274 74.0379 75.17C74.1593 75.0487 74.2979 74.988 74.4539 74.988H77.7299C77.9726 74.988 78.1546 75.0313 78.2759 75.118C78.4146 75.2047 78.5359 75.3173 78.6399 75.456C78.7786 75.716 78.9693 75.9673 79.2119 76.21C79.4719 76.4527 79.8013 76.652 80.1999 76.808C80.6159 76.9467 81.1273 77.016 81.7339 77.016C82.7393 77.016 83.4933 76.86 83.9959 76.548C84.5159 76.236 84.7759 75.8113 84.7759 75.274C84.7759 74.8927 84.6373 74.5807 84.3599 74.338C84.0826 74.078 83.6319 73.8527 83.0079 73.662C82.4013 73.454 81.5866 73.246 80.5639 73.038C79.2466 72.7607 78.1199 72.4053 77.1839 71.972C76.2653 71.5213 75.5633 70.9407 75.0779 70.23C74.5926 69.502 74.3499 68.6007 74.3499 67.526C74.3499 66.4687 74.6446 65.524 75.2339 64.692C75.8406 63.86 76.6813 63.21 77.7559 62.742C78.8306 62.274 80.1046 62.04 81.5779 62.04C82.7739 62.04 83.8226 62.196 84.7239 62.508C85.6426 62.82 86.4139 63.236 87.0379 63.756C87.6619 64.276 88.1299 64.8307 88.4419 65.42C88.7713 65.992 88.9446 66.5553 88.9619 67.11C88.9619 67.2487 88.9099 67.3787 88.8059 67.5C88.7019 67.604 88.5719 67.656 88.4159 67.656H84.9839C84.7933 67.656 84.6286 67.6213 84.4899 67.552C84.3513 67.4827 84.2299 67.37 84.1259 67.214C84.0219 66.8327 83.7446 66.5033 83.2939 66.226C82.8606 65.9313 82.2886 65.784 81.5779 65.784C80.8153 65.784 80.2173 65.9227 79.7839 66.2C79.3679 66.46 79.1599 66.8673 79.1599 67.422C79.1599 67.7687 79.2726 68.072 79.4979 68.332C79.7406 68.592 80.1306 68.8173 80.6679 69.008C81.2226 69.1987 81.9766 69.398 82.9299 69.606C84.5073 69.9007 85.7813 70.2733 86.7519 70.724C87.7226 71.1573 88.4333 71.7293 88.8839 72.44C89.3346 73.1333 89.5599 74.0087 89.5599 75.066C89.5599 76.2447 89.2219 77.2673 88.5459 78.134C87.8873 78.9833 86.9686 79.6333 85.7899 80.084C84.6113 80.5347 83.2593 80.76 81.7339 80.76Z" fill="white"/>
</svg>
