<svg width="128" height="128" viewBox="0 0 128 128" fill="none" xmlns="http://www.w3.org/2000/svg">
<path d="M99.4782 102.512C99.4782 107.752 95.289 112 90.1213 112H37.8786C32.711 112 28.5217 107.752 28.5217 102.512V25.5582C28.5217 20.3184 32.711 16.0707 37.8786 16.0707L62.9565 16C68.1548 16 67.857 17.2873 67.857 22.5582V38.7567C67.857 44.9405 71.2039 48.2383 77.3152 48.2383H93.0991C99.5969 48.2383 99.4782 49.0506 99.4782 54.3214V102.512Z" fill="#808080"/>
<path d="M62.9565 16H72.3478L99.4782 43.1304V54.3214M62.9565 16L37.8786 16.0707C32.711 16.0707 28.5217 20.3184 28.5217 25.5582V102.512C28.5217 107.752 32.711 112 37.8786 112H90.1213C95.289 112 99.4782 107.752 99.4782 102.512V54.3214M62.9565 16C68.1548 16 67.857 17.2873 67.857 22.5582V38.7567C67.857 44.9405 71.2039 48.2383 77.3152 48.2383H93.0991C99.5969 48.2383 99.4782 49.0506 99.4782 54.3214" stroke="#808080" stroke-width="8" stroke-linecap="round" stroke-linejoin="round"/>
<path d="M46.8504 80.76C45.2037 80.76 43.791 80.4913 42.6124 79.954C41.451 79.4167 40.541 78.628 39.8824 77.588C39.241 76.548 38.8857 75.2567 38.8164 73.714C38.799 73.0033 38.7904 72.2407 38.7904 71.426C38.7904 70.6113 38.799 69.8313 38.8164 69.086C38.8857 67.578 39.2497 66.304 39.9084 65.264C40.567 64.2067 41.4857 63.4093 42.6644 62.872C43.843 62.3173 45.2384 62.04 46.8504 62.04C47.9944 62.04 49.0517 62.1873 50.0224 62.482C50.993 62.7593 51.8424 63.1753 52.5704 63.73C53.2984 64.2673 53.8617 64.926 54.2604 65.706C54.6764 66.4687 54.893 67.3353 54.9104 68.306C54.9277 68.462 54.8757 68.592 54.7544 68.696C54.6504 68.8 54.5204 68.852 54.3644 68.852H50.8544C50.629 68.852 50.4557 68.8087 50.3344 68.722C50.213 68.618 50.109 68.436 50.0224 68.176C49.7797 67.2573 49.381 66.6333 48.8264 66.304C48.289 65.9573 47.6217 65.784 46.8244 65.784C45.871 65.784 45.117 66.0527 44.5624 66.59C44.0077 67.11 43.7044 67.9853 43.6524 69.216C43.6004 70.6373 43.6004 72.0933 43.6524 73.584C43.7044 74.8147 44.0077 75.6987 44.5624 76.236C45.117 76.756 45.871 77.016 46.8244 77.016C47.6217 77.016 48.2977 76.8427 48.8524 76.496C49.407 76.1493 49.797 75.5253 50.0224 74.624C50.0917 74.364 50.187 74.1907 50.3084 74.104C50.447 74 50.629 73.948 50.8544 73.948H54.3644C54.5204 73.948 54.6504 74 54.7544 74.104C54.8757 74.208 54.9277 74.338 54.9104 74.494C54.893 75.4647 54.6764 76.34 54.2604 77.12C53.8617 77.8827 53.2984 78.5413 52.5704 79.096C51.8424 79.6333 50.993 80.0493 50.0224 80.344C49.0517 80.6213 47.9944 80.76 46.8504 80.76ZM64.4302 80.76C62.6969 80.76 61.2582 80.5173 60.1142 80.032C58.9702 79.5293 58.1036 78.8793 57.5142 78.082C56.9249 77.2847 56.6129 76.4353 56.5782 75.534C56.5782 75.3953 56.6302 75.274 56.7342 75.17C56.8556 75.0487 56.9942 74.988 57.1502 74.988H60.4262C60.6689 74.988 60.8509 75.0313 60.9722 75.118C61.1109 75.2047 61.2322 75.3173 61.3362 75.456C61.4749 75.716 61.6656 75.9673 61.9082 76.21C62.1682 76.4527 62.4976 76.652 62.8962 76.808C63.3122 76.9467 63.8236 77.016 64.4302 77.016C65.4356 77.016 66.1896 76.86 66.6922 76.548C67.2122 76.236 67.4722 75.8113 67.4722 75.274C67.4722 74.8927 67.3336 74.5807 67.0562 74.338C66.7789 74.078 66.3282 73.8527 65.7042 73.662C65.0976 73.454 64.2829 73.246 63.2602 73.038C61.9429 72.7607 60.8162 72.4053 59.8802 71.972C58.9616 71.5213 58.2596 70.9407 57.7742 70.23C57.2889 69.502 57.0462 68.6007 57.0462 67.526C57.0462 66.4687 57.3409 65.524 57.9302 64.692C58.5369 63.86 59.3776 63.21 60.4522 62.742C61.5269 62.274 62.8009 62.04 64.2742 62.04C65.4702 62.04 66.5189 62.196 67.4202 62.508C68.3389 62.82 69.1102 63.236 69.7342 63.756C70.3582 64.276 70.8262 64.8307 71.1382 65.42C71.4676 65.992 71.6409 66.5553 71.6582 67.11C71.6582 67.2487 71.6062 67.3787 71.5022 67.5C71.3982 67.604 71.2682 67.656 71.1122 67.656H67.6802C67.4896 67.656 67.3249 67.6213 67.1862 67.552C67.0476 67.4827 66.9262 67.37 66.8222 67.214C66.7182 66.8327 66.4409 66.5033 65.9902 66.226C65.5569 65.9313 64.9849 65.784 64.2742 65.784C63.5116 65.784 62.9136 65.9227 62.4802 66.2C62.0642 66.46 61.8562 66.8673 61.8562 67.422C61.8562 67.7687 61.9689 68.072 62.1942 68.332C62.4369 68.592 62.8269 68.8173 63.3642 69.008C63.9189 69.1987 64.6729 69.398 65.6262 69.606C67.2036 69.9007 68.4776 70.2733 69.4482 70.724C70.4189 71.1573 71.1296 71.7293 71.5802 72.44C72.0309 73.1333 72.2562 74.0087 72.2562 75.066C72.2562 76.2447 71.9182 77.2673 71.2422 78.134C70.5836 78.9833 69.6649 79.6333 68.4862 80.084C67.3076 80.5347 65.9556 80.76 64.4302 80.76ZM79.4243 80.5C79.1296 80.5 78.8956 80.422 78.7223 80.266C78.549 80.11 78.4276 79.928 78.3583 79.72L73.0543 63.08C73.0196 62.9933 73.0023 62.9153 73.0023 62.846C73.0023 62.7073 73.0543 62.586 73.1583 62.482C73.2796 62.3607 73.4183 62.3 73.5743 62.3H76.7983C77.0756 62.3 77.2923 62.378 77.4483 62.534C77.6043 62.69 77.6996 62.8373 77.7343 62.976L81.4003 74.988L85.0923 62.976C85.1443 62.8373 85.2396 62.69 85.3783 62.534C85.5343 62.378 85.751 62.3 86.0283 62.3H89.2523C89.4083 62.3 89.5383 62.3607 89.6423 62.482C89.7636 62.586 89.8243 62.7073 89.8243 62.846C89.8243 62.9153 89.807 62.9933 89.7723 63.08L84.4683 79.72C84.399 79.928 84.2776 80.11 84.1043 80.266C83.9483 80.422 83.7143 80.5 83.4023 80.5H79.4243Z" fill="white"/>
</svg>
