<svg width="128" height="128" viewBox="0 0 128 128" fill="none" xmlns="http://www.w3.org/2000/svg">
<path d="M99.4782 102.512C99.4782 107.752 95.289 112 90.1213 112H37.8786C32.711 112 28.5217 107.752 28.5217 102.512V25.5582C28.5217 20.3184 32.711 16.0707 37.8786 16.0707L62.9565 16C68.1548 16 67.857 17.2873 67.857 22.5582V38.7567C67.857 44.9405 71.2039 48.2383 77.3152 48.2383H93.0991C99.5969 48.2383 99.4782 49.0506 99.4782 54.3214V102.512Z" fill="#7F7F88"/>
<path d="M62.9565 16H72.3478L99.4782 43.1304V54.3214M62.9565 16L37.8786 16.0707C32.711 16.0707 28.5217 20.3184 28.5217 25.5582V102.512C28.5217 107.752 32.711 112 37.8786 112H90.1213C95.289 112 99.4782 107.752 99.4782 102.512V54.3214M62.9565 16C68.1548 16 67.857 17.2873 67.857 22.5582V38.7567C67.857 44.9405 71.2039 48.2383 77.3152 48.2383H93.0991C99.5969 48.2383 99.4782 49.0506 99.4782 54.3214" stroke="#7F7F88" stroke-width="8" stroke-linecap="round" stroke-linejoin="round"/>
<path d="M48.011 80.5C47.8203 80.5 47.6643 80.4393 47.543 80.318C47.4217 80.1967 47.361 80.0407 47.361 79.85V62.95C47.361 62.7593 47.4217 62.6033 47.543 62.482C47.6643 62.3607 47.8203 62.3 48.011 62.3H54.771C56.4697 62.3 57.917 62.5773 59.113 63.132C60.309 63.6693 61.2277 64.4667 61.869 65.524C62.5103 66.564 62.857 67.8553 62.909 69.398C62.9263 70.1607 62.935 70.828 62.935 71.4C62.935 71.972 62.9263 72.6307 62.909 73.376C62.8397 74.988 62.493 76.3227 61.869 77.38C61.2624 78.4373 60.3697 79.226 59.191 79.746C58.0297 80.2487 56.5997 80.5 54.901 80.5H48.011ZM52.015 76.756H54.771C55.5163 76.756 56.1317 76.6433 56.617 76.418C57.1197 76.1753 57.4923 75.8027 57.735 75.3C57.995 74.7973 58.1337 74.1387 58.151 73.324C58.1857 72.8213 58.203 72.3707 58.203 71.972C58.2203 71.5733 58.2203 71.1747 58.203 70.776C58.203 70.3773 58.1857 69.9353 58.151 69.45C58.1163 68.2713 57.8043 67.4133 57.215 66.876C56.643 66.3213 55.785 66.044 54.641 66.044H52.015V76.756ZM66.6223 80.5C66.4317 80.5 66.2757 80.4393 66.1543 80.318C66.033 80.1967 65.9723 80.0407 65.9723 79.85V62.95C65.9723 62.7593 66.033 62.6033 66.1543 62.482C66.2757 62.3607 66.4317 62.3 66.6223 62.3H74.5523C76.043 62.3 77.265 62.508 78.2183 62.924C79.1717 63.34 79.8737 63.938 80.3243 64.718C80.7923 65.4807 81.0263 66.3907 81.0263 67.448C81.0263 68.072 80.905 68.6267 80.6623 69.112C80.437 69.58 80.151 69.97 79.8043 70.282C79.475 70.594 79.163 70.8193 78.8683 70.958C79.527 71.27 80.1077 71.7813 80.6103 72.492C81.1303 73.2027 81.3903 74.0347 81.3903 74.988C81.3903 76.132 81.1303 77.12 80.6103 77.952C80.1077 78.7667 79.3623 79.3993 78.3743 79.85C77.4037 80.2833 76.2077 80.5 74.7863 80.5H66.6223ZM70.6263 77.12H74.2663C75.0117 77.12 75.575 76.9033 75.9563 76.47C76.3377 76.0367 76.5283 75.5427 76.5283 74.988C76.5283 74.3813 76.329 73.87 75.9303 73.454C75.549 73.038 74.9943 72.83 74.2663 72.83H70.6263V77.12ZM70.6263 69.528H74.0323C74.743 69.528 75.2717 69.346 75.6183 68.982C75.9823 68.618 76.1643 68.15 76.1643 67.578C76.1643 67.0233 75.9823 66.5727 75.6183 66.226C75.2717 65.862 74.743 65.68 74.0323 65.68H70.6263V69.528Z" fill="white"/>
</svg>
