<svg width="128" height="128" viewBox="0 0 128 128" fill="none" xmlns="http://www.w3.org/2000/svg">
<path d="M99.4782 102.512C99.4782 107.752 95.289 112 90.1213 112H37.8786C32.711 112 28.5217 107.752 28.5217 102.512V25.5582C28.5217 20.3184 32.711 16.0707 37.8786 16.0707L62.9565 16C68.1548 16 67.857 17.2873 67.857 22.5582V38.7567C67.857 44.9405 71.2039 48.2383 77.3152 48.2383H93.0991C99.5969 48.2383 99.4782 49.0506 99.4782 54.3214V102.512Z" fill="#ABACBA"/>
<path d="M62.9565 16H72.3478L99.4782 43.1304V54.3214M62.9565 16L37.8786 16.0707C32.711 16.0707 28.5217 20.3184 28.5217 25.5582V102.512C28.5217 107.752 32.711 112 37.8786 112H90.1213C95.289 112 99.4782 107.752 99.4782 102.512V54.3214M62.9565 16C68.1548 16 67.857 17.2873 67.857 22.5582V38.7567C67.857 44.9405 71.2039 48.2383 77.3152 48.2383H93.0991C99.5969 48.2383 99.4782 49.0506 99.4782 54.3214" stroke="#ABACBA" stroke-width="8" stroke-linecap="round" stroke-linejoin="round"/>
<path d="M41.1507 80.5C40.96 80.5 40.804 80.4393 40.6827 80.318C40.5613 80.1967 40.5007 80.0407 40.5007 79.85V62.95C40.5007 62.7593 40.5613 62.6033 40.6827 62.482C40.804 62.3607 40.96 62.3 41.1507 62.3H47.9107C49.6093 62.3 51.0567 62.5773 52.2527 63.132C53.4487 63.6693 54.3673 64.4667 55.0087 65.524C55.65 66.564 55.9967 67.8553 56.0487 69.398C56.066 70.1607 56.0747 70.828 56.0747 71.4C56.0747 71.972 56.066 72.6307 56.0487 73.376C55.9793 74.988 55.6327 76.3227 55.0087 77.38C54.402 78.4373 53.5093 79.226 52.3307 79.746C51.1693 80.2487 49.7393 80.5 48.0407 80.5H41.1507ZM45.1547 76.756H47.9107C48.656 76.756 49.2713 76.6433 49.7567 76.418C50.2593 76.1753 50.632 75.8027 50.8747 75.3C51.1347 74.7973 51.2733 74.1387 51.2907 73.324C51.3253 72.8213 51.3427 72.3707 51.3427 71.972C51.36 71.5733 51.36 71.1747 51.3427 70.776C51.3427 70.3773 51.3253 69.9353 51.2907 69.45C51.256 68.2713 50.944 67.4133 50.3547 66.876C49.7827 66.3213 48.9247 66.044 47.7807 66.044H45.1547V76.756ZM59.762 80.5C59.5713 80.5 59.4153 80.4393 59.294 80.318C59.1727 80.1967 59.112 80.0407 59.112 79.85V62.95C59.112 62.7593 59.1727 62.6033 59.294 62.482C59.4153 62.3607 59.5713 62.3 59.762 62.3H63.194C63.3673 62.3 63.5147 62.3607 63.636 62.482C63.7747 62.6033 63.844 62.7593 63.844 62.95V76.574H71.696C71.8867 76.574 72.0427 76.6433 72.164 76.782C72.3027 76.9033 72.372 77.0593 72.372 77.25V79.85C72.372 80.0407 72.3027 80.1967 72.164 80.318C72.0427 80.4393 71.8867 80.5 71.696 80.5H59.762ZM75.2757 80.5C75.085 80.5 74.929 80.4393 74.8077 80.318C74.6863 80.1967 74.6257 80.0407 74.6257 79.85V62.95C74.6257 62.7593 74.6863 62.6033 74.8077 62.482C74.929 62.3607 75.085 62.3 75.2757 62.3H78.7077C78.881 62.3 79.0283 62.3607 79.1497 62.482C79.2883 62.6033 79.3577 62.7593 79.3577 62.95V76.574H87.2097C87.4003 76.574 87.5563 76.6433 87.6777 76.782C87.8163 76.9033 87.8857 77.0593 87.8857 77.25V79.85C87.8857 80.0407 87.8163 80.1967 87.6777 80.318C87.5563 80.4393 87.4003 80.5 87.2097 80.5H75.2757Z" fill="white"/>
</svg>
