<svg width="128" height="128" viewBox="0 0 128 128" fill="none" xmlns="http://www.w3.org/2000/svg">
<path d="M99.4782 102.512C99.4782 107.752 95.289 112 90.1213 112H37.8786C32.711 112 28.5217 107.752 28.5217 102.512V25.5582C28.5217 20.3184 32.711 16.0707 37.8786 16.0707L62.9565 16C68.1548 16 67.857 17.2873 67.857 22.5582V38.7567C67.857 44.9405 71.2039 48.2383 77.3152 48.2383H93.0991C99.5969 48.2383 99.4782 49.0506 99.4782 54.3214V102.512Z" fill="#7F7F88"/>
<path d="M62.9565 16H72.3478L99.4782 43.1304V54.3214M62.9565 16L37.8786 16.0707C32.711 16.0707 28.5217 20.3184 28.5217 25.5582V102.512C28.5217 107.752 32.711 112 37.8786 112H90.1213C95.289 112 99.4782 107.752 99.4782 102.512V54.3214M62.9565 16C68.1548 16 67.857 17.2873 67.857 22.5582V38.7567C67.857 44.9405 71.2039 48.2383 77.3152 48.2383H93.0991C99.5969 48.2383 99.4782 49.0506 99.4782 54.3214" stroke="#7F7F88" stroke-width="8" stroke-linecap="round" stroke-linejoin="round"/>
<path d="M32.1823 78.5C32.0063 78.5 31.8623 78.444 31.7503 78.332C31.6383 78.22 31.5823 78.076 31.5823 77.9V62.3C31.5823 62.124 31.6383 61.98 31.7503 61.868C31.8623 61.756 32.0063 61.7 32.1823 61.7H38.4223C39.9903 61.7 41.3263 61.956 42.4303 62.468C43.5343 62.964 44.3823 63.7 44.9743 64.676C45.5663 65.636 45.8863 66.828 45.9343 68.252C45.9503 68.956 45.9583 69.572 45.9583 70.1C45.9583 70.628 45.9503 71.236 45.9343 71.924C45.8703 73.412 45.5503 74.644 44.9743 75.62C44.4143 76.596 43.5903 77.324 42.5023 77.804C41.4303 78.268 40.1103 78.5 38.5423 78.5H32.1823ZM35.8783 75.044H38.4223C39.1103 75.044 39.6783 74.94 40.1263 74.732C40.5903 74.508 40.9343 74.164 41.1583 73.7C41.3983 73.236 41.5263 72.628 41.5423 71.876C41.5743 71.412 41.5903 70.996 41.5903 70.628C41.6063 70.26 41.6063 69.892 41.5903 69.524C41.5903 69.156 41.5743 68.748 41.5423 68.3C41.5103 67.212 41.2223 66.42 40.6783 65.924C40.1503 65.412 39.3583 65.156 38.3023 65.156H35.8783V75.044ZM55.626 78.74C54.154 78.74 52.874 78.5 51.786 78.02C50.698 77.54 49.85 76.82 49.242 75.86C48.634 74.884 48.298 73.668 48.234 72.212C48.218 71.524 48.21 70.836 48.21 70.148C48.21 69.46 48.218 68.764 48.234 68.06C48.298 66.62 48.634 65.412 49.242 64.436C49.866 63.444 50.722 62.7 51.81 62.204C52.898 61.708 54.17 61.46 55.626 61.46C57.066 61.46 58.33 61.708 59.418 62.204C60.522 62.7 61.386 63.444 62.01 64.436C62.634 65.412 62.97 66.62 63.018 68.06C63.05 68.764 63.066 69.46 63.066 70.148C63.066 70.836 63.05 71.524 63.018 72.212C62.954 73.668 62.618 74.884 62.01 75.86C61.402 76.82 60.554 77.54 59.466 78.02C58.378 78.5 57.098 78.74 55.626 78.74ZM55.626 75.284C56.474 75.284 57.162 75.028 57.69 74.516C58.234 74.004 58.522 73.188 58.554 72.068C58.586 71.364 58.602 70.7 58.602 70.076C58.602 69.452 58.586 68.804 58.554 68.132C58.522 67.38 58.378 66.772 58.122 66.308C57.882 65.828 57.546 65.476 57.114 65.252C56.682 65.028 56.186 64.916 55.626 64.916C55.082 64.916 54.594 65.028 54.162 65.252C53.73 65.476 53.386 65.828 53.13 66.308C52.874 66.772 52.73 67.38 52.698 68.132C52.682 68.804 52.674 69.452 52.674 70.076C52.674 70.7 52.682 71.364 52.698 72.068C52.746 73.188 53.034 74.004 53.562 74.516C54.09 75.028 54.778 75.284 55.626 75.284ZM72.736 78.74C71.216 78.74 69.912 78.492 68.824 77.996C67.752 77.5 66.912 76.772 66.304 75.812C65.712 74.852 65.384 73.66 65.32 72.236C65.304 71.58 65.296 70.876 65.296 70.124C65.296 69.372 65.304 68.652 65.32 67.964C65.384 66.572 65.72 65.396 66.328 64.436C66.936 63.46 67.784 62.724 68.872 62.228C69.96 61.716 71.248 61.46 72.736 61.46C73.792 61.46 74.768 61.596 75.664 61.868C76.56 62.124 77.344 62.508 78.016 63.02C78.688 63.516 79.208 64.124 79.576 64.844C79.96 65.548 80.16 66.348 80.176 67.244C80.192 67.388 80.144 67.508 80.032 67.604C79.936 67.7 79.816 67.748 79.672 67.748H76.432C76.224 67.748 76.064 67.708 75.952 67.628C75.84 67.532 75.744 67.364 75.664 67.124C75.44 66.276 75.072 65.7 74.56 65.396C74.064 65.076 73.448 64.916 72.712 64.916C71.832 64.916 71.136 65.164 70.624 65.66C70.112 66.14 69.832 66.948 69.784 68.084C69.736 69.396 69.736 70.74 69.784 72.116C69.832 73.252 70.112 74.068 70.624 74.564C71.136 75.044 71.832 75.284 72.712 75.284C73.448 75.284 74.072 75.124 74.584 74.804C75.096 74.484 75.456 73.908 75.664 73.076C75.728 72.836 75.816 72.676 75.928 72.596C76.056 72.5 76.224 72.452 76.432 72.452H79.672C79.816 72.452 79.936 72.5 80.032 72.596C80.144 72.692 80.192 72.812 80.176 72.956C80.16 73.852 79.96 74.66 79.576 75.38C79.208 76.084 78.688 76.692 78.016 77.204C77.344 77.7 76.56 78.084 75.664 78.356C74.768 78.612 73.792 78.74 72.736 78.74ZM81.3193 78.5C81.1753 78.5 81.0473 78.452 80.9353 78.356C80.8393 78.244 80.7913 78.124 80.7913 77.996C80.7913 77.948 80.7993 77.9 80.8153 77.852C80.8313 77.804 80.8553 77.756 80.8873 77.708L86.1193 69.932L81.2713 62.492C81.2233 62.396 81.1993 62.3 81.1993 62.204C81.1993 62.076 81.2473 61.964 81.3433 61.868C81.4393 61.756 81.5593 61.7 81.7033 61.7H85.1833C85.4233 61.7 85.6073 61.764 85.7353 61.892C85.8633 62.004 85.9513 62.108 85.9993 62.204L88.8793 66.572L91.7833 62.204C91.8473 62.108 91.9433 62.004 92.0713 61.892C92.1993 61.764 92.3833 61.7 92.6233 61.7H95.9113C96.0553 61.7 96.1753 61.756 96.2713 61.868C96.3833 61.964 96.4393 62.076 96.4393 62.204C96.4393 62.316 96.4073 62.412 96.3433 62.492L91.4713 69.908L96.7513 77.708C96.7833 77.756 96.7993 77.804 96.7993 77.852C96.8153 77.9 96.8233 77.948 96.8233 77.996C96.8233 78.124 96.7753 78.244 96.6793 78.356C96.5833 78.452 96.4633 78.5 96.3193 78.5H92.7433C92.5033 78.5 92.3113 78.444 92.1673 78.332C92.0393 78.204 91.9513 78.1 91.9033 78.02L88.7113 73.412L85.5913 78.02C85.5433 78.1 85.4553 78.204 85.3273 78.332C85.1993 78.444 85.0153 78.5 84.7753 78.5H81.3193Z" fill="white"/>
</svg>
