<svg width="128" height="128" viewBox="0 0 128 128" fill="none" xmlns="http://www.w3.org/2000/svg">
<path d="M99.4782 102.512C99.4782 107.752 95.289 112 90.1213 112H37.8786C32.711 112 28.5217 107.752 28.5217 102.512V25.5582C28.5217 20.3184 32.711 16.0707 37.8786 16.0707L62.9565 16C68.1548 16 67.857 17.2873 67.857 22.5582V38.7567C67.857 44.9405 71.2039 48.2383 77.3152 48.2383H93.0991C99.5969 48.2383 99.4782 49.0506 99.4782 54.3214V102.512Z" fill="#ABACBA"/>
<path d="M62.9565 16H72.3478L99.4782 43.1304V54.3214M62.9565 16L37.8786 16.0707C32.711 16.0707 28.5217 20.3184 28.5217 25.5582V102.512C28.5217 107.752 32.711 112 37.8786 112H90.1213C95.289 112 99.4782 107.752 99.4782 102.512V54.3214M62.9565 16C68.1548 16 67.857 17.2873 67.857 22.5582V38.7567C67.857 44.9405 71.2039 48.2383 77.3152 48.2383H93.0991C99.5969 48.2383 99.4782 49.0506 99.4782 54.3214" stroke="#ABACBA" stroke-width="8" stroke-linecap="round" stroke-linejoin="round"/>
<path d="M40.0843 80.5C39.8936 80.5 39.7376 80.4393 39.6163 80.318C39.4949 80.1967 39.4343 80.0407 39.4343 79.85V62.95C39.4343 62.7593 39.4949 62.6033 39.6163 62.482C39.7376 62.3607 39.8936 62.3 40.0843 62.3H46.8443C48.5429 62.3 49.9903 62.5773 51.1863 63.132C52.3823 63.6693 53.3009 64.4667 53.9423 65.524C54.5836 66.564 54.9303 67.8553 54.9823 69.398C54.9996 70.1607 55.0083 70.828 55.0083 71.4C55.0083 71.972 54.9996 72.6307 54.9823 73.376C54.9129 74.988 54.5663 76.3227 53.9423 77.38C53.3356 78.4373 52.4429 79.226 51.2643 79.746C50.1029 80.2487 48.6729 80.5 46.9743 80.5H40.0843ZM44.0883 76.756H46.8443C47.5896 76.756 48.2049 76.6433 48.6903 76.418C49.1929 76.1753 49.5656 75.8027 49.8083 75.3C50.0683 74.7973 50.2069 74.1387 50.2243 73.324C50.2589 72.8213 50.2763 72.3707 50.2763 71.972C50.2936 71.5733 50.2936 71.1747 50.2763 70.776C50.2763 70.3773 50.2589 69.9353 50.2243 69.45C50.1896 68.2713 49.8776 67.4133 49.2883 66.876C48.7163 66.3213 47.8583 66.044 46.7143 66.044H44.0883V76.756ZM56.2457 80.5C56.0897 80.5 55.951 80.448 55.8297 80.344C55.7257 80.2227 55.6737 80.0927 55.6737 79.954C55.6737 79.902 55.6824 79.85 55.6997 79.798C55.717 79.746 55.743 79.694 55.7777 79.642L61.4457 71.218L56.1937 63.158C56.1417 63.054 56.1157 62.95 56.1157 62.846C56.1157 62.7073 56.1677 62.586 56.2717 62.482C56.3757 62.3607 56.5057 62.3 56.6617 62.3H60.4317C60.6917 62.3 60.891 62.3693 61.0297 62.508C61.1684 62.6293 61.2637 62.742 61.3157 62.846L64.4357 67.578L67.5817 62.846C67.651 62.742 67.755 62.6293 67.8937 62.508C68.0324 62.3693 68.2317 62.3 68.4917 62.3H72.0537C72.2097 62.3 72.3397 62.3607 72.4437 62.482C72.565 62.586 72.6257 62.7073 72.6257 62.846C72.6257 62.9673 72.591 63.0713 72.5217 63.158L67.2437 71.192L72.9637 79.642C72.9984 79.694 73.0157 79.746 73.0157 79.798C73.033 79.85 73.0417 79.902 73.0417 79.954C73.0417 80.0927 72.9897 80.2227 72.8857 80.344C72.7817 80.448 72.6517 80.5 72.4957 80.5H68.6217C68.3617 80.5 68.1537 80.4393 67.9977 80.318C67.859 80.1793 67.7637 80.0667 67.7117 79.98L64.2537 74.988L60.8737 79.98C60.8217 80.0667 60.7264 80.1793 60.5877 80.318C60.449 80.4393 60.2497 80.5 59.9897 80.5H56.2457ZM75.8089 80.5C75.6182 80.5 75.4622 80.4393 75.3409 80.318C75.2195 80.1967 75.1589 80.0407 75.1589 79.85V62.95C75.1589 62.7593 75.2195 62.6033 75.3409 62.482C75.4622 62.3607 75.6182 62.3 75.8089 62.3H87.7429C87.9335 62.3 88.0895 62.3607 88.2109 62.482C88.3495 62.6033 88.4189 62.7593 88.4189 62.95V65.576C88.4189 65.7667 88.3495 65.9227 88.2109 66.044C88.0895 66.1653 87.9335 66.226 87.7429 66.226H79.7349V70.048H87.2229C87.4135 70.048 87.5695 70.1173 87.6909 70.256C87.8295 70.3773 87.8989 70.5333 87.8989 70.724V73.324C87.8989 73.4973 87.8295 73.6533 87.6909 73.792C87.5695 73.9133 87.4135 73.974 87.2229 73.974H79.7349V79.85C79.7349 80.0407 79.6742 80.1967 79.5529 80.318C79.4315 80.4393 79.2755 80.5 79.0849 80.5H75.8089Z" fill="#ABACBA"/>
</svg>
