<svg width="128" height="128" viewBox="0 0 128 128" fill="none" xmlns="http://www.w3.org/2000/svg">
<path d="M99.4782 102.512C99.4782 107.752 95.289 112 90.1213 112H37.8786C32.711 112 28.5217 107.752 28.5217 102.512V25.5582C28.5217 20.3184 32.711 16.0707 37.8786 16.0707L62.9565 16C68.1548 16 67.857 17.2873 67.857 22.5582V38.7567C67.857 44.9405 71.2039 48.2383 77.3152 48.2383H93.0991C99.5969 48.2383 99.4782 49.0506 99.4782 54.3214V102.512Z" fill="#D72C2C"/>
<path d="M62.9565 16H72.3478L99.4782 43.1304V54.3214M62.9565 16L37.8786 16.0707C32.711 16.0707 28.5217 20.3184 28.5217 25.5582V102.512C28.5217 107.752 32.711 112 37.8786 112H90.1213C95.289 112 99.4782 107.752 99.4782 102.512V54.3214M62.9565 16C68.1548 16 67.857 17.2873 67.857 22.5582V38.7567C67.857 44.9405 71.2039 48.2383 77.3152 48.2383H93.0991C99.5969 48.2383 99.4782 49.0506 99.4782 54.3214" stroke="#D72C2C" stroke-width="8" stroke-linecap="round" stroke-linejoin="round"/>
<path d="M40.3889 80.5C40.1983 80.5 40.0423 80.4393 39.9209 80.318C39.7996 80.1967 39.7389 80.0407 39.7389 79.85V62.95C39.7389 62.7593 39.7996 62.6033 39.9209 62.482C40.0423 62.3607 40.1983 62.3 40.3889 62.3H52.5309C52.7216 62.3 52.8776 62.3607 52.9989 62.482C53.1203 62.6033 53.1809 62.7593 53.1809 62.95V65.394C53.1809 65.5847 53.1203 65.7407 52.9989 65.862C52.8776 65.9833 52.7216 66.044 52.5309 66.044H44.2369V69.554H51.9589C52.1496 69.554 52.3056 69.6233 52.4269 69.762C52.5483 69.8833 52.6089 70.0393 52.6089 70.23V72.492C52.6089 72.6653 52.5483 72.8213 52.4269 72.96C52.3056 73.0813 52.1496 73.142 51.9589 73.142H44.2369V76.756H52.7389C52.9296 76.756 53.0856 76.8167 53.2069 76.938C53.3283 77.0593 53.3889 77.2153 53.3889 77.406V79.85C53.3889 80.0407 53.3283 80.1967 53.2069 80.318C53.0856 80.4393 52.9296 80.5 52.7389 80.5H40.3889ZM55.3824 80.5C55.2264 80.5 55.0877 80.448 54.9664 80.344C54.8624 80.2227 54.8104 80.0927 54.8104 79.954C54.8104 79.902 54.8191 79.85 54.8364 79.798C54.8537 79.746 54.8797 79.694 54.9144 79.642L60.5824 71.218L55.3304 63.158C55.2784 63.054 55.2524 62.95 55.2524 62.846C55.2524 62.7073 55.3044 62.586 55.4084 62.482C55.5124 62.3607 55.6424 62.3 55.7984 62.3H59.5684C59.8284 62.3 60.0277 62.3693 60.1664 62.508C60.3051 62.6293 60.4004 62.742 60.4524 62.846L63.5724 67.578L66.7184 62.846C66.7877 62.742 66.8917 62.6293 67.0304 62.508C67.1691 62.3693 67.3684 62.3 67.6284 62.3H71.1904C71.3464 62.3 71.4764 62.3607 71.5804 62.482C71.7017 62.586 71.7624 62.7073 71.7624 62.846C71.7624 62.9673 71.7277 63.0713 71.6584 63.158L66.3804 71.192L72.1004 79.642C72.1351 79.694 72.1524 79.746 72.1524 79.798C72.1697 79.85 72.1784 79.902 72.1784 79.954C72.1784 80.0927 72.1264 80.2227 72.0224 80.344C71.9184 80.448 71.7884 80.5 71.6324 80.5H67.7584C67.4984 80.5 67.2904 80.4393 67.1344 80.318C66.9957 80.1793 66.9004 80.0667 66.8484 79.98L63.3904 74.988L60.0104 79.98C59.9584 80.0667 59.8631 80.1793 59.7244 80.318C59.5857 80.4393 59.3864 80.5 59.1264 80.5H55.3824ZM74.9456 80.5C74.7549 80.5 74.5989 80.4393 74.4776 80.318C74.3563 80.1967 74.2956 80.0407 74.2956 79.85V62.95C74.2956 62.7593 74.3563 62.6033 74.4776 62.482C74.5989 62.3607 74.7549 62.3 74.9456 62.3H87.0876C87.2783 62.3 87.4343 62.3607 87.5556 62.482C87.6769 62.6033 87.7376 62.7593 87.7376 62.95V65.394C87.7376 65.5847 87.6769 65.7407 87.5556 65.862C87.4343 65.9833 87.2783 66.044 87.0876 66.044H78.7936V69.554H86.5156C86.7063 69.554 86.8623 69.6233 86.9836 69.762C87.1049 69.8833 87.1656 70.0393 87.1656 70.23V72.492C87.1656 72.6653 87.1049 72.8213 86.9836 72.96C86.8623 73.0813 86.7063 73.142 86.5156 73.142H78.7936V76.756H87.2956C87.4863 76.756 87.6423 76.8167 87.7636 76.938C87.8849 77.0593 87.9456 77.2153 87.9456 77.406V79.85C87.9456 80.0407 87.8849 80.1967 87.7636 80.318C87.6423 80.4393 87.4863 80.5 87.2956 80.5H74.9456Z" fill="white"/>
</svg>
