<svg width="128" height="128" viewBox="0 0 128 128" fill="none" xmlns="http://www.w3.org/2000/svg">
<path d="M99.4782 102.512C99.4782 107.752 95.289 112 90.1213 112H37.8786C32.711 112 28.5217 107.752 28.5217 102.512V25.5582C28.5217 20.3184 32.711 16.0707 37.8786 16.0707L62.9565 16C68.1548 16 67.857 17.2873 67.857 22.5582L78.0758 31.0445L93.0991 48.2383C99.5969 48.2383 99.4782 49.0506 99.4782 54.3214V102.512Z" fill="#FE7008"/>
<path d="M62.9565 16H72.3478L99.4782 43.1304V54.3214M62.9565 16L37.8786 16.0707C32.711 16.0707 28.5217 20.3184 28.5217 25.5582V102.512C28.5217 107.752 32.711 112 37.8786 112H90.1213C95.289 112 99.4782 107.752 99.4782 102.512V54.3214M62.9565 16C68.1548 16 67.857 17.2873 67.857 22.5582L78.0758 31.0445L93.0991 48.2383C99.5969 48.2383 99.4782 49.0506 99.4782 54.3214" stroke="#FE7008" stroke-width="8" stroke-linecap="round" stroke-linejoin="round"/>
<path d="M40.0716 104.113C39.8809 104.113 39.7249 104.052 39.6036 103.931C39.4822 103.809 39.4216 103.653 39.4216 103.463V86.5625C39.4216 86.3719 39.4822 86.2159 39.6036 86.0945C39.7249 85.9732 39.8809 85.9125 40.0716 85.9125H52.0056C52.1962 85.9125 52.3522 85.9732 52.4736 86.0945C52.6122 86.2159 52.6816 86.3719 52.6816 86.5625V89.1885C52.6816 89.3792 52.6122 89.5352 52.4736 89.6565C52.3522 89.7779 52.1962 89.8385 52.0056 89.8385H43.9976V93.6605H51.4856C51.6762 93.6605 51.8322 93.7299 51.9536 93.8685C52.0922 93.9899 52.1616 94.1459 52.1616 94.3365V96.9365C52.1616 97.1099 52.0922 97.2659 51.9536 97.4045C51.8322 97.5259 51.6762 97.5865 51.4856 97.5865H43.9976V103.463C43.9976 103.653 43.9369 103.809 43.8156 103.931C43.6942 104.052 43.5382 104.113 43.3476 104.113H40.0716ZM62.0984 104.373C60.7464 104.373 59.5938 104.217 58.6404 103.905C57.6871 103.575 56.9071 103.159 56.3004 102.657C55.6938 102.137 55.2431 101.591 54.9484 101.019C54.6538 100.429 54.4978 99.8659 54.4804 99.3285C54.4804 99.1725 54.5324 99.0425 54.6364 98.9385C54.7578 98.8345 54.8964 98.7825 55.0524 98.7825H58.4324C58.6404 98.7825 58.8051 98.8259 58.9264 98.9125C59.0478 98.9819 59.1604 99.1032 59.2644 99.2765C59.4031 99.6059 59.6024 99.8745 59.8624 100.083C60.1398 100.291 60.4691 100.438 60.8504 100.525C61.2318 100.594 61.6478 100.629 62.0984 100.629C62.9824 100.629 63.6671 100.429 64.1524 100.031C64.6551 99.6145 64.9064 99.0512 64.9064 98.3405C64.9064 97.5952 64.6724 97.0665 64.2044 96.7545C63.7364 96.4252 63.0691 96.2605 62.2024 96.2605H59.3164C59.1258 96.2605 58.9698 96.1999 58.8484 96.0785C58.7271 95.9572 58.6664 95.8012 58.6664 95.6105V94.1545C58.6664 93.9465 58.7098 93.7645 58.7964 93.6085C58.8831 93.4525 58.9784 93.3399 59.0824 93.2705L63.3464 89.6565H56.1184C55.9451 89.6565 55.7891 89.5959 55.6504 89.4745C55.5291 89.3532 55.4684 89.1972 55.4684 89.0065V86.5625C55.4684 86.3719 55.5291 86.2159 55.6504 86.0945C55.7891 85.9732 55.9451 85.9125 56.1184 85.9125H68.0784C68.2691 85.9125 68.4251 85.9732 68.5464 86.0945C68.6851 86.2159 68.7544 86.3719 68.7544 86.5625V88.7725C68.7544 88.9632 68.7111 89.1365 68.6244 89.2925C68.5378 89.4312 68.4424 89.5439 68.3384 89.6305L64.3864 93.2965L64.5684 93.3485C65.5564 93.4699 66.4404 93.7385 67.2204 94.1545C68.0004 94.5532 68.6158 95.1165 69.0664 95.8445C69.5171 96.5725 69.7424 97.4999 69.7424 98.6265C69.7424 99.8052 69.4044 100.828 68.7284 101.695C68.0698 102.544 67.1684 103.203 66.0244 103.671C64.8804 104.139 63.5718 104.373 62.0984 104.373ZM73.2571 104.113C73.0664 104.113 72.9104 104.052 72.7891 103.931C72.6678 103.809 72.6071 103.653 72.6071 103.463V86.5625C72.6071 86.3719 72.6678 86.2159 72.7891 86.0945C72.9104 85.9732 73.0664 85.9125 73.2571 85.9125H80.0171C81.7158 85.9125 83.1631 86.1899 84.3591 86.7445C85.5551 87.2819 86.4738 88.0792 87.1151 89.1365C87.7564 90.1765 88.1031 91.4679 88.1551 93.0105C88.1724 93.7732 88.1811 94.4405 88.1811 95.0125C88.1811 95.5845 88.1724 96.2432 88.1551 96.9885C88.0858 98.6005 87.7391 99.9352 87.1151 100.993C86.5084 102.05 85.6158 102.839 84.4371 103.359C83.2758 103.861 81.8458 104.113 80.1471 104.113H73.2571ZM77.2611 100.369H80.0171C80.7624 100.369 81.3778 100.256 81.8631 100.031C82.3658 99.7879 82.7384 99.4152 82.9811 98.9125C83.2411 98.4099 83.3798 97.7512 83.3971 96.9365C83.4318 96.4339 83.4491 95.9832 83.4491 95.5845C83.4664 95.1859 83.4664 94.7872 83.4491 94.3885C83.4491 93.9899 83.4318 93.5479 83.3971 93.0625C83.3624 91.8839 83.0504 91.0259 82.4611 90.4885C81.8891 89.9339 81.0311 89.6565 79.8871 89.6565H77.2611V100.369Z" fill="white"/>
<path d="M82 44.9662L64 52.2776" stroke="white" stroke-width="4" stroke-linecap="round"/>
<path d="M82 66.3434L64 73.6548" stroke="white" stroke-width="4" stroke-linecap="round"/>
<path d="M82 44.9662L64 37.6548" stroke="white" stroke-width="4" stroke-linecap="round"/>
<path d="M64 73.6548V52.2776" stroke="white" stroke-width="4" stroke-linecap="round"/>
<path d="M82 66.3434V44.9662" stroke="white" stroke-width="4" stroke-linecap="round"/>
<path d="M46 44.9662L64 52.2776" stroke="white" stroke-width="4" stroke-linecap="round"/>
<path d="M46 44.9662L64 52.2776" stroke="white" stroke-width="4" stroke-linecap="round"/>
<path d="M46 66.3434L64 73.6548" stroke="white" stroke-width="4" stroke-linecap="round"/>
<path d="M46 44.9662L64 37.6548" stroke="white" stroke-width="4" stroke-linecap="round"/>
<path d="M46 66.3434V44.9662" stroke="white" stroke-width="4" stroke-linecap="round"/>
</svg>
