<svg width="128" height="128" viewBox="0 0 128 128" fill="none" xmlns="http://www.w3.org/2000/svg">
<path d="M99.4782 102.512C99.4782 107.752 95.289 112 90.1213 112H37.8786C32.711 112 28.5217 107.752 28.5217 102.512V25.5582C28.5217 20.3184 32.711 16.0707 37.8786 16.0707L62.9565 16C68.1548 16 67.857 17.2873 67.857 22.5582L78.0758 31.0445L93.0991 48.2383C99.5969 48.2383 99.4782 49.0506 99.4782 54.3214V102.512Z" fill="#29BAFC"/>
<path d="M62.9565 16H72.3478L99.4782 43.1304V54.3214M62.9565 16L37.8786 16.0707C32.711 16.0707 28.5217 20.3184 28.5217 25.5582V102.512C28.5217 107.752 32.711 112 37.8786 112H90.1213C95.289 112 99.4782 107.752 99.4782 102.512V54.3214M62.9565 16C68.1548 16 67.857 17.2873 67.857 22.5582L78.0758 31.0445L93.0991 48.2383C99.5969 48.2383 99.4782 49.0506 99.4782 54.3214" stroke="#29BAFC" stroke-width="8" stroke-linecap="round" stroke-linejoin="round"/>
<path d="M40.135 104.113C39.9444 104.113 39.7884 104.052 39.667 103.931C39.5457 103.809 39.485 103.653 39.485 103.463V86.5626C39.485 86.3719 39.5457 86.2159 39.667 86.0946C39.7884 85.9733 39.9444 85.9126 40.135 85.9126H52.069C52.2597 85.9126 52.4157 85.9733 52.537 86.0946C52.6757 86.2159 52.745 86.3719 52.745 86.5626V89.1886C52.745 89.3793 52.6757 89.5353 52.537 89.6566C52.4157 89.7779 52.2597 89.8386 52.069 89.8386H44.061V93.6606H51.549C51.7397 93.6606 51.8957 93.7299 52.017 93.8686C52.1557 93.9899 52.225 94.1459 52.225 94.3366V96.9366C52.225 97.1099 52.1557 97.2659 52.017 97.4046C51.8957 97.5259 51.7397 97.5866 51.549 97.5866H44.061V103.463C44.061 103.653 44.0004 103.809 43.879 103.931C43.7577 104.052 43.6017 104.113 43.411 104.113H40.135ZM56.1819 104.113C55.9912 104.113 55.8352 104.052 55.7139 103.931C55.5926 103.809 55.5319 103.653 55.5319 103.463V86.5626C55.5319 86.3719 55.5926 86.2159 55.7139 86.0946C55.8352 85.9733 55.9912 85.9126 56.1819 85.9126H64.1119C65.6026 85.9126 66.8246 86.1206 67.7779 86.5366C68.7312 86.9526 69.4332 87.5506 69.8839 88.3306C70.3519 89.0933 70.5859 90.0033 70.5859 91.0606C70.5859 91.6846 70.4646 92.2393 70.2219 92.7246C69.9966 93.1926 69.7106 93.5826 69.3639 93.8946C69.0346 94.2066 68.7226 94.4319 68.4279 94.5706C69.0866 94.8826 69.6672 95.3939 70.1699 96.1046C70.6899 96.8153 70.9499 97.6473 70.9499 98.6006C70.9499 99.7446 70.6899 100.733 70.1699 101.565C69.6672 102.379 68.9219 103.012 67.9339 103.463C66.9632 103.896 65.7672 104.113 64.3459 104.113H56.1819ZM60.1859 100.733H63.8259C64.5712 100.733 65.1346 100.516 65.5159 100.083C65.8972 99.6493 66.0879 99.1553 66.0879 98.6006C66.0879 97.9939 65.8886 97.4826 65.4899 97.0666C65.1086 96.6506 64.5539 96.4426 63.8259 96.4426H60.1859V100.733ZM60.1859 93.1406H63.5919C64.3026 93.1406 64.8312 92.9586 65.1779 92.5946C65.5419 92.2306 65.7239 91.7626 65.7239 91.1906C65.7239 90.6359 65.5419 90.1853 65.1779 89.8386C64.8312 89.4746 64.3026 89.2926 63.5919 89.2926H60.1859V93.1406ZM72.2418 104.113C72.0858 104.113 71.9471 104.061 71.8258 103.957C71.7218 103.835 71.6698 103.705 71.6698 103.567C71.6698 103.515 71.6785 103.463 71.6958 103.411C71.7131 103.359 71.7391 103.307 71.7738 103.255L77.4418 94.8306L72.1898 86.7706C72.1378 86.6666 72.1118 86.5626 72.1118 86.4586C72.1118 86.3199 72.1638 86.1986 72.2678 86.0946C72.3718 85.9733 72.5018 85.9126 72.6578 85.9126H76.4278C76.6878 85.9126 76.8871 85.9819 77.0258 86.1206C77.1645 86.2419 77.2598 86.3546 77.3118 86.4586L80.4318 91.1906L83.5778 86.4586C83.6471 86.3546 83.7511 86.2419 83.8898 86.1206C84.0285 85.9819 84.2278 85.9126 84.4878 85.9126H88.0498C88.2058 85.9126 88.3358 85.9733 88.4398 86.0946C88.5611 86.1986 88.6218 86.3199 88.6218 86.4586C88.6218 86.5799 88.5871 86.6839 88.5178 86.7706L83.2398 94.8046L88.9598 103.255C88.9945 103.307 89.0118 103.359 89.0118 103.411C89.0291 103.463 89.0378 103.515 89.0378 103.567C89.0378 103.705 88.9858 103.835 88.8818 103.957C88.7778 104.061 88.6478 104.113 88.4918 104.113H84.6178C84.3578 104.113 84.1498 104.052 83.9938 103.931C83.8551 103.792 83.7598 103.679 83.7078 103.593L80.2498 98.6006L76.8698 103.593C76.8178 103.679 76.7225 103.792 76.5838 103.931C76.4451 104.052 76.2458 104.113 75.9858 104.113H72.2418Z" fill="white"/>
<path d="M82 44.9663L64 52.2777" stroke="white" stroke-width="4" stroke-linecap="round"/>
<path d="M82 66.3434L64 73.6549" stroke="white" stroke-width="4" stroke-linecap="round"/>
<path d="M82 44.9663L64 37.6549" stroke="white" stroke-width="4" stroke-linecap="round"/>
<path d="M64 73.6548V52.2777" stroke="white" stroke-width="4" stroke-linecap="round"/>
<path d="M82 66.3434V44.9663" stroke="white" stroke-width="4" stroke-linecap="round"/>
<path d="M46 44.9663L64 52.2777" stroke="white" stroke-width="4" stroke-linecap="round"/>
<path d="M46 44.9663L64 52.2777" stroke="white" stroke-width="4" stroke-linecap="round"/>
<path d="M46 66.3434L64 73.6549" stroke="white" stroke-width="4" stroke-linecap="round"/>
<path d="M46 44.9663L64 37.6549" stroke="white" stroke-width="4" stroke-linecap="round"/>
<path d="M46 66.3434V44.9663" stroke="white" stroke-width="4" stroke-linecap="round"/>
</svg>
