<svg width="128" height="128" viewBox="0 0 128 128" fill="none" xmlns="http://www.w3.org/2000/svg">
<path d="M99.4782 102.512C99.4782 107.752 95.289 112 90.1213 112H37.8786C32.711 112 28.5217 107.752 28.5217 102.512V25.5582C28.5217 20.3184 32.711 16.0707 37.8786 16.0707L62.9565 16C68.1548 16 67.857 17.2873 67.857 22.5582L80.24 30.7772C80.24 36.9611 78.2206 36.0059 84.332 36.0059L93.0991 48.2383C99.5969 48.2383 99.4782 49.0506 99.4782 54.3214V102.512Z" fill="#ABACBA"/>
<path d="M62.9565 16H72.3478L99.4782 43.1304V54.3214M62.9565 16L37.8786 16.0707C32.711 16.0707 28.5217 20.3184 28.5217 25.5582V102.512C28.5217 107.752 32.711 112 37.8786 112H90.1213C95.289 112 99.4782 107.752 99.4782 102.512V54.3214M62.9565 16C68.1548 16 67.857 17.2873 67.857 22.5582L80.24 30.7772C80.24 36.9611 78.2206 36.0059 84.332 36.0059L93.0991 48.2383C99.5969 48.2383 99.4782 49.0506 99.4782 54.3214" stroke="#ABACBA" stroke-width="8" stroke-linecap="round" stroke-linejoin="round"/>
<path d="M36.8581 101C36.6821 101 36.5381 100.944 36.4261 100.832C36.3141 100.72 36.2581 100.576 36.2581 100.4V84.8C36.2581 84.624 36.3141 84.48 36.4261 84.368C36.5381 84.256 36.6821 84.2 36.8581 84.2H39.9541C40.1301 84.2 40.2741 84.256 40.3861 84.368C40.4981 84.48 40.5541 84.624 40.5541 84.8V90.584H46.4821V84.8C46.4821 84.624 46.5381 84.48 46.6501 84.368C46.7621 84.256 46.9061 84.2 47.0821 84.2H50.1781C50.3541 84.2 50.4981 84.256 50.6101 84.368C50.7221 84.48 50.7781 84.624 50.7781 84.8V100.4C50.7781 100.576 50.7221 100.72 50.6101 100.832C50.4981 100.944 50.3541 101 50.1781 101H47.0821C46.9061 101 46.7621 100.944 46.6501 100.832C46.5381 100.72 46.4821 100.576 46.4821 100.4V94.424H40.5541V100.4C40.5541 100.576 40.4981 100.72 40.3861 100.832C40.2741 100.944 40.1301 101 39.9541 101H36.8581ZM54.7409 101C54.5649 101 54.4209 100.944 54.3089 100.832C54.1969 100.72 54.1409 100.576 54.1409 100.4V84.8C54.1409 84.624 54.1969 84.48 54.3089 84.368C54.4209 84.256 54.5649 84.2 54.7409 84.2H65.9489C66.1249 84.2 66.2689 84.256 66.3809 84.368C66.4929 84.48 66.5489 84.624 66.5489 84.8V87.056C66.5489 87.232 66.4929 87.376 66.3809 87.488C66.2689 87.6 66.1249 87.656 65.9489 87.656H58.2929V90.896H65.4209C65.5969 90.896 65.7409 90.96 65.8529 91.088C65.9649 91.2 66.0209 91.344 66.0209 91.52V93.608C66.0209 93.768 65.9649 93.912 65.8529 94.04C65.7409 94.152 65.5969 94.208 65.4209 94.208H58.2929V97.544H66.1409C66.3169 97.544 66.4609 97.6 66.5729 97.712C66.6849 97.824 66.7409 97.968 66.7409 98.144V100.4C66.7409 100.576 66.6849 100.72 66.5729 100.832C66.4609 100.944 66.3169 101 66.1409 101H54.7409ZM70.0691 101C69.8931 101 69.7491 100.944 69.6371 100.832C69.5251 100.72 69.4691 100.576 69.4691 100.4V84.8C69.4691 84.624 69.5251 84.48 69.6371 84.368C69.7491 84.256 69.8931 84.2 70.0691 84.2H73.2851C73.4611 84.2 73.6051 84.256 73.7171 84.368C73.8291 84.48 73.8851 84.624 73.8851 84.8V100.4C73.8851 100.576 73.8291 100.72 73.7171 100.832C73.6051 100.944 73.4611 101 73.2851 101H70.0691ZM84.1383 101.24C82.6183 101.24 81.3143 100.992 80.2263 100.496C79.1543 100 78.3143 99.272 77.7063 98.312C77.1143 97.352 76.7863 96.16 76.7223 94.736C76.7063 94.08 76.6983 93.376 76.6983 92.624C76.6983 91.872 76.7063 91.152 76.7223 90.464C76.7863 89.072 77.1223 87.896 77.7303 86.936C78.3383 85.96 79.1863 85.224 80.2743 84.728C81.3623 84.216 82.6503 83.96 84.1383 83.96C85.1943 83.96 86.1703 84.096 87.0663 84.368C87.9623 84.624 88.7463 85.008 89.4183 85.52C90.0903 86.016 90.6103 86.624 90.9783 87.344C91.3623 88.048 91.5623 88.848 91.5783 89.744C91.5943 89.888 91.5463 90.008 91.4343 90.104C91.3383 90.2 91.2183 90.248 91.0743 90.248H87.8343C87.6263 90.248 87.4663 90.208 87.3543 90.128C87.2423 90.032 87.1463 89.864 87.0663 89.624C86.8423 88.776 86.4743 88.2 85.9623 87.896C85.4663 87.576 84.8503 87.416 84.1143 87.416C83.2343 87.416 82.5383 87.664 82.0263 88.16C81.5143 88.64 81.2343 89.448 81.1863 90.584C81.1383 91.896 81.1383 93.24 81.1863 94.616C81.2343 95.752 81.5143 96.568 82.0263 97.064C82.5383 97.544 83.2343 97.784 84.1143 97.784C84.8503 97.784 85.4743 97.624 85.9863 97.304C86.4983 96.984 86.8583 96.408 87.0663 95.576C87.1303 95.336 87.2183 95.176 87.3303 95.096C87.4583 95 87.6263 94.952 87.8343 94.952H91.0743C91.2183 94.952 91.3383 95 91.4343 95.096C91.5463 95.192 91.5943 95.312 91.5783 95.456C91.5623 96.352 91.3623 97.16 90.9783 97.88C90.6103 98.584 90.0903 99.192 89.4183 99.704C88.7463 100.2 87.9623 100.584 87.0663 100.856C86.1703 101.112 85.1943 101.24 84.1383 101.24Z" fill="#ABACBA"/>
<path d="M51.534 49.5192C51.9189 48.8525 52.8811 48.8525 53.266 49.5192L63.2002 66.7257C63.5851 67.3924 63.104 68.2257 62.3342 68.2257H42.4658C41.696 68.2257 41.2149 67.3924 41.5998 66.7257L51.534 49.5192Z" fill="#ABACBA" stroke="#ABACBA" stroke-width="8"/>
<path d="M67.9986 58.4999C68.3835 57.8332 69.3458 57.8332 69.7307 58.4999L74.4799 66.7257C74.8648 67.3924 74.3837 68.2257 73.6139 68.2257H64.1154C63.3456 68.2257 62.8645 67.3924 63.2494 66.7257L67.9986 58.4999Z" fill="#ABACBA" stroke="#ABACBA" stroke-width="8"/>
<circle cx="83.0841" cy="45.0257" r="5.98713" fill="#ABACBA"/>
</svg>
