<svg width="128" height="128" viewBox="0 0 128 128" fill="none" xmlns="http://www.w3.org/2000/svg">
<path d="M99.4782 102.512C99.4782 107.752 95.289 112 90.1213 112H37.8786C32.711 112 28.5217 107.752 28.5217 102.512V25.5582C28.5217 20.3184 32.711 16.0707 37.8786 16.0707L62.9565 16C68.1548 16 67.857 17.2873 67.857 22.5582L81.3381 33.1075C81.3381 39.2914 80.9682 36.7225 87.0795 36.7225L93.0991 48.2383C99.5969 48.2383 99.4782 49.0506 99.4782 54.3214V102.512Z" fill="#E5532D"/>
<path d="M62.9565 16H72.3478L99.4782 43.1304V54.3214M62.9565 16L37.8786 16.0707C32.711 16.0707 28.5217 20.3184 28.5217 25.5582V102.512C28.5217 107.752 32.711 112 37.8786 112H90.1213C95.289 112 99.4782 107.752 99.4782 102.512V54.3214M62.9565 16C68.1548 16 67.857 17.2873 67.857 22.5582L81.3381 33.1075C81.3381 39.2914 80.9682 36.7225 87.0795 36.7225L93.0991 48.2383C99.5969 48.2383 99.4782 49.0506 99.4782 54.3214" stroke="#E5532D" stroke-width="8" stroke-linecap="round" stroke-linejoin="round"/>
<path d="M32.1941 101.5C32.0181 101.5 31.8741 101.444 31.7621 101.332C31.6501 101.22 31.5941 101.076 31.5941 100.9V85.3C31.5941 85.124 31.6501 84.98 31.7621 84.868C31.8741 84.756 32.0181 84.7 32.1941 84.7H35.2901C35.4661 84.7 35.6101 84.756 35.7221 84.868C35.8341 84.98 35.8901 85.124 35.8901 85.3V91.084H41.8181V85.3C41.8181 85.124 41.8741 84.98 41.9861 84.868C42.0981 84.756 42.2421 84.7 42.4181 84.7H45.5141C45.6901 84.7 45.8341 84.756 45.9461 84.868C46.0581 84.98 46.1141 85.124 46.1141 85.3V100.9C46.1141 101.076 46.0581 101.22 45.9461 101.332C45.8341 101.444 45.6901 101.5 45.5141 101.5H42.4181C42.2421 101.5 42.0981 101.444 41.9861 101.332C41.8741 101.22 41.8181 101.076 41.8181 100.9V94.924H35.8901V100.9C35.8901 101.076 35.8341 101.22 35.7221 101.332C35.6101 101.444 35.4661 101.5 35.2901 101.5H32.1941ZM53.7729 101.5C53.5969 101.5 53.4529 101.444 53.3409 101.332C53.2289 101.22 53.1729 101.076 53.1729 100.9V88.468H48.9009C48.7249 88.468 48.5809 88.412 48.4689 88.3C48.3569 88.172 48.3009 88.028 48.3009 87.868V85.3C48.3009 85.124 48.3569 84.98 48.4689 84.868C48.5809 84.756 48.7249 84.7 48.9009 84.7H61.8129C61.9889 84.7 62.1329 84.756 62.2449 84.868C62.3569 84.98 62.4129 85.124 62.4129 85.3V87.868C62.4129 88.028 62.3569 88.172 62.2449 88.3C62.1329 88.412 61.9889 88.468 61.8129 88.468H57.5409V100.9C57.5409 101.076 57.4849 101.22 57.3729 101.332C57.2609 101.444 57.1169 101.5 56.9409 101.5H53.7729ZM65.1941 101.5C65.0341 101.5 64.8901 101.444 64.7621 101.332C64.6501 101.22 64.5941 101.076 64.5941 100.9V85.3C64.5941 85.124 64.6501 84.98 64.7621 84.868C64.8901 84.756 65.0341 84.7 65.1941 84.7H67.7861C68.0421 84.7 68.2341 84.772 68.3621 84.916C68.5061 85.044 68.5941 85.148 68.6261 85.228L72.8501 92.812L77.0741 85.228C77.1221 85.148 77.2021 85.044 77.3141 84.916C77.4421 84.772 77.6421 84.7 77.9141 84.7H80.4821C80.6581 84.7 80.8021 84.756 80.9141 84.868C81.0421 84.98 81.1061 85.124 81.1061 85.3V100.9C81.1061 101.076 81.0421 101.22 80.9141 101.332C80.8021 101.444 80.6581 101.5 80.4821 101.5H77.6261C77.4501 101.5 77.2981 101.444 77.1701 101.332C77.0581 101.22 77.0021 101.076 77.0021 100.9V91.9L74.2901 96.916C74.2261 97.06 74.1301 97.188 74.0021 97.3C73.8741 97.412 73.6981 97.468 73.4741 97.468H72.2261C72.0021 97.468 71.8261 97.412 71.6981 97.3C71.5701 97.188 71.4661 97.06 71.3861 96.916L68.6741 91.9V100.9C68.6741 101.076 68.6181 101.22 68.5061 101.332C68.3941 101.444 68.2501 101.5 68.0741 101.5H65.1941ZM85.0456 101.5C84.8696 101.5 84.7256 101.444 84.6136 101.332C84.5016 101.22 84.4456 101.076 84.4456 100.9V85.3C84.4456 85.124 84.5016 84.98 84.6136 84.868C84.7256 84.756 84.8696 84.7 85.0456 84.7H88.2136C88.3736 84.7 88.5096 84.756 88.6216 84.868C88.7496 84.98 88.8136 85.124 88.8136 85.3V97.876H96.0616C96.2376 97.876 96.3816 97.94 96.4936 98.068C96.6216 98.18 96.6856 98.324 96.6856 98.5V100.9C96.6856 101.076 96.6216 101.22 96.4936 101.332C96.3816 101.444 96.2376 101.5 96.0616 101.5H85.0456Z" fill="white"/>
<path d="M56.5377 69.22C56.4577 69.22 56.351 69.1933 56.2177 69.14C56.111 69.0867 55.991 69.0333 55.8577 68.98L41.4577 59.18C41.0843 58.9133 40.791 58.66 40.5777 58.42C40.391 58.1533 40.2977 57.82 40.2977 57.42V56.18C40.2977 55.78 40.391 55.46 40.5777 55.22C40.791 54.98 41.0843 54.7267 41.4577 54.46L55.8577 44.66C55.991 44.58 56.111 44.5133 56.2177 44.46C56.351 44.4067 56.4577 44.38 56.5377 44.38C56.7777 44.38 56.9777 44.46 57.1377 44.62C57.2977 44.78 57.3777 44.98 57.3777 45.22V49.5C57.3777 49.9267 57.2577 50.26 57.0177 50.5C56.7777 50.7133 56.5243 50.9133 56.2577 51.1L47.5377 56.82L56.2577 62.58C56.5243 62.74 56.7777 62.9267 57.0177 63.14C57.2577 63.3533 57.3777 63.6733 57.3777 64.1V68.42C57.3777 68.66 57.2977 68.86 57.1377 69.02C56.9777 69.1533 56.7777 69.22 56.5377 69.22ZM71.4773 69.22C71.264 69.22 71.0773 69.1533 70.9173 69.02C70.7573 68.86 70.6773 68.66 70.6773 68.42V64.1C70.6773 63.6733 70.7973 63.3533 71.0373 63.14C71.2773 62.9267 71.5307 62.74 71.7973 62.58L80.4773 56.82L71.7973 51.1C71.5307 50.94 71.2773 50.74 71.0373 50.5C70.7973 50.26 70.6773 49.94 70.6773 49.54V45.22C70.6773 44.98 70.7573 44.7933 70.9173 44.66C71.0773 44.5 71.264 44.42 71.4773 44.42C71.584 44.42 71.6907 44.4467 71.7973 44.5C71.9307 44.5533 72.0507 44.6067 72.1573 44.66L86.5973 54.46C86.9973 54.7267 87.2907 54.98 87.4773 55.22C87.664 55.46 87.7573 55.7933 87.7573 56.22V57.42C87.7573 57.82 87.664 58.1533 87.4773 58.42C87.2907 58.66 86.9973 58.9133 86.5973 59.18L72.1573 68.98C72.0507 69.0333 71.9307 69.0867 71.7973 69.14C71.6907 69.1933 71.584 69.22 71.4773 69.22Z" fill="white"/>
</svg>
