<svg width="128" height="128" viewBox="0 0 128 128" fill="none" xmlns="http://www.w3.org/2000/svg">
<path d="M99.4782 102.512C99.4782 107.752 95.289 112 90.1213 112H37.8786C32.711 112 28.5217 107.752 28.5217 102.512V25.5582C28.5217 20.3184 32.711 16.0707 37.8786 16.0707L62.9565 16C68.1548 16 67.857 17.2873 67.857 22.5582L81.3381 33.1075C81.3381 39.2914 80.9682 36.7225 87.0795 36.7225L93.0991 48.2383C99.5969 48.2383 99.4782 49.0506 99.4782 54.3214V102.512Z" fill="#E5532D"/>
<path d="M62.9565 16H72.3478L99.4782 43.1304V54.3214M62.9565 16L37.8786 16.0707C32.711 16.0707 28.5217 20.3184 28.5217 25.5582V102.512C28.5217 107.752 32.711 112 37.8786 112H90.1213C95.289 112 99.4782 107.752 99.4782 102.512V54.3214M62.9565 16C68.1548 16 67.857 17.2873 67.857 22.5582L81.3381 33.1075C81.3381 39.2914 80.9682 36.7225 87.0795 36.7225L93.0991 48.2383C99.5969 48.2383 99.4782 49.0506 99.4782 54.3214" stroke="#E5532D" stroke-width="8" stroke-linecap="round" stroke-linejoin="round"/>
<path d="M30.0852 103.5C29.8946 103.5 29.7386 103.439 29.6172 103.318C29.4959 103.197 29.4352 103.041 29.4352 102.85V85.95C29.4352 85.7593 29.4959 85.6033 29.6172 85.482C29.7386 85.3607 29.8946 85.3 30.0852 85.3H33.4392C33.6299 85.3 33.7859 85.3607 33.9072 85.482C34.0286 85.6033 34.0892 85.7593 34.0892 85.95V92.216H40.5112V85.95C40.5112 85.7593 40.5719 85.6033 40.6932 85.482C40.8146 85.3607 40.9706 85.3 41.1612 85.3H44.5152C44.7059 85.3 44.8619 85.3607 44.9832 85.482C45.1046 85.6033 45.1652 85.7593 45.1652 85.95V102.85C45.1652 103.041 45.1046 103.197 44.9832 103.318C44.8619 103.439 44.7059 103.5 44.5152 103.5H41.1612C40.9706 103.5 40.8146 103.439 40.6932 103.318C40.5719 103.197 40.5112 103.041 40.5112 102.85V96.376H34.0892V102.85C34.0892 103.041 34.0286 103.197 33.9072 103.318C33.7859 103.439 33.6299 103.5 33.4392 103.5H30.0852ZM53.4623 103.5C53.2716 103.5 53.1156 103.439 52.9943 103.318C52.8729 103.197 52.8123 103.041 52.8123 102.85V89.382H48.1843C47.9936 89.382 47.8376 89.3213 47.7163 89.2C47.5949 89.0613 47.5343 88.9053 47.5343 88.732V85.95C47.5343 85.7593 47.5949 85.6033 47.7163 85.482C47.8376 85.3607 47.9936 85.3 48.1843 85.3H62.1723C62.3629 85.3 62.5189 85.3607 62.6403 85.482C62.7616 85.6033 62.8223 85.7593 62.8223 85.95V88.732C62.8223 88.9053 62.7616 89.0613 62.6403 89.2C62.5189 89.3213 62.3629 89.382 62.1723 89.382H57.5443V102.85C57.5443 103.041 57.4836 103.197 57.3623 103.318C57.2409 103.439 57.0849 103.5 56.8943 103.5H53.4623ZM65.8352 103.5C65.6619 103.5 65.5059 103.439 65.3672 103.318C65.2459 103.197 65.1852 103.041 65.1852 102.85V85.95C65.1852 85.7593 65.2459 85.6033 65.3672 85.482C65.5059 85.3607 65.6619 85.3 65.8352 85.3H68.6432C68.9206 85.3 69.1286 85.378 69.2672 85.534C69.4232 85.6727 69.5186 85.7853 69.5532 85.872L74.1292 94.088L78.7052 85.872C78.7572 85.7853 78.8439 85.6727 78.9652 85.534C79.1039 85.378 79.3206 85.3 79.6152 85.3H82.3972C82.5879 85.3 82.7439 85.3607 82.8652 85.482C83.0039 85.6033 83.0732 85.7593 83.0732 85.95V102.85C83.0732 103.041 83.0039 103.197 82.8652 103.318C82.7439 103.439 82.5879 103.5 82.3972 103.5H79.3032C79.1126 103.5 78.9479 103.439 78.8092 103.318C78.6879 103.197 78.6272 103.041 78.6272 102.85V93.1L75.6892 98.534C75.6199 98.69 75.5159 98.8287 75.3772 98.95C75.2386 99.0713 75.0479 99.132 74.8052 99.132H73.4532C73.2106 99.132 73.0199 99.0713 72.8812 98.95C72.7426 98.8287 72.6299 98.69 72.5432 98.534L69.6052 93.1V102.85C69.6052 103.041 69.5446 103.197 69.4232 103.318C69.3019 103.439 69.1459 103.5 68.9552 103.5H65.8352ZM87.3411 103.5C87.1504 103.5 86.9944 103.439 86.8731 103.318C86.7518 103.197 86.6911 103.041 86.6911 102.85V85.95C86.6911 85.7593 86.7518 85.6033 86.8731 85.482C86.9944 85.3607 87.1504 85.3 87.3411 85.3H90.7731C90.9464 85.3 91.0938 85.3607 91.2151 85.482C91.3538 85.6033 91.4231 85.7593 91.4231 85.95V99.574H99.2751C99.4658 99.574 99.6218 99.6433 99.7431 99.782C99.8818 99.9033 99.9511 100.059 99.9511 100.25V102.85C99.9511 103.041 99.8818 103.197 99.7431 103.318C99.6218 103.439 99.4658 103.5 99.2751 103.5H87.3411Z" fill="white"/>
<path d="M56.5377 69.22C56.4577 69.22 56.351 69.1933 56.2177 69.14C56.111 69.0867 55.991 69.0333 55.8577 68.98L41.4577 59.18C41.0843 58.9133 40.791 58.66 40.5777 58.42C40.391 58.1533 40.2977 57.82 40.2977 57.42V56.18C40.2977 55.78 40.391 55.46 40.5777 55.22C40.791 54.98 41.0843 54.7267 41.4577 54.46L55.8577 44.66C55.991 44.58 56.111 44.5133 56.2177 44.46C56.351 44.4067 56.4577 44.38 56.5377 44.38C56.7777 44.38 56.9777 44.46 57.1377 44.62C57.2977 44.78 57.3777 44.98 57.3777 45.22V49.5C57.3777 49.9267 57.2577 50.26 57.0177 50.5C56.7777 50.7133 56.5243 50.9133 56.2577 51.1L47.5377 56.82L56.2577 62.58C56.5243 62.74 56.7777 62.9267 57.0177 63.14C57.2577 63.3533 57.3777 63.6733 57.3777 64.1V68.42C57.3777 68.66 57.2977 68.86 57.1377 69.02C56.9777 69.1533 56.7777 69.22 56.5377 69.22ZM71.4773 69.22C71.264 69.22 71.0773 69.1533 70.9173 69.02C70.7573 68.86 70.6773 68.66 70.6773 68.42V64.1C70.6773 63.6733 70.7973 63.3533 71.0373 63.14C71.2773 62.9267 71.5307 62.74 71.7973 62.58L80.4773 56.82L71.7973 51.1C71.5307 50.94 71.2773 50.74 71.0373 50.5C70.7973 50.26 70.6773 49.94 70.6773 49.54V45.22C70.6773 44.98 70.7573 44.7933 70.9173 44.66C71.0773 44.5 71.264 44.42 71.4773 44.42C71.584 44.42 71.6907 44.4467 71.7973 44.5C71.9307 44.5533 72.0507 44.6067 72.1573 44.66L86.5973 54.46C86.9973 54.7267 87.2907 54.98 87.4773 55.22C87.664 55.46 87.7573 55.7933 87.7573 56.22V57.42C87.7573 57.82 87.664 58.1533 87.4773 58.42C87.2907 58.66 86.9973 58.9133 86.5973 59.18L72.1573 68.98C72.0507 69.0333 71.9307 69.0867 71.7973 69.14C71.6907 69.1933 71.584 69.22 71.4773 69.22Z" fill="white"/>
</svg>
