<svg width="128" height="128" viewBox="0 0 128 128" fill="none" xmlns="http://www.w3.org/2000/svg">
<path d="M99.4782 102.512C99.4782 107.752 95.289 112 90.1213 112H37.8786C32.711 112 28.5217 107.752 28.5217 102.512V25.5582C28.5217 20.3184 32.711 16.0707 37.8786 16.0707L62.9565 16C68.1548 16 67.857 17.2873 67.857 22.5582V38.7567C67.857 44.9405 71.2039 48.2383 77.3152 48.2383H93.0991C99.5969 48.2383 99.4782 49.0506 99.4782 54.3214V102.512Z" fill="#ABACBA"/>
<path d="M62.9565 16H72.3478L99.4782 43.1304V54.3214M62.9565 16L37.8786 16.0707C32.711 16.0707 28.5217 20.3184 28.5217 25.5582V102.512C28.5217 107.752 32.711 112 37.8786 112H90.1213C95.289 112 99.4782 107.752 99.4782 102.512V54.3214M62.9565 16C68.1548 16 67.857 17.2873 67.857 22.5582V38.7567C67.857 44.9405 71.2039 48.2383 77.3152 48.2383H93.0991C99.5969 48.2383 99.4782 49.0506 99.4782 54.3214" stroke="#ABACBA" stroke-width="8" stroke-linecap="round" stroke-linejoin="round"/>
<path d="M48.1966 80.5C48.0059 80.5 47.8499 80.4393 47.7286 80.318C47.6072 80.1967 47.5466 80.0407 47.5466 79.85V62.95C47.5466 62.7593 47.6072 62.6033 47.7286 62.482C47.8499 62.3607 48.0059 62.3 48.1966 62.3H51.6806C51.8712 62.3 52.0272 62.3607 52.1486 62.482C52.2699 62.6033 52.3306 62.7593 52.3306 62.95V79.85C52.3306 80.0407 52.2699 80.1967 52.1486 80.318C52.0272 80.4393 51.8712 80.5 51.6806 80.5H48.1966ZM56.6263 80.5C56.4356 80.5 56.2796 80.4393 56.1583 80.318C56.0369 80.1967 55.9763 80.0407 55.9763 79.85V62.95C55.9763 62.7593 56.0369 62.6033 56.1583 62.482C56.2796 62.3607 56.4356 62.3 56.6263 62.3H59.3823C59.6769 62.3 59.8849 62.3693 60.0063 62.508C60.1449 62.6293 60.2316 62.7247 60.2663 62.794L66.6103 72.804V62.95C66.6103 62.7593 66.6709 62.6033 66.7923 62.482C66.9136 62.3607 67.0696 62.3 67.2603 62.3H70.3803C70.5709 62.3 70.7269 62.3607 70.8483 62.482C70.9696 62.6033 71.0303 62.7593 71.0303 62.95V79.85C71.0303 80.0233 70.9696 80.1793 70.8483 80.318C70.7269 80.4393 70.5709 80.5 70.3803 80.5H67.5983C67.3209 80.5 67.1129 80.4307 66.9743 80.292C66.8529 80.1533 66.7749 80.058 66.7403 80.006L60.3963 70.386V79.85C60.3963 80.0407 60.3356 80.1967 60.2143 80.318C60.0929 80.4393 59.9369 80.5 59.7463 80.5H56.6263ZM75.3138 80.5C75.1231 80.5 74.9671 80.4393 74.8458 80.318C74.7244 80.1967 74.6638 80.0407 74.6638 79.85V62.95C74.6638 62.7593 74.7244 62.6033 74.8458 62.482C74.9671 62.3607 75.1231 62.3 75.3138 62.3H78.7978C78.9884 62.3 79.1444 62.3607 79.2658 62.482C79.3871 62.6033 79.4478 62.7593 79.4478 62.95V79.85C79.4478 80.0407 79.3871 80.1967 79.2658 80.318C79.1444 80.4393 78.9884 80.5 78.7978 80.5H75.3138Z" fill="white"/>
</svg>
