<svg width="128" height="128" viewBox="0 0 128 128" fill="none" xmlns="http://www.w3.org/2000/svg">
<path d="M99.4782 102.512C99.4782 107.752 95.289 112 90.1213 112H37.8786C32.711 112 28.5217 107.752 28.5217 102.512V25.5582C28.5217 20.3184 32.711 16.0707 37.8786 16.0707L62.9565 16C68.1548 16 67.857 17.2873 67.857 22.5582V38.7567C67.857 44.9405 71.2039 48.2383 77.3152 48.2383H93.0991C99.5969 48.2383 99.4782 49.0506 99.4782 54.3214V102.512Z" fill="#22A5AA"/>
<path d="M62.9565 16H72.3478L99.4782 43.1304V54.3214M62.9565 16L37.8786 16.0707C32.711 16.0707 28.5217 20.3184 28.5217 25.5582V102.512C28.5217 107.752 32.711 112 37.8786 112H90.1213C95.289 112 99.4782 107.752 99.4782 102.512V54.3214M62.9565 16C68.1548 16 67.857 17.2873 67.857 22.5582V38.7567C67.857 44.9405 71.2039 48.2383 77.3152 48.2383H93.0991C99.5969 48.2383 99.4782 49.0506 99.4782 54.3214" stroke="#22A5AA" stroke-width="8" stroke-linecap="round" stroke-linejoin="round"/>
<path d="M43.1565 80.5C42.9659 80.5 42.8099 80.4393 42.6885 80.318C42.5672 80.1967 42.5065 80.0407 42.5065 79.85V62.95C42.5065 62.7593 42.5672 62.6033 42.6885 62.482C42.8099 62.3607 42.9659 62.3 43.1565 62.3H46.6405C46.8312 62.3 46.9872 62.3607 47.1085 62.482C47.2299 62.6033 47.2905 62.7593 47.2905 62.95V79.85C47.2905 80.0407 47.2299 80.1967 47.1085 80.318C46.9872 80.4393 46.8312 80.5 46.6405 80.5H43.1565ZM51.5862 80.5C51.3955 80.5 51.2395 80.4393 51.1182 80.318C50.9969 80.1967 50.9362 80.0407 50.9362 79.85V62.95C50.9362 62.7593 50.9969 62.6033 51.1182 62.482C51.2395 62.3607 51.3955 62.3 51.5862 62.3H54.3422C54.6369 62.3 54.8449 62.3693 54.9662 62.508C55.1049 62.6293 55.1915 62.7247 55.2262 62.794L61.5702 72.804V62.95C61.5702 62.7593 61.6309 62.6033 61.7522 62.482C61.8735 62.3607 62.0295 62.3 62.2202 62.3H65.3402C65.5309 62.3 65.6869 62.3607 65.8082 62.482C65.9295 62.6033 65.9902 62.7593 65.9902 62.95V79.85C65.9902 80.0233 65.9295 80.1793 65.8082 80.318C65.6869 80.4393 65.5309 80.5 65.3402 80.5H62.5582C62.2809 80.5 62.0729 80.4307 61.9342 80.292C61.8129 80.1533 61.7349 80.058 61.7002 80.006L55.3562 70.386V79.85C55.3562 80.0407 55.2955 80.1967 55.1742 80.318C55.0529 80.4393 54.8969 80.5 54.7062 80.5H51.5862ZM77.0597 80.76C75.465 80.76 74.0784 80.5 72.8997 79.98C71.721 79.46 70.8024 78.68 70.1437 77.64C69.485 76.5827 69.121 75.2653 69.0517 73.688C69.0344 72.9427 69.0257 72.1973 69.0257 71.452C69.0257 70.7067 69.0344 69.9527 69.0517 69.19C69.121 67.63 69.485 66.3213 70.1437 65.264C70.8197 64.1893 71.747 63.3833 72.9257 62.846C74.1044 62.3087 75.4824 62.04 77.0597 62.04C78.6197 62.04 79.989 62.3087 81.1677 62.846C82.3637 63.3833 83.2997 64.1893 83.9757 65.264C84.6517 66.3213 85.0157 67.63 85.0677 69.19C85.1024 69.9527 85.1197 70.7067 85.1197 71.452C85.1197 72.1973 85.1024 72.9427 85.0677 73.688C84.9984 75.2653 84.6344 76.5827 83.9757 77.64C83.317 78.68 82.3984 79.46 81.2197 79.98C80.041 80.5 78.6544 80.76 77.0597 80.76ZM77.0597 77.016C77.9784 77.016 78.7237 76.7387 79.2957 76.184C79.885 75.6293 80.197 74.7453 80.2317 73.532C80.2664 72.7693 80.2837 72.05 80.2837 71.374C80.2837 70.698 80.2664 69.996 80.2317 69.268C80.197 68.4533 80.041 67.7947 79.7637 67.292C79.5037 66.772 79.1397 66.3907 78.6717 66.148C78.2037 65.9053 77.6664 65.784 77.0597 65.784C76.4704 65.784 75.9417 65.9053 75.4737 66.148C75.0057 66.3907 74.633 66.772 74.3557 67.292C74.0784 67.7947 73.9224 68.4533 73.8877 69.268C73.8704 69.996 73.8617 70.698 73.8617 71.374C73.8617 72.05 73.8704 72.7693 73.8877 73.532C73.9397 74.7453 74.2517 75.6293 74.8237 76.184C75.3957 76.7387 76.141 77.016 77.0597 77.016Z" fill="#ABACBA"/>
</svg>
