<svg width="128" height="128" viewBox="0 0 128 128" fill="none" xmlns="http://www.w3.org/2000/svg">
<path d="M99.4782 102.512C99.4782 107.752 95.289 112 90.1213 112H37.8786C32.711 112 28.5217 107.752 28.5217 102.512V25.5582C28.5217 20.3184 32.711 16.0707 37.8786 16.0707L62.9565 16C68.1548 16 67.857 17.2873 67.857 22.5582V38.7567C67.857 44.9405 71.2039 48.2383 77.3152 48.2383H93.0991C99.5969 48.2383 99.4782 49.0506 99.4782 54.3214V102.512Z" fill="#ABACBA"/>
<path d="M62.9565 16H72.3478L99.4782 43.1304V54.3214M62.9565 16L37.8786 16.0707C32.711 16.0707 28.5217 20.3184 28.5217 25.5582V102.512C28.5217 107.752 32.711 112 37.8786 112H90.1213C95.289 112 99.4782 107.752 99.4782 102.512V54.3214M62.9565 16C68.1548 16 67.857 17.2873 67.857 22.5582V38.7567C67.857 44.9405 71.2039 48.2383 77.3152 48.2383H93.0991C99.5969 48.2383 99.4782 49.0506 99.4782 54.3214" stroke="#ABACBA" stroke-width="8" stroke-linecap="round" stroke-linejoin="round"/>
<path d="M44.3929 80.5C44.2022 80.5 44.0462 80.4393 43.9249 80.318C43.8035 80.1967 43.7429 80.0407 43.7429 79.85V62.95C43.7429 62.7593 43.8035 62.6033 43.9249 62.482C44.0462 62.3607 44.2022 62.3 44.3929 62.3H47.8769C48.0675 62.3 48.2235 62.3607 48.3449 62.482C48.4662 62.6033 48.5269 62.7593 48.5269 62.95V79.85C48.5269 80.0407 48.4662 80.1967 48.3449 80.318C48.2235 80.4393 48.0675 80.5 47.8769 80.5H44.3929ZM58.9585 80.76C57.2252 80.76 55.7865 80.5173 54.6425 80.032C53.4985 79.5293 52.6319 78.8793 52.0425 78.082C51.4532 77.2847 51.1412 76.4353 51.1065 75.534C51.1065 75.3953 51.1585 75.274 51.2625 75.17C51.3839 75.0487 51.5225 74.988 51.6785 74.988H54.9545C55.1972 74.988 55.3792 75.0313 55.5005 75.118C55.6392 75.2047 55.7605 75.3173 55.8645 75.456C56.0032 75.716 56.1939 75.9673 56.4365 76.21C56.6965 76.4527 57.0259 76.652 57.4245 76.808C57.8405 76.9467 58.3519 77.016 58.9585 77.016C59.9639 77.016 60.7179 76.86 61.2205 76.548C61.7405 76.236 62.0005 75.8113 62.0005 75.274C62.0005 74.8927 61.8619 74.5807 61.5845 74.338C61.3072 74.078 60.8565 73.8527 60.2325 73.662C59.6259 73.454 58.8112 73.246 57.7885 73.038C56.4712 72.7607 55.3445 72.4053 54.4085 71.972C53.4899 71.5213 52.7879 70.9407 52.3025 70.23C51.8172 69.502 51.5745 68.6007 51.5745 67.526C51.5745 66.4687 51.8692 65.524 52.4585 64.692C53.0652 63.86 53.9059 63.21 54.9805 62.742C56.0552 62.274 57.3292 62.04 58.8025 62.04C59.9985 62.04 61.0472 62.196 61.9485 62.508C62.8672 62.82 63.6385 63.236 64.2625 63.756C64.8865 64.276 65.3545 64.8307 65.6665 65.42C65.9959 65.992 66.1692 66.5553 66.1865 67.11C66.1865 67.2487 66.1345 67.3787 66.0305 67.5C65.9265 67.604 65.7965 67.656 65.6405 67.656H62.2085C62.0179 67.656 61.8532 67.6213 61.7145 67.552C61.5759 67.4827 61.4545 67.37 61.3505 67.214C61.2465 66.8327 60.9692 66.5033 60.5185 66.226C60.0852 65.9313 59.5132 65.784 58.8025 65.784C58.0399 65.784 57.4419 65.9227 57.0085 66.2C56.5925 66.46 56.3845 66.8673 56.3845 67.422C56.3845 67.7687 56.4972 68.072 56.7225 68.332C56.9652 68.592 57.3552 68.8173 57.8925 69.008C58.4472 69.1987 59.2012 69.398 60.1545 69.606C61.7319 69.9007 63.0059 70.2733 63.9765 70.724C64.9472 71.1573 65.6579 71.7293 66.1085 72.44C66.5592 73.1333 66.7845 74.0087 66.7845 75.066C66.7845 76.2447 66.4465 77.2673 65.7705 78.134C65.1119 78.9833 64.1932 79.6333 63.0145 80.084C61.8359 80.5347 60.4839 80.76 58.9585 80.76ZM76.8234 80.76C75.2287 80.76 73.842 80.5 72.6634 79.98C71.4847 79.46 70.566 78.68 69.9074 77.64C69.2487 76.5827 68.8847 75.2653 68.8154 73.688C68.798 72.9427 68.7894 72.1973 68.7894 71.452C68.7894 70.7067 68.798 69.9527 68.8154 69.19C68.8847 67.63 69.2487 66.3213 69.9074 65.264C70.5834 64.1893 71.5107 63.3833 72.6894 62.846C73.868 62.3087 75.246 62.04 76.8234 62.04C78.3834 62.04 79.7527 62.3087 80.9314 62.846C82.1274 63.3833 83.0634 64.1893 83.7394 65.264C84.4154 66.3213 84.7794 67.63 84.8314 69.19C84.866 69.9527 84.8834 70.7067 84.8834 71.452C84.8834 72.1973 84.866 72.9427 84.8314 73.688C84.7621 75.2653 84.3981 76.5827 83.7394 77.64C83.0807 78.68 82.1621 79.46 80.9834 79.98C79.8047 80.5 78.418 80.76 76.8234 80.76ZM76.8234 77.016C77.742 77.016 78.4874 76.7387 79.0594 76.184C79.6487 75.6293 79.9607 74.7453 79.9954 73.532C80.03 72.7693 80.0474 72.05 80.0474 71.374C80.0474 70.698 80.03 69.996 79.9954 69.268C79.9607 68.4533 79.8047 67.7947 79.5274 67.292C79.2674 66.772 78.9034 66.3907 78.4354 66.148C77.9674 65.9053 77.4301 65.784 76.8234 65.784C76.234 65.784 75.7054 65.9053 75.2374 66.148C74.7694 66.3907 74.3967 66.772 74.1194 67.292C73.842 67.7947 73.686 68.4533 73.6514 69.268C73.634 69.996 73.6254 70.698 73.6254 71.374C73.6254 72.05 73.634 72.7693 73.6514 73.532C73.7034 74.7453 74.0154 75.6293 74.5874 76.184C75.1594 76.7387 75.9047 77.016 76.8234 77.016Z" fill="white"/>
</svg>
