<svg width="128" height="128" viewBox="0 0 128 128" fill="none" xmlns="http://www.w3.org/2000/svg">
<path d="M99.4782 102.512C99.4782 107.752 95.289 112 90.1213 112H37.8786C32.711 112 28.5217 107.752 28.5217 102.512V25.5582C28.5217 20.3184 32.711 16.0707 37.8786 16.0707L62.9565 16C68.1548 16 67.857 17.2873 67.857 22.5582V38.7567C67.857 44.9405 71.2039 48.2383 77.3152 48.2383H93.0991C99.5969 48.2383 99.4782 49.0506 99.4782 54.3214V102.512Z" fill="#F29418"/>
<path d="M62.9565 16H72.3478L99.4782 43.1304V54.3214M62.9565 16L37.8786 16.0707C32.711 16.0707 28.5217 20.3184 28.5217 25.5582V102.512C28.5217 107.752 32.711 112 37.8786 112H90.1213C95.289 112 99.4782 107.752 99.4782 102.512V54.3214M62.9565 16C68.1548 16 67.857 17.2873 67.857 22.5582V38.7567C67.857 44.9405 71.2039 48.2383 77.3152 48.2383H93.0991C99.5969 48.2383 99.4782 49.0506 99.4782 54.3214" stroke="#F29418" stroke-width="8" stroke-linecap="round" stroke-linejoin="round"/>
<path d="M44.8122 80.76C43.8242 80.76 42.8795 80.6387 41.9782 80.396C41.0942 80.136 40.3055 79.7547 39.6122 79.252C38.9189 78.7493 38.3642 78.1253 37.9482 77.38C37.5495 76.6347 37.3329 75.768 37.2982 74.78C37.2982 74.624 37.3502 74.494 37.4542 74.39C37.5582 74.2687 37.6969 74.208 37.8702 74.208H41.3802C41.6229 74.208 41.8049 74.2687 41.9262 74.39C42.0649 74.5113 42.1775 74.6933 42.2642 74.936C42.3509 75.4213 42.5155 75.82 42.7582 76.132C43.0009 76.4267 43.3042 76.652 43.6682 76.808C44.0495 76.9467 44.4742 77.016 44.9422 77.016C45.8089 77.016 46.4762 76.7387 46.9442 76.184C47.4122 75.612 47.6462 74.78 47.6462 73.688V66.174H39.2222C39.0489 66.174 38.8929 66.1133 38.7542 65.992C38.6329 65.8707 38.5722 65.7147 38.5722 65.524V62.95C38.5722 62.7593 38.6329 62.6033 38.7542 62.482C38.8929 62.3607 39.0489 62.3 39.2222 62.3H51.8062C51.9969 62.3 52.1529 62.3607 52.2742 62.482C52.4129 62.6033 52.4822 62.7593 52.4822 62.95V73.818C52.4822 75.326 52.1529 76.6 51.4942 77.64C50.8355 78.6627 49.9342 79.4427 48.7902 79.98C47.6462 80.5 46.3202 80.76 44.8122 80.76ZM54.4919 80.5C54.3532 80.5 54.2232 80.448 54.1019 80.344C53.9979 80.2227 53.9459 80.0927 53.9459 79.954C53.9459 79.8673 53.9546 79.7893 53.9719 79.72L60.0819 63.028C60.1339 62.8373 60.2379 62.6727 60.3939 62.534C60.5672 62.378 60.8012 62.3 61.0959 62.3H64.9439C65.2386 62.3 65.4639 62.378 65.6199 62.534C65.7932 62.6727 65.9059 62.8373 65.9579 63.028L72.0419 79.72C72.0766 79.7893 72.0939 79.8673 72.0939 79.954C72.0939 80.0927 72.0332 80.2227 71.9119 80.344C71.8079 80.448 71.6779 80.5 71.5219 80.5H68.3239C68.0639 80.5 67.8646 80.4393 67.7259 80.318C67.6046 80.1793 67.5266 80.058 67.4919 79.954L66.4779 77.302H59.5359L58.5479 79.954C58.5132 80.058 58.4352 80.1793 58.3139 80.318C58.1926 80.4393 57.9846 80.5 57.6899 80.5H54.4919ZM60.6019 73.558H65.4379L62.9939 66.694L60.6019 73.558ZM74.7932 80.5C74.6026 80.5 74.4466 80.4393 74.3252 80.318C74.2039 80.1967 74.1432 80.0407 74.1432 79.85V62.95C74.1432 62.7593 74.2039 62.6033 74.3252 62.482C74.4466 62.3607 74.6026 62.3 74.7932 62.3H81.8652C84.1012 62.3 85.8606 62.82 87.1432 63.86C88.4432 64.8827 89.0932 66.3387 89.0932 68.228C89.0932 69.4587 88.7899 70.4987 88.1832 71.348C87.5939 72.1973 86.8139 72.8387 85.8432 73.272L89.4312 79.668C89.4832 79.772 89.5092 79.8673 89.5092 79.954C89.5092 80.0927 89.4486 80.2227 89.3272 80.344C89.2232 80.448 89.0932 80.5 88.9372 80.5H85.5052C85.1759 80.5 84.9332 80.422 84.7772 80.266C84.6212 80.0927 84.5086 79.9367 84.4392 79.798L81.4752 74.078H78.7972V79.85C78.7972 80.0407 78.7366 80.1967 78.6152 80.318C78.4939 80.4393 78.3379 80.5 78.1472 80.5H74.7932ZM78.7972 70.412H81.8132C82.6279 70.412 83.2346 70.2127 83.6332 69.814C84.0492 69.4153 84.2572 68.8693 84.2572 68.176C84.2572 67.5 84.0579 66.954 83.6592 66.538C83.2779 66.122 82.6626 65.914 81.8132 65.914H78.7972V70.412Z" fill="white"/>
</svg>
