<svg width="128" height="128" viewBox="0 0 128 128" fill="none" xmlns="http://www.w3.org/2000/svg">
<path d="M99.4782 102.512C99.4782 107.752 95.289 112 90.1213 112H37.8786C32.711 112 28.5217 107.752 28.5217 102.512V25.5582C28.5217 20.3184 32.711 16.0707 37.8786 16.0707L62.9565 16C68.1548 16 67.857 17.2873 67.857 22.5582V38.7567C67.857 44.9405 71.2039 48.2383 77.3152 48.2383H93.0991C99.5969 48.2383 99.4782 49.0506 99.4782 54.3214V102.512Z" fill="#F1C02C"/>
<path d="M62.9565 16H72.3478L99.4782 43.1304V54.3214M62.9565 16L37.8786 16.0707C32.711 16.0707 28.5217 20.3184 28.5217 25.5582V102.512C28.5217 107.752 32.711 112 37.8786 112H90.1213C95.289 112 99.4782 107.752 99.4782 102.512V54.3214M62.9565 16C68.1548 16 67.857 17.2873 67.857 22.5582V38.7567C67.857 44.9405 71.2039 48.2383 77.3152 48.2383H93.0991C99.5969 48.2383 99.4782 49.0506 99.4782 54.3214" stroke="#F1C02C" stroke-width="8" stroke-linecap="round" stroke-linejoin="round"/>
<path d="M54.7956 80.76C53.8076 80.76 52.8629 80.6387 51.9616 80.396C51.0776 80.136 50.2889 79.7547 49.5956 79.252C48.9023 78.7493 48.3476 78.1253 47.9316 77.38C47.5329 76.6347 47.3163 75.768 47.2816 74.78C47.2816 74.624 47.3336 74.494 47.4376 74.39C47.5416 74.2687 47.6803 74.208 47.8536 74.208H51.3636C51.6063 74.208 51.7883 74.2687 51.9096 74.39C52.0483 74.5113 52.1609 74.6933 52.2476 74.936C52.3343 75.4213 52.4989 75.82 52.7416 76.132C52.9843 76.4267 53.2876 76.652 53.6516 76.808C54.0329 76.9467 54.4576 77.016 54.9256 77.016C55.7923 77.016 56.4596 76.7387 56.9276 76.184C57.3956 75.612 57.6296 74.78 57.6296 73.688V66.174H49.2056C49.0323 66.174 48.8763 66.1133 48.7376 65.992C48.6163 65.8707 48.5556 65.7147 48.5556 65.524V62.95C48.5556 62.7593 48.6163 62.6033 48.7376 62.482C48.8763 62.3607 49.0323 62.3 49.2056 62.3H61.7896C61.9803 62.3 62.1363 62.3607 62.2576 62.482C62.3963 62.6033 62.4656 62.7593 62.4656 62.95V73.818C62.4656 75.326 62.1363 76.6 61.4776 77.64C60.8189 78.6627 59.9176 79.4427 58.7736 79.98C57.6296 80.5 56.3036 80.76 54.7956 80.76ZM72.7076 80.76C70.9742 80.76 69.5356 80.5173 68.3916 80.032C67.2476 79.5293 66.3809 78.8793 65.7916 78.082C65.2022 77.2847 64.8902 76.4353 64.8556 75.534C64.8556 75.3953 64.9076 75.274 65.0116 75.17C65.1329 75.0487 65.2716 74.988 65.4276 74.988H68.7036C68.9462 74.988 69.1282 75.0313 69.2496 75.118C69.3882 75.2047 69.5096 75.3173 69.6136 75.456C69.7522 75.716 69.9429 75.9673 70.1856 76.21C70.4456 76.4527 70.7749 76.652 71.1736 76.808C71.5896 76.9467 72.1009 77.016 72.7076 77.016C73.7129 77.016 74.4669 76.86 74.9696 76.548C75.4896 76.236 75.7496 75.8113 75.7496 75.274C75.7496 74.8927 75.6109 74.5807 75.3336 74.338C75.0562 74.078 74.6056 73.8527 73.9816 73.662C73.3749 73.454 72.5602 73.246 71.5376 73.038C70.2202 72.7607 69.0936 72.4053 68.1576 71.972C67.2389 71.5213 66.5369 70.9407 66.0516 70.23C65.5662 69.502 65.3236 68.6007 65.3236 67.526C65.3236 66.4687 65.6182 65.524 66.2076 64.692C66.8142 63.86 67.6549 63.21 68.7296 62.742C69.8042 62.274 71.0782 62.04 72.5516 62.04C73.7476 62.04 74.7962 62.196 75.6976 62.508C76.6162 62.82 77.3876 63.236 78.0116 63.756C78.6356 64.276 79.1036 64.8307 79.4156 65.42C79.7449 65.992 79.9182 66.5553 79.9356 67.11C79.9356 67.2487 79.8836 67.3787 79.7796 67.5C79.6756 67.604 79.5456 67.656 79.3896 67.656H75.9576C75.7669 67.656 75.6022 67.6213 75.4636 67.552C75.3249 67.4827 75.2036 67.37 75.0996 67.214C74.9956 66.8327 74.7182 66.5033 74.2676 66.226C73.8342 65.9313 73.2622 65.784 72.5516 65.784C71.7889 65.784 71.1909 65.9227 70.7576 66.2C70.3416 66.46 70.1336 66.8673 70.1336 67.422C70.1336 67.7687 70.2462 68.072 70.4716 68.332C70.7142 68.592 71.1042 68.8173 71.6416 69.008C72.1962 69.1987 72.9502 69.398 73.9036 69.606C75.4809 69.9007 76.7549 70.2733 77.7256 70.724C78.6962 71.1573 79.4069 71.7293 79.8576 72.44C80.3082 73.1333 80.5336 74.0087 80.5336 75.066C80.5336 76.2447 80.1956 77.2673 79.5196 78.134C78.8609 78.9833 77.9422 79.6333 76.7636 80.084C75.5849 80.5347 74.2329 80.76 72.7076 80.76Z" fill="white"/>
</svg>
