<svg width="128" height="128" viewBox="0 0 128 128" fill="none" xmlns="http://www.w3.org/2000/svg">
<path d="M99.4782 102.512C99.4782 107.752 95.289 112 90.1213 112H37.8786C32.711 112 28.5217 107.752 28.5217 102.512V25.5582C28.5217 20.3184 32.711 16.0707 37.8786 16.0707L62.9565 16C68.1548 16 67.857 17.2873 67.857 22.5582L80.3919 33.9932C80.3919 40.1771 79.5276 36.267 85.6389 36.267L93.0991 48.2383C99.5969 48.2383 99.4782 49.0506 99.4782 54.3214V102.512Z" fill="#F1C02C"/>
<path d="M62.9565 16H72.3478L99.4782 43.1304V54.3214M62.9565 16L37.8786 16.0707C32.711 16.0707 28.5217 20.3184 28.5217 25.5582V102.512C28.5217 107.752 32.711 112 37.8786 112H90.1213C95.289 112 99.4782 107.752 99.4782 102.512V54.3214M62.9565 16C68.1548 16 67.857 17.2873 67.857 22.5582L80.3919 33.9932C80.3919 40.1771 79.5276 36.267 85.6389 36.267L93.0991 48.2383C99.5969 48.2383 99.4782 49.0506 99.4782 54.3214" stroke="#F1C02C" stroke-width="8" stroke-linecap="round" stroke-linejoin="round"/>
<path d="M38.3357 102.74C37.4237 102.74 36.5517 102.628 35.7197 102.404C34.9037 102.164 34.1757 101.812 33.5357 101.348C32.8957 100.884 32.3837 100.308 31.9997 99.62C31.6317 98.932 31.4317 98.132 31.3997 97.22C31.3997 97.076 31.4477 96.956 31.5437 96.86C31.6397 96.748 31.7677 96.692 31.9277 96.692H35.1677C35.3917 96.692 35.5597 96.748 35.6717 96.86C35.7997 96.972 35.9037 97.14 35.9837 97.364C36.0637 97.812 36.2157 98.18 36.4397 98.468C36.6637 98.74 36.9437 98.948 37.2797 99.092C37.6317 99.22 38.0237 99.284 38.4557 99.284C39.2557 99.284 39.8717 99.028 40.3037 98.516C40.7357 97.988 40.9517 97.22 40.9517 96.212V89.276H33.1757C33.0157 89.276 32.8717 89.22 32.7437 89.108C32.6317 88.996 32.5757 88.852 32.5757 88.676V86.3C32.5757 86.124 32.6317 85.98 32.7437 85.868C32.8717 85.756 33.0157 85.7 33.1757 85.7H44.7917C44.9677 85.7 45.1117 85.756 45.2237 85.868C45.3517 85.98 45.4157 86.124 45.4157 86.3V96.332C45.4157 97.724 45.1117 98.9 44.5037 99.86C43.8957 100.804 43.0637 101.524 42.0077 102.02C40.9517 102.5 39.7277 102.74 38.3357 102.74ZM54.8698 102.74C53.2698 102.74 51.9418 102.516 50.8858 102.068C49.8298 101.604 49.0298 101.004 48.4858 100.268C47.9418 99.532 47.6538 98.748 47.6218 97.916C47.6218 97.788 47.6698 97.676 47.7658 97.58C47.8778 97.468 48.0058 97.412 48.1498 97.412H51.1738C51.3978 97.412 51.5658 97.452 51.6778 97.532C51.8058 97.612 51.9178 97.716 52.0138 97.844C52.1418 98.084 52.3178 98.316 52.5418 98.54C52.7818 98.764 53.0858 98.948 53.4538 99.092C53.8378 99.22 54.3098 99.284 54.8698 99.284C55.7978 99.284 56.4938 99.14 56.9578 98.852C57.4378 98.564 57.6778 98.172 57.6778 97.676C57.6778 97.324 57.5498 97.036 57.2938 96.812C57.0378 96.572 56.6218 96.364 56.0458 96.188C55.4858 95.996 54.7338 95.804 53.7898 95.612C52.5738 95.356 51.5338 95.028 50.6698 94.628C49.8218 94.212 49.1738 93.676 48.7258 93.02C48.2778 92.348 48.0538 91.516 48.0538 90.524C48.0538 89.548 48.3258 88.676 48.8698 87.908C49.4298 87.14 50.2058 86.54 51.1978 86.108C52.1898 85.676 53.3658 85.46 54.7258 85.46C55.8298 85.46 56.7978 85.604 57.6298 85.892C58.4778 86.18 59.1898 86.564 59.7658 87.044C60.3418 87.524 60.7738 88.036 61.0618 88.58C61.3658 89.108 61.5258 89.628 61.5418 90.14C61.5418 90.268 61.4938 90.388 61.3978 90.5C61.3018 90.596 61.1818 90.644 61.0378 90.644H57.8698C57.6938 90.644 57.5418 90.612 57.4138 90.548C57.2858 90.484 57.1738 90.38 57.0778 90.236C56.9818 89.884 56.7258 89.58 56.3098 89.324C55.9098 89.052 55.3818 88.916 54.7258 88.916C54.0218 88.916 53.4698 89.044 53.0698 89.3C52.6858 89.54 52.4938 89.916 52.4938 90.428C52.4938 90.748 52.5978 91.028 52.8058 91.268C53.0298 91.508 53.3898 91.716 53.8858 91.892C54.3978 92.068 55.0938 92.252 55.9738 92.444C57.4298 92.716 58.6058 93.06 59.5018 93.476C60.3978 93.876 61.0538 94.404 61.4698 95.06C61.8858 95.7 62.0938 96.508 62.0938 97.484C62.0938 98.572 61.7818 99.516 61.1578 100.316C60.5498 101.1 59.7018 101.7 58.6138 102.116C57.5258 102.532 56.2778 102.74 54.8698 102.74ZM71.3604 102.74C69.8884 102.74 68.6084 102.5 67.5204 102.02C66.4324 101.54 65.5844 100.82 64.9764 99.86C64.3684 98.884 64.0324 97.668 63.9684 96.212C63.9524 95.524 63.9444 94.836 63.9444 94.148C63.9444 93.46 63.9524 92.764 63.9684 92.06C64.0324 90.62 64.3684 89.412 64.9764 88.436C65.6004 87.444 66.4564 86.7 67.5444 86.204C68.6324 85.708 69.9044 85.46 71.3604 85.46C72.8004 85.46 74.0644 85.708 75.1524 86.204C76.2564 86.7 77.1204 87.444 77.7444 88.436C78.3684 89.412 78.7044 90.62 78.7524 92.06C78.7844 92.764 78.8004 93.46 78.8004 94.148C78.8004 94.836 78.7844 95.524 78.7524 96.212C78.6884 97.668 78.3524 98.884 77.7444 99.86C77.1364 100.82 76.2884 101.54 75.2004 102.02C74.1124 102.5 72.8324 102.74 71.3604 102.74ZM71.3604 99.284C72.2084 99.284 72.8964 99.028 73.4244 98.516C73.9684 98.004 74.2564 97.188 74.2884 96.068C74.3204 95.364 74.3364 94.7 74.3364 94.076C74.3364 93.452 74.3204 92.804 74.2884 92.132C74.2564 91.38 74.1124 90.772 73.8564 90.308C73.6164 89.828 73.2804 89.476 72.8484 89.252C72.4164 89.028 71.9204 88.916 71.3604 88.916C70.8164 88.916 70.3284 89.028 69.8964 89.252C69.4644 89.476 69.1204 89.828 68.8644 90.308C68.6084 90.772 68.4644 91.38 68.4324 92.132C68.4164 92.804 68.4084 93.452 68.4084 94.076C68.4084 94.7 68.4164 95.364 68.4324 96.068C68.4804 97.188 68.7684 98.004 69.2964 98.516C69.8244 99.028 70.5124 99.284 71.3604 99.284ZM82.1823 102.5C82.0063 102.5 81.8623 102.444 81.7503 102.332C81.6383 102.22 81.5823 102.076 81.5823 101.9V86.3C81.5823 86.124 81.6383 85.98 81.7503 85.868C81.8623 85.756 82.0063 85.7 82.1823 85.7H84.7263C84.9983 85.7 85.1903 85.764 85.3023 85.892C85.4303 86.004 85.5103 86.092 85.5423 86.156L91.3983 95.396V86.3C91.3983 86.124 91.4543 85.98 91.5663 85.868C91.6783 85.756 91.8223 85.7 91.9983 85.7H94.8783C95.0543 85.7 95.1983 85.756 95.3103 85.868C95.4223 85.98 95.4783 86.124 95.4783 86.3V101.9C95.4783 102.06 95.4223 102.204 95.3103 102.332C95.1983 102.444 95.0543 102.5 94.8783 102.5H92.3103C92.0543 102.5 91.8623 102.436 91.7343 102.308C91.6223 102.18 91.5503 102.092 91.5183 102.044L85.6623 93.164V101.9C85.6623 102.076 85.6063 102.22 85.4943 102.332C85.3823 102.444 85.2383 102.5 85.0623 102.5H82.1823Z" fill="#ABACBA"/>
<path d="M57.21 74.626C55.6367 74.626 54.1967 74.386 52.89 73.906C51.5833 73.426 50.4367 72.706 49.45 71.746C48.49 70.786 47.7433 69.586 47.21 68.146C46.7033 66.706 46.45 65.0127 46.45 63.066C46.45 61.9727 46.2633 61.0394 45.89 60.266C45.5433 59.4927 44.9967 58.906 44.25 58.506L43.73 58.306C43.01 57.906 42.65 57.3594 42.65 56.666V55.226C42.65 54.5327 43.01 53.986 43.73 53.586L44.25 53.386C45.0233 52.986 45.5833 52.3994 45.93 51.626C46.2767 50.8527 46.45 49.9194 46.45 48.826C46.45 46.8794 46.7033 45.1994 47.21 43.786C47.7433 42.346 48.49 41.146 49.45 40.186C50.41 39.226 51.5433 38.506 52.85 38.026C54.1567 37.546 55.5833 37.2927 57.13 37.266H57.41C57.65 37.266 57.85 37.3594 58.01 37.546C58.1967 37.706 58.29 37.906 58.29 38.146V41.786C58.29 42.026 58.21 42.226 58.05 42.386C57.89 42.546 57.7033 42.6394 57.49 42.666H57.33C56.21 42.746 55.3033 43.026 54.61 43.506C53.9167 43.9594 53.41 44.666 53.09 45.626C52.77 46.586 52.61 47.8527 52.61 49.426C52.61 51.106 52.33 52.5194 51.77 53.666C51.21 54.786 50.5033 55.546 49.65 55.946C50.21 56.186 50.7033 56.626 51.13 57.266C51.5833 57.906 51.9433 58.6794 52.21 59.586C52.4767 60.466 52.61 61.426 52.61 62.466C52.61 64.0127 52.77 65.2794 53.09 66.266C53.41 67.226 53.9167 67.9327 54.61 68.386C55.3033 68.8394 56.1967 69.1194 57.29 69.226L57.49 69.266C57.7033 69.266 57.89 69.346 58.05 69.506C58.21 69.666 58.29 69.8794 58.29 70.146V73.746C58.29 74.0127 58.1967 74.226 58.01 74.386C57.85 74.546 57.65 74.626 57.41 74.626H57.21ZM69.8378 37.266C71.4111 37.2927 72.8378 37.546 74.1178 38.026C75.4245 38.506 76.5578 39.226 77.5178 40.186C78.5045 41.1194 79.2645 42.3194 79.7978 43.786C80.3311 45.226 80.5978 46.906 80.5978 48.826C80.5978 49.946 80.7711 50.8927 81.1178 51.666C81.4645 52.4127 82.0111 52.986 82.7578 53.386L83.2778 53.626C83.9978 53.9994 84.3578 54.5327 84.3578 55.226V56.706C84.3578 57.3994 83.9978 57.9327 83.2778 58.306L82.7578 58.546C81.9845 58.9194 81.4245 59.4927 81.0778 60.266C80.7578 61.0394 80.5978 61.9727 80.5978 63.066C80.5978 65.0127 80.3311 66.706 79.7978 68.146C79.2645 69.586 78.5178 70.7727 77.5578 71.706C76.5978 72.666 75.4645 73.386 74.1578 73.866C72.8511 74.3727 71.4245 74.626 69.8778 74.626H69.6378C69.3711 74.626 69.1578 74.546 68.9978 74.386C68.8378 74.226 68.7578 74.0127 68.7578 73.746V70.146C68.7578 69.8794 68.8378 69.666 68.9978 69.506C69.1578 69.346 69.3445 69.266 69.5578 69.266H69.6778C70.7978 69.1594 71.7045 68.866 72.3978 68.386C73.1178 67.9327 73.6378 67.226 73.9578 66.266C74.2778 65.306 74.4378 64.0527 74.4378 62.506C74.4378 60.7994 74.7045 59.386 75.2378 58.266C75.7978 57.1194 76.5045 56.346 77.3578 55.946C76.7978 55.6794 76.2911 55.2394 75.8378 54.626C75.4111 53.986 75.0645 53.226 74.7978 52.346C74.5578 51.466 74.4378 50.4927 74.4378 49.426C74.4378 47.8527 74.2778 46.5994 73.9578 45.666C73.6378 44.706 73.1311 43.986 72.4378 43.506C71.7445 43.026 70.8511 42.746 69.7578 42.666H69.5578C69.3445 42.6394 69.1578 42.546 68.9978 42.386C68.8378 42.226 68.7578 42.026 68.7578 41.786V38.146C68.7578 37.906 68.8378 37.706 68.9978 37.546C69.1578 37.3594 69.3711 37.266 69.6378 37.266H69.8378Z" fill="#ABACBA"/>
</svg>
