<svg width="128" height="128" viewBox="0 0 128 128" fill="none" xmlns="http://www.w3.org/2000/svg">
<path d="M99.4782 102.512C99.4782 107.752 95.289 112 90.1213 112H37.8786C32.711 112 28.5217 107.752 28.5217 102.512V25.5582C28.5217 20.3184 32.711 16.0707 37.8786 16.0707L62.9565 16C68.1548 16 67.857 17.2873 67.857 22.5582L80.3919 33.9932C80.3919 40.1771 79.5276 36.267 85.6389 36.267L93.0991 48.2383C99.5969 48.2383 99.4782 49.0506 99.4782 54.3214V102.512Z" fill="#F1C02C"/>
<path d="M62.9565 16H72.3478L99.4782 43.1304V54.3214M62.9565 16L37.8786 16.0707C32.711 16.0707 28.5217 20.3184 28.5217 25.5582V102.512C28.5217 107.752 32.711 112 37.8786 112H90.1213C95.289 112 99.4782 107.752 99.4782 102.512V54.3214M62.9565 16C68.1548 16 67.857 17.2873 67.857 22.5582L80.3919 33.9932C80.3919 40.1771 79.5276 36.267 85.6389 36.267L93.0991 48.2383C99.5969 48.2383 99.4782 49.0506 99.4782 54.3214" stroke="#F1C02C" stroke-width="8" stroke-linecap="round" stroke-linejoin="round"/>
<path d="M35.697 104.76C34.709 104.76 33.7643 104.639 32.863 104.396C31.979 104.136 31.1903 103.755 30.497 103.252C29.8036 102.749 29.249 102.125 28.833 101.38C28.4343 100.635 28.2176 99.768 28.183 98.78C28.183 98.624 28.235 98.494 28.339 98.39C28.443 98.2687 28.5816 98.208 28.755 98.208H32.265C32.5076 98.208 32.6896 98.2687 32.811 98.39C32.9496 98.5113 33.0623 98.6933 33.149 98.936C33.2356 99.4213 33.4003 99.82 33.643 100.132C33.8856 100.427 34.189 100.652 34.553 100.808C34.9343 100.947 35.359 101.016 35.827 101.016C36.6936 101.016 37.361 100.739 37.829 100.184C38.297 99.612 38.531 98.78 38.531 97.688V90.174H30.107C29.9336 90.174 29.7776 90.1133 29.639 89.992C29.5176 89.8707 29.457 89.7147 29.457 89.524V86.95C29.457 86.7593 29.5176 86.6033 29.639 86.482C29.7776 86.3607 29.9336 86.3 30.107 86.3H42.691C42.8816 86.3 43.0376 86.3607 43.159 86.482C43.2976 86.6033 43.367 86.7593 43.367 86.95V97.818C43.367 99.326 43.0376 100.6 42.379 101.64C41.7203 102.663 40.819 103.443 39.675 103.98C38.531 104.5 37.205 104.76 35.697 104.76ZM53.6089 104.76C51.8756 104.76 50.4369 104.517 49.2929 104.032C48.1489 103.529 47.2823 102.879 46.6929 102.082C46.1036 101.285 45.7916 100.435 45.7569 99.534C45.7569 99.3953 45.8089 99.274 45.9129 99.17C46.0343 99.0487 46.1729 98.988 46.3289 98.988H49.6049C49.8476 98.988 50.0296 99.0313 50.1509 99.118C50.2896 99.2047 50.4109 99.3173 50.5149 99.456C50.6536 99.716 50.8443 99.9673 51.0869 100.21C51.3469 100.453 51.6763 100.652 52.0749 100.808C52.4909 100.947 53.0023 101.016 53.6089 101.016C54.6143 101.016 55.3683 100.86 55.8709 100.548C56.3909 100.236 56.6509 99.8113 56.6509 99.274C56.6509 98.8927 56.5123 98.5807 56.2349 98.338C55.9576 98.078 55.5069 97.8527 54.8829 97.662C54.2763 97.454 53.4616 97.246 52.4389 97.038C51.1216 96.7607 49.9949 96.4053 49.0589 95.972C48.1403 95.5213 47.4383 94.9407 46.9529 94.23C46.4676 93.502 46.2249 92.6007 46.2249 91.526C46.2249 90.4687 46.5196 89.524 47.1089 88.692C47.7156 87.86 48.5563 87.21 49.6309 86.742C50.7056 86.274 51.9796 86.04 53.4529 86.04C54.6489 86.04 55.6976 86.196 56.5989 86.508C57.5176 86.82 58.2889 87.236 58.9129 87.756C59.5369 88.276 60.0049 88.8307 60.3169 89.42C60.6463 89.992 60.8196 90.5553 60.8369 91.11C60.8369 91.2487 60.7849 91.3787 60.6809 91.5C60.5769 91.604 60.4469 91.656 60.2909 91.656H56.8589C56.6683 91.656 56.5036 91.6213 56.3649 91.552C56.2263 91.4827 56.1049 91.37 56.0009 91.214C55.8969 90.8327 55.6196 90.5033 55.1689 90.226C54.7356 89.9313 54.1636 89.784 53.4529 89.784C52.6903 89.784 52.0923 89.9227 51.6589 90.2C51.2429 90.46 51.0349 90.8673 51.0349 91.422C51.0349 91.7687 51.1476 92.072 51.3729 92.332C51.6156 92.592 52.0056 92.8173 52.5429 93.008C53.0976 93.1987 53.8516 93.398 54.8049 93.606C56.3823 93.9007 57.6563 94.2733 58.6269 94.724C59.5976 95.1573 60.3083 95.7293 60.7589 96.44C61.2096 97.1333 61.4349 98.0087 61.4349 99.066C61.4349 100.245 61.0969 101.267 60.4209 102.134C59.7623 102.983 58.8436 103.633 57.6649 104.084C56.4863 104.535 55.1343 104.76 53.6089 104.76ZM71.4738 104.76C69.8791 104.76 68.4924 104.5 67.3138 103.98C66.1351 103.46 65.2164 102.68 64.5578 101.64C63.8991 100.583 63.5351 99.2653 63.4658 97.688C63.4484 96.9427 63.4398 96.1973 63.4398 95.452C63.4398 94.7067 63.4484 93.9527 63.4658 93.19C63.5351 91.63 63.8991 90.3213 64.5578 89.264C65.2338 88.1893 66.1611 87.3833 67.3398 86.846C68.5184 86.3087 69.8964 86.04 71.4738 86.04C73.0338 86.04 74.4031 86.3087 75.5818 86.846C76.7778 87.3833 77.7138 88.1893 78.3898 89.264C79.0658 90.3213 79.4298 91.63 79.4818 93.19C79.5164 93.9527 79.5338 94.7067 79.5338 95.452C79.5338 96.1973 79.5164 96.9427 79.4818 97.688C79.4124 99.2653 79.0484 100.583 78.3898 101.64C77.7311 102.68 76.8124 103.46 75.6338 103.98C74.4551 104.5 73.0684 104.76 71.4738 104.76ZM71.4738 101.016C72.3924 101.016 73.1378 100.739 73.7098 100.184C74.2991 99.6293 74.6111 98.7453 74.6458 97.532C74.6804 96.7693 74.6978 96.05 74.6978 95.374C74.6978 94.698 74.6804 93.996 74.6458 93.268C74.6111 92.4533 74.4551 91.7947 74.1778 91.292C73.9178 90.772 73.5538 90.3907 73.0858 90.148C72.6178 89.9053 72.0804 89.784 71.4738 89.784C70.8844 89.784 70.3558 89.9053 69.8878 90.148C69.4198 90.3907 69.0471 90.772 68.7698 91.292C68.4924 91.7947 68.3364 92.4533 68.3018 93.268C68.2844 93.996 68.2758 94.698 68.2758 95.374C68.2758 96.05 68.2844 96.7693 68.3018 97.532C68.3538 98.7453 68.6658 99.6293 69.2378 100.184C69.8098 100.739 70.5551 101.016 71.4738 101.016ZM83.1975 104.5C83.0069 104.5 82.8509 104.439 82.7295 104.318C82.6082 104.197 82.5475 104.041 82.5475 103.85V86.95C82.5475 86.7593 82.6082 86.6033 82.7295 86.482C82.8509 86.3607 83.0069 86.3 83.1975 86.3H85.9535C86.2482 86.3 86.4562 86.3693 86.5775 86.508C86.7162 86.6293 86.8029 86.7247 86.8375 86.794L93.1815 96.804V86.95C93.1815 86.7593 93.2422 86.6033 93.3635 86.482C93.4849 86.3607 93.6409 86.3 93.8315 86.3H96.9515C97.1422 86.3 97.2982 86.3607 97.4195 86.482C97.5409 86.6033 97.6015 86.7593 97.6015 86.95V103.85C97.6015 104.023 97.5409 104.179 97.4195 104.318C97.2982 104.439 97.1422 104.5 96.9515 104.5H94.1695C93.8922 104.5 93.6842 104.431 93.5455 104.292C93.4242 104.153 93.3462 104.058 93.3115 104.006L86.9675 94.386V103.85C86.9675 104.041 86.9069 104.197 86.7855 104.318C86.6642 104.439 86.5082 104.5 86.3175 104.5H83.1975Z" fill="white"/>
<path d="M57.21 74.626C55.6367 74.626 54.1967 74.386 52.89 73.906C51.5833 73.426 50.4367 72.706 49.45 71.746C48.49 70.786 47.7433 69.586 47.21 68.146C46.7033 66.706 46.45 65.0127 46.45 63.066C46.45 61.9727 46.2633 61.0394 45.89 60.266C45.5433 59.4927 44.9967 58.906 44.25 58.506L43.73 58.306C43.01 57.906 42.65 57.3594 42.65 56.666V55.226C42.65 54.5327 43.01 53.986 43.73 53.586L44.25 53.386C45.0233 52.986 45.5833 52.3994 45.93 51.626C46.2767 50.8527 46.45 49.9194 46.45 48.826C46.45 46.8794 46.7033 45.1994 47.21 43.786C47.7433 42.346 48.49 41.146 49.45 40.186C50.41 39.226 51.5433 38.506 52.85 38.026C54.1567 37.546 55.5833 37.2927 57.13 37.266H57.41C57.65 37.266 57.85 37.3594 58.01 37.546C58.1967 37.706 58.29 37.906 58.29 38.146V41.786C58.29 42.026 58.21 42.226 58.05 42.386C57.89 42.546 57.7033 42.6394 57.49 42.666H57.33C56.21 42.746 55.3033 43.026 54.61 43.506C53.9167 43.9594 53.41 44.666 53.09 45.626C52.77 46.586 52.61 47.8527 52.61 49.426C52.61 51.106 52.33 52.5194 51.77 53.666C51.21 54.786 50.5033 55.546 49.65 55.946C50.21 56.186 50.7033 56.626 51.13 57.266C51.5833 57.906 51.9433 58.6794 52.21 59.586C52.4767 60.466 52.61 61.426 52.61 62.466C52.61 64.0127 52.77 65.2794 53.09 66.266C53.41 67.226 53.9167 67.9327 54.61 68.386C55.3033 68.8394 56.1967 69.1194 57.29 69.226L57.49 69.266C57.7033 69.266 57.89 69.346 58.05 69.506C58.21 69.666 58.29 69.8794 58.29 70.146V73.746C58.29 74.0127 58.1967 74.226 58.01 74.386C57.85 74.546 57.65 74.626 57.41 74.626H57.21ZM69.8378 37.266C71.4111 37.2927 72.8378 37.546 74.1178 38.026C75.4245 38.506 76.5578 39.226 77.5178 40.186C78.5045 41.1194 79.2645 42.3194 79.7978 43.786C80.3311 45.226 80.5978 46.906 80.5978 48.826C80.5978 49.946 80.7711 50.8927 81.1178 51.666C81.4645 52.4127 82.0111 52.986 82.7578 53.386L83.2778 53.626C83.9978 53.9994 84.3578 54.5327 84.3578 55.226V56.706C84.3578 57.3994 83.9978 57.9327 83.2778 58.306L82.7578 58.546C81.9845 58.9194 81.4245 59.4927 81.0778 60.266C80.7578 61.0394 80.5978 61.9727 80.5978 63.066C80.5978 65.0127 80.3311 66.706 79.7978 68.146C79.2645 69.586 78.5178 70.7727 77.5578 71.706C76.5978 72.666 75.4645 73.386 74.1578 73.866C72.8511 74.3727 71.4245 74.626 69.8778 74.626H69.6378C69.3711 74.626 69.1578 74.546 68.9978 74.386C68.8378 74.226 68.7578 74.0127 68.7578 73.746V70.146C68.7578 69.8794 68.8378 69.666 68.9978 69.506C69.1578 69.346 69.3445 69.266 69.5578 69.266H69.6778C70.7978 69.1594 71.7045 68.866 72.3978 68.386C73.1178 67.9327 73.6378 67.226 73.9578 66.266C74.2778 65.306 74.4378 64.0527 74.4378 62.506C74.4378 60.7994 74.7045 59.386 75.2378 58.266C75.7978 57.1194 76.5045 56.346 77.3578 55.946C76.7978 55.6794 76.2911 55.2394 75.8378 54.626C75.4111 53.986 75.0645 53.226 74.7978 52.346C74.5578 51.466 74.4378 50.4927 74.4378 49.426C74.4378 47.8527 74.2778 46.5994 73.9578 45.666C73.6378 44.706 73.1311 43.986 72.4378 43.506C71.7445 43.026 70.8511 42.746 69.7578 42.666H69.5578C69.3445 42.6394 69.1578 42.546 68.9978 42.386C68.8378 42.226 68.7578 42.026 68.7578 41.786V38.146C68.7578 37.906 68.8378 37.706 68.9978 37.546C69.1578 37.3594 69.3711 37.266 69.6378 37.266H69.8378Z" fill="white"/>
</svg>
