<svg width="128" height="128" viewBox="0 0 128 128" fill="none" xmlns="http://www.w3.org/2000/svg">
<path d="M99.4782 102.512C99.4782 107.752 95.289 112 90.1213 112H37.8786C32.711 112 28.5217 107.752 28.5217 102.512V25.5582C28.5217 20.3184 32.711 16.0707 37.8786 16.0707L62.9565 16C68.1548 16 67.857 17.2873 67.857 22.5582L81.3102 33.1152C81.3102 39.2991 80.1148 38.0312 86.2262 38.0312L93.0991 48.2383C99.5969 48.2383 99.4782 49.0506 99.4782 54.3214V102.512Z" fill="#7F7F88"/>
<path d="M62.9565 16H72.3478L99.4782 43.1304V54.3214M62.9565 16L37.8786 16.0707C32.711 16.0707 28.5217 20.3184 28.5217 25.5582V102.512C28.5217 107.752 32.711 112 37.8786 112H90.1213C95.289 112 99.4782 107.752 99.4782 102.512V54.3214M62.9565 16C68.1548 16 67.857 17.2873 67.857 22.5582L81.3102 33.1152C81.3102 39.2991 80.1148 38.0312 86.2262 38.0312L93.0991 48.2383C99.5969 48.2383 99.4782 49.0506 99.4782 54.3214" stroke="#7F7F88" stroke-width="8" stroke-linecap="round" stroke-linejoin="round"/>
<path d="M51.7711 66.4851L70.9618 47.1265" stroke="white" stroke-width="7" stroke-linecap="round" stroke-linejoin="round"/>
<path d="M76.2183 62.3173L76.2268 41.971" stroke="white" stroke-width="7" stroke-linecap="round" stroke-linejoin="round"/>
<path d="M55.8669 42.0547L76.214 41.8689" stroke="white" stroke-width="7" stroke-linecap="round" stroke-linejoin="round"/>
<path d="M40.762 101.392C40.5713 101.392 40.4153 101.331 40.294 101.21C40.1727 101.089 40.112 100.933 40.112 100.742V83.842C40.112 83.6513 40.1727 83.4953 40.294 83.374C40.4153 83.2526 40.5713 83.192 40.762 83.192H44.194C44.3673 83.192 44.5147 83.2526 44.636 83.374C44.7747 83.4953 44.844 83.6513 44.844 83.842V97.466H52.696C52.8867 97.466 53.0427 97.5353 53.164 97.674C53.3027 97.7953 53.372 97.9513 53.372 98.142V100.742C53.372 100.933 53.3027 101.089 53.164 101.21C53.0427 101.331 52.8867 101.392 52.696 101.392H40.762ZM56.2757 101.392C56.085 101.392 55.929 101.331 55.8077 101.21C55.6863 101.089 55.6257 100.933 55.6257 100.742V83.842C55.6257 83.6513 55.6863 83.4953 55.8077 83.374C55.929 83.2526 56.085 83.192 56.2757 83.192H59.0317C59.3263 83.192 59.5343 83.2613 59.6557 83.4C59.7943 83.5213 59.881 83.6166 59.9157 83.686L66.2597 93.696V83.842C66.2597 83.6513 66.3203 83.4953 66.4417 83.374C66.563 83.2526 66.719 83.192 66.9097 83.192H70.0297C70.2203 83.192 70.3763 83.2526 70.4977 83.374C70.619 83.4953 70.6797 83.6513 70.6797 83.842V100.742C70.6797 100.915 70.619 101.071 70.4977 101.21C70.3763 101.331 70.2203 101.392 70.0297 101.392H67.2477C66.9703 101.392 66.7623 101.323 66.6237 101.184C66.5023 101.045 66.4243 100.95 66.3897 100.898L60.0457 91.278V100.742C60.0457 100.933 59.985 101.089 59.8637 101.21C59.7423 101.331 59.5863 101.392 59.3957 101.392H56.2757ZM74.9632 101.392C74.7725 101.392 74.6165 101.331 74.4952 101.21C74.3738 101.089 74.3132 100.933 74.3132 100.742V83.842C74.3132 83.6513 74.3738 83.4953 74.4952 83.374C74.6165 83.2526 74.7725 83.192 74.9632 83.192H78.2392C78.4298 83.192 78.5858 83.2526 78.7072 83.374C78.8285 83.4953 78.8892 83.6513 78.8892 83.842V89.614L83.6992 83.686C83.7685 83.582 83.8812 83.478 84.0372 83.374C84.2105 83.2526 84.4358 83.192 84.7132 83.192H88.4572C88.6132 83.192 88.7432 83.2526 88.8472 83.374C88.9512 83.478 89.0032 83.5993 89.0032 83.738C89.0032 83.8593 88.9685 83.9633 88.8992 84.05L82.6852 91.902L89.3932 100.534C89.4625 100.603 89.4972 100.707 89.4972 100.846C89.4972 100.985 89.4365 101.115 89.3152 101.236C89.2112 101.34 89.0898 101.392 88.9512 101.392H85.0772C84.7652 101.392 84.5225 101.323 84.3492 101.184C84.1932 101.045 84.0892 100.941 84.0372 100.872L78.8892 94.45V100.742C78.8892 100.933 78.8285 101.089 78.7072 101.21C78.5858 101.331 78.4298 101.392 78.2392 101.392H74.9632Z" fill="white"/>
</svg>
