<svg width="128" height="128" viewBox="0 0 128 128" fill="none" xmlns="http://www.w3.org/2000/svg">
<path d="M99.4782 102.512C99.4782 107.752 95.289 112 90.1213 112H37.8786C32.711 112 28.5217 107.752 28.5217 102.512V25.5582C28.5217 20.3184 32.711 16.0707 37.8786 16.0707L62.9565 16C68.1548 16 67.857 17.2873 67.857 22.5582V38.7567C67.857 44.9405 71.2039 48.2383 77.3152 48.2383H93.0991C99.5969 48.2383 99.4782 49.0506 99.4782 54.3214V102.512Z" fill="#7F7F88"/>
<path d="M62.9565 16H72.3478L99.4782 43.1304V54.3214M62.9565 16L37.8786 16.0707C32.711 16.0707 28.5217 20.3184 28.5217 25.5582V102.512C28.5217 107.752 32.711 112 37.8786 112H90.1213C95.289 112 99.4782 107.752 99.4782 102.512V54.3214M62.9565 16C68.1548 16 67.857 17.2873 67.857 22.5582V38.7567C67.857 44.9405 71.2039 48.2383 77.3152 48.2383H93.0991C99.5969 48.2383 99.4782 49.0506 99.4782 54.3214" stroke="#7F7F88" stroke-width="8" stroke-linecap="round" stroke-linejoin="round"/>
<path d="M33.7995 78.5C33.6235 78.5 33.4795 78.444 33.3675 78.332C33.2555 78.22 33.1995 78.076 33.1995 77.9V62.3C33.1995 62.124 33.2555 61.98 33.3675 61.868C33.4795 61.756 33.6235 61.7 33.7995 61.7H36.9675C37.1275 61.7 37.2635 61.756 37.3755 61.868C37.5035 61.98 37.5675 62.124 37.5675 62.3V74.876H44.8155C44.9915 74.876 45.1355 74.94 45.2475 75.068C45.3755 75.18 45.4395 75.324 45.4395 75.5V77.9C45.4395 78.076 45.3755 78.22 45.2475 78.332C45.1355 78.444 44.9915 78.5 44.8155 78.5H33.7995ZM54.1963 78.74C52.7243 78.74 51.4443 78.5 50.3563 78.02C49.2683 77.54 48.4203 76.82 47.8123 75.86C47.2043 74.884 46.8683 73.668 46.8043 72.212C46.7883 71.524 46.7803 70.836 46.7803 70.148C46.7803 69.46 46.7883 68.764 46.8043 68.06C46.8683 66.62 47.2043 65.412 47.8123 64.436C48.4363 63.444 49.2923 62.7 50.3803 62.204C51.4683 61.708 52.7403 61.46 54.1963 61.46C55.6363 61.46 56.9003 61.708 57.9883 62.204C59.0923 62.7 59.9563 63.444 60.5803 64.436C61.2043 65.412 61.5403 66.62 61.5883 68.06C61.6203 68.764 61.6363 69.46 61.6363 70.148C61.6363 70.836 61.6203 71.524 61.5883 72.212C61.5243 73.668 61.1883 74.884 60.5803 75.86C59.9723 76.82 59.1243 77.54 58.0363 78.02C56.9483 78.5 55.6683 78.74 54.1963 78.74ZM54.1963 75.284C55.0443 75.284 55.7323 75.028 56.2603 74.516C56.8043 74.004 57.0923 73.188 57.1243 72.068C57.1563 71.364 57.1723 70.7 57.1723 70.076C57.1723 69.452 57.1563 68.804 57.1243 68.132C57.0923 67.38 56.9483 66.772 56.6923 66.308C56.4523 65.828 56.1163 65.476 55.6843 65.252C55.2523 65.028 54.7563 64.916 54.1963 64.916C53.6523 64.916 53.1643 65.028 52.7323 65.252C52.3003 65.476 51.9563 65.828 51.7003 66.308C51.4443 66.772 51.3003 67.38 51.2683 68.132C51.2523 68.804 51.2443 69.452 51.2443 70.076C51.2443 70.7 51.2523 71.364 51.2683 72.068C51.3163 73.188 51.6043 74.004 52.1323 74.516C52.6603 75.028 53.3483 75.284 54.1963 75.284ZM71.3063 78.74C69.7863 78.74 68.4823 78.492 67.3943 77.996C66.3223 77.5 65.4823 76.772 64.8743 75.812C64.2823 74.852 63.9543 73.66 63.8903 72.236C63.8743 71.58 63.8663 70.876 63.8663 70.124C63.8663 69.372 63.8743 68.652 63.8903 67.964C63.9543 66.572 64.2903 65.396 64.8983 64.436C65.5063 63.46 66.3543 62.724 67.4423 62.228C68.5303 61.716 69.8183 61.46 71.3063 61.46C72.3623 61.46 73.3383 61.596 74.2343 61.868C75.1303 62.124 75.9143 62.508 76.5863 63.02C77.2583 63.516 77.7783 64.124 78.1463 64.844C78.5303 65.548 78.7303 66.348 78.7463 67.244C78.7623 67.388 78.7143 67.508 78.6023 67.604C78.5063 67.7 78.3863 67.748 78.2423 67.748H75.0023C74.7943 67.748 74.6343 67.708 74.5223 67.628C74.4103 67.532 74.3143 67.364 74.2343 67.124C74.0103 66.276 73.6423 65.7 73.1303 65.396C72.6343 65.076 72.0183 64.916 71.2823 64.916C70.4023 64.916 69.7063 65.164 69.1943 65.66C68.6823 66.14 68.4023 66.948 68.3543 68.084C68.3063 69.396 68.3063 70.74 68.3543 72.116C68.4023 73.252 68.6823 74.068 69.1943 74.564C69.7063 75.044 70.4023 75.284 71.2823 75.284C72.0183 75.284 72.6423 75.124 73.1543 74.804C73.6663 74.484 74.0263 73.908 74.2343 73.076C74.2983 72.836 74.3863 72.676 74.4983 72.596C74.6263 72.5 74.7943 72.452 75.0023 72.452H78.2423C78.3863 72.452 78.5063 72.5 78.6023 72.596C78.7143 72.692 78.7623 72.812 78.7463 72.956C78.7303 73.852 78.5303 74.66 78.1463 75.38C77.7783 76.084 77.2583 76.692 76.5863 77.204C75.9143 77.7 75.1303 78.084 74.2343 78.356C73.3383 78.612 72.3623 78.74 71.3063 78.74ZM81.8698 78.5C81.6938 78.5 81.5498 78.444 81.4378 78.332C81.3258 78.22 81.2698 78.076 81.2698 77.9V62.3C81.2698 62.124 81.3258 61.98 81.4378 61.868C81.5498 61.756 81.6938 61.7 81.8698 61.7H84.8938C85.0698 61.7 85.2138 61.756 85.3258 61.868C85.4378 61.98 85.4938 62.124 85.4938 62.3V67.628L89.9338 62.156C89.9978 62.06 90.1018 61.964 90.2458 61.868C90.4058 61.756 90.6138 61.7 90.8698 61.7H94.3258C94.4698 61.7 94.5898 61.756 94.6858 61.868C94.7818 61.964 94.8298 62.076 94.8298 62.204C94.8298 62.316 94.7978 62.412 94.7338 62.492L88.9978 69.74L95.1898 77.708C95.2538 77.772 95.2858 77.868 95.2858 77.996C95.2858 78.124 95.2298 78.244 95.1178 78.356C95.0218 78.452 94.9098 78.5 94.7818 78.5H91.2058C90.9178 78.5 90.6938 78.436 90.5338 78.308C90.3898 78.18 90.2938 78.084 90.2458 78.02L85.4938 72.092V77.9C85.4938 78.076 85.4378 78.22 85.3258 78.332C85.2138 78.444 85.0698 78.5 84.8938 78.5H81.8698Z" fill="white"/>
</svg>
