<svg width="128" height="128" viewBox="0 0 128 128" fill="none" xmlns="http://www.w3.org/2000/svg">
<path d="M99.4782 102.512C99.4782 107.752 95.289 112 90.1213 112H37.8786C32.711 112 28.5217 107.752 28.5217 102.512V25.5582C28.5217 20.3184 32.711 16.0707 37.8786 16.0707L62.9565 16C68.1548 16 67.857 17.2873 67.857 22.5582V38.7567C67.857 44.9405 71.2039 48.2383 77.3152 48.2383H93.0991C99.5969 48.2383 99.4782 49.0506 99.4782 54.3214V102.512Z" fill="#ABACBA"/>
<path d="M62.9565 16H72.3478L99.4782 43.1304V54.3214M62.9565 16L37.8786 16.0707C32.711 16.0707 28.5217 20.3184 28.5217 25.5582V102.512C28.5217 107.752 32.711 112 37.8786 112H90.1213C95.289 112 99.4782 107.752 99.4782 102.512V54.3214M62.9565 16C68.1548 16 67.857 17.2873 67.857 22.5582V38.7567C67.857 44.9405 71.2039 48.2383 77.3152 48.2383H93.0991C99.5969 48.2383 99.4782 49.0506 99.4782 54.3214" stroke="#ABACBA" stroke-width="8" stroke-linecap="round" stroke-linejoin="round"/>
<path d="M40.2034 80.5C40.0127 80.5 39.8567 80.4393 39.7354 80.318C39.6141 80.1967 39.5534 80.0407 39.5534 79.85V62.95C39.5534 62.7593 39.6141 62.6033 39.7354 62.482C39.8567 62.3607 40.0127 62.3 40.2034 62.3H43.6354C43.8087 62.3 43.9561 62.3607 44.0774 62.482C44.2161 62.6033 44.2854 62.7593 44.2854 62.95V76.574H52.1374C52.3281 76.574 52.4841 76.6433 52.6054 76.782C52.7441 76.9033 52.8134 77.0593 52.8134 77.25V79.85C52.8134 80.0407 52.7441 80.1967 52.6054 80.318C52.4841 80.4393 52.3281 80.5 52.1374 80.5H40.2034ZM62.2999 80.76C60.7053 80.76 59.3186 80.5 58.1399 79.98C56.9613 79.46 56.0426 78.68 55.3839 77.64C54.7253 76.5827 54.3613 75.2653 54.2919 73.688C54.2746 72.9427 54.2659 72.1973 54.2659 71.452C54.2659 70.7067 54.2746 69.9527 54.2919 69.19C54.3613 67.63 54.7253 66.3213 55.3839 65.264C56.0599 64.1893 56.9873 63.3833 58.1659 62.846C59.3446 62.3087 60.7226 62.04 62.2999 62.04C63.8599 62.04 65.2293 62.3087 66.4079 62.846C67.6039 63.3833 68.5399 64.1893 69.2159 65.264C69.8919 66.3213 70.2559 67.63 70.3079 69.19C70.3426 69.9527 70.3599 70.7067 70.3599 71.452C70.3599 72.1973 70.3426 72.9427 70.3079 73.688C70.2386 75.2653 69.8746 76.5827 69.2159 77.64C68.5573 78.68 67.6386 79.46 66.4599 79.98C65.2813 80.5 63.8946 80.76 62.2999 80.76ZM62.2999 77.016C63.2186 77.016 63.9639 76.7387 64.5359 76.184C65.1253 75.6293 65.4373 74.7453 65.4719 73.532C65.5066 72.7693 65.5239 72.05 65.5239 71.374C65.5239 70.698 65.5066 69.996 65.4719 69.268C65.4373 68.4533 65.2813 67.7947 65.0039 67.292C64.7439 66.772 64.3799 66.3907 63.9119 66.148C63.4439 65.9053 62.9066 65.784 62.2999 65.784C61.7106 65.784 61.1819 65.9053 60.7139 66.148C60.2459 66.3907 59.8733 66.772 59.5959 67.292C59.3186 67.7947 59.1626 68.4533 59.1279 69.268C59.1106 69.996 59.1019 70.698 59.1019 71.374C59.1019 72.05 59.1106 72.7693 59.1279 73.532C59.1799 74.7453 59.4919 75.6293 60.0639 76.184C60.6359 76.7387 61.3813 77.016 62.2999 77.016ZM80.8877 80.76C79.241 80.76 77.8197 80.4913 76.6237 79.954C75.445 79.3993 74.5264 78.602 73.8677 77.562C73.2264 76.5047 72.871 75.222 72.8017 73.714C72.7844 72.9687 72.7757 72.18 72.7757 71.348C72.7757 70.4987 72.7844 69.6927 72.8017 68.93C72.871 67.4567 73.235 66.2087 73.8937 65.186C74.5524 64.1633 75.4797 63.3833 76.6757 62.846C77.8717 62.3087 79.2757 62.04 80.8877 62.04C82.1877 62.04 83.3404 62.2047 84.3457 62.534C85.351 62.846 86.1917 63.2707 86.8677 63.808C87.561 64.3453 88.081 64.9347 88.4277 65.576C88.7917 66.2173 88.9824 66.85 88.9997 67.474C89.017 67.63 88.965 67.76 88.8437 67.864C88.7397 67.968 88.6097 68.02 88.4537 68.02H84.6577C84.467 68.02 84.3197 67.994 84.2157 67.942C84.129 67.8727 84.051 67.7773 83.9817 67.656C83.8604 67.396 83.6784 67.1273 83.4357 66.85C83.2104 66.5553 82.8897 66.304 82.4737 66.096C82.075 65.888 81.5464 65.784 80.8877 65.784C79.8997 65.784 79.1197 66.044 78.5477 66.564C77.993 67.084 77.6897 67.916 77.6377 69.06C77.5857 70.5507 77.5857 72.0587 77.6377 73.584C77.6897 74.7973 78.0104 75.6727 78.5997 76.21C79.189 76.7473 79.969 77.016 80.9397 77.016C81.5984 77.016 82.179 76.9033 82.6817 76.678C83.2017 76.4527 83.609 76.106 83.9037 75.638C84.1984 75.1527 84.3457 74.5373 84.3457 73.792V73.298H81.9017C81.711 73.298 81.5464 73.2373 81.4077 73.116C81.2864 72.9773 81.2257 72.8127 81.2257 72.622V70.698C81.2257 70.5073 81.2864 70.3513 81.4077 70.23C81.5464 70.0913 81.711 70.022 81.9017 70.022H88.4537C88.6444 70.022 88.8004 70.0913 88.9217 70.23C89.043 70.3513 89.1037 70.5073 89.1037 70.698V73.662C89.1037 75.1527 88.7657 76.4267 88.0897 77.484C87.4137 78.5413 86.4517 79.356 85.2037 79.928C83.973 80.4827 82.5344 80.76 80.8877 80.76Z" fill="#ABACBA"/>
</svg>
