<svg width="128" height="128" viewBox="0 0 128 128" fill="none" xmlns="http://www.w3.org/2000/svg">
<path d="M99.4782 102.512C99.4782 107.752 95.289 112 90.1213 112H37.8786C32.711 112 28.5217 107.752 28.5217 102.512V25.5582C28.5217 20.3184 32.711 16.0707 37.8786 16.0707L62.9565 16C68.1548 16 67.857 17.2873 67.857 22.5582V38.7567C67.857 44.9405 71.2039 48.2383 77.3152 48.2383H93.0991C99.5969 48.2383 99.4782 49.0506 99.4782 54.3214V102.512Z" fill="#42A5F5"/>
<path d="M62.9565 16H72.3478L99.4782 43.1304V54.3214M62.9565 16L37.8786 16.0707C32.711 16.0707 28.5217 20.3184 28.5217 25.5582V102.512C28.5217 107.752 32.711 112 37.8786 112H90.1213C95.289 112 99.4782 107.752 99.4782 102.512V54.3214M62.9565 16C68.1548 16 67.857 17.2873 67.857 22.5582V38.7567C67.857 44.9405 71.2039 48.2383 77.3152 48.2383H93.0991C99.5969 48.2383 99.4782 49.0506 99.4782 54.3214" stroke="#42A5F5" stroke-width="8" stroke-linecap="round" stroke-linejoin="round"/>
<path d="M46.4114 80.5C46.2381 80.5 46.0821 80.4393 45.9434 80.318C45.8221 80.1967 45.7614 80.0407 45.7614 79.85V62.95C45.7614 62.7593 45.8221 62.6033 45.9434 62.482C46.0821 62.3607 46.2381 62.3 46.4114 62.3H49.2194C49.4967 62.3 49.7047 62.378 49.8434 62.534C49.9994 62.6727 50.0947 62.7853 50.1294 62.872L54.7054 71.088L59.2814 62.872C59.3334 62.7853 59.4201 62.6727 59.5414 62.534C59.6801 62.378 59.8967 62.3 60.1914 62.3H62.9734C63.1641 62.3 63.3201 62.3607 63.4414 62.482C63.5801 62.6033 63.6494 62.7593 63.6494 62.95V79.85C63.6494 80.0407 63.5801 80.1967 63.4414 80.318C63.3201 80.4393 63.1641 80.5 62.9734 80.5H59.8794C59.6887 80.5 59.5241 80.4393 59.3854 80.318C59.2641 80.1967 59.2034 80.0407 59.2034 79.85V70.1L56.2654 75.534C56.1961 75.69 56.0921 75.8287 55.9534 75.95C55.8147 76.0713 55.6241 76.132 55.3814 76.132H54.0294C53.7867 76.132 53.5961 76.0713 53.4574 75.95C53.3187 75.8287 53.2061 75.69 53.1194 75.534L50.1814 70.1V79.85C50.1814 80.0407 50.1207 80.1967 49.9994 80.318C49.8781 80.4393 49.7221 80.5 49.5314 80.5H46.4114ZM67.9173 80.5C67.7266 80.5 67.5706 80.4393 67.4493 80.318C67.3279 80.1967 67.2673 80.0407 67.2673 79.85V62.95C67.2673 62.7593 67.3279 62.6033 67.4493 62.482C67.5706 62.3607 67.7266 62.3 67.9173 62.3H74.6773C76.3759 62.3 77.8233 62.5773 79.0193 63.132C80.2153 63.6693 81.1339 64.4667 81.7753 65.524C82.4166 66.564 82.7633 67.8553 82.8153 69.398C82.8326 70.1607 82.8413 70.828 82.8413 71.4C82.8413 71.972 82.8326 72.6307 82.8153 73.376C82.7459 74.988 82.3993 76.3227 81.7753 77.38C81.1686 78.4373 80.2759 79.226 79.0973 79.746C77.9359 80.2487 76.5059 80.5 74.8073 80.5H67.9173ZM71.9213 76.756H74.6773C75.4226 76.756 76.0379 76.6433 76.5233 76.418C77.0259 76.1753 77.3986 75.8027 77.6413 75.3C77.9013 74.7973 78.0399 74.1387 78.0573 73.324C78.0919 72.8213 78.1093 72.3707 78.1093 71.972C78.1266 71.5733 78.1266 71.1747 78.1093 70.776C78.1093 70.3773 78.0919 69.9353 78.0573 69.45C78.0226 68.2713 77.7106 67.4133 77.1213 66.876C76.5493 66.3213 75.6913 66.044 74.5473 66.044H71.9213V76.756Z" fill="white"/>
</svg>
