<svg width="128" height="128" viewBox="0 0 128 128" fill="none" xmlns="http://www.w3.org/2000/svg">
<path d="M99.4782 102.512C99.4782 107.752 95.289 112 90.1213 112H37.8786C32.711 112 28.5217 107.752 28.5217 102.512V25.5582C28.5217 20.3184 32.711 16.0707 37.8786 16.0707L62.9565 16C68.1548 16 67.857 17.2873 67.857 22.5582V38.7567C67.857 44.9405 71.2039 48.2383 77.3152 48.2383H93.0991C99.5969 48.2383 99.4782 49.0506 99.4782 54.3214V102.512Z" fill="#ABACBA"/>
<path d="M62.9565 16H72.3478L99.4782 43.1304V54.3214M62.9565 16L37.8786 16.0707C32.711 16.0707 28.5217 20.3184 28.5217 25.5582V102.512C28.5217 107.752 32.711 112 37.8786 112H90.1213C95.289 112 99.4782 107.752 99.4782 102.512V54.3214M62.9565 16C68.1548 16 67.857 17.2873 67.857 22.5582V38.7567C67.857 44.9405 71.2039 48.2383 77.3152 48.2383H93.0991C99.5969 48.2383 99.4782 49.0506 99.4782 54.3214" stroke="#ABACBA" stroke-width="8" stroke-linecap="round" stroke-linejoin="round"/>
<path d="M42.3948 80.5C42.2215 80.5 42.0655 80.4393 41.9268 80.318C41.8055 80.1967 41.7448 80.0407 41.7448 79.85V62.95C41.7448 62.7593 41.8055 62.6033 41.9268 62.482C42.0655 62.3607 42.2215 62.3 42.3948 62.3H45.2028C45.4801 62.3 45.6881 62.378 45.8268 62.534C45.9828 62.6727 46.0781 62.7853 46.1128 62.872L50.6888 71.088L55.2648 62.872C55.3168 62.7853 55.4035 62.6727 55.5248 62.534C55.6635 62.378 55.8801 62.3 56.1748 62.3H58.9568C59.1475 62.3 59.3035 62.3607 59.4248 62.482C59.5635 62.6033 59.6328 62.7593 59.6328 62.95V79.85C59.6328 80.0407 59.5635 80.1967 59.4248 80.318C59.3035 80.4393 59.1475 80.5 58.9568 80.5H55.8628C55.6721 80.5 55.5075 80.4393 55.3688 80.318C55.2475 80.1967 55.1868 80.0407 55.1868 79.85V70.1L52.2488 75.534C52.1795 75.69 52.0755 75.8287 51.9368 75.95C51.7981 76.0713 51.6075 76.132 51.3648 76.132H50.0128C49.7701 76.132 49.5795 76.0713 49.4408 75.95C49.3021 75.8287 49.1895 75.69 49.1028 75.534L46.1648 70.1V79.85C46.1648 80.0407 46.1041 80.1967 45.9828 80.318C45.8615 80.4393 45.7055 80.5 45.5148 80.5H42.3948ZM70.0367 80.76C68.3033 80.76 66.8647 80.5173 65.7207 80.032C64.5767 79.5293 63.71 78.8793 63.1207 78.082C62.5313 77.2847 62.2193 76.4353 62.1847 75.534C62.1847 75.3953 62.2367 75.274 62.3407 75.17C62.462 75.0487 62.6007 74.988 62.7567 74.988H66.0327C66.2753 74.988 66.4573 75.0313 66.5787 75.118C66.7173 75.2047 66.8387 75.3173 66.9427 75.456C67.0813 75.716 67.272 75.9673 67.5147 76.21C67.7747 76.4527 68.104 76.652 68.5027 76.808C68.9187 76.9467 69.43 77.016 70.0367 77.016C71.042 77.016 71.796 76.86 72.2987 76.548C72.8187 76.236 73.0787 75.8113 73.0787 75.274C73.0787 74.8927 72.94 74.5807 72.6627 74.338C72.3853 74.078 71.9347 73.8527 71.3107 73.662C70.704 73.454 69.8893 73.246 68.8667 73.038C67.5493 72.7607 66.4227 72.4053 65.4867 71.972C64.568 71.5213 63.866 70.9407 63.3807 70.23C62.8953 69.502 62.6527 68.6007 62.6527 67.526C62.6527 66.4687 62.9473 65.524 63.5367 64.692C64.1433 63.86 64.984 63.21 66.0587 62.742C67.1333 62.274 68.4073 62.04 69.8807 62.04C71.0767 62.04 72.1253 62.196 73.0267 62.508C73.9453 62.82 74.7167 63.236 75.3407 63.756C75.9647 64.276 76.4327 64.8307 76.7447 65.42C77.074 65.992 77.2473 66.5553 77.2647 67.11C77.2647 67.2487 77.2127 67.3787 77.1087 67.5C77.0047 67.604 76.8747 67.656 76.7187 67.656H73.2867C73.096 67.656 72.9313 67.6213 72.7927 67.552C72.654 67.4827 72.5327 67.37 72.4287 67.214C72.3247 66.8327 72.0473 66.5033 71.5967 66.226C71.1633 65.9313 70.5913 65.784 69.8807 65.784C69.118 65.784 68.52 65.9227 68.0867 66.2C67.6707 66.46 67.4627 66.8673 67.4627 67.422C67.4627 67.7687 67.5753 68.072 67.8007 68.332C68.0433 68.592 68.4333 68.8173 68.9707 69.008C69.5253 69.1987 70.2793 69.398 71.2327 69.606C72.81 69.9007 74.084 70.2733 75.0547 70.724C76.0253 71.1573 76.736 71.7293 77.1867 72.44C77.6373 73.1333 77.8627 74.0087 77.8627 75.066C77.8627 76.2447 77.5247 77.2673 76.8487 78.134C76.19 78.9833 75.2713 79.6333 74.0927 80.084C72.914 80.5347 71.562 80.76 70.0367 80.76ZM81.1155 80.5C80.9248 80.5 80.7688 80.4393 80.6475 80.318C80.5262 80.1967 80.4655 80.0407 80.4655 79.85V62.95C80.4655 62.7593 80.5262 62.6033 80.6475 62.482C80.7688 62.3607 80.9248 62.3 81.1155 62.3H84.5995C84.7902 62.3 84.9462 62.3607 85.0675 62.482C85.1888 62.6033 85.2495 62.7593 85.2495 62.95V79.85C85.2495 80.0407 85.1888 80.1967 85.0675 80.318C84.9462 80.4393 84.7902 80.5 84.5995 80.5H81.1155Z" fill="white"/>
</svg>
