<svg width="128" height="128" viewBox="0 0 128 128" fill="none" xmlns="http://www.w3.org/2000/svg">
<path d="M99.4782 102.512C99.4782 107.752 95.289 112 90.1213 112H37.8786C32.711 112 28.5217 107.752 28.5217 102.512V25.5582C28.5217 20.3184 32.711 16.0707 37.8786 16.0707L62.9565 16C68.1548 16 67.857 17.2873 67.857 22.5582L78.0758 31.0445L93.0991 48.2383C99.5969 48.2383 99.4782 49.0506 99.4782 54.3214V102.512Z" fill="#D8A032"/>
<path d="M62.9565 16H72.3478L99.4782 43.1304V54.3214M62.9565 16L37.8786 16.0707C32.711 16.0707 28.5217 20.3184 28.5217 25.5582V102.512C28.5217 107.752 32.711 112 37.8786 112H90.1213C95.289 112 99.4782 107.752 99.4782 102.512V54.3214M62.9565 16C68.1548 16 67.857 17.2873 67.857 22.5582L78.0758 31.0445L93.0991 48.2383C99.5969 48.2383 99.4782 49.0506 99.4782 54.3214" stroke="#D8A032" stroke-width="8" stroke-linecap="round" stroke-linejoin="round"/>
<path d="M39.2718 104.113C39.0984 104.113 38.9424 104.052 38.8038 103.931C38.6824 103.809 38.6218 103.653 38.6218 103.463V86.5626C38.6218 86.3719 38.6824 86.2159 38.8038 86.0946C38.9424 85.9733 39.0984 85.9126 39.2718 85.9126H42.0798C42.3571 85.9126 42.5651 85.9906 42.7038 86.1466C42.8598 86.2853 42.9551 86.3979 42.9898 86.4846L47.5658 94.7006L52.1418 86.4846C52.1938 86.3979 52.2804 86.2853 52.4018 86.1466C52.5404 85.9906 52.7571 85.9126 53.0518 85.9126H55.8338C56.0244 85.9126 56.1804 85.9733 56.3018 86.0946C56.4404 86.2159 56.5098 86.3719 56.5098 86.5626V103.463C56.5098 103.653 56.4404 103.809 56.3018 103.931C56.1804 104.052 56.0244 104.113 55.8338 104.113H52.7398C52.5491 104.113 52.3844 104.052 52.2458 103.931C52.1244 103.809 52.0638 103.653 52.0638 103.463V93.7126L49.1258 99.1466C49.0564 99.3026 48.9524 99.4413 48.8138 99.5626C48.6751 99.6839 48.4844 99.7446 48.2418 99.7446H46.8898C46.6471 99.7446 46.4564 99.6839 46.3178 99.5626C46.1791 99.4413 46.0664 99.3026 45.9798 99.1466L43.0418 93.7126V103.463C43.0418 103.653 42.9811 103.809 42.8598 103.931C42.7384 104.052 42.5824 104.113 42.3918 104.113H39.2718ZM64.7816 104.113C64.591 104.113 64.435 104.052 64.3136 103.931C64.1923 103.809 64.1316 103.653 64.1316 103.463V89.9946H59.5036C59.313 89.9946 59.157 89.9339 59.0356 89.8126C58.9143 89.6739 58.8536 89.5179 58.8536 89.3446V86.5626C58.8536 86.3719 58.9143 86.2159 59.0356 86.0946C59.157 85.9733 59.313 85.9126 59.5036 85.9126H73.4916C73.6823 85.9126 73.8383 85.9733 73.9596 86.0946C74.081 86.2159 74.1416 86.3719 74.1416 86.5626V89.3446C74.1416 89.5179 74.081 89.6739 73.9596 89.8126C73.8383 89.9339 73.6823 89.9946 73.4916 89.9946H68.8636V103.463C68.8636 103.653 68.803 103.809 68.6816 103.931C68.5603 104.052 68.4043 104.113 68.2136 104.113H64.7816ZM77.1546 104.113C76.9639 104.113 76.8079 104.052 76.6866 103.931C76.5652 103.809 76.5046 103.653 76.5046 103.463V86.5626C76.5046 86.3719 76.5652 86.2159 76.6866 86.0946C76.8079 85.9733 76.9639 85.9126 77.1546 85.9126H80.5866C80.7599 85.9126 80.9072 85.9733 81.0286 86.0946C81.1672 86.2159 81.2366 86.3719 81.2366 86.5626V100.187H89.0886C89.2792 100.187 89.4352 100.256 89.5566 100.395C89.6952 100.516 89.7646 100.672 89.7646 100.863V103.463C89.7646 103.653 89.6952 103.809 89.5566 103.931C89.4352 104.052 89.2792 104.113 89.0886 104.113H77.1546Z" fill="white"/>
<path d="M82 44.9663L64 52.2777" stroke="white" stroke-width="4" stroke-linecap="round"/>
<path d="M82 66.3434L64 73.6549" stroke="white" stroke-width="4" stroke-linecap="round"/>
<path d="M82 44.9663L64 37.6549" stroke="white" stroke-width="4" stroke-linecap="round"/>
<path d="M64 73.6548V52.2777" stroke="white" stroke-width="4" stroke-linecap="round"/>
<path d="M82 66.3434V44.9663" stroke="white" stroke-width="4" stroke-linecap="round"/>
<path d="M46 44.9663L64 52.2777" stroke="white" stroke-width="4" stroke-linecap="round"/>
<path d="M46 44.9663L64 52.2777" stroke="white" stroke-width="4" stroke-linecap="round"/>
<path d="M46 66.3434L64 73.6549" stroke="white" stroke-width="4" stroke-linecap="round"/>
<path d="M46 44.9663L64 37.6549" stroke="white" stroke-width="4" stroke-linecap="round"/>
<path d="M46 66.3434V44.9663" stroke="white" stroke-width="4" stroke-linecap="round"/>
</svg>
