<svg width="128" height="128" viewBox="0 0 128 128" fill="none" xmlns="http://www.w3.org/2000/svg">
<path d="M99.4782 102.512C99.4782 107.752 95.289 112 90.1213 112H37.8786C32.711 112 28.5217 107.752 28.5217 102.512V25.5582C28.5217 20.3184 32.711 16.0707 37.8786 16.0707L62.9565 16C68.1548 16 67.857 17.2873 67.857 22.5582L78.0758 31.0445L93.0991 48.2383C99.5969 48.2383 99.4782 49.0506 99.4782 54.3214V102.512Z" fill="#29BAFC"/>
<path d="M62.9565 16H72.3478L99.4782 43.1304V54.3214M62.9565 16L37.8786 16.0707C32.711 16.0707 28.5217 20.3184 28.5217 25.5582V102.512C28.5217 107.752 32.711 112 37.8786 112H90.1213C95.289 112 99.4782 107.752 99.4782 102.512V54.3214M62.9565 16C68.1548 16 67.857 17.2873 67.857 22.5582L78.0758 31.0445L93.0991 48.2383C99.5969 48.2383 99.4782 49.0506 99.4782 54.3214" stroke="#29BAFC" stroke-width="8" stroke-linecap="round" stroke-linejoin="round"/>
<path d="M46.1388 104.373C44.5441 104.373 43.1575 104.113 41.9788 103.593C40.8001 103.073 39.8815 102.293 39.2228 101.253C38.5641 100.195 38.2001 98.8779 38.1308 97.3006C38.1135 96.5553 38.1048 95.8099 38.1048 95.0646C38.1048 94.3193 38.1135 93.5653 38.1308 92.8026C38.2001 91.2426 38.5641 89.9339 39.2228 88.8766C39.8988 87.8019 40.8261 86.9959 42.0048 86.4586C43.1835 85.9213 44.5615 85.6526 46.1388 85.6526C47.6988 85.6526 49.0681 85.9213 50.2468 86.4586C51.4428 86.9959 52.3788 87.8019 53.0548 88.8766C53.7308 89.9339 54.0948 91.2426 54.1468 92.8026C54.1815 93.5653 54.1988 94.3193 54.1988 95.0646C54.1988 95.8099 54.1815 96.5553 54.1468 97.3006C54.0775 98.8779 53.7135 100.195 53.0548 101.253C52.3961 102.293 51.4775 103.073 50.2988 103.593C49.1201 104.113 47.7335 104.373 46.1388 104.373ZM46.1388 100.629C47.0575 100.629 47.8028 100.351 48.3748 99.7966C48.9641 99.2419 49.2761 98.3579 49.3108 97.1446C49.3455 96.3819 49.3628 95.6626 49.3628 94.9866C49.3628 94.3106 49.3455 93.6086 49.3108 92.8806C49.2761 92.0659 49.1201 91.4073 48.8428 90.9046C48.5828 90.3846 48.2188 90.0033 47.7508 89.7606C47.2828 89.5179 46.7455 89.3966 46.1388 89.3966C45.5495 89.3966 45.0208 89.5179 44.5528 89.7606C44.0848 90.0033 43.7121 90.3846 43.4348 90.9046C43.1575 91.4073 43.0015 92.0659 42.9668 92.8806C42.9495 93.6086 42.9408 94.3106 42.9408 94.9866C42.9408 95.6626 42.9495 96.3819 42.9668 97.1446C43.0188 98.3579 43.3308 99.2419 43.9028 99.7966C44.4748 100.351 45.2201 100.629 46.1388 100.629ZM57.8626 104.113C57.6719 104.113 57.5159 104.052 57.3946 103.931C57.2732 103.809 57.2126 103.653 57.2126 103.463V86.5626C57.2126 86.3719 57.2732 86.2159 57.3946 86.0946C57.5159 85.9733 57.6719 85.9126 57.8626 85.9126H65.7926C67.2832 85.9126 68.5052 86.1206 69.4586 86.5366C70.4119 86.9526 71.1139 87.5506 71.5646 88.3306C72.0326 89.0933 72.2666 90.0033 72.2666 91.0606C72.2666 91.6846 72.1452 92.2393 71.9026 92.7246C71.6772 93.1926 71.3912 93.5826 71.0446 93.8946C70.7152 94.2066 70.4032 94.4319 70.1086 94.5706C70.7672 94.8826 71.3479 95.3939 71.8506 96.1046C72.3706 96.8153 72.6306 97.6473 72.6306 98.6006C72.6306 99.7446 72.3706 100.733 71.8506 101.565C71.3479 102.379 70.6026 103.012 69.6146 103.463C68.6439 103.896 67.4479 104.113 66.0266 104.113H57.8626ZM61.8666 100.733H65.5066C66.2519 100.733 66.8152 100.516 67.1966 100.083C67.5779 99.6493 67.7686 99.1553 67.7686 98.6006C67.7686 97.9939 67.5692 97.4826 67.1706 97.0666C66.7892 96.6506 66.2346 96.4426 65.5066 96.4426H61.8666V100.733ZM61.8666 93.1406H65.2726C65.9832 93.1406 66.5119 92.9586 66.8586 92.5946C67.2226 92.2306 67.4046 91.7626 67.4046 91.1906C67.4046 90.6359 67.2226 90.1853 66.8586 89.8386C66.5119 89.4746 65.9832 89.2926 65.2726 89.2926H61.8666V93.1406ZM81.8112 104.373C80.8232 104.373 79.8786 104.251 78.9772 104.009C78.0932 103.749 77.3046 103.367 76.6112 102.865C75.9179 102.362 75.3632 101.738 74.9472 100.993C74.5486 100.247 74.3319 99.3806 74.2972 98.3926C74.2972 98.2366 74.3492 98.1066 74.4532 98.0026C74.5572 97.8813 74.6959 97.8206 74.8692 97.8206H78.3792C78.6219 97.8206 78.8039 97.8813 78.9252 98.0026C79.0639 98.1239 79.1766 98.3059 79.2632 98.5486C79.3499 99.0339 79.5146 99.4326 79.7572 99.7446C79.9999 100.039 80.3032 100.265 80.6672 100.421C81.0486 100.559 81.4732 100.629 81.9412 100.629C82.8079 100.629 83.4752 100.351 83.9432 99.7966C84.4112 99.2246 84.6452 98.3926 84.6452 97.3006V89.7866H76.2212C76.0479 89.7866 75.8919 89.7259 75.7532 89.6046C75.6319 89.4833 75.5712 89.3273 75.5712 89.1366V86.5626C75.5712 86.3719 75.6319 86.2159 75.7532 86.0946C75.8919 85.9733 76.0479 85.9126 76.2212 85.9126H88.8052C88.9959 85.9126 89.1519 85.9733 89.2732 86.0946C89.4119 86.2159 89.4812 86.3719 89.4812 86.5626V97.4306C89.4812 98.9386 89.1519 100.213 88.4932 101.253C87.8346 102.275 86.9332 103.055 85.7892 103.593C84.6452 104.113 83.3192 104.373 81.8112 104.373Z" fill="white"/>
<path d="M82 44.9663L64 52.2777" stroke="white" stroke-width="4" stroke-linecap="round"/>
<path d="M82 66.3434L64 73.6549" stroke="white" stroke-width="4" stroke-linecap="round"/>
<path d="M82 44.9663L64 37.6549" stroke="white" stroke-width="4" stroke-linecap="round"/>
<path d="M64 73.6548V52.2777" stroke="white" stroke-width="4" stroke-linecap="round"/>
<path d="M82 66.3434V44.9663" stroke="white" stroke-width="4" stroke-linecap="round"/>
<path d="M46 44.9663L64 52.2777" stroke="white" stroke-width="4" stroke-linecap="round"/>
<path d="M46 44.9663L64 52.2777" stroke="white" stroke-width="4" stroke-linecap="round"/>
<path d="M46 66.3434L64 73.6549" stroke="white" stroke-width="4" stroke-linecap="round"/>
<path d="M46 44.9663L64 37.6549" stroke="white" stroke-width="4" stroke-linecap="round"/>
<path d="M46 66.3434V44.9663" stroke="white" stroke-width="4" stroke-linecap="round"/>
</svg>
