<svg width="128" height="128" viewBox="0 0 128 128" fill="none" xmlns="http://www.w3.org/2000/svg">
<path d="M99.4782 102.512C99.4782 107.752 95.289 112 90.1213 112H37.8786C32.711 112 28.5217 107.752 28.5217 102.512V25.5582C28.5217 20.3184 32.711 16.0707 37.8786 16.0707L62.9565 16C68.1548 16 67.857 17.2873 67.857 22.5582V38.7567C67.857 44.9405 71.2039 48.2383 77.3152 48.2383H93.0991C99.5969 48.2383 99.4782 49.0506 99.4782 54.3214V102.512Z" fill="#D72C2C"/>
<path d="M62.9565 16H72.3478L99.4782 43.1304V54.3214M62.9565 16L37.8786 16.0707C32.711 16.0707 28.5217 20.3184 28.5217 25.5582V102.512C28.5217 107.752 32.711 112 37.8786 112H90.1213C95.289 112 99.4782 107.752 99.4782 102.512V54.3214M62.9565 16C68.1548 16 67.857 17.2873 67.857 22.5582V38.7567C67.857 44.9405 71.2039 48.2383 77.3152 48.2383H93.0991C99.5969 48.2383 99.4782 49.0506 99.4782 54.3214" stroke="#D72C2C" stroke-width="8" stroke-linecap="round" stroke-linejoin="round"/>
<path d="M40.3557 80.5C40.1651 80.5 40.0091 80.4393 39.8877 80.318C39.7664 80.1967 39.7057 80.0407 39.7057 79.85V62.95C39.7057 62.7593 39.7664 62.6033 39.8877 62.482C40.0091 62.3607 40.1651 62.3 40.3557 62.3H47.6357C49.0744 62.3 50.3224 62.5253 51.3797 62.976C52.4544 63.4093 53.2864 64.068 53.8757 64.952C54.4824 65.836 54.7857 66.954 54.7857 68.306C54.7857 69.6407 54.4824 70.7413 53.8757 71.608C53.2864 72.4747 52.4544 73.116 51.3797 73.532C50.3224 73.948 49.0744 74.156 47.6357 74.156H44.5417V79.85C44.5417 80.0407 44.4724 80.1967 44.3337 80.318C44.2124 80.4393 44.0564 80.5 43.8657 80.5H40.3557ZM44.4637 70.568H47.5057C48.2511 70.568 48.8404 70.3773 49.2737 69.996C49.7244 69.6147 49.9497 69.034 49.9497 68.254C49.9497 67.5953 49.7591 67.0407 49.3777 66.59C48.9964 66.1393 48.3724 65.914 47.5057 65.914H44.4637V70.568ZM57.9261 80.5C57.7354 80.5 57.5794 80.4393 57.4581 80.318C57.3367 80.1967 57.2761 80.0407 57.2761 79.85V62.95C57.2761 62.7593 57.3367 62.6033 57.4581 62.482C57.5794 62.3607 57.7354 62.3 57.9261 62.3H64.6861C66.3847 62.3 67.8321 62.5773 69.0281 63.132C70.2241 63.6693 71.1427 64.4667 71.7841 65.524C72.4254 66.564 72.7721 67.8553 72.8241 69.398C72.8414 70.1607 72.8501 70.828 72.8501 71.4C72.8501 71.972 72.8414 72.6307 72.8241 73.376C72.7547 74.988 72.4081 76.3227 71.7841 77.38C71.1774 78.4373 70.2847 79.226 69.1061 79.746C67.9447 80.2487 66.5147 80.5 64.8161 80.5H57.9261ZM61.9301 76.756H64.6861C65.4314 76.756 66.0467 76.6433 66.5321 76.418C67.0347 76.1753 67.4074 75.8027 67.6501 75.3C67.9101 74.7973 68.0487 74.1387 68.0661 73.324C68.1007 72.8213 68.1181 72.3707 68.1181 71.972C68.1354 71.5733 68.1354 71.1747 68.1181 70.776C68.1181 70.3773 68.1007 69.9353 68.0661 69.45C68.0314 68.2713 67.7194 67.4133 67.1301 66.876C66.5581 66.3213 65.7001 66.044 64.5561 66.044H61.9301V76.756ZM76.5374 80.5C76.3467 80.5 76.1907 80.4393 76.0694 80.318C75.948 80.1967 75.8874 80.0407 75.8874 79.85V62.95C75.8874 62.7593 75.948 62.6033 76.0694 62.482C76.1907 62.3607 76.3467 62.3 76.5374 62.3H88.4714C88.662 62.3 88.818 62.3607 88.9394 62.482C89.0781 62.6033 89.1474 62.7593 89.1474 62.95V65.576C89.1474 65.7667 89.0781 65.9227 88.9394 66.044C88.818 66.1653 88.662 66.226 88.4714 66.226H80.4634V70.048H87.9514C88.1421 70.048 88.2981 70.1173 88.4194 70.256C88.558 70.3773 88.6274 70.5333 88.6274 70.724V73.324C88.6274 73.4973 88.558 73.6533 88.4194 73.792C88.2981 73.9133 88.1421 73.974 87.9514 73.974H80.4634V79.85C80.4634 80.0407 80.4027 80.1967 80.2814 80.318C80.16 80.4393 80.004 80.5 79.8134 80.5H76.5374Z" fill="white"/>
</svg>
