<svg width="128" height="128" viewBox="0 0 128 128" fill="none" xmlns="http://www.w3.org/2000/svg">
<path d="M99.4782 102.512C99.4782 107.752 95.289 112 90.1213 112H37.8786C32.711 112 28.5217 107.752 28.5217 102.512V25.5582C28.5217 20.3184 32.711 16.0707 37.8786 16.0707L62.9565 16C68.1548 16 67.857 17.2873 67.857 22.5582V38.7567C67.857 44.9405 71.2039 48.2383 77.3152 48.2383H93.0991C99.5969 48.2383 99.4782 49.0506 99.4782 54.3214V102.512Z" fill="#8D96C3"/>
<path d="M62.9565 16H72.3478L99.4782 43.1304V54.3214M62.9565 16L37.8786 16.0707C32.711 16.0707 28.5217 20.3184 28.5217 25.5582V102.512C28.5217 107.752 32.711 112 37.8786 112H90.1213C95.289 112 99.4782 107.752 99.4782 102.512V54.3214M62.9565 16C68.1548 16 67.857 17.2873 67.857 22.5582V38.7567C67.857 44.9405 71.2039 48.2383 77.3152 48.2383H93.0991C99.5969 48.2383 99.4782 49.0506 99.4782 54.3214" stroke="#8D96C3" stroke-width="8" stroke-linecap="round" stroke-linejoin="round"/>
<path d="M39.2132 80.5C39.0225 80.5 38.8665 80.4393 38.7452 80.318C38.6238 80.1967 38.5632 80.0407 38.5632 79.85V62.95C38.5632 62.7593 38.6238 62.6033 38.7452 62.482C38.8665 62.3607 39.0225 62.3 39.2132 62.3H46.4932C47.9318 62.3 49.1798 62.5253 50.2372 62.976C51.3118 63.4093 52.1438 64.068 52.7332 64.952C53.3398 65.836 53.6432 66.954 53.6432 68.306C53.6432 69.6407 53.3398 70.7413 52.7332 71.608C52.1438 72.4747 51.3118 73.116 50.2372 73.532C49.1798 73.948 47.9318 74.156 46.4932 74.156H43.3992V79.85C43.3992 80.0407 43.3298 80.1967 43.1912 80.318C43.0698 80.4393 42.9138 80.5 42.7232 80.5H39.2132ZM43.3212 70.568H46.3632C47.1085 70.568 47.6978 70.3773 48.1312 69.996C48.5818 69.6147 48.8072 69.034 48.8072 68.254C48.8072 67.5953 48.6165 67.0407 48.2352 66.59C47.8538 66.1393 47.2298 65.914 46.3632 65.914H43.3212V70.568ZM56.7835 80.5C56.5928 80.5 56.4368 80.4393 56.3155 80.318C56.1941 80.1967 56.1335 80.0407 56.1335 79.85V62.95C56.1335 62.7593 56.1941 62.6033 56.3155 62.482C56.4368 62.3607 56.5928 62.3 56.7835 62.3H60.1375C60.3281 62.3 60.4841 62.3607 60.6055 62.482C60.7268 62.6033 60.7875 62.7593 60.7875 62.95V69.216H67.2095V62.95C67.2095 62.7593 67.2701 62.6033 67.3915 62.482C67.5128 62.3607 67.6688 62.3 67.8595 62.3H71.2135C71.4041 62.3 71.5601 62.3607 71.6815 62.482C71.8028 62.6033 71.8635 62.7593 71.8635 62.95V79.85C71.8635 80.0407 71.8028 80.1967 71.6815 80.318C71.5601 80.4393 71.4041 80.5 71.2135 80.5H67.8595C67.6688 80.5 67.5128 80.4393 67.3915 80.318C67.2701 80.1967 67.2095 80.0407 67.2095 79.85V73.376H60.7875V79.85C60.7875 80.0407 60.7268 80.1967 60.6055 80.318C60.4841 80.4393 60.3281 80.5 60.1375 80.5H56.7835ZM76.1565 80.5C75.9659 80.5 75.8099 80.4393 75.6885 80.318C75.5672 80.1967 75.5065 80.0407 75.5065 79.85V62.95C75.5065 62.7593 75.5672 62.6033 75.6885 62.482C75.8099 62.3607 75.9659 62.3 76.1565 62.3H83.4365C84.8752 62.3 86.1232 62.5253 87.1805 62.976C88.2552 63.4093 89.0872 64.068 89.6765 64.952C90.2832 65.836 90.5865 66.954 90.5865 68.306C90.5865 69.6407 90.2832 70.7413 89.6765 71.608C89.0872 72.4747 88.2552 73.116 87.1805 73.532C86.1232 73.948 84.8752 74.156 83.4365 74.156H80.3425V79.85C80.3425 80.0407 80.2732 80.1967 80.1345 80.318C80.0132 80.4393 79.8572 80.5 79.6665 80.5H76.1565ZM80.2645 70.568H83.3065C84.0519 70.568 84.6412 70.3773 85.0745 69.996C85.5252 69.6147 85.7505 69.034 85.7505 68.254C85.7505 67.5953 85.5599 67.0407 85.1785 66.59C84.7972 66.1393 84.1732 65.914 83.3065 65.914H80.2645V70.568Z" fill="#ABACBA"/>
</svg>
