<svg width="128" height="128" viewBox="0 0 128 128" fill="none" xmlns="http://www.w3.org/2000/svg">
<path d="M99.4782 102.512C99.4782 107.752 95.289 112 90.1213 112H37.8786C32.711 112 28.5217 107.752 28.5217 102.512V25.5582C28.5217 20.3184 32.711 16.0707 37.8786 16.0707L62.9565 16C68.1548 16 67.857 17.2873 67.857 22.5582V38.7567C67.857 44.9405 71.2039 48.2383 77.3152 48.2383H93.0991C99.5969 48.2383 99.4782 49.0506 99.4782 54.3214V102.512Z" fill="#D34C2C"/>
<path d="M62.9565 16H72.3478L99.4782 43.1304V54.3214M62.9565 16L37.8786 16.0707C32.711 16.0707 28.5217 20.3184 28.5217 25.5582V102.512C28.5217 107.752 32.711 112 37.8786 112H90.1213C95.289 112 99.4782 107.752 99.4782 102.512V54.3214M62.9565 16C68.1548 16 67.857 17.2873 67.857 22.5582V38.7567C67.857 44.9405 71.2039 48.2383 77.3152 48.2383H93.0991C99.5969 48.2383 99.4782 49.0506 99.4782 54.3214" stroke="#D34C2C" stroke-width="8" stroke-linecap="round" stroke-linejoin="round"/>
<path d="M31.2356 80.5C31.045 80.5 30.889 80.4393 30.7676 80.318C30.6463 80.1967 30.5856 80.0407 30.5856 79.85V62.95C30.5856 62.7593 30.6463 62.6033 30.7676 62.482C30.889 62.3607 31.045 62.3 31.2356 62.3H38.5156C39.9543 62.3 41.2023 62.5253 42.2596 62.976C43.3343 63.4093 44.1663 64.068 44.7556 64.952C45.3623 65.836 45.6656 66.954 45.6656 68.306C45.6656 69.6407 45.3623 70.7413 44.7556 71.608C44.1663 72.4747 43.3343 73.116 42.2596 73.532C41.2023 73.948 39.9543 74.156 38.5156 74.156H35.4216V79.85C35.4216 80.0407 35.3523 80.1967 35.2136 80.318C35.0923 80.4393 34.9363 80.5 34.7456 80.5H31.2356ZM35.3436 70.568H38.3856C39.131 70.568 39.7203 70.3773 40.1536 69.996C40.6043 69.6147 40.8296 69.034 40.8296 68.254C40.8296 67.5953 40.639 67.0407 40.2576 66.59C39.8763 66.1393 39.2523 65.914 38.3856 65.914H35.3436V70.568ZM48.8059 80.5C48.6153 80.5 48.4593 80.4393 48.3379 80.318C48.2166 80.1967 48.1559 80.0407 48.1559 79.85V62.95C48.1559 62.7593 48.2166 62.6033 48.3379 62.482C48.4593 62.3607 48.6153 62.3 48.8059 62.3H56.0859C57.5246 62.3 58.7726 62.5253 59.8299 62.976C60.9046 63.4093 61.7366 64.068 62.3259 64.952C62.9326 65.836 63.2359 66.954 63.2359 68.306C63.2359 69.6407 62.9326 70.7413 62.3259 71.608C61.7366 72.4747 60.9046 73.116 59.8299 73.532C58.7726 73.948 57.5246 74.156 56.0859 74.156H52.9919V79.85C52.9919 80.0407 52.9226 80.1967 52.7839 80.318C52.6626 80.4393 52.5066 80.5 52.3159 80.5H48.8059ZM52.9139 70.568H55.9559C56.7013 70.568 57.2906 70.3773 57.7239 69.996C58.1746 69.6147 58.3999 69.034 58.3999 68.254C58.3999 67.5953 58.2093 67.0407 57.8279 66.59C57.4466 66.1393 56.8226 65.914 55.9559 65.914H52.9139V70.568ZM70.3803 80.5C70.1896 80.5 70.0336 80.4393 69.9123 80.318C69.7909 80.1967 69.7303 80.0407 69.7303 79.85V66.382H65.1023C64.9116 66.382 64.7556 66.3213 64.6343 66.2C64.5129 66.0613 64.4523 65.9053 64.4523 65.732V62.95C64.4523 62.7593 64.5129 62.6033 64.6343 62.482C64.7556 62.3607 64.9116 62.3 65.1023 62.3H79.0903C79.2809 62.3 79.4369 62.3607 79.5583 62.482C79.6796 62.6033 79.7403 62.7593 79.7403 62.95V65.732C79.7403 65.9053 79.6796 66.0613 79.5583 66.2C79.4369 66.3213 79.2809 66.382 79.0903 66.382H74.4623V79.85C74.4623 80.0407 74.4016 80.1967 74.2803 80.318C74.1589 80.4393 74.0029 80.5 73.8123 80.5H70.3803ZM81.1412 80.5C80.9852 80.5 80.8465 80.448 80.7252 80.344C80.6212 80.2227 80.5692 80.0927 80.5692 79.954C80.5692 79.902 80.5779 79.85 80.5952 79.798C80.6125 79.746 80.6385 79.694 80.6732 79.642L86.3412 71.218L81.0892 63.158C81.0372 63.054 81.0112 62.95 81.0112 62.846C81.0112 62.7073 81.0632 62.586 81.1672 62.482C81.2712 62.3607 81.4012 62.3 81.5572 62.3H85.3272C85.5872 62.3 85.7865 62.3693 85.9252 62.508C86.0639 62.6293 86.1592 62.742 86.2112 62.846L89.3312 67.578L92.4772 62.846C92.5465 62.742 92.6505 62.6293 92.7892 62.508C92.9279 62.3693 93.1272 62.3 93.3872 62.3H96.9492C97.1052 62.3 97.2352 62.3607 97.3392 62.482C97.4605 62.586 97.5212 62.7073 97.5212 62.846C97.5212 62.9673 97.4865 63.0713 97.4172 63.158L92.1392 71.192L97.8592 79.642C97.8939 79.694 97.9112 79.746 97.9112 79.798C97.9285 79.85 97.9372 79.902 97.9372 79.954C97.9372 80.0927 97.8852 80.2227 97.7812 80.344C97.6772 80.448 97.5472 80.5 97.3912 80.5H93.5172C93.2572 80.5 93.0492 80.4393 92.8932 80.318C92.7545 80.1793 92.6592 80.0667 92.6072 79.98L89.1492 74.988L85.7692 79.98C85.7172 80.0667 85.6219 80.1793 85.4832 80.318C85.3445 80.4393 85.1452 80.5 84.8852 80.5H81.1412Z" fill="white"/>
</svg>
