<svg width="128" height="128" viewBox="0 0 128 128" fill="none" xmlns="http://www.w3.org/2000/svg">
<path d="M99.4782 102.512C99.4782 107.752 95.289 112 90.1213 112H37.8786C32.711 112 28.5217 107.752 28.5217 102.512V25.5582C28.5217 20.3184 32.711 16.0707 37.8786 16.0707L62.9565 16C68.1548 16 67.857 17.2873 67.857 22.5582V38.7567C67.857 44.9405 71.2039 48.2383 77.3152 48.2383H93.0991C99.5969 48.2383 99.4782 49.0506 99.4782 54.3214V102.512Z" fill="#D34C2C"/>
<path d="M62.9565 16H72.3478L99.4782 43.1304V54.3214M62.9565 16L37.8786 16.0707C32.711 16.0707 28.5217 20.3184 28.5217 25.5582V102.512C28.5217 107.752 32.711 112 37.8786 112H90.1213C95.289 112 99.4782 107.752 99.4782 102.512V54.3214M62.9565 16C68.1548 16 67.857 17.2873 67.857 22.5582V38.7567C67.857 44.9405 71.2039 48.2383 77.3152 48.2383H93.0991C99.5969 48.2383 99.4782 49.0506 99.4782 54.3214" stroke="#D34C2C" stroke-width="8" stroke-linecap="round" stroke-linejoin="round"/>
<path d="M34.2175 78.5C34.0415 78.5 33.8975 78.444 33.7855 78.332C33.6735 78.22 33.6175 78.076 33.6175 77.9V62.3C33.6175 62.124 33.6735 61.98 33.7855 61.868C33.8975 61.756 34.0415 61.7 34.2175 61.7H40.9375C42.2655 61.7 43.4175 61.908 44.3935 62.324C45.3855 62.724 46.1535 63.332 46.6975 64.148C47.2575 64.964 47.5375 65.996 47.5375 67.244C47.5375 68.476 47.2575 69.492 46.6975 70.292C46.1535 71.092 45.3855 71.684 44.3935 72.068C43.4175 72.452 42.2655 72.644 40.9375 72.644H38.0815V77.9C38.0815 78.076 38.0175 78.22 37.8895 78.332C37.7775 78.444 37.6335 78.5 37.4575 78.5H34.2175ZM38.0095 69.332H40.8175C41.5055 69.332 42.0495 69.156 42.4495 68.804C42.8655 68.452 43.0735 67.916 43.0735 67.196C43.0735 66.588 42.8975 66.076 42.5455 65.66C42.1935 65.244 41.6175 65.036 40.8175 65.036H38.0095V69.332ZM50.4363 78.5C50.2603 78.5 50.1163 78.444 50.0043 78.332C49.8923 78.22 49.8363 78.076 49.8363 77.9V62.3C49.8363 62.124 49.8923 61.98 50.0043 61.868C50.1163 61.756 50.2603 61.7 50.4363 61.7H57.1563C58.4843 61.7 59.6363 61.908 60.6123 62.324C61.6043 62.724 62.3723 63.332 62.9163 64.148C63.4763 64.964 63.7563 65.996 63.7563 67.244C63.7563 68.476 63.4763 69.492 62.9163 70.292C62.3723 71.092 61.6043 71.684 60.6123 72.068C59.6363 72.452 58.4843 72.644 57.1563 72.644H54.3003V77.9C54.3003 78.076 54.2363 78.22 54.1083 78.332C53.9963 78.444 53.8523 78.5 53.6763 78.5H50.4363ZM54.2283 69.332H57.0363C57.7243 69.332 58.2683 69.156 58.6683 68.804C59.0843 68.452 59.2923 67.916 59.2923 67.196C59.2923 66.588 59.1163 66.076 58.7643 65.66C58.4123 65.244 57.8363 65.036 57.0363 65.036H54.2283V69.332ZM70.351 78.5C70.175 78.5 70.031 78.444 69.919 78.332C69.807 78.22 69.751 78.076 69.751 77.9V65.468H65.479C65.303 65.468 65.159 65.412 65.047 65.3C64.935 65.172 64.879 65.028 64.879 64.868V62.3C64.879 62.124 64.935 61.98 65.047 61.868C65.159 61.756 65.303 61.7 65.479 61.7H78.391C78.567 61.7 78.711 61.756 78.823 61.868C78.935 61.98 78.991 62.124 78.991 62.3V64.868C78.991 65.028 78.935 65.172 78.823 65.3C78.711 65.412 78.567 65.468 78.391 65.468H74.119V77.9C74.119 78.076 74.063 78.22 73.951 78.332C73.839 78.444 73.695 78.5 73.519 78.5H70.351ZM80.2842 78.5C80.1402 78.5 80.0122 78.452 79.9002 78.356C79.8042 78.244 79.7562 78.124 79.7562 77.996C79.7562 77.948 79.7642 77.9 79.7802 77.852C79.7962 77.804 79.8202 77.756 79.8522 77.708L85.0842 69.932L80.2362 62.492C80.1882 62.396 80.1642 62.3 80.1642 62.204C80.1642 62.076 80.2122 61.964 80.3082 61.868C80.4042 61.756 80.5242 61.7 80.6682 61.7H84.1482C84.3882 61.7 84.5722 61.764 84.7002 61.892C84.8282 62.004 84.9162 62.108 84.9642 62.204L87.8442 66.572L90.7482 62.204C90.8122 62.108 90.9082 62.004 91.0362 61.892C91.1642 61.764 91.3482 61.7 91.5882 61.7H94.8762C95.0202 61.7 95.1402 61.756 95.2362 61.868C95.3482 61.964 95.4042 62.076 95.4042 62.204C95.4042 62.316 95.3722 62.412 95.3082 62.492L90.4362 69.908L95.7162 77.708C95.7482 77.756 95.7642 77.804 95.7642 77.852C95.7802 77.9 95.7882 77.948 95.7882 77.996C95.7882 78.124 95.7402 78.244 95.6442 78.356C95.5482 78.452 95.4282 78.5 95.2842 78.5H91.7082C91.4682 78.5 91.2762 78.444 91.1322 78.332C91.0042 78.204 90.9162 78.1 90.8682 78.02L87.6762 73.412L84.5562 78.02C84.5082 78.1 84.4202 78.204 84.2922 78.332C84.1642 78.444 83.9802 78.5 83.7402 78.5H80.2842Z" fill="white"/>
</svg>
