<svg width="128" height="128" viewBox="0 0 128 128" fill="none" xmlns="http://www.w3.org/2000/svg">
<path d="M99.4782 102.512C99.4782 107.752 95.289 112 90.1213 112H37.8786C32.711 112 28.5217 107.752 28.5217 102.512V25.5582C28.5217 20.3184 32.711 16.0707 37.8786 16.0707L62.9565 16C68.1548 16 67.857 17.2873 67.857 22.5582V38.7567C67.857 44.9405 71.2039 48.2383 77.3152 48.2383H93.0991C99.5969 48.2383 99.4782 49.0506 99.4782 54.3214V102.512Z" fill="#3A75A5"/>
<path d="M62.9565 16H72.3478L99.4782 43.1304V54.3214M62.9565 16L37.8786 16.0707C32.711 16.0707 28.5217 20.3184 28.5217 25.5582V102.512C28.5217 107.752 32.711 112 37.8786 112H90.1213C95.289 112 99.4782 107.752 99.4782 102.512V54.3214M62.9565 16C68.1548 16 67.857 17.2873 67.857 22.5582V38.7567C67.857 44.9405 71.2039 48.2383 77.3152 48.2383H93.0991C99.5969 48.2383 99.4782 49.0506 99.4782 54.3214" stroke="#3A75A5" stroke-width="8" stroke-linecap="round" stroke-linejoin="round"/>
<path d="M49.1028 80.5C48.9121 80.5 48.7561 80.4393 48.6348 80.318C48.5135 80.1967 48.4528 80.0407 48.4528 79.85V62.95C48.4528 62.7593 48.5135 62.6033 48.6348 62.482C48.7561 62.3607 48.9121 62.3 49.1028 62.3H56.3828C57.8215 62.3 59.0695 62.5253 60.1268 62.976C61.2015 63.4093 62.0335 64.068 62.6228 64.952C63.2295 65.836 63.5328 66.954 63.5328 68.306C63.5328 69.6407 63.2295 70.7413 62.6228 71.608C62.0335 72.4747 61.2015 73.116 60.1268 73.532C59.0695 73.948 57.8215 74.156 56.3828 74.156H53.2888V79.85C53.2888 80.0407 53.2195 80.1967 53.0808 80.318C52.9595 80.4393 52.8035 80.5 52.6128 80.5H49.1028ZM53.2108 70.568H56.2528C56.9981 70.568 57.5875 70.3773 58.0208 69.996C58.4715 69.6147 58.6968 69.034 58.6968 68.254C58.6968 67.5953 58.5061 67.0407 58.1248 66.59C57.7435 66.1393 57.1195 65.914 56.2528 65.914H53.2108V70.568ZM70.8199 80.5C70.6466 80.5 70.4906 80.4393 70.3519 80.318C70.2306 80.1967 70.1699 80.0407 70.1699 79.85V74.26L64.1379 63.132C64.1206 63.08 64.1033 63.0367 64.0859 63.002C64.0686 62.95 64.0599 62.898 64.0599 62.846C64.0599 62.7073 64.1119 62.586 64.2159 62.482C64.3373 62.3607 64.4759 62.3 64.6319 62.3H67.8819C68.1419 62.3 68.3413 62.3693 68.4799 62.508C68.6359 62.6293 68.7313 62.742 68.7659 62.846L72.5099 69.554L76.2539 62.846C76.3059 62.742 76.4013 62.6293 76.5399 62.508C76.6959 62.3693 76.9039 62.3 77.1639 62.3H80.4139C80.5699 62.3 80.6999 62.3607 80.8039 62.482C80.9079 62.586 80.9599 62.7073 80.9599 62.846C80.9599 62.898 80.9513 62.95 80.9339 63.002C80.9339 63.0367 80.9253 63.08 80.9079 63.132L74.8499 74.26V79.85C74.8499 80.0407 74.7893 80.1967 74.6679 80.318C74.5466 80.4393 74.3906 80.5 74.1999 80.5H70.8199Z" fill="white"/>
</svg>
