<svg width="128" height="128" viewBox="0 0 128 128" fill="none" xmlns="http://www.w3.org/2000/svg">
<path d="M99.4782 102.512C99.4782 107.752 95.289 112 90.1213 112H37.8786C32.711 112 28.5217 107.752 28.5217 102.512V25.5582C28.5217 20.3184 32.711 16.0707 37.8786 16.0707L62.9565 16C68.1548 16 67.857 17.2873 67.857 22.5582V38.7567C67.857 44.9405 71.2039 48.2383 77.3152 48.2383H93.0991C99.5969 48.2383 99.4782 49.0506 99.4782 54.3214V102.512Z" fill="#3A75A5"/>
<path d="M62.9565 16H72.3478L99.4782 43.1304V54.3214M62.9565 16L37.8786 16.0707C32.711 16.0707 28.5217 20.3184 28.5217 25.5582V102.512C28.5217 107.752 32.711 112 37.8786 112H90.1213C95.289 112 99.4782 107.752 99.4782 102.512V54.3214M62.9565 16C68.1548 16 67.857 17.2873 67.857 22.5582V38.7567C67.857 44.9405 71.2039 48.2383 77.3152 48.2383H93.0991C99.5969 48.2383 99.4782 49.0506 99.4782 54.3214" stroke="#3A75A5" stroke-width="8" stroke-linecap="round" stroke-linejoin="round"/>
<path d="M38.3118 80.5C38.1211 80.5 37.9651 80.4393 37.8438 80.318C37.7225 80.1967 37.6618 80.0407 37.6618 79.85V62.95C37.6618 62.7593 37.7225 62.6033 37.8438 62.482C37.9651 62.3607 38.1211 62.3 38.3118 62.3H45.5918C47.0305 62.3 48.2785 62.5253 49.3358 62.976C50.4105 63.4093 51.2425 64.068 51.8318 64.952C52.4385 65.836 52.7418 66.954 52.7418 68.306C52.7418 69.6407 52.4385 70.7413 51.8318 71.608C51.2425 72.4747 50.4105 73.116 49.3358 73.532C48.2785 73.948 47.0305 74.156 45.5918 74.156H42.4978V79.85C42.4978 80.0407 42.4285 80.1967 42.2898 80.318C42.1685 80.4393 42.0125 80.5 41.8218 80.5H38.3118ZM42.4198 70.568H45.4618C46.2071 70.568 46.7965 70.3773 47.2298 69.996C47.6805 69.6147 47.9058 69.034 47.9058 68.254C47.9058 67.5953 47.7151 67.0407 47.3338 66.59C46.9525 66.1393 46.3285 65.914 45.4618 65.914H42.4198V70.568ZM60.0289 80.5C59.8556 80.5 59.6996 80.4393 59.5609 80.318C59.4396 80.1967 59.3789 80.0407 59.3789 79.85V74.26L53.3469 63.132C53.3296 63.08 53.3122 63.0367 53.2949 63.002C53.2776 62.95 53.2689 62.898 53.2689 62.846C53.2689 62.7073 53.3209 62.586 53.4249 62.482C53.5462 62.3607 53.6849 62.3 53.8409 62.3H57.0909C57.3509 62.3 57.5502 62.3693 57.6889 62.508C57.8449 62.6293 57.9402 62.742 57.9749 62.846L61.7189 69.554L65.4629 62.846C65.5149 62.742 65.6102 62.6293 65.7489 62.508C65.9049 62.3693 66.1129 62.3 66.3729 62.3H69.6229C69.7789 62.3 69.9089 62.3607 70.0129 62.482C70.1169 62.586 70.1689 62.7073 70.1689 62.846C70.1689 62.898 70.1602 62.95 70.1429 63.002C70.1429 63.0367 70.1342 63.08 70.1169 63.132L64.0589 74.26V79.85C64.0589 80.0407 63.9982 80.1967 63.8769 80.318C63.7556 80.4393 63.5996 80.5 63.4089 80.5H60.0289ZM75.3082 80.5C75.0135 80.5 74.7795 80.4133 74.6062 80.24C74.4328 80.0667 74.3288 79.8673 74.2942 79.642L71.4602 63.028C71.4428 62.9933 71.4342 62.9587 71.4342 62.924C71.4342 62.8893 71.4342 62.8633 71.4342 62.846C71.4342 62.7073 71.4862 62.586 71.5902 62.482C71.7115 62.3607 71.8415 62.3 71.9802 62.3H75.2042C75.6895 62.3 75.9582 62.4907 76.0102 62.872L77.7002 73.038L79.5722 67.032C79.6242 66.8933 79.7108 66.746 79.8322 66.59C79.9535 66.4167 80.1528 66.33 80.4302 66.33H82.3022C82.5968 66.33 82.8048 66.4167 82.9262 66.59C83.0475 66.746 83.1255 66.8933 83.1602 67.032L85.0322 73.012L86.7222 62.872C86.7742 62.4907 87.0428 62.3 87.5282 62.3H90.7522C90.9082 62.3 91.0382 62.3607 91.1422 62.482C91.2462 62.586 91.2982 62.7073 91.2982 62.846C91.2982 62.8633 91.2982 62.8893 91.2982 62.924C91.2982 62.9587 91.2982 62.9933 91.2982 63.028L88.4642 79.642C88.4295 79.8673 88.3255 80.0667 88.1522 80.24C87.9788 80.4133 87.7448 80.5 87.4502 80.5H84.9802C84.6855 80.5 84.4602 80.422 84.3042 80.266C84.1482 80.11 84.0442 79.9627 83.9922 79.824L81.3662 72.388L78.7402 79.824C78.6882 79.9627 78.5842 80.11 78.4282 80.266C78.2895 80.422 78.0728 80.5 77.7782 80.5H75.3082Z" fill="white"/>
</svg>
