<svg width="128" height="128" viewBox="0 0 128 128" fill="none" xmlns="http://www.w3.org/2000/svg">
<path d="M99.4782 102.512C99.4782 107.752 95.289 112 90.1213 112H37.8786C32.711 112 28.5217 107.752 28.5217 102.512V25.5582C28.5217 20.3184 32.711 16.0707 37.8786 16.0707L62.9565 16C68.1548 16 67.857 17.2873 67.857 22.5582V38.7567C67.857 44.9405 71.2039 48.2383 77.3152 48.2383H93.0991C99.5969 48.2383 99.4782 49.0506 99.4782 54.3214V102.512Z" fill="#216CC3"/>
<path d="M62.9565 16H72.3478L99.4782 43.1304V54.3214M62.9565 16L37.8786 16.0707C32.711 16.0707 28.5217 20.3184 28.5217 25.5582V102.512C28.5217 107.752 32.711 112 37.8786 112H90.1213C95.289 112 99.4782 107.752 99.4782 102.512V54.3214M62.9565 16C68.1548 16 67.857 17.2873 67.857 22.5582V38.7567C67.857 44.9405 71.2039 48.2383 77.3152 48.2383H93.0991C99.5969 48.2383 99.4782 49.0506 99.4782 54.3214" stroke="#216CC3" stroke-width="8" stroke-linecap="round" stroke-linejoin="round"/>
<path d="M56.9817 80.5C56.7911 80.5 56.6351 80.4393 56.5137 80.318C56.3924 80.1967 56.3317 80.0407 56.3317 79.85V62.95C56.3317 62.7593 56.3924 62.6033 56.5137 62.482C56.6351 62.3607 56.7911 62.3 56.9817 62.3H64.0537C66.2897 62.3 68.0491 62.82 69.3317 63.86C70.6317 64.8827 71.2817 66.3387 71.2817 68.228C71.2817 69.4587 70.9784 70.4987 70.3717 71.348C69.7824 72.1973 69.0024 72.8387 68.0317 73.272L71.6197 79.668C71.6717 79.772 71.6977 79.8673 71.6977 79.954C71.6977 80.0927 71.6371 80.2227 71.5157 80.344C71.4117 80.448 71.2817 80.5 71.1257 80.5H67.6937C67.3644 80.5 67.1217 80.422 66.9657 80.266C66.8097 80.0927 66.6971 79.9367 66.6277 79.798L63.6637 74.078H60.9857V79.85C60.9857 80.0407 60.9251 80.1967 60.8037 80.318C60.6824 80.4393 60.5264 80.5 60.3357 80.5H56.9817ZM60.9857 70.412H64.0017C64.8164 70.412 65.4231 70.2127 65.8217 69.814C66.2377 69.4153 66.4457 68.8693 66.4457 68.176C66.4457 67.5 66.2464 66.954 65.8477 66.538C65.4664 66.122 64.8511 65.914 64.0017 65.914H60.9857V70.412Z" fill="white"/>
</svg>
