<svg width="128" height="128" viewBox="0 0 128 128" fill="none" xmlns="http://www.w3.org/2000/svg">
<path d="M99.4782 102.512C99.4782 107.752 95.289 112 90.1213 112H37.8786C32.711 112 28.5217 107.752 28.5217 102.512V25.5582C28.5217 20.3184 32.711 16.0707 37.8786 16.0707L62.9565 16C68.1548 16 67.857 17.2873 67.857 22.5582V38.7567C67.857 44.9405 71.2039 48.2383 77.3152 48.2383H93.0991C99.5969 48.2383 99.4782 49.0506 99.4782 54.3214V102.512Z" fill="#7F7F88"/>
<path d="M62.9565 16H72.3478L99.4782 43.1304V54.3214M62.9565 16L37.8786 16.0707C32.711 16.0707 28.5217 20.3184 28.5217 25.5582V102.512C28.5217 107.752 32.711 112 37.8786 112H90.1213C95.289 112 99.4782 107.752 99.4782 102.512V54.3214M62.9565 16C68.1548 16 67.857 17.2873 67.857 22.5582V38.7567C67.857 44.9405 71.2039 48.2383 77.3152 48.2383H93.0991C99.5969 48.2383 99.4782 49.0506 99.4782 54.3214" stroke="#7F7F88" stroke-width="8" stroke-linecap="round" stroke-linejoin="round"/>
<path d="M39.1878 80.5C38.9971 80.5 38.8411 80.4393 38.7198 80.318C38.5984 80.1967 38.5378 80.0407 38.5378 79.85V62.95C38.5378 62.7593 38.5984 62.6033 38.7198 62.482C38.8411 62.3607 38.9971 62.3 39.1878 62.3H46.2598C48.4958 62.3 50.2551 62.82 51.5378 63.86C52.8378 64.8827 53.4878 66.3387 53.4878 68.228C53.4878 69.4587 53.1844 70.4987 52.5778 71.348C51.9884 72.1973 51.2084 72.8387 50.2378 73.272L53.8258 79.668C53.8778 79.772 53.9038 79.8673 53.9038 79.954C53.9038 80.0927 53.8431 80.2227 53.7218 80.344C53.6178 80.448 53.4878 80.5 53.3318 80.5H49.8998C49.5704 80.5 49.3278 80.422 49.1718 80.266C49.0158 80.0927 48.9031 79.9367 48.8338 79.798L45.8698 74.078H43.1918V79.85C43.1918 80.0407 43.1311 80.1967 43.0098 80.318C42.8884 80.4393 42.7324 80.5 42.5418 80.5H39.1878ZM43.1918 70.412H46.2078C47.0224 70.412 47.6291 70.2127 48.0278 69.814C48.4438 69.4153 48.6518 68.8693 48.6518 68.176C48.6518 67.5 48.4524 66.954 48.0538 66.538C47.6724 66.122 47.0571 65.914 46.2078 65.914H43.1918V70.412ZM55.4743 80.5C55.3357 80.5 55.2057 80.448 55.0843 80.344C54.9803 80.2227 54.9283 80.0927 54.9283 79.954C54.9283 79.8673 54.937 79.7893 54.9543 79.72L61.0643 63.028C61.1163 62.8373 61.2203 62.6727 61.3763 62.534C61.5497 62.378 61.7837 62.3 62.0783 62.3H65.9263C66.221 62.3 66.4463 62.378 66.6023 62.534C66.7757 62.6727 66.8883 62.8373 66.9403 63.028L73.0243 79.72C73.059 79.7893 73.0763 79.8673 73.0763 79.954C73.0763 80.0927 73.0157 80.2227 72.8943 80.344C72.7903 80.448 72.6603 80.5 72.5043 80.5H69.3063C69.0463 80.5 68.847 80.4393 68.7083 80.318C68.587 80.1793 68.509 80.058 68.4743 79.954L67.4603 77.302H60.5183L59.5303 79.954C59.4957 80.058 59.4177 80.1793 59.2963 80.318C59.175 80.4393 58.967 80.5 58.6723 80.5H55.4743ZM61.5843 73.558H66.4203L63.9763 66.694L61.5843 73.558ZM75.7757 80.5C75.585 80.5 75.429 80.4393 75.3077 80.318C75.1863 80.1967 75.1257 80.0407 75.1257 79.85V62.95C75.1257 62.7593 75.1863 62.6033 75.3077 62.482C75.429 62.3607 75.585 62.3 75.7757 62.3H82.8477C85.0837 62.3 86.843 62.82 88.1257 63.86C89.4257 64.8827 90.0757 66.3387 90.0757 68.228C90.0757 69.4587 89.7723 70.4987 89.1657 71.348C88.5763 72.1973 87.7963 72.8387 86.8257 73.272L90.4137 79.668C90.4657 79.772 90.4917 79.8673 90.4917 79.954C90.4917 80.0927 90.431 80.2227 90.3097 80.344C90.2057 80.448 90.0757 80.5 89.9197 80.5H86.4877C86.1583 80.5 85.9157 80.422 85.7597 80.266C85.6037 80.0927 85.491 79.9367 85.4217 79.798L82.4577 74.078H79.7797V79.85C79.7797 80.0407 79.719 80.1967 79.5977 80.318C79.4763 80.4393 79.3203 80.5 79.1297 80.5H75.7757ZM79.7797 70.412H82.7957C83.6103 70.412 84.217 70.2127 84.6157 69.814C85.0317 69.4153 85.2397 68.8693 85.2397 68.176C85.2397 67.5 85.0403 66.954 84.6417 66.538C84.2603 66.122 83.645 65.914 82.7957 65.914H79.7797V70.412Z" fill="white"/>
</svg>
