<svg width="128" height="128" viewBox="0 0 128 128" fill="none" xmlns="http://www.w3.org/2000/svg">
<path d="M99.4782 102.512C99.4782 107.752 95.289 112 90.1213 112H37.8786C32.711 112 28.5217 107.752 28.5217 102.512V25.5582C28.5217 20.3184 32.711 16.0707 37.8786 16.0707L62.9565 16C68.1548 16 67.857 17.2873 67.857 22.5582V38.7567C67.857 44.9405 71.2039 48.2383 77.3152 48.2383H93.0991C99.5969 48.2383 99.4782 49.0506 99.4782 54.3214V102.512Z" fill="#F74B00"/>
<path d="M62.9565 16H72.3478L99.4782 43.1304V54.3214M62.9565 16L37.8786 16.0707C32.711 16.0707 28.5217 20.3184 28.5217 25.5582V102.512C28.5217 107.752 32.711 112 37.8786 112H90.1213C95.289 112 99.4782 107.752 99.4782 102.512V54.3214M62.9565 16C68.1548 16 67.857 17.2873 67.857 22.5582V38.7567C67.857 44.9405 71.2039 48.2383 77.3152 48.2383H93.0991C99.5969 48.2383 99.4782 49.0506 99.4782 54.3214" stroke="#F74B00" stroke-width="8" stroke-linecap="round" stroke-linejoin="round"/>
<path d="M48.3743 80.5C48.1836 80.5 48.0276 80.4393 47.9063 80.318C47.785 80.1967 47.7243 80.0407 47.7243 79.85V62.95C47.7243 62.7593 47.785 62.6033 47.9063 62.482C48.0276 62.3607 48.1836 62.3 48.3743 62.3H55.4463C57.6823 62.3 59.4416 62.82 60.7243 63.86C62.0243 64.8827 62.6743 66.3387 62.6743 68.228C62.6743 69.4587 62.371 70.4987 61.7643 71.348C61.175 72.1973 60.395 72.8387 59.4243 73.272L63.0123 79.668C63.0643 79.772 63.0903 79.8673 63.0903 79.954C63.0903 80.0927 63.0296 80.2227 62.9083 80.344C62.8043 80.448 62.6743 80.5 62.5183 80.5H59.0863C58.757 80.5 58.5143 80.422 58.3583 80.266C58.2023 80.0927 58.0896 79.9367 58.0203 79.798L55.0563 74.078H52.3783V79.85C52.3783 80.0407 52.3176 80.1967 52.1963 80.318C52.075 80.4393 51.919 80.5 51.7283 80.5H48.3743ZM52.3783 70.412H55.3943C56.209 70.412 56.8156 70.2127 57.2143 69.814C57.6303 69.4153 57.8383 68.8693 57.8383 68.176C57.8383 67.5 57.639 66.954 57.2403 66.538C56.859 66.122 56.2436 65.914 55.3943 65.914H52.3783V70.412ZM72.4869 80.76C70.7535 80.76 69.3149 80.5173 68.1709 80.032C67.0269 79.5293 66.1602 78.8793 65.5709 78.082C64.9815 77.2847 64.6695 76.4353 64.6349 75.534C64.6349 75.3953 64.6869 75.274 64.7909 75.17C64.9122 75.0487 65.0509 74.988 65.2069 74.988H68.4829C68.7255 74.988 68.9075 75.0313 69.0289 75.118C69.1675 75.2047 69.2889 75.3173 69.3929 75.456C69.5315 75.716 69.7222 75.9673 69.9649 76.21C70.2249 76.4527 70.5542 76.652 70.9529 76.808C71.3689 76.9467 71.8802 77.016 72.4869 77.016C73.4922 77.016 74.2462 76.86 74.7489 76.548C75.2689 76.236 75.5289 75.8113 75.5289 75.274C75.5289 74.8927 75.3902 74.5807 75.1129 74.338C74.8355 74.078 74.3849 73.8527 73.7609 73.662C73.1542 73.454 72.3395 73.246 71.3169 73.038C69.9995 72.7607 68.8729 72.4053 67.9369 71.972C67.0182 71.5213 66.3162 70.9407 65.8309 70.23C65.3455 69.502 65.1029 68.6007 65.1029 67.526C65.1029 66.4687 65.3975 65.524 65.9869 64.692C66.5935 63.86 67.4342 63.21 68.5089 62.742C69.5835 62.274 70.8575 62.04 72.3309 62.04C73.5269 62.04 74.5755 62.196 75.4769 62.508C76.3955 62.82 77.1669 63.236 77.7909 63.756C78.4149 64.276 78.8829 64.8307 79.1949 65.42C79.5242 65.992 79.6975 66.5553 79.7149 67.11C79.7149 67.2487 79.6629 67.3787 79.5589 67.5C79.4549 67.604 79.3249 67.656 79.1689 67.656H75.7369C75.5462 67.656 75.3815 67.6213 75.2429 67.552C75.1042 67.4827 74.9829 67.37 74.8789 67.214C74.7749 66.8327 74.4975 66.5033 74.0469 66.226C73.6135 65.9313 73.0415 65.784 72.3309 65.784C71.5682 65.784 70.9702 65.9227 70.5369 66.2C70.1209 66.46 69.9129 66.8673 69.9129 67.422C69.9129 67.7687 70.0255 68.072 70.2509 68.332C70.4935 68.592 70.8835 68.8173 71.4209 69.008C71.9755 69.1987 72.7295 69.398 73.6829 69.606C75.2602 69.9007 76.5342 70.2733 77.5049 70.724C78.4755 71.1573 79.1862 71.7293 79.6369 72.44C80.0875 73.1333 80.3129 74.0087 80.3129 75.066C80.3129 76.2447 79.9749 77.2673 79.2989 78.134C78.6402 78.9833 77.7215 79.6333 76.5429 80.084C75.3642 80.5347 74.0122 80.76 72.4869 80.76Z" fill="#ABACBA"/>
</svg>
