<svg width="128" height="128" viewBox="0 0 128 128" fill="none" xmlns="http://www.w3.org/2000/svg">
<path d="M99.4782 102.512C99.4782 107.752 95.289 112 90.1213 112H37.8786C32.711 112 28.5217 107.752 28.5217 102.512V25.5582C28.5217 20.3184 32.711 16.0707 37.8786 16.0707L62.9565 16C68.1548 16 67.857 17.2873 67.857 22.5582V38.7567C67.857 44.9405 71.2039 48.2383 77.3152 48.2383H93.0991C99.5969 48.2383 99.4782 49.0506 99.4782 54.3214V102.512Z" fill="#ABACBA"/>
<path d="M62.9565 16H72.3478L99.4782 43.1304V54.3214M62.9565 16L37.8786 16.0707C32.711 16.0707 28.5217 20.3184 28.5217 25.5582V102.512C28.5217 107.752 32.711 112 37.8786 112H90.1213C95.289 112 99.4782 107.752 99.4782 102.512V54.3214M62.9565 16C68.1548 16 67.857 17.2873 67.857 22.5582V38.7567C67.857 44.9405 71.2039 48.2383 77.3152 48.2383H93.0991C99.5969 48.2383 99.4782 49.0506 99.4782 54.3214" stroke="#ABACBA" stroke-width="8" stroke-linecap="round" stroke-linejoin="round"/>
<path d="M41.3587 80.5C41.168 80.5 41.012 80.4393 40.8907 80.318C40.7693 80.1967 40.7087 80.0407 40.7087 79.85V62.95C40.7087 62.7593 40.7693 62.6033 40.8907 62.482C41.012 62.3607 41.168 62.3 41.3587 62.3H48.4307C50.6667 62.3 52.426 62.82 53.7087 63.86C55.0087 64.8827 55.6587 66.3387 55.6587 68.228C55.6587 69.4587 55.3553 70.4987 54.7487 71.348C54.1593 72.1973 53.3793 72.8387 52.4087 73.272L55.9967 79.668C56.0487 79.772 56.0747 79.8673 56.0747 79.954C56.0747 80.0927 56.014 80.2227 55.8927 80.344C55.7887 80.448 55.6587 80.5 55.5027 80.5H52.0707C51.7413 80.5 51.4987 80.422 51.3427 80.266C51.1867 80.0927 51.074 79.9367 51.0047 79.798L48.0407 74.078H45.3627V79.85C45.3627 80.0407 45.302 80.1967 45.1807 80.318C45.0593 80.4393 44.9033 80.5 44.7127 80.5H41.3587ZM45.3627 70.412H48.3787C49.1933 70.412 49.8 70.2127 50.1987 69.814C50.6147 69.4153 50.8227 68.8693 50.8227 68.176C50.8227 67.5 50.6233 66.954 50.2247 66.538C49.8433 66.122 49.228 65.914 48.3787 65.914H45.3627V70.412ZM63.1615 80.5C62.9708 80.5 62.8148 80.4393 62.6935 80.318C62.5722 80.1967 62.5115 80.0407 62.5115 79.85V66.382H57.8835C57.6928 66.382 57.5368 66.3213 57.4155 66.2C57.2942 66.0613 57.2335 65.9053 57.2335 65.732V62.95C57.2335 62.7593 57.2942 62.6033 57.4155 62.482C57.5368 62.3607 57.6928 62.3 57.8835 62.3H71.8715C72.0622 62.3 72.2182 62.3607 72.3395 62.482C72.4608 62.6033 72.5215 62.7593 72.5215 62.95V65.732C72.5215 65.9053 72.4608 66.0613 72.3395 66.2C72.2182 66.3213 72.0622 66.382 71.8715 66.382H67.2435V79.85C67.2435 80.0407 67.1828 80.1967 67.0615 80.318C66.9402 80.4393 66.7842 80.5 66.5935 80.5H63.1615ZM75.5345 80.5C75.3438 80.5 75.1878 80.4393 75.0665 80.318C74.9451 80.1967 74.8845 80.0407 74.8845 79.85V62.95C74.8845 62.7593 74.9451 62.6033 75.0665 62.482C75.1878 62.3607 75.3438 62.3 75.5345 62.3H87.4685C87.6591 62.3 87.8151 62.3607 87.9365 62.482C88.0751 62.6033 88.1445 62.7593 88.1445 62.95V65.576C88.1445 65.7667 88.0751 65.9227 87.9365 66.044C87.8151 66.1653 87.6591 66.226 87.4685 66.226H79.4605V70.048H86.9485C87.1391 70.048 87.2951 70.1173 87.4165 70.256C87.5551 70.3773 87.6245 70.5333 87.6245 70.724V73.324C87.6245 73.4973 87.5551 73.6533 87.4165 73.792C87.2951 73.9133 87.1391 73.974 86.9485 73.974H79.4605V79.85C79.4605 80.0407 79.3998 80.1967 79.2785 80.318C79.1571 80.4393 79.0011 80.5 78.8105 80.5H75.5345Z" fill="#ABACBA"/>
</svg>
