<svg width="128" height="128" viewBox="0 0 128 128" fill="none" xmlns="http://www.w3.org/2000/svg">
<path d="M99.4782 102.512C99.4782 107.752 95.289 112 90.1213 112H37.8786C32.711 112 28.5217 107.752 28.5217 102.512V25.5582C28.5217 20.3184 32.711 16.0707 37.8786 16.0707L62.9565 16C68.1548 16 67.857 17.2873 67.857 22.5582V38.7567C67.857 44.9405 71.2039 48.2383 77.3152 48.2383H93.0991C99.5969 48.2383 99.4782 49.0506 99.4782 54.3214V102.512Z" fill="#7F7F88"/>
<path d="M62.9565 16H72.3478L99.4782 43.1304V54.3214M62.9565 16L37.8786 16.0707C32.711 16.0707 28.5217 20.3184 28.5217 25.5582V102.512C28.5217 107.752 32.711 112 37.8786 112H90.1213C95.289 112 99.4782 107.752 99.4782 102.512V54.3214M62.9565 16C68.1548 16 67.857 17.2873 67.857 22.5582V38.7567C67.857 44.9405 71.2039 48.2383 77.3152 48.2383H93.0991C99.5969 48.2383 99.4782 49.0506 99.4782 54.3214" stroke="#7F7F88" stroke-width="8" stroke-linecap="round" stroke-linejoin="round"/>
<path d="M54.3121 80.76C52.5787 80.76 51.1401 80.5173 49.9961 80.032C48.8521 79.5293 47.9854 78.8793 47.3961 78.082C46.8067 77.2847 46.4947 76.4353 46.4601 75.534C46.4601 75.3953 46.5121 75.274 46.6161 75.17C46.7374 75.0487 46.8761 74.988 47.0321 74.988H50.3081C50.5507 74.988 50.7327 75.0313 50.8541 75.118C50.9927 75.2047 51.1141 75.3173 51.2181 75.456C51.3567 75.716 51.5474 75.9673 51.7901 76.21C52.0501 76.4527 52.3794 76.652 52.7781 76.808C53.1941 76.9467 53.7054 77.016 54.3121 77.016C55.3174 77.016 56.0714 76.86 56.5741 76.548C57.0941 76.236 57.3541 75.8113 57.3541 75.274C57.3541 74.8927 57.2154 74.5807 56.9381 74.338C56.6607 74.078 56.2101 73.8527 55.5861 73.662C54.9794 73.454 54.1647 73.246 53.1421 73.038C51.8247 72.7607 50.6981 72.4053 49.7621 71.972C48.8434 71.5213 48.1414 70.9407 47.6561 70.23C47.1707 69.502 46.9281 68.6007 46.9281 67.526C46.9281 66.4687 47.2227 65.524 47.8121 64.692C48.4187 63.86 49.2594 63.21 50.3341 62.742C51.4087 62.274 52.6827 62.04 54.1561 62.04C55.3521 62.04 56.4007 62.196 57.3021 62.508C58.2207 62.82 58.9921 63.236 59.6161 63.756C60.2401 64.276 60.7081 64.8307 61.0201 65.42C61.3494 65.992 61.5227 66.5553 61.5401 67.11C61.5401 67.2487 61.4881 67.3787 61.3841 67.5C61.2801 67.604 61.1501 67.656 60.9941 67.656H57.5621C57.3714 67.656 57.2067 67.6213 57.0681 67.552C56.9294 67.4827 56.8081 67.37 56.7041 67.214C56.6001 66.8327 56.3227 66.5033 55.8721 66.226C55.4387 65.9313 54.8667 65.784 54.1561 65.784C53.3934 65.784 52.7954 65.9227 52.3621 66.2C51.9461 66.46 51.7381 66.8673 51.7381 67.422C51.7381 67.7687 51.8507 68.072 52.0761 68.332C52.3187 68.592 52.7087 68.8173 53.2461 69.008C53.8007 69.1987 54.5547 69.398 55.5081 69.606C57.0854 69.9007 58.3594 70.2733 59.3301 70.724C60.3007 71.1573 61.0114 71.7293 61.4621 72.44C61.9127 73.1333 62.1381 74.0087 62.1381 75.066C62.1381 76.2447 61.8001 77.2673 61.1241 78.134C60.4654 78.9833 59.5467 79.6333 58.3681 80.084C57.1894 80.5347 55.8374 80.76 54.3121 80.76ZM65.3909 80.5C65.2002 80.5 65.0442 80.4393 64.9229 80.318C64.8016 80.1967 64.7409 80.0407 64.7409 79.85V62.95C64.7409 62.7593 64.8016 62.6033 64.9229 62.482C65.0442 62.3607 65.2002 62.3 65.3909 62.3H68.7449C68.9356 62.3 69.0916 62.3607 69.2129 62.482C69.3342 62.6033 69.3949 62.7593 69.3949 62.95V69.216H75.8169V62.95C75.8169 62.7593 75.8776 62.6033 75.9989 62.482C76.1202 62.3607 76.2762 62.3 76.4669 62.3H79.8209C80.0116 62.3 80.1676 62.3607 80.2889 62.482C80.4102 62.6033 80.4709 62.7593 80.4709 62.95V79.85C80.4709 80.0407 80.4102 80.1967 80.2889 80.318C80.1676 80.4393 80.0116 80.5 79.8209 80.5H76.4669C76.2762 80.5 76.1202 80.4393 75.9989 80.318C75.8776 80.1967 75.8169 80.0407 75.8169 79.85V73.376H69.3949V79.85C69.3949 80.0407 69.3342 80.1967 69.2129 80.318C69.0916 80.4393 68.9356 80.5 68.7449 80.5H65.3909Z" fill="white"/>
</svg>
