<svg width="128" height="128" viewBox="0 0 128 128" fill="none" xmlns="http://www.w3.org/2000/svg">
<path d="M99.4782 102.512C99.4782 107.752 95.289 112 90.1213 112H37.8786C32.711 112 28.5217 107.752 28.5217 102.512V25.5582C28.5217 20.3184 32.711 16.0707 37.8786 16.0707L62.9565 16C68.1548 16 67.857 17.2873 67.857 22.5582V38.7567C67.857 44.9405 71.2039 48.2383 77.3152 48.2383H93.0991C99.5969 48.2383 99.4782 49.0506 99.4782 54.3214V102.512Z" fill="#7F7F88"/>
<path d="M62.9565 16H72.3478L99.4782 43.1304V54.3214M62.9565 16L37.8786 16.0707C32.711 16.0707 28.5217 20.3184 28.5217 25.5582V102.512C28.5217 107.752 32.711 112 37.8786 112H90.1213C95.289 112 99.4782 107.752 99.4782 102.512V54.3214M62.9565 16C68.1548 16 67.857 17.2873 67.857 22.5582V38.7567C67.857 44.9405 71.2039 48.2383 77.3152 48.2383H93.0991C99.5969 48.2383 99.4782 49.0506 99.4782 54.3214" stroke="#7F7F88" stroke-width="8" stroke-linecap="round" stroke-linejoin="round"/>
<path d="M46.398 80.76C44.6647 80.76 43.226 80.5173 42.082 80.032C40.938 79.5293 40.0713 78.8793 39.482 78.082C38.8927 77.2847 38.5807 76.4353 38.546 75.534C38.546 75.3953 38.598 75.274 38.702 75.17C38.8233 75.0487 38.962 74.988 39.118 74.988H42.394C42.6367 74.988 42.8187 75.0313 42.94 75.118C43.0787 75.2047 43.2 75.3173 43.304 75.456C43.4427 75.716 43.6333 75.9673 43.876 76.21C44.136 76.4527 44.4653 76.652 44.864 76.808C45.28 76.9467 45.7913 77.016 46.398 77.016C47.4033 77.016 48.1573 76.86 48.66 76.548C49.18 76.236 49.44 75.8113 49.44 75.274C49.44 74.8927 49.3013 74.5807 49.024 74.338C48.7467 74.078 48.296 73.8527 47.672 73.662C47.0653 73.454 46.2507 73.246 45.228 73.038C43.9107 72.7607 42.784 72.4053 41.848 71.972C40.9293 71.5213 40.2273 70.9407 39.742 70.23C39.2567 69.502 39.014 68.6007 39.014 67.526C39.014 66.4687 39.3087 65.524 39.898 64.692C40.5047 63.86 41.3453 63.21 42.42 62.742C43.4947 62.274 44.7687 62.04 46.242 62.04C47.438 62.04 48.4867 62.196 49.388 62.508C50.3067 62.82 51.078 63.236 51.702 63.756C52.326 64.276 52.794 64.8307 53.106 65.42C53.4353 65.992 53.6087 66.5553 53.626 67.11C53.626 67.2487 53.574 67.3787 53.47 67.5C53.366 67.604 53.236 67.656 53.08 67.656H49.648C49.4573 67.656 49.2927 67.6213 49.154 67.552C49.0153 67.4827 48.894 67.37 48.79 67.214C48.686 66.8327 48.4087 66.5033 47.958 66.226C47.5247 65.9313 46.9527 65.784 46.242 65.784C45.4793 65.784 44.8813 65.9227 44.448 66.2C44.032 66.46 43.824 66.8673 43.824 67.422C43.824 67.7687 43.9367 68.072 44.162 68.332C44.4047 68.592 44.7947 68.8173 45.332 69.008C45.8867 69.1987 46.6407 69.398 47.594 69.606C49.1713 69.9007 50.4453 70.2733 51.416 70.724C52.3867 71.1573 53.0973 71.7293 53.548 72.44C53.9987 73.1333 54.224 74.0087 54.224 75.066C54.224 76.2447 53.886 77.2673 53.21 78.134C52.5513 78.9833 51.6327 79.6333 50.454 80.084C49.2753 80.5347 47.9233 80.76 46.398 80.76ZM57.4768 80.5C57.2862 80.5 57.1302 80.4393 57.0088 80.318C56.8875 80.1967 56.8268 80.0407 56.8268 79.85V62.95C56.8268 62.7593 56.8875 62.6033 57.0088 62.482C57.1302 62.3607 57.2862 62.3 57.4768 62.3H60.9088C61.0822 62.3 61.2295 62.3607 61.3508 62.482C61.4895 62.6033 61.5588 62.7593 61.5588 62.95V76.574H69.4108C69.6015 76.574 69.7575 76.6433 69.8788 76.782C70.0175 76.9033 70.0868 77.0593 70.0868 77.25V79.85C70.0868 80.0407 70.0175 80.1967 69.8788 80.318C69.7575 80.4393 69.6015 80.5 69.4108 80.5H57.4768ZM72.9905 80.5C72.7998 80.5 72.6438 80.4393 72.5225 80.318C72.4012 80.1967 72.3405 80.0407 72.3405 79.85V62.95C72.3405 62.7593 72.4012 62.6033 72.5225 62.482C72.6438 62.3607 72.7998 62.3 72.9905 62.3H75.7465C76.0412 62.3 76.2492 62.3693 76.3705 62.508C76.5092 62.6293 76.5958 62.7247 76.6305 62.794L82.9745 72.804V62.95C82.9745 62.7593 83.0352 62.6033 83.1565 62.482C83.2778 62.3607 83.4338 62.3 83.6245 62.3H86.7445C86.9352 62.3 87.0912 62.3607 87.2125 62.482C87.3338 62.6033 87.3945 62.7593 87.3945 62.95V79.85C87.3945 80.0233 87.3338 80.1793 87.2125 80.318C87.0912 80.4393 86.9352 80.5 86.7445 80.5H83.9625C83.6852 80.5 83.4772 80.4307 83.3385 80.292C83.2172 80.1533 83.1392 80.058 83.1045 80.006L76.7605 70.386V79.85C76.7605 80.0407 76.6998 80.1967 76.5785 80.318C76.4572 80.4393 76.3012 80.5 76.1105 80.5H72.9905Z" fill="white"/>
</svg>
