<svg width="128" height="128" viewBox="0 0 128 128" fill="none" xmlns="http://www.w3.org/2000/svg">
<path d="M99.4782 102.512C99.4782 107.752 95.289 112 90.1213 112H37.8786C32.711 112 28.5217 107.752 28.5217 102.512V25.5582C28.5217 20.3184 32.711 16.0707 37.8786 16.0707L62.9565 16C68.1548 16 67.857 17.2873 67.857 22.5582V38.7567C67.857 44.9405 71.2039 48.2383 77.3152 48.2383H93.0991C99.5969 48.2383 99.4782 49.0506 99.4782 54.3214V102.512Z" fill="#DC7939"/>
<path d="M62.9565 16H72.3478L99.4782 43.1304V54.3214M62.9565 16L37.8786 16.0707C32.711 16.0707 28.5217 20.3184 28.5217 25.5582V102.512C28.5217 107.752 32.711 112 37.8786 112H90.1213C95.289 112 99.4782 107.752 99.4782 102.512V54.3214M62.9565 16C68.1548 16 67.857 17.2873 67.857 22.5582V38.7567C67.857 44.9405 71.2039 48.2383 77.3152 48.2383H93.0991C99.5969 48.2383 99.4782 49.0506 99.4782 54.3214" stroke="#DC7939" stroke-width="8" stroke-linecap="round" stroke-linejoin="round"/>
<path d="M46.4869 80.76C44.7535 80.76 43.3149 80.5173 42.1709 80.032C41.0269 79.5293 40.1602 78.8793 39.5709 78.082C38.9815 77.2847 38.6695 76.4353 38.6349 75.534C38.6349 75.3953 38.6869 75.274 38.7909 75.17C38.9122 75.0487 39.0509 74.988 39.2069 74.988H42.4829C42.7255 74.988 42.9075 75.0313 43.0289 75.118C43.1675 75.2047 43.2889 75.3173 43.3929 75.456C43.5315 75.716 43.7222 75.9673 43.9649 76.21C44.2249 76.4527 44.5542 76.652 44.9529 76.808C45.3689 76.9467 45.8802 77.016 46.4869 77.016C47.4922 77.016 48.2462 76.86 48.7489 76.548C49.2689 76.236 49.5289 75.8113 49.5289 75.274C49.5289 74.8927 49.3902 74.5807 49.1129 74.338C48.8355 74.078 48.3849 73.8527 47.7609 73.662C47.1542 73.454 46.3395 73.246 45.3169 73.038C43.9995 72.7607 42.8729 72.4053 41.9369 71.972C41.0182 71.5213 40.3162 70.9407 39.8309 70.23C39.3455 69.502 39.1029 68.6007 39.1029 67.526C39.1029 66.4687 39.3975 65.524 39.9869 64.692C40.5935 63.86 41.4342 63.21 42.5089 62.742C43.5835 62.274 44.8575 62.04 46.3309 62.04C47.5269 62.04 48.5755 62.196 49.4769 62.508C50.3955 62.82 51.1669 63.236 51.7909 63.756C52.4149 64.276 52.8829 64.8307 53.1949 65.42C53.5242 65.992 53.6975 66.5553 53.7149 67.11C53.7149 67.2487 53.6629 67.3787 53.5589 67.5C53.4549 67.604 53.3249 67.656 53.1689 67.656H49.7369C49.5462 67.656 49.3815 67.6213 49.2429 67.552C49.1042 67.4827 48.9829 67.37 48.8789 67.214C48.7749 66.8327 48.4975 66.5033 48.0469 66.226C47.6135 65.9313 47.0415 65.784 46.3309 65.784C45.5682 65.784 44.9702 65.9227 44.5369 66.2C44.1209 66.46 43.9129 66.8673 43.9129 67.422C43.9129 67.7687 44.0255 68.072 44.2509 68.332C44.4935 68.592 44.8835 68.8173 45.4209 69.008C45.9755 69.1987 46.7295 69.398 47.6829 69.606C49.2602 69.9007 50.5342 70.2733 51.5049 70.724C52.4755 71.1573 53.1862 71.7293 53.6369 72.44C54.0875 73.1333 54.3129 74.0087 54.3129 75.066C54.3129 76.2447 53.9749 77.2673 53.2989 78.134C52.6402 78.9833 51.7215 79.6333 50.5429 80.084C49.3642 80.5347 48.0122 80.76 46.4869 80.76ZM68.5117 82.19C68.2344 82.19 68.0177 82.112 67.8617 81.956C67.723 81.8173 67.6104 81.696 67.5237 81.592L66.6397 80.422C65.9637 80.6473 65.1924 80.76 64.3257 80.76C62.731 80.76 61.3444 80.5 60.1657 79.98C59.0044 79.46 58.0857 78.68 57.4097 77.64C56.751 76.5827 56.3957 75.2653 56.3437 73.688C56.3264 72.9427 56.3177 72.1973 56.3177 71.452C56.3177 70.7067 56.3264 69.9527 56.3437 69.19C56.3957 67.63 56.7597 66.3213 57.4357 65.264C58.1117 64.1893 59.039 63.3833 60.2177 62.846C61.3964 62.3087 62.7657 62.04 64.3257 62.04C65.903 62.04 67.281 62.3087 68.4597 62.846C69.6384 63.3833 70.5657 64.1893 71.2417 65.264C71.9177 66.3213 72.2817 67.63 72.3337 69.19C72.3684 69.9527 72.3857 70.7067 72.3857 71.452C72.3857 72.1973 72.3684 72.9427 72.3337 73.688C72.2297 75.8373 71.6057 77.5013 70.4617 78.68L72.3597 81.384C72.377 81.4013 72.3944 81.436 72.4117 81.488C72.429 81.54 72.4377 81.592 72.4377 81.644C72.455 81.7827 72.4117 81.904 72.3077 82.008C72.2037 82.1293 72.0737 82.19 71.9177 82.19H68.5117ZM64.3257 77.016C65.2444 77.016 65.9897 76.7387 66.5617 76.184C67.151 75.6293 67.463 74.7453 67.4977 73.532C67.5324 72.7693 67.5497 72.05 67.5497 71.374C67.5497 70.698 67.5324 69.996 67.4977 69.268C67.4804 68.4533 67.333 67.7947 67.0557 67.292C66.7784 66.772 66.4057 66.3907 65.9377 66.148C65.4697 65.9053 64.9324 65.784 64.3257 65.784C63.7364 65.784 63.2077 65.9053 62.7397 66.148C62.2717 66.3907 61.899 66.772 61.6217 67.292C61.3444 67.7947 61.197 68.4533 61.1797 69.268C61.1624 69.996 61.1537 70.698 61.1537 71.374C61.1537 72.05 61.1624 72.7693 61.1797 73.532C61.2144 74.7453 61.5177 75.6293 62.0897 76.184C62.679 76.7387 63.4244 77.016 64.3257 77.016ZM76.0755 80.5C75.8848 80.5 75.7288 80.4393 75.6075 80.318C75.4861 80.1967 75.4255 80.0407 75.4255 79.85V62.95C75.4255 62.7593 75.4861 62.6033 75.6075 62.482C75.7288 62.3607 75.8848 62.3 76.0755 62.3H79.5075C79.6808 62.3 79.8281 62.3607 79.9495 62.482C80.0881 62.6033 80.1575 62.7593 80.1575 62.95V76.574H88.0095C88.2001 76.574 88.3561 76.6433 88.4775 76.782C88.6161 76.9033 88.6855 77.0593 88.6855 77.25V79.85C88.6855 80.0407 88.6161 80.1967 88.4775 80.318C88.3561 80.4393 88.2001 80.5 88.0095 80.5H76.0755Z" fill="white"/>
</svg>
