<svg width="128" height="128" viewBox="0 0 128 128" fill="none" xmlns="http://www.w3.org/2000/svg">
<path d="M99.4782 102.512C99.4782 107.752 95.289 112 90.1213 112H37.8786C32.711 112 28.5217 107.752 28.5217 102.512V25.5582C28.5217 20.3184 32.711 16.0707 37.8786 16.0707L62.9565 16C68.1548 16 67.857 17.2873 67.857 22.5582L78.0758 31.0445L93.0991 48.2383C99.5969 48.2383 99.4782 49.0506 99.4782 54.3214V102.512Z" fill="#188047"/>
<path d="M62.9565 16H72.3478L99.4782 43.1304V54.3214M62.9565 16L37.8786 16.0707C32.711 16.0707 28.5217 20.3184 28.5217 25.5582V102.512C28.5217 107.752 32.711 112 37.8786 112H90.1213C95.289 112 99.4782 107.752 99.4782 102.512V54.3214M62.9565 16C68.1548 16 67.857 17.2873 67.857 22.5582L78.0758 31.0445L93.0991 48.2383C99.5969 48.2383 99.4782 49.0506 99.4782 54.3214" stroke="#188047" stroke-width="8" stroke-linecap="round" stroke-linejoin="round"/>
<path d="M40.7487 102.353C39.1487 102.353 37.8207 102.129 36.7647 101.681C35.7087 101.217 34.9087 100.617 34.3647 99.8806C33.8207 99.1446 33.5327 98.3606 33.5007 97.5286C33.5007 97.4006 33.5487 97.2886 33.6447 97.1926C33.7567 97.0806 33.8847 97.0246 34.0287 97.0246H37.0527C37.2767 97.0246 37.4447 97.0646 37.5567 97.1446C37.6847 97.2246 37.7967 97.3286 37.8927 97.4566C38.0207 97.6966 38.1967 97.9286 38.4207 98.1526C38.6607 98.3766 38.9647 98.5606 39.3327 98.7046C39.7167 98.8326 40.1887 98.8966 40.7487 98.8966C41.6767 98.8966 42.3727 98.7526 42.8367 98.4646C43.3167 98.1766 43.5567 97.7846 43.5567 97.2886C43.5567 96.9366 43.4287 96.6486 43.1727 96.4246C42.9167 96.1846 42.5007 95.9766 41.9247 95.8006C41.3647 95.6086 40.6127 95.4166 39.6687 95.2246C38.4527 94.9686 37.4127 94.6406 36.5487 94.2406C35.7007 93.8246 35.0527 93.2886 34.6047 92.6326C34.1567 91.9606 33.9327 91.1286 33.9327 90.1366C33.9327 89.1606 34.2047 88.2886 34.7487 87.5206C35.3087 86.7526 36.0847 86.1526 37.0767 85.7206C38.0687 85.2886 39.2447 85.0726 40.6047 85.0726C41.7087 85.0726 42.6767 85.2166 43.5087 85.5046C44.3567 85.7926 45.0687 86.1766 45.6447 86.6566C46.2207 87.1366 46.6527 87.6486 46.9407 88.1926C47.2447 88.7206 47.4047 89.2406 47.4207 89.7526C47.4207 89.8806 47.3727 90.0006 47.2767 90.1126C47.1807 90.2086 47.0607 90.2566 46.9167 90.2566H43.7487C43.5727 90.2566 43.4207 90.2246 43.2927 90.1606C43.1647 90.0966 43.0527 89.9926 42.9567 89.8486C42.8607 89.4966 42.6047 89.1926 42.1887 88.9366C41.7887 88.6646 41.2607 88.5286 40.6047 88.5286C39.9007 88.5286 39.3487 88.6566 38.9487 88.9126C38.5647 89.1526 38.3727 89.5286 38.3727 90.0406C38.3727 90.3606 38.4767 90.6406 38.6847 90.8806C38.9087 91.1206 39.2687 91.3286 39.7647 91.5046C40.2767 91.6806 40.9727 91.8646 41.8527 92.0566C43.3087 92.3286 44.4847 92.6726 45.3807 93.0886C46.2767 93.4886 46.9327 94.0166 47.3487 94.6726C47.7647 95.3126 47.9727 96.1206 47.9727 97.0966C47.9727 98.1846 47.6607 99.1286 47.0367 99.9286C46.4287 100.713 45.5807 101.313 44.4927 101.729C43.4047 102.145 42.1567 102.353 40.7487 102.353ZM54.5073 102.113C54.3313 102.113 54.1873 102.057 54.0753 101.945C53.9633 101.833 53.9073 101.689 53.9073 101.513V89.0806H49.6353C49.4593 89.0806 49.3153 89.0246 49.2033 88.9126C49.0913 88.7846 49.0353 88.6406 49.0353 88.4806V85.9126C49.0353 85.7366 49.0913 85.5926 49.2033 85.4806C49.3153 85.3686 49.4593 85.3126 49.6353 85.3126H62.5473C62.7233 85.3126 62.8673 85.3686 62.9793 85.4806C63.0913 85.5926 63.1473 85.7366 63.1473 85.9126V88.4806C63.1473 88.6406 63.0913 88.7846 62.9793 88.9126C62.8673 89.0246 62.7233 89.0806 62.5473 89.0806H58.2753V101.513C58.2753 101.689 58.2193 101.833 58.1073 101.945C57.9953 102.057 57.8513 102.113 57.6753 102.113H54.5073ZM65.9284 102.113C65.7524 102.113 65.6084 102.057 65.4964 101.945C65.3844 101.833 65.3284 101.689 65.3284 101.513V85.9126C65.3284 85.7366 65.3844 85.5926 65.4964 85.4806C65.6084 85.3686 65.7524 85.3126 65.9284 85.3126H77.1364C77.3124 85.3126 77.4564 85.3686 77.5684 85.4806C77.6804 85.5926 77.7364 85.7366 77.7364 85.9126V88.1686C77.7364 88.3446 77.6804 88.4886 77.5684 88.6006C77.4564 88.7126 77.3124 88.7686 77.1364 88.7686H69.4804V92.0086H76.6084C76.7844 92.0086 76.9284 92.0726 77.0404 92.2006C77.1524 92.3126 77.2084 92.4566 77.2084 92.6326V94.7206C77.2084 94.8806 77.1524 95.0246 77.0404 95.1526C76.9284 95.2646 76.7844 95.3206 76.6084 95.3206H69.4804V98.6566H77.3284C77.5044 98.6566 77.6484 98.7126 77.7604 98.8246C77.8724 98.9366 77.9284 99.0806 77.9284 99.2566V101.513C77.9284 101.689 77.8724 101.833 77.7604 101.945C77.6484 102.057 77.5044 102.113 77.3284 102.113H65.9284ZM81.2566 102.113C81.0806 102.113 80.9366 102.057 80.8246 101.945C80.7126 101.833 80.6566 101.689 80.6566 101.513V85.9126C80.6566 85.7366 80.7126 85.5926 80.8246 85.4806C80.9366 85.3686 81.0806 85.3126 81.2566 85.3126H87.9766C89.3046 85.3126 90.4566 85.5206 91.4326 85.9366C92.4246 86.3366 93.1926 86.9446 93.7366 87.7606C94.2966 88.5766 94.5766 89.6086 94.5766 90.8566C94.5766 92.0886 94.2966 93.1046 93.7366 93.9046C93.1926 94.7046 92.4246 95.2966 91.4326 95.6806C90.4566 96.0646 89.3046 96.2566 87.9766 96.2566H85.1206V101.513C85.1206 101.689 85.0566 101.833 84.9286 101.945C84.8166 102.057 84.6726 102.113 84.4966 102.113H81.2566ZM85.0486 92.9446H87.8566C88.5446 92.9446 89.0886 92.7686 89.4886 92.4166C89.9046 92.0646 90.1126 91.5286 90.1126 90.8086C90.1126 90.2006 89.9366 89.6886 89.5846 89.2726C89.2326 88.8566 88.6566 88.6486 87.8566 88.6486H85.0486V92.9446Z" fill="white"/>
<path d="M82 44.9663L64 52.2777" stroke="white" stroke-width="4" stroke-linecap="round"/>
<path d="M82 66.3434L64 73.6549" stroke="white" stroke-width="4" stroke-linecap="round"/>
<path d="M82 44.9663L64 37.6549" stroke="white" stroke-width="4" stroke-linecap="round"/>
<path d="M64 73.6548V52.2777" stroke="white" stroke-width="4" stroke-linecap="round"/>
<path d="M82 66.3434V44.9663" stroke="white" stroke-width="4" stroke-linecap="round"/>
<path d="M46 44.9663L64 52.2777" stroke="white" stroke-width="4" stroke-linecap="round"/>
<path d="M46 44.9663L64 52.2777" stroke="white" stroke-width="4" stroke-linecap="round"/>
<path d="M46 66.3434L64 73.6549" stroke="white" stroke-width="4" stroke-linecap="round"/>
<path d="M46 44.9663L64 37.6549" stroke="white" stroke-width="4" stroke-linecap="round"/>
<path d="M46 66.3434V44.9663" stroke="white" stroke-width="4" stroke-linecap="round"/>
</svg>
