<svg width="128" height="128" viewBox="0 0 128 128" fill="none" xmlns="http://www.w3.org/2000/svg">
<path d="M99.4782 102.512C99.4782 107.752 95.289 112 90.1213 112H37.8786C32.711 112 28.5217 107.752 28.5217 102.512V25.5582C28.5217 20.3184 32.711 16.0707 37.8786 16.0707L62.9565 16C68.1548 16 67.857 17.2873 67.857 22.5582L78.0758 31.0445L93.0991 48.2383C99.5969 48.2383 99.4782 49.0506 99.4782 54.3214V102.512Z" fill="#29BAFC"/>
<path d="M62.9565 16H72.3478L99.4782 43.1304V54.3214M62.9565 16L37.8786 16.0707C32.711 16.0707 28.5217 20.3184 28.5217 25.5582V102.512C28.5217 107.752 32.711 112 37.8786 112H90.1213C95.289 112 99.4782 107.752 99.4782 102.512V54.3214M62.9565 16C68.1548 16 67.857 17.2873 67.857 22.5582L78.0758 31.0445L93.0991 48.2383C99.5969 48.2383 99.4782 49.0506 99.4782 54.3214" stroke="#29BAFC" stroke-width="8" stroke-linecap="round" stroke-linejoin="round"/>
<path d="M48.1421 104.373C46.4088 104.373 44.9701 104.13 43.8261 103.645C42.6821 103.142 41.8155 102.492 41.2261 101.695C40.6368 100.897 40.3248 100.048 40.2901 99.1466C40.2901 99.0079 40.3421 98.8866 40.4461 98.7826C40.5675 98.6613 40.7061 98.6006 40.8621 98.6006H44.1381C44.3808 98.6006 44.5628 98.6439 44.6841 98.7306C44.8228 98.8173 44.9441 98.9299 45.0481 99.0686C45.1868 99.3286 45.3775 99.5799 45.6201 99.8226C45.8801 100.065 46.2095 100.265 46.6081 100.421C47.0241 100.559 47.5355 100.629 48.1421 100.629C49.1475 100.629 49.9015 100.473 50.4041 100.161C50.9241 99.8486 51.1841 99.4239 51.1841 98.8866C51.1841 98.5053 51.0455 98.1933 50.7681 97.9506C50.4908 97.6906 50.0401 97.4653 49.4161 97.2746C48.8095 97.0666 47.9948 96.8586 46.9721 96.6506C45.6548 96.3733 44.5281 96.0179 43.5921 95.5846C42.6735 95.1339 41.9715 94.5533 41.4861 93.8426C41.0008 93.1146 40.7581 92.2133 40.7581 91.1386C40.7581 90.0813 41.0528 89.1366 41.6421 88.3046C42.2488 87.4726 43.0895 86.8226 44.1641 86.3546C45.2388 85.8866 46.5128 85.6526 47.9861 85.6526C49.1821 85.6526 50.2308 85.8086 51.1321 86.1206C52.0508 86.4326 52.8221 86.8486 53.4461 87.3686C54.0701 87.8886 54.5381 88.4433 54.8501 89.0326C55.1795 89.6046 55.3528 90.1679 55.3701 90.7226C55.3701 90.8613 55.3181 90.9913 55.2141 91.1126C55.1101 91.2166 54.9801 91.2686 54.8241 91.2686H51.3921C51.2015 91.2686 51.0368 91.2339 50.8981 91.1646C50.7595 91.0953 50.6381 90.9826 50.5341 90.8266C50.4301 90.4453 50.1528 90.1159 49.7021 89.8386C49.2688 89.5439 48.6968 89.3966 47.9861 89.3966C47.2235 89.3966 46.6255 89.5353 46.1921 89.8126C45.7761 90.0726 45.5681 90.4799 45.5681 91.0346C45.5681 91.3813 45.6808 91.6846 45.9061 91.9446C46.1488 92.2046 46.5388 92.4299 47.0761 92.6206C47.6308 92.8113 48.3848 93.0106 49.3381 93.2186C50.9155 93.5133 52.1895 93.8859 53.1601 94.3366C54.1308 94.7699 54.8415 95.3419 55.2921 96.0526C55.7428 96.7459 55.9681 97.6213 55.9681 98.6786C55.9681 99.8573 55.6301 100.88 54.9541 101.747C54.2955 102.596 53.3768 103.246 52.1981 103.697C51.0195 104.147 49.6675 104.373 48.1421 104.373ZM63.0472 104.113C62.8566 104.113 62.7006 104.052 62.5792 103.931C62.4579 103.809 62.3972 103.653 62.3972 103.463V89.9946H57.7692C57.5786 89.9946 57.4226 89.9339 57.3012 89.8126C57.1799 89.6739 57.1192 89.5179 57.1192 89.3446V86.5626C57.1192 86.3719 57.1799 86.2159 57.3012 86.0946C57.4226 85.9733 57.5786 85.9126 57.7692 85.9126H71.7572C71.9479 85.9126 72.1039 85.9733 72.2252 86.0946C72.3466 86.2159 72.4072 86.3719 72.4072 86.5626V89.3446C72.4072 89.5179 72.3466 89.6739 72.2252 89.8126C72.1039 89.9339 71.9479 89.9946 71.7572 89.9946H67.1292V103.463C67.1292 103.653 67.0686 103.809 66.9472 103.931C66.8259 104.052 66.6699 104.113 66.4792 104.113H63.0472ZM75.4202 104.113C75.2295 104.113 75.0735 104.052 74.9522 103.931C74.8309 103.809 74.7702 103.653 74.7702 103.463V86.5626C74.7702 86.3719 74.8309 86.2159 74.9522 86.0946C75.0735 85.9733 75.2295 85.9126 75.4202 85.9126H78.8522C79.0255 85.9126 79.1729 85.9733 79.2942 86.0946C79.4329 86.2159 79.5022 86.3719 79.5022 86.5626V100.187H87.3542C87.5449 100.187 87.7009 100.256 87.8222 100.395C87.9609 100.516 88.0302 100.672 88.0302 100.863V103.463C88.0302 103.653 87.9609 103.809 87.8222 103.931C87.7009 104.052 87.5449 104.113 87.3542 104.113H75.4202Z" fill="#ABACBA"/>
<path d="M82 44.9663L64 52.2777" stroke="#ABACBA" stroke-width="4" stroke-linecap="round"/>
<path d="M82 66.3434L64 73.6549" stroke="#ABACBA" stroke-width="4" stroke-linecap="round"/>
<path d="M82 44.9663L64 37.6549" stroke="#ABACBA" stroke-width="4" stroke-linecap="round"/>
<path d="M64 73.6548V52.2777" stroke="#ABACBA" stroke-width="4" stroke-linecap="round"/>
<path d="M82 66.3434V44.9663" stroke="#ABACBA" stroke-width="4" stroke-linecap="round"/>
<path d="M46 44.9663L64 52.2777" stroke="#ABACBA" stroke-width="4" stroke-linecap="round"/>
<path d="M46 44.9663L64 52.2777" stroke="#ABACBA" stroke-width="4" stroke-linecap="round"/>
<path d="M46 66.3434L64 73.6549" stroke="#ABACBA" stroke-width="4" stroke-linecap="round"/>
<path d="M46 44.9663L64 37.6549" stroke="#ABACBA" stroke-width="4" stroke-linecap="round"/>
<path d="M46 66.3434V44.9663" stroke="#ABACBA" stroke-width="4" stroke-linecap="round"/>
</svg>
