<svg width="128" height="128" viewBox="0 0 128 128" fill="none" xmlns="http://www.w3.org/2000/svg">
<path d="M99.4782 102.512C99.4782 107.752 95.289 112 90.1213 112H37.8786C32.711 112 28.5217 107.752 28.5217 102.512V25.5582C28.5217 20.3184 32.711 16.0707 37.8786 16.0707L62.9565 16C68.1548 16 67.857 17.2873 67.857 22.5582L78.0758 31.0445L93.0991 48.2383C99.5969 48.2383 99.4782 49.0506 99.4782 54.3214V102.512Z" fill="#188047"/>
<path d="M62.9565 16H72.3478L99.4782 43.1304V54.3214M62.9565 16L37.8786 16.0707C32.711 16.0707 28.5217 20.3184 28.5217 25.5582V102.512C28.5217 107.752 32.711 112 37.8786 112H90.1213C95.289 112 99.4782 107.752 99.4782 102.512V54.3214M62.9565 16C68.1548 16 67.857 17.2873 67.857 22.5582L78.0758 31.0445L93.0991 48.2383C99.5969 48.2383 99.4782 49.0506 99.4782 54.3214" stroke="#188047" stroke-width="8" stroke-linecap="round" stroke-linejoin="round"/>
<path d="M47.1138 104.373C45.3805 104.373 43.9418 104.13 42.7978 103.645C41.6538 103.142 40.7871 102.492 40.1978 101.695C39.6085 100.897 39.2965 100.048 39.2618 99.1466C39.2618 99.0079 39.3138 98.8866 39.4178 98.7826C39.5391 98.6613 39.6778 98.6006 39.8338 98.6006H43.1098C43.3525 98.6006 43.5345 98.6439 43.6558 98.7306C43.7945 98.8173 43.9158 98.9299 44.0198 99.0686C44.1585 99.3286 44.3491 99.5799 44.5918 99.8226C44.8518 100.065 45.1811 100.265 45.5798 100.421C45.9958 100.559 46.5071 100.629 47.1138 100.629C48.1191 100.629 48.8731 100.473 49.3758 100.161C49.8958 99.8486 50.1558 99.4239 50.1558 98.8866C50.1558 98.5053 50.0171 98.1933 49.7398 97.9506C49.4625 97.6906 49.0118 97.4653 48.3878 97.2746C47.7811 97.0666 46.9665 96.8586 45.9438 96.6506C44.6265 96.3733 43.4998 96.0179 42.5638 95.5846C41.6451 95.1339 40.9431 94.5533 40.4578 93.8426C39.9725 93.1146 39.7298 92.2133 39.7298 91.1386C39.7298 90.0813 40.0245 89.1366 40.6138 88.3046C41.2205 87.4726 42.0611 86.8226 43.1358 86.3546C44.2105 85.8866 45.4845 85.6526 46.9578 85.6526C48.1538 85.6526 49.2025 85.8086 50.1038 86.1206C51.0225 86.4326 51.7938 86.8486 52.4178 87.3686C53.0418 87.8886 53.5098 88.4433 53.8218 89.0326C54.1511 89.6046 54.3245 90.1679 54.3418 90.7226C54.3418 90.8613 54.2898 90.9913 54.1858 91.1126C54.0818 91.2166 53.9518 91.2686 53.7958 91.2686H50.3638C50.1731 91.2686 50.0085 91.2339 49.8698 91.1646C49.7311 91.0953 49.6098 90.9826 49.5058 90.8266C49.4018 90.4453 49.1245 90.1159 48.6738 89.8386C48.2405 89.5439 47.6685 89.3966 46.9578 89.3966C46.1951 89.3966 45.5971 89.5353 45.1638 89.8126C44.7478 90.0726 44.5398 90.4799 44.5398 91.0346C44.5398 91.3813 44.6525 91.6846 44.8778 91.9446C45.1205 92.2046 45.5105 92.4299 46.0478 92.6206C46.6025 92.8113 47.3565 93.0106 48.3098 93.2186C49.8871 93.5133 51.1611 93.8859 52.1318 94.3366C53.1025 94.7699 53.8131 95.3419 54.2638 96.0526C54.7145 96.7459 54.9398 97.6213 54.9398 98.6786C54.9398 99.8573 54.6018 100.88 53.9258 101.747C53.2671 102.596 52.3485 103.246 51.1698 103.697C49.9911 104.147 48.6391 104.373 47.1138 104.373ZM62.0189 104.113C61.8283 104.113 61.6723 104.052 61.5509 103.931C61.4296 103.809 61.3689 103.653 61.3689 103.463V89.9946H56.7409C56.5503 89.9946 56.3943 89.9339 56.2729 89.8126C56.1516 89.6739 56.0909 89.5179 56.0909 89.3446V86.5626C56.0909 86.3719 56.1516 86.2159 56.2729 86.0946C56.3943 85.9733 56.5503 85.9126 56.7409 85.9126H70.7289C70.9196 85.9126 71.0756 85.9733 71.1969 86.0946C71.3183 86.2159 71.3789 86.3719 71.3789 86.5626V89.3446C71.3789 89.5179 71.3183 89.6739 71.1969 89.8126C71.0756 89.9339 70.9196 89.9946 70.7289 89.9946H66.1009V103.463C66.1009 103.653 66.0403 103.809 65.9189 103.931C65.7976 104.052 65.6416 104.113 65.4509 104.113H62.0189ZM74.3919 104.113C74.2012 104.113 74.0452 104.052 73.9239 103.931C73.8025 103.809 73.7419 103.653 73.7419 103.463V86.5626C73.7419 86.3719 73.8025 86.2159 73.9239 86.0946C74.0452 85.9733 74.2012 85.9126 74.3919 85.9126H81.6719C83.1105 85.9126 84.3585 86.1379 85.4159 86.5886C86.4905 87.0219 87.3225 87.6806 87.9119 88.5646C88.5185 89.4486 88.8219 90.5666 88.8219 91.9186C88.8219 93.2533 88.5185 94.3539 87.9119 95.2206C87.3225 96.0873 86.4905 96.7286 85.4159 97.1446C84.3585 97.5606 83.1105 97.7686 81.6719 97.7686H78.5779V103.463C78.5779 103.653 78.5085 103.809 78.3699 103.931C78.2485 104.052 78.0925 104.113 77.9019 104.113H74.3919ZM78.4999 94.1806H81.5419C82.2872 94.1806 82.8765 93.9899 83.3099 93.6086C83.7605 93.2273 83.9859 92.6466 83.9859 91.8666C83.9859 91.2079 83.7952 90.6533 83.4139 90.2026C83.0325 89.7519 82.4085 89.5266 81.5419 89.5266H78.4999V94.1806Z" fill="#ABACBA"/>
<path d="M82 44.9663L64 52.2777" stroke="#ABACBA" stroke-width="4" stroke-linecap="round"/>
<path d="M82 66.3434L64 73.6549" stroke="#ABACBA" stroke-width="4" stroke-linecap="round"/>
<path d="M82 44.9663L64 37.6549" stroke="#ABACBA" stroke-width="4" stroke-linecap="round"/>
<path d="M64 73.6548V52.2777" stroke="#ABACBA" stroke-width="4" stroke-linecap="round"/>
<path d="M82 66.3434V44.9663" stroke="#ABACBA" stroke-width="4" stroke-linecap="round"/>
<path d="M46 44.9663L64 52.2777" stroke="#ABACBA" stroke-width="4" stroke-linecap="round"/>
<path d="M46 44.9663L64 52.2777" stroke="#ABACBA" stroke-width="4" stroke-linecap="round"/>
<path d="M46 66.3434L64 73.6549" stroke="#ABACBA" stroke-width="4" stroke-linecap="round"/>
<path d="M46 44.9663L64 37.6549" stroke="#ABACBA" stroke-width="4" stroke-linecap="round"/>
<path d="M46 66.3434V44.9663" stroke="#ABACBA" stroke-width="4" stroke-linecap="round"/>
</svg>
