<svg width="128" height="128" viewBox="0 0 128 128" fill="none" xmlns="http://www.w3.org/2000/svg">
<path d="M99.4782 102.512C99.4782 107.752 95.289 112 90.1213 112H37.8786C32.711 112 28.5217 107.752 28.5217 102.512V25.5582C28.5217 20.3184 32.711 16.0707 37.8786 16.0707L62.9565 16C68.1548 16 67.857 17.2873 67.857 22.5582V38.7567C67.857 44.9405 71.2039 48.2383 77.3152 48.2383H93.0991C99.5969 48.2383 99.4782 49.0506 99.4782 54.3214V102.512Z" fill="#ABACBA"/>
<path d="M62.9565 16H72.3478L99.4782 43.1304V54.3214M62.9565 16L37.8786 16.0707C32.711 16.0707 28.5217 20.3184 28.5217 25.5582V102.512C28.5217 107.752 32.711 112 37.8786 112H90.1213C95.289 112 99.4782 107.752 99.4782 102.512V54.3214M62.9565 16C68.1548 16 67.857 17.2873 67.857 22.5582V38.7567C67.857 44.9405 71.2039 48.2383 77.3152 48.2383H93.0991C99.5969 48.2383 99.4782 49.0506 99.4782 54.3214" stroke="#ABACBA" stroke-width="8" stroke-linecap="round" stroke-linejoin="round"/>
<path d="M36.9174 78.5C36.7414 78.5 36.5974 78.444 36.4854 78.332C36.3734 78.22 36.3174 78.076 36.3174 77.9V65.468H32.0454C31.8694 65.468 31.7254 65.412 31.6134 65.3C31.5014 65.172 31.4454 65.028 31.4454 64.868V62.3C31.4454 62.124 31.5014 61.98 31.6134 61.868C31.7254 61.756 31.8694 61.7 32.0454 61.7H44.9574C45.1334 61.7 45.2774 61.756 45.3894 61.868C45.5014 61.98 45.5574 62.124 45.5574 62.3V64.868C45.5574 65.028 45.5014 65.172 45.3894 65.3C45.2774 65.412 45.1334 65.468 44.9574 65.468H40.6854V77.9C40.6854 78.076 40.6294 78.22 40.5174 78.332C40.4054 78.444 40.2614 78.5 40.0854 78.5H36.9174ZM54.3448 78.74C52.8728 78.74 51.5928 78.5 50.5048 78.02C49.4168 77.54 48.5688 76.82 47.9608 75.86C47.3528 74.884 47.0168 73.668 46.9528 72.212C46.9368 71.524 46.9288 70.836 46.9288 70.148C46.9288 69.46 46.9368 68.764 46.9528 68.06C47.0168 66.62 47.3528 65.412 47.9608 64.436C48.5848 63.444 49.4408 62.7 50.5288 62.204C51.6168 61.708 52.8888 61.46 54.3448 61.46C55.7848 61.46 57.0488 61.708 58.1368 62.204C59.2408 62.7 60.1048 63.444 60.7288 64.436C61.3528 65.412 61.6888 66.62 61.7368 68.06C61.7688 68.764 61.7848 69.46 61.7848 70.148C61.7848 70.836 61.7688 71.524 61.7368 72.212C61.6728 73.668 61.3368 74.884 60.7288 75.86C60.1208 76.82 59.2728 77.54 58.1848 78.02C57.0968 78.5 55.8168 78.74 54.3448 78.74ZM54.3448 75.284C55.1928 75.284 55.8808 75.028 56.4088 74.516C56.9528 74.004 57.2408 73.188 57.2728 72.068C57.3048 71.364 57.3208 70.7 57.3208 70.076C57.3208 69.452 57.3048 68.804 57.2728 68.132C57.2408 67.38 57.0968 66.772 56.8408 66.308C56.6008 65.828 56.2648 65.476 55.8328 65.252C55.4008 65.028 54.9048 64.916 54.3448 64.916C53.8008 64.916 53.3128 65.028 52.8808 65.252C52.4488 65.476 52.1048 65.828 51.8488 66.308C51.5928 66.772 51.4488 67.38 51.4168 68.132C51.4008 68.804 51.3928 69.452 51.3928 70.076C51.3928 70.7 51.4008 71.364 51.4168 72.068C51.4648 73.188 51.7528 74.004 52.2808 74.516C52.8088 75.028 53.4968 75.284 54.3448 75.284ZM65.1667 78.5C65.0067 78.5 64.8627 78.444 64.7347 78.332C64.6227 78.22 64.5667 78.076 64.5667 77.9V62.3C64.5667 62.124 64.6227 61.98 64.7347 61.868C64.8627 61.756 65.0067 61.7 65.1667 61.7H67.7587C68.0147 61.7 68.2067 61.772 68.3347 61.916C68.4787 62.044 68.5667 62.148 68.5987 62.228L72.8227 69.812L77.0467 62.228C77.0947 62.148 77.1747 62.044 77.2867 61.916C77.4147 61.772 77.6147 61.7 77.8867 61.7H80.4547C80.6307 61.7 80.7747 61.756 80.8867 61.868C81.0147 61.98 81.0787 62.124 81.0787 62.3V77.9C81.0787 78.076 81.0147 78.22 80.8867 78.332C80.7747 78.444 80.6307 78.5 80.4547 78.5H77.5987C77.4227 78.5 77.2707 78.444 77.1427 78.332C77.0307 78.22 76.9747 78.076 76.9747 77.9V68.9L74.2627 73.916C74.1987 74.06 74.1027 74.188 73.9747 74.3C73.8467 74.412 73.6707 74.468 73.4467 74.468H72.1987C71.9747 74.468 71.7987 74.412 71.6707 74.3C71.5427 74.188 71.4387 74.06 71.3587 73.916L68.6467 68.9V77.9C68.6467 78.076 68.5907 78.22 68.4787 78.332C68.3667 78.444 68.2227 78.5 68.0467 78.5H65.1667ZM85.0183 78.5C84.8423 78.5 84.6983 78.444 84.5863 78.332C84.4743 78.22 84.4183 78.076 84.4183 77.9V62.3C84.4183 62.124 84.4743 61.98 84.5863 61.868C84.6983 61.756 84.8423 61.7 85.0183 61.7H88.1863C88.3463 61.7 88.4823 61.756 88.5943 61.868C88.7223 61.98 88.7863 62.124 88.7863 62.3V74.876H96.0343C96.2103 74.876 96.3543 74.94 96.4663 75.068C96.5943 75.18 96.6583 75.324 96.6583 75.5V77.9C96.6583 78.076 96.5943 78.22 96.4663 78.332C96.3543 78.444 96.2103 78.5 96.0343 78.5H85.0183Z" fill="#ABACBA"/>
</svg>
