<svg width="128" height="128" viewBox="0 0 128 128" fill="none" xmlns="http://www.w3.org/2000/svg">
<path d="M99.4782 102.512C99.4782 107.752 95.289 112 90.1213 112H37.8786C32.711 112 28.5217 107.752 28.5217 102.512V25.5582C28.5217 20.3184 32.711 16.0707 37.8786 16.0707L62.9565 16C68.1548 16 67.857 17.2873 67.857 22.5582V38.7567C67.857 44.9405 71.2039 48.2383 77.3152 48.2383H93.0991C99.5969 48.2383 99.4782 49.0506 99.4782 54.3214V102.512Z" fill="#3178C6"/>
<path d="M62.9565 16H72.3478L99.4782 43.1304V54.3214M62.9565 16L37.8786 16.0707C32.711 16.0707 28.5217 20.3184 28.5217 25.5582V102.512C28.5217 107.752 32.711 112 37.8786 112H90.1213C95.289 112 99.4782 107.752 99.4782 102.512V54.3214M62.9565 16C68.1548 16 67.857 17.2873 67.857 22.5582V38.7567C67.857 44.9405 71.2039 48.2383 77.3152 48.2383H93.0991C99.5969 48.2383 99.4782 49.0506 99.4782 54.3214" stroke="#3178C6" stroke-width="8" stroke-linecap="round" stroke-linejoin="round"/>
<path d="M53.2035 80.5C53.0128 80.5 52.8568 80.4393 52.7355 80.318C52.6142 80.1967 52.5535 80.0407 52.5535 79.85V66.382H47.9255C47.7348 66.382 47.5788 66.3213 47.4575 66.2C47.3362 66.0613 47.2755 65.9053 47.2755 65.732V62.95C47.2755 62.7593 47.3362 62.6033 47.4575 62.482C47.5788 62.3607 47.7348 62.3 47.9255 62.3H61.9135C62.1042 62.3 62.2602 62.3607 62.3815 62.482C62.5028 62.6033 62.5635 62.7593 62.5635 62.95V65.732C62.5635 65.9053 62.5028 66.0613 62.3815 66.2C62.2602 66.3213 62.1042 66.382 61.9135 66.382H57.2855V79.85C57.2855 80.0407 57.2248 80.1967 57.1035 80.318C56.9822 80.4393 56.8262 80.5 56.6355 80.5H53.2035ZM71.6617 80.76C69.9283 80.76 68.4897 80.5173 67.3457 80.032C66.2017 79.5293 65.335 78.8793 64.7457 78.082C64.1563 77.2847 63.8443 76.4353 63.8097 75.534C63.8097 75.3953 63.8617 75.274 63.9657 75.17C64.087 75.0487 64.2257 74.988 64.3817 74.988H67.6577C67.9003 74.988 68.0823 75.0313 68.2037 75.118C68.3423 75.2047 68.4637 75.3173 68.5677 75.456C68.7063 75.716 68.897 75.9673 69.1397 76.21C69.3997 76.4527 69.729 76.652 70.1277 76.808C70.5437 76.9467 71.055 77.016 71.6617 77.016C72.667 77.016 73.421 76.86 73.9237 76.548C74.4437 76.236 74.7037 75.8113 74.7037 75.274C74.7037 74.8927 74.565 74.5807 74.2877 74.338C74.0103 74.078 73.5597 73.8527 72.9357 73.662C72.329 73.454 71.5143 73.246 70.4917 73.038C69.1743 72.7607 68.0477 72.4053 67.1117 71.972C66.193 71.5213 65.491 70.9407 65.0057 70.23C64.5203 69.502 64.2777 68.6007 64.2777 67.526C64.2777 66.4687 64.5723 65.524 65.1617 64.692C65.7683 63.86 66.609 63.21 67.6837 62.742C68.7583 62.274 70.0323 62.04 71.5057 62.04C72.7017 62.04 73.7503 62.196 74.6517 62.508C75.5703 62.82 76.3417 63.236 76.9657 63.756C77.5897 64.276 78.0577 64.8307 78.3697 65.42C78.699 65.992 78.8723 66.5553 78.8897 67.11C78.8897 67.2487 78.8377 67.3787 78.7337 67.5C78.6297 67.604 78.4997 67.656 78.3437 67.656H74.9117C74.721 67.656 74.5563 67.6213 74.4177 67.552C74.279 67.4827 74.1577 67.37 74.0537 67.214C73.9497 66.8327 73.6723 66.5033 73.2217 66.226C72.7883 65.9313 72.2163 65.784 71.5057 65.784C70.743 65.784 70.145 65.9227 69.7117 66.2C69.2957 66.46 69.0877 66.8673 69.0877 67.422C69.0877 67.7687 69.2003 68.072 69.4257 68.332C69.6683 68.592 70.0583 68.8173 70.5957 69.008C71.1503 69.1987 71.9043 69.398 72.8577 69.606C74.435 69.9007 75.709 70.2733 76.6797 70.724C77.6503 71.1573 78.361 71.7293 78.8117 72.44C79.2623 73.1333 79.4877 74.0087 79.4877 75.066C79.4877 76.2447 79.1497 77.2673 78.4737 78.134C77.815 78.9833 76.8963 79.6333 75.7177 80.084C74.539 80.5347 73.187 80.76 71.6617 80.76Z" fill="white"/>
</svg>
