<svg width="128" height="128" viewBox="0 0 128 128" fill="none" xmlns="http://www.w3.org/2000/svg">
<path d="M99.4782 102.512C99.4782 107.752 95.289 112 90.1213 112H37.8786C32.711 112 28.5217 107.752 28.5217 102.512V25.5582C28.5217 20.3184 32.711 16.0707 37.8786 16.0707L62.9565 16C68.1548 16 67.857 17.2873 67.857 22.5582V38.7567C67.857 44.9405 71.2039 48.2383 77.3152 48.2383H93.0991C99.5969 48.2383 99.4782 49.0506 99.4782 54.3214V102.512Z" fill="#7F7F88"/>
<path d="M62.9565 16H72.3478L99.4782 43.1304V54.3214M62.9565 16L37.8786 16.0707C32.711 16.0707 28.5217 20.3184 28.5217 25.5582V102.512C28.5217 107.752 32.711 112 37.8786 112H90.1213C95.289 112 99.4782 107.752 99.4782 102.512V54.3214M62.9565 16C68.1548 16 67.857 17.2873 67.857 22.5582V38.7567C67.857 44.9405 71.2039 48.2383 77.3152 48.2383H93.0991C99.5969 48.2383 99.4782 49.0506 99.4782 54.3214" stroke="#7F7F88" stroke-width="8" stroke-linecap="round" stroke-linejoin="round"/>
<path d="M45.1215 80.5C44.9308 80.5 44.7748 80.4393 44.6535 80.318C44.5321 80.1967 44.4715 80.0407 44.4715 79.85V66.382H39.8435C39.6528 66.382 39.4968 66.3213 39.3755 66.2C39.2541 66.0613 39.1935 65.9053 39.1935 65.732V62.95C39.1935 62.7593 39.2541 62.6033 39.3755 62.482C39.4968 62.3607 39.6528 62.3 39.8435 62.3H53.8315C54.0221 62.3 54.1781 62.3607 54.2995 62.482C54.4208 62.6033 54.4815 62.7593 54.4815 62.95V65.732C54.4815 65.9053 54.4208 66.0613 54.2995 66.2C54.1781 66.3213 54.0221 66.382 53.8315 66.382H49.2035V79.85C49.2035 80.0407 49.1428 80.1967 49.0215 80.318C48.9001 80.4393 48.7441 80.5 48.5535 80.5H45.1215ZM55.8824 80.5C55.7264 80.5 55.5877 80.448 55.4664 80.344C55.3624 80.2227 55.3104 80.0927 55.3104 79.954C55.3104 79.902 55.3191 79.85 55.3364 79.798C55.3537 79.746 55.3797 79.694 55.4144 79.642L61.0824 71.218L55.8304 63.158C55.7784 63.054 55.7524 62.95 55.7524 62.846C55.7524 62.7073 55.8044 62.586 55.9084 62.482C56.0124 62.3607 56.1424 62.3 56.2984 62.3H60.0684C60.3284 62.3 60.5277 62.3693 60.6664 62.508C60.8051 62.6293 60.9004 62.742 60.9524 62.846L64.0724 67.578L67.2184 62.846C67.2877 62.742 67.3917 62.6293 67.5304 62.508C67.6691 62.3693 67.8684 62.3 68.1284 62.3H71.6904C71.8464 62.3 71.9764 62.3607 72.0804 62.482C72.2017 62.586 72.2624 62.7073 72.2624 62.846C72.2624 62.9673 72.2277 63.0713 72.1584 63.158L66.8804 71.192L72.6004 79.642C72.6351 79.694 72.6524 79.746 72.6524 79.798C72.6697 79.85 72.6784 79.902 72.6784 79.954C72.6784 80.0927 72.6264 80.2227 72.5224 80.344C72.4184 80.448 72.2884 80.5 72.1324 80.5H68.2584C67.9984 80.5 67.7904 80.4393 67.6344 80.318C67.4957 80.1793 67.4004 80.0667 67.3484 79.98L63.8904 74.988L60.5104 79.98C60.4584 80.0667 60.3631 80.1793 60.2244 80.318C60.0857 80.4393 59.8864 80.5 59.6264 80.5H55.8824ZM79.4496 80.5C79.2589 80.5 79.1029 80.4393 78.9816 80.318C78.8603 80.1967 78.7996 80.0407 78.7996 79.85V66.382H74.1716C73.9809 66.382 73.8249 66.3213 73.7036 66.2C73.5823 66.0613 73.5216 65.9053 73.5216 65.732V62.95C73.5216 62.7593 73.5823 62.6033 73.7036 62.482C73.8249 62.3607 73.9809 62.3 74.1716 62.3H88.1596C88.3503 62.3 88.5063 62.3607 88.6276 62.482C88.7489 62.6033 88.8096 62.7593 88.8096 62.95V65.732C88.8096 65.9053 88.7489 66.0613 88.6276 66.2C88.5063 66.3213 88.3503 66.382 88.1596 66.382H83.5316V79.85C83.5316 80.0407 83.4709 80.1967 83.3496 80.318C83.2283 80.4393 83.0723 80.5 82.8816 80.5H79.4496Z" fill="white"/>
</svg>
