<svg width="128" height="128" viewBox="0 0 128 128" fill="none" xmlns="http://www.w3.org/2000/svg">
<path d="M99.4782 102.512C99.4782 107.752 95.289 112 90.1213 112H37.8786C32.711 112 28.5217 107.752 28.5217 102.512V25.5582C28.5217 20.3184 32.711 16.0707 37.8786 16.0707L62.9565 16C68.1548 16 67.857 17.2873 67.857 22.5582V38.7567C67.857 44.9405 71.2039 48.2383 77.3152 48.2383H93.0991C99.5969 48.2383 99.4782 49.0506 99.4782 54.3214V102.512Z" fill="#188047"/>
<path d="M62.9565 16H72.3478L99.4782 43.1304V54.3214M62.9565 16L37.8786 16.0707C32.711 16.0707 28.5217 20.3184 28.5217 25.5582V102.512C28.5217 107.752 32.711 112 37.8786 112H90.1213C95.289 112 99.4782 107.752 99.4782 102.512V54.3214M62.9565 16C68.1548 16 67.857 17.2873 67.857 22.5582V38.7567C67.857 44.9405 71.2039 48.2383 77.3152 48.2383H93.0991C99.5969 48.2383 99.4782 49.0506 99.4782 54.3214" stroke="#188047" stroke-width="8" stroke-linecap="round" stroke-linejoin="round"/>
<path d="M30.8346 80.5C30.6786 80.5 30.5399 80.448 30.4186 80.344C30.3146 80.2227 30.2626 80.0927 30.2626 79.954C30.2626 79.902 30.2712 79.85 30.2886 79.798C30.3059 79.746 30.3319 79.694 30.3666 79.642L36.0346 71.218L30.7826 63.158C30.7306 63.054 30.7046 62.95 30.7046 62.846C30.7046 62.7073 30.7566 62.586 30.8606 62.482C30.9646 62.3607 31.0946 62.3 31.2506 62.3H35.0206C35.2806 62.3 35.4799 62.3693 35.6186 62.508C35.7572 62.6293 35.8526 62.742 35.9046 62.846L39.0246 67.578L42.1706 62.846C42.2399 62.742 42.3439 62.6293 42.4826 62.508C42.6212 62.3693 42.8206 62.3 43.0806 62.3H46.6426C46.7986 62.3 46.9286 62.3607 47.0326 62.482C47.1539 62.586 47.2146 62.7073 47.2146 62.846C47.2146 62.9673 47.1799 63.0713 47.1106 63.158L41.8326 71.192L47.5526 79.642C47.5872 79.694 47.6046 79.746 47.6046 79.798C47.6219 79.85 47.6306 79.902 47.6306 79.954C47.6306 80.0927 47.5786 80.2227 47.4746 80.344C47.3706 80.448 47.2406 80.5 47.0846 80.5H43.2106C42.9506 80.5 42.7426 80.4393 42.5866 80.318C42.4479 80.1793 42.3526 80.0667 42.3006 79.98L38.8426 74.988L35.4626 79.98C35.4106 80.0667 35.3152 80.1793 35.1766 80.318C35.0379 80.4393 34.8386 80.5 34.5786 80.5H30.8346ZM50.3977 80.5C50.2071 80.5 50.0511 80.4393 49.9297 80.318C49.8084 80.1967 49.7477 80.0407 49.7477 79.85V62.95C49.7477 62.7593 49.8084 62.6033 49.9297 62.482C50.0511 62.3607 50.2071 62.3 50.3977 62.3H53.8297C54.0031 62.3 54.1504 62.3607 54.2717 62.482C54.4104 62.6033 54.4797 62.7593 54.4797 62.95V76.574H62.3317C62.5224 76.574 62.6784 76.6433 62.7997 76.782C62.9384 76.9033 63.0077 77.0593 63.0077 77.25V79.85C63.0077 80.0407 62.9384 80.1967 62.7997 80.318C62.6784 80.4393 62.5224 80.5 62.3317 80.5H50.3977ZM72.0474 80.76C70.3141 80.76 68.8754 80.5173 67.7314 80.032C66.5874 79.5293 65.7207 78.8793 65.1314 78.082C64.5421 77.2847 64.2301 76.4353 64.1954 75.534C64.1954 75.3953 64.2474 75.274 64.3514 75.17C64.4727 75.0487 64.6114 74.988 64.7674 74.988H68.0434C68.2861 74.988 68.4681 75.0313 68.5894 75.118C68.7281 75.2047 68.8494 75.3173 68.9534 75.456C69.0921 75.716 69.2827 75.9673 69.5254 76.21C69.7854 76.4527 70.1147 76.652 70.5134 76.808C70.9294 76.9467 71.4407 77.016 72.0474 77.016C73.0527 77.016 73.8067 76.86 74.3094 76.548C74.8294 76.236 75.0894 75.8113 75.0894 75.274C75.0894 74.8927 74.9507 74.5807 74.6734 74.338C74.3961 74.078 73.9454 73.8527 73.3214 73.662C72.7147 73.454 71.9001 73.246 70.8774 73.038C69.5601 72.7607 68.4334 72.4053 67.4974 71.972C66.5787 71.5213 65.8767 70.9407 65.3914 70.23C64.9061 69.502 64.6634 68.6007 64.6634 67.526C64.6634 66.4687 64.9581 65.524 65.5474 64.692C66.1541 63.86 66.9947 63.21 68.0694 62.742C69.1441 62.274 70.4181 62.04 71.8914 62.04C73.0874 62.04 74.1361 62.196 75.0374 62.508C75.9561 62.82 76.7274 63.236 77.3514 63.756C77.9754 64.276 78.4434 64.8307 78.7554 65.42C79.0847 65.992 79.2581 66.5553 79.2754 67.11C79.2754 67.2487 79.2234 67.3787 79.1194 67.5C79.0154 67.604 78.8854 67.656 78.7294 67.656H75.2974C75.1067 67.656 74.9421 67.6213 74.8034 67.552C74.6647 67.4827 74.5434 67.37 74.4394 67.214C74.3354 66.8327 74.0581 66.5033 73.6074 66.226C73.1741 65.9313 72.6021 65.784 71.8914 65.784C71.1287 65.784 70.5307 65.9227 70.0974 66.2C69.6814 66.46 69.4734 66.8673 69.4734 67.422C69.4734 67.7687 69.5861 68.072 69.8114 68.332C70.0541 68.592 70.4441 68.8173 70.9814 69.008C71.5361 69.1987 72.2901 69.398 73.2434 69.606C74.8207 69.9007 76.0947 70.2733 77.0654 70.724C78.0361 71.1573 78.7467 71.7293 79.1974 72.44C79.6481 73.1333 79.8734 74.0087 79.8734 75.066C79.8734 76.2447 79.5354 77.2673 78.8594 78.134C78.2007 78.9833 77.2821 79.6333 76.1034 80.084C74.9247 80.5347 73.5727 80.76 72.0474 80.76ZM80.9303 80.5C80.7743 80.5 80.6356 80.448 80.5143 80.344C80.4103 80.2227 80.3583 80.0927 80.3583 79.954C80.3583 79.902 80.3669 79.85 80.3843 79.798C80.4016 79.746 80.4276 79.694 80.4623 79.642L86.1303 71.218L80.8783 63.158C80.8263 63.054 80.8003 62.95 80.8003 62.846C80.8003 62.7073 80.8523 62.586 80.9563 62.482C81.0603 62.3607 81.1903 62.3 81.3463 62.3H85.1163C85.3763 62.3 85.5756 62.3693 85.7143 62.508C85.8529 62.6293 85.9483 62.742 86.0003 62.846L89.1203 67.578L92.2663 62.846C92.3356 62.742 92.4396 62.6293 92.5783 62.508C92.7169 62.3693 92.9163 62.3 93.1763 62.3H96.7383C96.8943 62.3 97.0243 62.3607 97.1283 62.482C97.2496 62.586 97.3103 62.7073 97.3103 62.846C97.3103 62.9673 97.2756 63.0713 97.2063 63.158L91.9283 71.192L97.6483 79.642C97.6829 79.694 97.7003 79.746 97.7003 79.798C97.7176 79.85 97.7263 79.902 97.7263 79.954C97.7263 80.0927 97.6743 80.2227 97.5703 80.344C97.4663 80.448 97.3363 80.5 97.1803 80.5H93.3063C93.0463 80.5 92.8383 80.4393 92.6823 80.318C92.5436 80.1793 92.4483 80.0667 92.3963 79.98L88.9383 74.988L85.5583 79.98C85.5063 80.0667 85.4109 80.1793 85.2723 80.318C85.1336 80.4393 84.9343 80.5 84.6743 80.5H80.9303Z" fill="white"/>
</svg>
