<svg width="128" height="128" viewBox="0 0 128 128" fill="none" xmlns="http://www.w3.org/2000/svg">
<path d="M99.4782 102.512C99.4782 107.752 95.289 112 90.1213 112H37.8786C32.711 112 28.5217 107.752 28.5217 102.512V25.5582C28.5217 20.3184 32.711 16.0707 37.8786 16.0707L62.9565 16C68.1548 16 67.857 17.2873 67.857 22.5582V38.7567C67.857 44.9405 71.2039 48.2383 77.3152 48.2383H93.0991C99.5969 48.2383 99.4782 49.0506 99.4782 54.3214V102.512Z" fill="#188047"/>
<path d="M62.9565 16H72.3478L99.4782 43.1304V54.3214M62.9565 16L37.8786 16.0707C32.711 16.0707 28.5217 20.3184 28.5217 25.5582V102.512C28.5217 107.752 32.711 112 37.8786 112H90.1213C95.289 112 99.4782 107.752 99.4782 102.512V54.3214M62.9565 16C68.1548 16 67.857 17.2873 67.857 22.5582V38.7567C67.857 44.9405 71.2039 48.2383 77.3152 48.2383H93.0991C99.5969 48.2383 99.4782 49.0506 99.4782 54.3214" stroke="#188047" stroke-width="8" stroke-linecap="round" stroke-linejoin="round"/>
<path d="M33.3857 78.5C33.2418 78.5 33.1138 78.452 33.0018 78.356C32.9058 78.244 32.8578 78.124 32.8578 77.996C32.8578 77.948 32.8658 77.9 32.8818 77.852C32.8978 77.804 32.9218 77.756 32.9538 77.708L38.1858 69.932L33.3378 62.492C33.2898 62.396 33.2658 62.3 33.2658 62.204C33.2658 62.076 33.3138 61.964 33.4098 61.868C33.5058 61.756 33.6258 61.7 33.7698 61.7H37.2498C37.4898 61.7 37.6738 61.764 37.8018 61.892C37.9298 62.004 38.0178 62.108 38.0658 62.204L40.9458 66.572L43.8498 62.204C43.9138 62.108 44.0098 62.004 44.1378 61.892C44.2658 61.764 44.4498 61.7 44.6898 61.7H47.9778C48.1218 61.7 48.2418 61.756 48.3378 61.868C48.4498 61.964 48.5058 62.076 48.5058 62.204C48.5058 62.316 48.4738 62.412 48.4098 62.492L43.5378 69.908L48.8178 77.708C48.8498 77.756 48.8658 77.804 48.8658 77.852C48.8818 77.9 48.8898 77.948 48.8898 77.996C48.8898 78.124 48.8418 78.244 48.7458 78.356C48.6498 78.452 48.5298 78.5 48.3858 78.5H44.8098C44.5698 78.5 44.3778 78.444 44.2338 78.332C44.1058 78.204 44.0178 78.1 43.9698 78.02L40.7778 73.412L37.6578 78.02C37.6098 78.1 37.5218 78.204 37.3938 78.332C37.2658 78.444 37.0818 78.5 36.8418 78.5H33.3857ZM51.4441 78.5C51.2681 78.5 51.1241 78.444 51.0121 78.332C50.9001 78.22 50.8441 78.076 50.8441 77.9V62.3C50.8441 62.124 50.9001 61.98 51.0121 61.868C51.1241 61.756 51.2681 61.7 51.4441 61.7H54.6121C54.7721 61.7 54.9081 61.756 55.0201 61.868C55.1481 61.98 55.2121 62.124 55.2121 62.3V74.876H62.4601C62.6361 74.876 62.7801 74.94 62.8921 75.068C63.0201 75.18 63.0841 75.324 63.0841 75.5V77.9C63.0841 78.076 63.0201 78.22 62.8921 78.332C62.7801 78.444 62.6361 78.5 62.4601 78.5H51.4441ZM71.4284 78.74C69.8284 78.74 68.5004 78.516 67.4444 78.068C66.3884 77.604 65.5884 77.004 65.0444 76.268C64.5004 75.532 64.2124 74.748 64.1804 73.916C64.1804 73.788 64.2284 73.676 64.3244 73.58C64.4364 73.468 64.5644 73.412 64.7084 73.412H67.7324C67.9564 73.412 68.1244 73.452 68.2364 73.532C68.3644 73.612 68.4764 73.716 68.5724 73.844C68.7004 74.084 68.8764 74.316 69.1004 74.54C69.3404 74.764 69.6444 74.948 70.0124 75.092C70.3964 75.22 70.8684 75.284 71.4284 75.284C72.3564 75.284 73.0524 75.14 73.5164 74.852C73.9964 74.564 74.2364 74.172 74.2364 73.676C74.2364 73.324 74.1084 73.036 73.8524 72.812C73.5964 72.572 73.1804 72.364 72.6044 72.188C72.0444 71.996 71.2924 71.804 70.3484 71.612C69.1324 71.356 68.0924 71.028 67.2284 70.628C66.3804 70.212 65.7324 69.676 65.2844 69.02C64.8364 68.348 64.6124 67.516 64.6124 66.524C64.6124 65.548 64.8844 64.676 65.4284 63.908C65.9884 63.14 66.7644 62.54 67.7564 62.108C68.7484 61.676 69.9244 61.46 71.2844 61.46C72.3884 61.46 73.3564 61.604 74.1884 61.892C75.0364 62.18 75.7484 62.564 76.3244 63.044C76.9004 63.524 77.3324 64.036 77.6204 64.58C77.9244 65.108 78.0844 65.628 78.1004 66.14C78.1004 66.268 78.0524 66.388 77.9564 66.5C77.8604 66.596 77.7404 66.644 77.5964 66.644H74.4284C74.2524 66.644 74.1004 66.612 73.9724 66.548C73.8444 66.484 73.7324 66.38 73.6364 66.236C73.5404 65.884 73.2844 65.58 72.8684 65.324C72.4684 65.052 71.9404 64.916 71.2844 64.916C70.5804 64.916 70.0284 65.044 69.6284 65.3C69.2444 65.54 69.0524 65.916 69.0524 66.428C69.0524 66.748 69.1564 67.028 69.3644 67.268C69.5884 67.508 69.9484 67.716 70.4444 67.892C70.9564 68.068 71.6524 68.252 72.5324 68.444C73.9884 68.716 75.1644 69.06 76.0604 69.476C76.9564 69.876 77.6124 70.404 78.0284 71.06C78.4444 71.7 78.6524 72.508 78.6524 73.484C78.6524 74.572 78.3404 75.516 77.7164 76.316C77.1084 77.1 76.2604 77.7 75.1724 78.116C74.0844 78.532 72.8364 78.74 71.4284 78.74ZM79.6279 78.5C79.4839 78.5 79.3559 78.452 79.2439 78.356C79.1479 78.244 79.0999 78.124 79.0999 77.996C79.0999 77.948 79.1079 77.9 79.1239 77.852C79.1399 77.804 79.1639 77.756 79.1959 77.708L84.4279 69.932L79.5799 62.492C79.5319 62.396 79.5079 62.3 79.5079 62.204C79.5079 62.076 79.5559 61.964 79.6519 61.868C79.7479 61.756 79.8679 61.7 80.0119 61.7H83.4919C83.7319 61.7 83.9159 61.764 84.0439 61.892C84.1719 62.004 84.2599 62.108 84.3079 62.204L87.1879 66.572L90.0919 62.204C90.1559 62.108 90.2519 62.004 90.3799 61.892C90.5079 61.764 90.6919 61.7 90.9319 61.7H94.2199C94.3639 61.7 94.4839 61.756 94.5799 61.868C94.6919 61.964 94.7479 62.076 94.7479 62.204C94.7479 62.316 94.7159 62.412 94.6519 62.492L89.7799 69.908L95.0599 77.708C95.0919 77.756 95.1079 77.804 95.1079 77.852C95.1239 77.9 95.1319 77.948 95.1319 77.996C95.1319 78.124 95.0839 78.244 94.9879 78.356C94.8919 78.452 94.7719 78.5 94.6279 78.5H91.0519C90.8119 78.5 90.6199 78.444 90.4759 78.332C90.3479 78.204 90.2599 78.1 90.2119 78.02L87.0199 73.412L83.8999 78.02C83.8519 78.1 83.7639 78.204 83.6359 78.332C83.5079 78.444 83.3239 78.5 83.0839 78.5H79.6279Z" fill="white"/>
</svg>
