<svg width="128" height="128" viewBox="0 0 128 128" fill="none" xmlns="http://www.w3.org/2000/svg">
<path d="M99.4782 102.512C99.4782 107.752 95.289 112 90.1213 112H37.8786C32.711 112 28.5217 107.752 28.5217 102.512V25.5582C28.5217 20.3184 32.711 16.0707 37.8786 16.0707L62.9565 16C68.1548 16 67.857 17.2873 67.857 22.5582V38.7567C67.857 44.9405 71.2039 48.2383 77.3152 48.2383H93.0991C99.5969 48.2383 99.4782 49.0506 99.4782 54.3214V102.512Z" fill="#F68009"/>
<path d="M62.9565 16H72.3478L99.4782 43.1304V54.3214M62.9565 16L37.8786 16.0707C32.711 16.0707 28.5217 20.3184 28.5217 25.5582V102.512C28.5217 107.752 32.711 112 37.8786 112H90.1213C95.289 112 99.4782 107.752 99.4782 102.512V54.3214M62.9565 16C68.1548 16 67.857 17.2873 67.857 22.5582V38.7567C67.857 44.9405 71.2039 48.2383 77.3152 48.2383H93.0991C99.5969 48.2383 99.4782 49.0506 99.4782 54.3214" stroke="#F68009" stroke-width="8" stroke-linecap="round" stroke-linejoin="round"/>
<path d="M37.3726 80.5C37.2166 80.5 37.078 80.448 36.9566 80.344C36.8526 80.2227 36.8006 80.0927 36.8006 79.954C36.8006 79.902 36.8093 79.85 36.8266 79.798C36.844 79.746 36.87 79.694 36.9046 79.642L42.5726 71.218L37.3206 63.158C37.2686 63.054 37.2426 62.95 37.2426 62.846C37.2426 62.7073 37.2946 62.586 37.3986 62.482C37.5026 62.3607 37.6326 62.3 37.7886 62.3H41.5586C41.8186 62.3 42.018 62.3693 42.1566 62.508C42.2953 62.6293 42.3906 62.742 42.4426 62.846L45.5626 67.578L48.7086 62.846C48.778 62.742 48.882 62.6293 49.0206 62.508C49.1593 62.3693 49.3586 62.3 49.6186 62.3H53.1806C53.3366 62.3 53.4666 62.3607 53.5706 62.482C53.692 62.586 53.7526 62.7073 53.7526 62.846C53.7526 62.9673 53.718 63.0713 53.6486 63.158L48.3706 71.192L54.0906 79.642C54.1253 79.694 54.1426 79.746 54.1426 79.798C54.16 79.85 54.1686 79.902 54.1686 79.954C54.1686 80.0927 54.1166 80.2227 54.0126 80.344C53.9086 80.448 53.7786 80.5 53.6226 80.5H49.7486C49.4886 80.5 49.2806 80.4393 49.1246 80.318C48.986 80.1793 48.8906 80.0667 48.8386 79.98L45.3806 74.988L42.0006 79.98C41.9486 80.0667 41.8533 80.1793 41.7146 80.318C41.576 80.4393 41.3766 80.5 41.1166 80.5H37.3726ZM56.9358 80.5C56.7625 80.5 56.6065 80.4393 56.4678 80.318C56.3465 80.1967 56.2858 80.0407 56.2858 79.85V62.95C56.2858 62.7593 56.3465 62.6033 56.4678 62.482C56.6065 62.3607 56.7625 62.3 56.9358 62.3H59.7438C60.0212 62.3 60.2292 62.378 60.3678 62.534C60.5238 62.6727 60.6192 62.7853 60.6538 62.872L65.2298 71.088L69.8058 62.872C69.8578 62.7853 69.9445 62.6727 70.0658 62.534C70.2045 62.378 70.4212 62.3 70.7158 62.3H73.4978C73.6885 62.3 73.8445 62.3607 73.9658 62.482C74.1045 62.6033 74.1738 62.7593 74.1738 62.95V79.85C74.1738 80.0407 74.1045 80.1967 73.9658 80.318C73.8445 80.4393 73.6885 80.5 73.4978 80.5H70.4038C70.2132 80.5 70.0485 80.4393 69.9098 80.318C69.7885 80.1967 69.7278 80.0407 69.7278 79.85V70.1L66.7898 75.534C66.7205 75.69 66.6165 75.8287 66.4778 75.95C66.3392 76.0713 66.1485 76.132 65.9058 76.132H64.5538C64.3112 76.132 64.1205 76.0713 63.9818 75.95C63.8432 75.8287 63.7305 75.69 63.6438 75.534L60.7058 70.1V79.85C60.7058 80.0407 60.6452 80.1967 60.5238 80.318C60.4025 80.4393 60.2465 80.5 60.0558 80.5H56.9358ZM78.4417 80.5C78.251 80.5 78.095 80.4393 77.9737 80.318C77.8523 80.1967 77.7917 80.0407 77.7917 79.85V62.95C77.7917 62.7593 77.8523 62.6033 77.9737 62.482C78.095 62.3607 78.251 62.3 78.4417 62.3H81.8737C82.047 62.3 82.1943 62.3607 82.3157 62.482C82.4543 62.6033 82.5237 62.7593 82.5237 62.95V76.574H90.3757C90.5663 76.574 90.7223 76.6433 90.8437 76.782C90.9823 76.9033 91.0517 77.0593 91.0517 77.25V79.85C91.0517 80.0407 90.9823 80.1967 90.8437 80.318C90.7223 80.4393 90.5663 80.5 90.3757 80.5H78.4417Z" fill="white"/>
</svg>
