<svg width="96" height="96" viewBox="0 0 96 96" fill="none" xmlns="http://www.w3.org/2000/svg">
<g clip-path="url(#clip0_127_263)">
<path d="M78 33.75V67.75C78 72.1683 74.4183 75.75 70 75.75H12C7.58172 75.75 4 72.1683 4 67.75V25.25C4 20.8317 7.58172 17.25 12 17.25H27.5434C29.7493 17.25 31.8572 18.1608 33.369 19.7671L36.631 23.2329C38.1428 24.8392 40.2507 25.75 42.4566 25.75H70C74.4183 25.75 78 29.3317 78 33.75Z" fill="#ABACBA" stroke="#ABACBA" stroke-width="6"/>
<path d="M12.5916 48.5134L20.9391 41.9004" stroke="#101010" stroke-width="6" stroke-linecap="round"/>
<path d="M13.677 47.1769C15.1168 44.743 17.7346 43.25 20.5625 43.25H87.3107C93.4317 43.25 97.2851 49.8439 94.2807 55.1768L83.2948 74.6768C81.8771 77.1932 79.2131 78.75 76.3248 78.75H9.02731C2.83122 78.75 -1.01283 72.0098 2.14183 66.6769L13.677 47.1769Z" fill="#ABACBA"/>
<path d="M83.2407 40.25H18.9236C16.0555 40.25 13.4069 41.7853 11.9815 44.2741L-3.09838 70.6041" stroke="#101010" stroke-width="6" stroke-linecap="round"/>
</g>
<defs>
<clipPath id="clip0_127_263">
<rect width="96" height="96" fill="#ABACBA"/>
</clipPath>
</defs>
</svg>
