<svg width="96" height="96" viewBox="0 0 96 96" fill="none" xmlns="http://www.w3.org/2000/svg">
<g clip-path="url(#clip0_127_269)">
<path d="M78 46.4985V33.75C78 29.3317 74.4183 25.75 70 25.75H42.4566C40.2507 25.75 38.1428 24.8392 36.631 23.2329L33.369 19.7671C31.8572 18.1608 29.7493 17.25 27.5434 17.25H12C7.58172 17.25 4 20.8317 4 25.25V59.0358" stroke="#ABACBA" stroke-width="6"/>
<path d="M19.6752 46.25H87.3107C91.1363 46.25 93.5447 50.3712 91.667 53.7042L80.681 73.2042C79.795 74.777 78.13 75.75 76.3248 75.75H8.68928C4.86366 75.75 2.45526 71.6288 4.33304 68.2958L15.319 48.7958C16.205 47.223 17.87 46.25 19.6752 46.25Z" stroke="#ABACBA" stroke-width="6"/>
<path d="M84.2411 40.25H70.4082M15.0689 36.7457L-1.45331 66.5177" stroke="#101010" stroke-width="6" stroke-linecap="round"/>
</g>
<defs>
<clipPath id="clip0_127_269">
<rect width="96" height="96" fill="#ABACBA"/>
</clipPath>
</defs>
</svg>
