<svg width="96" height="96" viewBox="0 0 96 96" fill="none" xmlns="http://www.w3.org/2000/svg">
<circle cx="48" cy="48" r="25" stroke="#ABACBA" stroke-width="6"/>
<path d="M44.5311 21L45.5311 13H50.4689L51.4689 21H44.5311Z" stroke="#ABACBA" stroke-width="8"/>
<path d="M71 41.1328C71 40.5313 71.5272 40.0659 72.124 40.1405L86.124 41.8905C86.6245 41.9531 87 42.3785 87 42.8828V53.1172C87 53.6215 86.6245 54.0469 86.124 54.1095L72.124 55.8595C71.5272 55.9341 71 55.4687 71 54.8672V41.1328Z" fill="#ABACBA"/>
<path d="M40.1405 72.124C40.0659 71.5272 40.5313 71 41.1328 71H54.8672C55.4687 71 55.9341 71.5272 55.8595 72.124L54.1095 86.124C54.0469 86.6245 53.6215 87 53.1172 87H42.8828C42.3785 87 41.9531 86.6245 41.8905 86.124L40.1405 72.124Z" fill="#ABACBA"/>
<path d="M9 42.8828C9 42.3785 9.37554 41.9531 9.87597 41.8905L23.876 40.1405C24.4728 40.0659 25 40.5313 25 41.1328V54.8672C25 55.4687 24.4728 55.9341 23.876 55.8595L9.87596 54.1095C9.37554 54.0469 9 53.6215 9 53.1172V42.8828Z" fill="#ABACBA"/>
<path d="M25.2826 79.3575C24.8845 79.6672 24.3182 79.6319 23.9616 79.2753L16.7247 72.0384C16.3681 71.6818 16.3329 71.1155 16.6425 70.7174L25.3045 59.5805C25.6738 59.1057 26.3757 59.062 26.801 59.4873L36.5127 69.199C36.938 69.6243 36.8943 70.3262 36.4195 70.6955L25.2826 79.3575Z" fill="#ABACBA"/>
<path d="M70.7171 16.6425C71.1152 16.3329 71.6816 16.3681 72.0382 16.7247L79.275 23.9616C79.6316 24.3182 79.6669 24.8845 79.3573 25.2826L70.6952 36.4195C70.3259 36.8943 69.6241 36.938 69.1988 36.5127L59.487 26.801C59.0617 26.3757 59.1054 25.6738 59.5802 25.3045L70.7171 16.6425Z" fill="#ABACBA"/>
<path d="M16.6425 25.2826C16.3328 24.8845 16.3681 24.3182 16.7247 23.9616L23.9616 16.7247C24.3182 16.3681 24.8845 16.3329 25.2826 16.6425L36.4195 25.3045C36.8943 25.6738 36.938 26.3757 36.5127 26.801L26.801 36.5127C26.3757 36.938 25.6738 36.8943 25.3045 36.4195L16.6425 25.2826Z" fill="#ABACBA"/>
<path d="M79.3575 70.7174C79.6672 71.1155 79.6319 71.6818 79.2753 72.0384L72.0384 79.2753C71.6818 79.6319 71.1155 79.6671 70.7174 79.3575L59.5805 70.6955C59.1057 70.3262 59.062 69.6243 59.4873 69.199L69.199 59.4873C69.6243 59.062 70.3262 59.1057 70.6955 59.5805L79.3575 70.7174Z" fill="#ABACBA"/>
</svg>
