<svg width="96" height="96" viewBox="0 0 96 96" fill="none" xmlns="http://www.w3.org/2000/svg">
<circle cx="48" cy="48" r="24" stroke="#ABACBA" stroke-width="8"/>
<path d="M45.5311 13H50.4689L51.4689 21L44.5311 21L45.5311 13Z" stroke="#ABACBA" stroke-width="8"/>
<path d="M71 44.5311C71 42.1251 73.1087 40.2636 75.4961 40.562L83.4961 41.562C85.4979 41.8122 87 43.5138 87 45.5311V50.4689C87 52.4862 85.4979 54.1878 83.4961 54.438L75.4961 55.438C73.1087 55.7364 71 53.8749 71 51.4689V44.5311Z" fill="#ABACBA"/>
<path d="M40.562 75.4961C40.2636 73.1087 42.1251 71 44.5311 71H51.4689C53.8749 71 55.7364 73.1087 55.438 75.4961L54.438 83.4961C54.1878 85.4979 52.4862 87 50.4689 87H45.5311C43.5138 87 41.8122 85.4979 41.562 83.4961L40.562 75.4961Z" fill="#ABACBA"/>
<path d="M9 45.5311C9 43.5138 10.5021 41.8122 12.5039 41.562L20.5039 40.562C22.8913 40.2636 25 42.1251 25 44.5311V51.4689C25 53.8749 22.8913 55.7364 20.5039 55.438L12.5039 54.438C10.5021 54.1878 9 52.4862 9 50.4689V45.5311Z" fill="#ABACBA"/>
<path d="M27.3731 77.7316C25.7807 78.9701 23.5153 78.8291 22.0889 77.4026L18.5974 73.9111C17.1709 72.4847 17.0299 70.2193 18.2684 68.6269L23.2182 62.263C24.6953 60.3638 27.5027 60.189 29.204 61.8903L34.1097 66.796C35.811 68.4973 35.6362 71.3047 33.7371 72.7819L27.3731 77.7316Z" fill="#ABACBA"/>
<path d="M68.6267 18.2684C70.219 17.0299 72.4844 17.171 73.9109 18.5974L77.4024 22.0889C78.8288 23.5153 78.9698 25.7807 77.7313 27.3731L72.7816 33.7371C71.3045 35.6362 68.4971 35.811 66.7958 34.1097L61.89 29.204C60.1887 27.5027 60.3635 24.6953 62.2627 23.2182L68.6267 18.2684Z" fill="#ABACBA"/>
<path d="M18.2684 27.3731C17.0299 25.7807 17.1709 23.5153 18.5974 22.0889L22.0889 18.5974C23.5153 17.1709 25.7807 17.0299 27.3731 18.2684L33.737 23.2182C35.6362 24.6953 35.811 27.5027 34.1097 29.204L29.204 34.1097C27.5027 35.811 24.6953 35.6362 23.2181 33.7371L18.2684 27.3731Z" fill="#ABACBA"/>
<path d="M77.7316 68.6269C78.9701 70.2193 78.8291 72.4847 77.4026 73.9111L73.9111 77.4026C72.4847 78.8291 70.2193 78.9701 68.6269 77.7316L62.263 72.7818C60.3638 71.3047 60.189 68.4973 61.8903 66.796L66.796 61.8903C68.4973 60.189 71.3047 60.3638 72.7819 62.2629L77.7316 68.6269Z" fill="#ABACBA"/>
</svg>
