<svg width="96" height="96" viewBox="0 0 96 96" fill="none" xmlns="http://www.w3.org/2000/svg">
<path d="M16.4796 30.265C15.8791 31.7363 15.9753 38.1982 16.0714 42.4359C16.1218 44.6609 16.8773 46.8306 18.2853 48.5542C27.6492 60.0169 35.4386 65.7887 48 76C60.9734 65.4023 68.8141 59.1282 77.64 48.5807C79.0948 46.8422 79.8791 44.634 79.9301 42.3677C80.0257 38.1292 80.1176 31.7284 79.5204 30.265C78.697 28.2475 77.4902 26.4144 75.9688 24.8703C74.4475 23.3263 72.6413 22.1014 70.6536 21.2658C68.6658 20.4301 66.5353 20 64.3838 20C62.2322 20 60.1017 20.4301 58.114 21.2658C56.1262 22.1014 54.3201 23.3263 52.7987 24.8703C51.3308 26.3601 48.9948 31.5588 48.0928 33.7346C48.0585 33.8174 47.9415 33.8174 47.9072 33.7346C47.0052 31.5588 44.6692 26.3601 43.2013 24.8703C41.6799 23.3263 39.8738 22.1014 37.886 21.2658C35.8983 20.4301 33.7678 20 31.6162 20C29.4647 20 27.3342 20.4301 25.3465 21.2658C23.3587 22.1014 21.5526 23.3263 20.0312 24.8703C18.5098 26.4144 17.303 28.2475 16.4796 30.265Z" stroke="#ABACBA" stroke-width="8" stroke-linecap="square"/>
</svg>
