<svg width="96" height="96" viewBox="0 0 96 96" fill="none" xmlns="http://www.w3.org/2000/svg">
<path d="M16.3972 30.3787C15.1139 32.3231 15.2677 40.5329 15.8131 44.3109C15.9641 45.3565 16.4715 46.2932 17.1292 47.1199C27.0206 59.5526 34.9254 65.3715 48 76C61.6074 64.8844 69.5681 58.5253 78.9416 47.0028C79.5524 46.2521 80.0406 45.4096 80.2009 44.4552C80.8226 40.7532 80.9941 32.379 79.6158 30.3894C79.555 30.3018 79.5001 30.2146 79.4588 30.1162C78.6374 28.1574 77.4527 26.3764 75.9688 24.8703C74.4475 23.3263 72.6413 22.1014 70.6536 21.2658C68.6658 20.4301 66.5353 20 64.3838 20C62.2322 20 60.1017 20.4301 58.114 21.2658C56.1262 22.1014 54.3201 23.3263 52.7987 24.8703C51.3308 26.3601 48.9948 31.5588 48.0928 33.7346C48.0585 33.8174 47.9415 33.8174 47.9072 33.7346C47.0052 31.5588 44.6692 26.3601 43.2013 24.8703C41.6799 23.3263 39.8738 22.1014 37.886 21.2658C35.8983 20.4301 33.7678 20 31.6162 20C29.4647 20 27.3342 20.4301 25.3465 21.2658C23.3587 22.1014 21.5526 23.3263 20.0312 24.8703C18.5436 26.3802 17.3567 28.1664 16.535 30.131C16.4979 30.2197 16.4502 30.2984 16.3972 30.3787Z" stroke="#ABACBA" stroke-width="6" stroke-linecap="square"/>
</svg>
