<svg width="96" height="96" viewBox="0 0 96 96" fill="none" xmlns="http://www.w3.org/2000/svg">
<path d="M23 41C23 51.7335 23 66.6268 23 74.8007C23 78.1011 25.6657 80.7775 28.9661 80.7962L33.5 80.8218L43.625 80.8367M23 41C30.362 33.385 38.7169 24.6849 43.6638 19.5274C46.031 17.0593 49.9756 17.0666 52.3367 19.5405L58.5016 26L65.7508 33.5M23 41C19.8797 44.1204 15.0099 48.9902 15.0099 48.9902M73 41V74.966C73 78.2929 70.293 80.9847 66.9661 80.9659L62.5 80.9406L52.375 80.9258M73 41L65.7508 33.5M73 41L80.9902 48.9902M65.7508 33.5V19M45.75 80.8515L48 80.8812L50.25 80.9109M45.75 80.8515V61.85C45.75 61.2977 46.1977 60.85 46.75 60.85H49.25C49.8023 60.85 50.25 61.2977 50.25 61.85V80.9109M45.75 80.8515L43.625 80.8367M50.25 80.9109L52.375 80.9258M52.375 80.9258V61.85C52.375 61.2977 51.9273 60.85 51.375 60.85H44.625C44.0727 60.85 43.625 61.2977 43.625 61.85V80.8367" stroke="#7F7F88" stroke-width="6" stroke-linecap="round"/>
</svg>
