<svg width="128" height="128" viewBox="0 0 128 128" fill="none" xmlns="http://www.w3.org/2000/svg">
<path d="M102.513 40.9953C107.752 40.9953 112 45.1143 112 50.1948L111.988 91.2493C111.988 97.891 107.745 100.696 102.501 100.511H25.4988C20.2546 100.722 16.0119 97.9174 16.0119 91.5139L16 36.6875C16 31.607 20.2475 27.4886 25.4869 27.4886C25.4869 27.4886 54.5514 27.4783 56.1326 27.4783C57.1867 28.5002 66.6736 40.9953 66.6736 40.9953H102.513Z" fill="#7F7F88" stroke="#7F7F88" stroke-width="8" stroke-linecap="round" stroke-linejoin="round"/>
<path d="M54.0583 64.5V56.5C45.2218 56.5 38.0583 63.6634 38.0583 72.5C37.8639 72.2091 38.2325 72.8017 38.0583 72.5H46.0583C46.0583 68.0817 49.64 64.5 54.0583 64.5Z" fill="#202024"/>
<path d="M73.4417 77V85C82.2782 85 89.4417 77.8366 89.4417 69C89.6361 69.2909 89.2675 68.6983 89.4417 69H81.4417C81.4417 73.4183 77.86 77 73.4417 77Z" fill="#202024"/>
<path d="M42 72.3846H42.1M85.7292 68.9997H85.6292M54.0001 60.3846H74.0001M68.0001 66L73.8196 60.5106M68.0001 54L73.6569 59.6568M73.7293 80.9997H53.7293M59.0001 76L53.1805 81.4893M59.0001 88L53.3432 82.3431" stroke="#202024" stroke-width="8" stroke-linecap="round"/>
</svg>
