<svg width="128" height="128" viewBox="0 0 128 128" fill="none" xmlns="http://www.w3.org/2000/svg">
<path d="M102.513 40.9953C107.752 40.9953 112 45.1143 112 50.1948L111.988 91.2493C111.988 97.891 107.745 100.696 102.501 100.511H25.4988C20.2546 100.722 16.0119 97.9174 16.0119 91.5139L16 36.6875C16 31.607 20.2475 27.4886 25.4869 27.4886C25.4869 27.4886 54.5514 27.4783 56.1326 27.4783C57.1867 28.5002 66.6736 40.9953 66.6736 40.9953H102.513Z" stroke="#ABACBA" stroke-width="8" stroke-linecap="round" stroke-linejoin="round"/>
<path fill-rule="evenodd" clip-rule="evenodd" d="M73.7292 76.9997V84.9997C70.9146 84.9997 68.1562 84.2573 65.7292 82.8561C65.4276 82.6819 65.131 82.4976 64.8401 82.3032C64.0182 81.754 63.2528 81.1325 62.5521 80.4483C65.4361 83.2644 69.38 84.9997 73.7292 84.9997C82.5658 84.9997 89.7292 77.8363 89.7292 68.9997C89.7292 64.7067 88.0385 60.8087 85.2867 57.935C85.928 58.605 86.5128 59.3324 87.0328 60.1106C87.2271 60.4015 87.4115 60.698 87.5857 60.9997C88.9869 63.4266 89.7292 66.1851 89.7292 68.9997H81.7292C81.7292 73.418 78.1475 76.9997 73.7292 76.9997ZM84.9064 57.5511C82.0438 54.7559 78.1369 53.0255 73.826 53C75.8845 53.0124 77.9316 53.4221 79.8522 54.2176C81.7431 55.0009 83.4564 56.1354 84.9064 57.5511ZM73.6193 53.0001C69.2446 53.0295 65.2869 54.8146 62.4155 57.686C59.5441 60.5574 57.7591 64.5151 57.7296 68.8898C57.7365 67.8832 57.8384 66.8749 58.0367 65.8783C58.654 62.7746 60.1779 59.9236 62.4155 57.686C64.6532 55.4483 67.5041 53.9245 70.6078 53.3071C71.6044 53.1089 72.6128 53.007 73.6193 53.0001ZM57.7295 69.0964C57.7549 73.3862 59.4685 77.2759 62.2395 80.1346C60.843 78.6936 59.7228 76.9952 58.9472 75.1226C58.1517 73.2021 57.742 71.1549 57.7295 69.0964Z" fill="#ABACBA"/>
<path fill-rule="evenodd" clip-rule="evenodd" d="M54 64.3846V56.3846C56.8146 56.3846 59.5731 57.1269 62 58.5282C62.3017 58.7023 62.5982 58.8867 62.8891 59.0811C63.7111 59.6303 64.4764 60.2518 65.1772 60.936C62.2932 58.1199 58.3492 56.3846 54 56.3846C45.1634 56.3846 38 63.548 38 72.3846C38 76.6778 39.6909 80.5761 42.4431 83.4498C41.8015 82.7797 41.2166 82.0521 40.6965 81.2737C40.5021 80.9828 40.3178 80.6863 40.1436 80.3846C38.7424 77.9576 38 75.1992 38 72.3846H46C46 67.9663 49.5817 64.3846 54 64.3846ZM42.8228 83.8332C45.6854 86.6284 49.5923 88.3588 53.9033 88.3843C51.8448 88.3718 49.7976 87.9622 47.8771 87.1667C45.9861 86.3834 44.2729 85.2489 42.8228 83.8332ZM54.1099 88.3842C58.4846 88.3548 62.4423 86.5697 65.3137 83.6983C68.1851 80.8269 69.9702 76.8692 69.9996 72.4945C69.9927 73.5011 69.8908 74.5094 69.6926 75.506C69.0752 78.6097 67.5513 81.4607 65.3137 83.6983C63.0761 85.9359 60.2251 87.4598 57.1214 88.0771C56.1248 88.2754 55.1165 88.3773 54.1099 88.3842ZM69.9997 72.2879C69.9744 68.0193 68.2777 64.147 65.5309 61.2923C66.9083 62.7242 68.0141 64.4075 68.7821 66.2616C69.5776 68.1822 69.9873 70.2294 69.9997 72.2879Z" fill="#ABACBA"/>
<path d="M54 60.3846H74" stroke="#ABACBA" stroke-width="8" stroke-linecap="round"/>
<path d="M42 72.3846H42.0001" stroke="#ABACBA" stroke-width="8" stroke-linecap="round"/>
<path d="M68 65.9999L73.8195 60.5106" stroke="#ABACBA" stroke-width="8" stroke-linecap="round"/>
<path d="M68 53.9999L73.6569 59.6568" stroke="#ABACBA" stroke-width="8" stroke-linecap="round"/>
<path d="M73.7292 80.9997H53.7292" stroke="#ABACBA" stroke-width="8" stroke-linecap="round"/>
<path d="M85.7292 68.9997H85.7291" stroke="#ABACBA" stroke-width="8" stroke-linecap="round"/>
<path d="M59 75.9999L53.1805 81.4893" stroke="#ABACBA" stroke-width="8" stroke-linecap="round"/>
<path d="M59 87.9999L53.3431 82.3431" stroke="#ABACBA" stroke-width="8" stroke-linecap="round"/>
</svg>
