<svg width="96" height="96" viewBox="0 0 96 96" fill="none" xmlns="http://www.w3.org/2000/svg">
<path d="M65.9025 65.6777C67.0741 64.5061 68.9736 64.5061 70.1451 65.6777C71.3167 66.8492 71.3167 68.7487 70.1451 69.9203L65.9025 65.6777ZM23.2248 48C23.2248 51.283 23.8715 54.5339 25.1278 57.5671L19.5845 59.8632C18.0267 56.1021 17.2248 52.071 17.2248 48L23.2248 48ZM25.1278 57.5671C26.3842 60.6002 28.2257 63.3562 30.5471 65.6777L26.3045 69.9203C23.4259 67.0417 21.1424 63.6243 19.5845 59.8632L25.1278 57.5671ZM30.5471 65.6777C32.8686 67.9991 35.6246 69.8406 38.6577 71.097L36.3616 76.6403C32.6005 75.0824 29.1831 72.7989 26.3045 69.9203L30.5471 65.6777ZM38.6577 71.097C41.6909 72.3534 44.9418 73 48.2248 73L48.2248 79C44.1538 79 40.1227 78.1982 36.3616 76.6403L38.6577 71.097ZM48.2248 73C51.5079 73 54.7588 72.3534 57.7919 71.097L60.088 76.6403C56.3269 78.1982 52.2958 79 48.2248 79L48.2248 73ZM57.7919 71.097C60.825 69.8406 63.581 67.9991 65.9025 65.6777L70.1451 69.9203C67.2665 72.7989 63.8491 75.0824 60.088 76.6403L57.7919 71.097Z" fill="#ABACBA"/>
<path d="M28.5429 51.2875L20.6422 44.658C20.2191 44.303 19.5883 44.3582 19.2333 44.7813L12.6038 52.682" stroke="#ABACBA" stroke-width="6" stroke-linecap="round"/>
<path d="M30.0975 29.9583C28.9259 31.1298 27.0264 31.1298 25.8549 29.9583C24.6833 28.7867 24.6833 26.8872 25.8549 25.7156L30.0975 29.9583ZM72.7752 47.6359C72.7752 44.3529 72.1285 41.102 70.8722 38.0688L76.4155 35.7727C77.9733 39.5338 78.7752 43.5649 78.7752 47.6359L72.7752 47.6359ZM70.8722 38.0688C69.6158 35.0357 67.7743 32.2797 65.4529 29.9583L69.6955 25.7156C72.5741 28.5942 74.8576 32.0116 76.4155 35.7727L70.8722 38.0688ZM65.4529 29.9583C63.1314 27.6368 60.3754 25.7953 57.3423 24.5389L59.6384 18.9957C63.3995 20.5536 66.8169 22.837 69.6955 25.7156L65.4529 29.9583ZM57.3423 24.5389C54.3091 23.2826 51.0582 22.6359 47.7752 22.6359L47.7752 16.6359C51.8462 16.6359 55.8773 17.4378 59.6384 18.9957L57.3423 24.5389ZM47.7752 22.6359C44.4921 22.6359 41.2412 23.2826 38.2081 24.5389L35.912 18.9957C39.6731 17.4378 43.7042 16.6359 47.7752 16.6359L47.7752 22.6359ZM38.2081 24.5389C35.175 25.7953 32.419 27.6368 30.0975 29.9583L25.8549 25.7156C28.7335 22.837 32.1509 20.5536 35.912 18.9957L38.2081 24.5389Z" fill="#ABACBA"/>
<path d="M67.4571 44.3484L75.3578 50.9779C75.7809 51.3329 76.4117 51.2777 76.7667 50.8547L83.3962 42.9539" stroke="#ABACBA" stroke-width="6" stroke-linecap="round"/>
</svg>
