<svg width="96" height="96" viewBox="0 0 96 96" fill="none" xmlns="http://www.w3.org/2000/svg">
<path d="M47.9049 12.2927C47.9348 12.2006 48.0652 12.2006 48.0951 12.2927L56.0601 36.8063C56.0734 36.8475 56.1118 36.8754 56.1552 36.8754H81.9303C82.0271 36.8754 82.0674 36.9994 81.989 37.0563L61.1365 52.2065C61.1015 52.232 61.0868 52.2771 61.1002 52.3183L69.0652 76.8319C69.0951 76.924 68.9897 77.0006 68.9113 76.9437L48.0588 61.7935C48.0237 61.768 47.9763 61.768 47.9412 61.7935L27.0887 76.9437C27.0103 77.0006 26.9049 76.924 26.9348 76.8319L34.8998 52.3183C34.9132 52.2771 34.8985 52.232 34.8635 52.2065L14.011 37.0563C13.9326 36.9994 13.9729 36.8754 14.0697 36.8754H39.8448C39.8882 36.8754 39.9266 36.8475 39.9399 36.8063L47.9049 12.2927Z" stroke="#7F7F88" stroke-width="8"/>
</svg>
