<svg width="128" height="128" viewBox="0 0 128 128" fill="none" xmlns="http://www.w3.org/2000/svg">
<rect x="22" y="22" width="84" height="84" rx="4" stroke="#ABACBA" stroke-width="8"/>
<path d="M51.134 60.5C51.5189 59.8333 52.4811 59.8333 52.866 60.5L66.7224 84.5C67.1073 85.1667 66.6262 86 65.8564 86H38.1436C37.3738 86 36.8927 85.1667 37.2776 84.5L51.134 60.5Z" fill="#ABACBA" stroke="#ABACBA" stroke-width="8"/>
<path d="M73.134 72.5C73.5189 71.8333 74.4811 71.8333 74.866 72.5L81.7942 84.5C82.1791 85.1667 81.698 86 80.9282 86H67.0718C66.302 86 65.8209 85.1667 66.2058 84.5L73.134 72.5Z" fill="#ABACBA" stroke="#ABACBA" stroke-width="8"/>
<circle cx="86" cy="45" r="7.5" fill="#ABACBA" stroke="#ABACBA"/>
</svg>
