<svg width="96" height="96" viewBox="0 0 96 96" fill="none" xmlns="http://www.w3.org/2000/svg">
<path d="M22.5 24L27.7318 83.0882C27.7775 83.6043 28.2098 84 28.7279 84H67.2721C67.7902 84 68.2225 83.6043 68.2682 83.0882L73.5 24M22.5 24H35.25M22.5 24H14M73.5 24H60.75M73.5 24H82M35.25 24H48H60.75M35.25 24V13C35.25 12.4477 35.6977 12 36.25 12H59.75C60.3023 12 60.75 12.4477 60.75 13V24" stroke="#ABACBA" stroke-width="6" stroke-linecap="round"/>
<path d="M40 39V69" stroke="#ABACBA" stroke-width="6" stroke-linecap="round"/>
<path d="M56 39V69" stroke="#ABACBA" stroke-width="6" stroke-linecap="round"/>
</svg>
