<svg width="96" height="96" viewBox="0 0 96 96" fill="none" xmlns="http://www.w3.org/2000/svg">
<path d="M24 25.9987L28.9186 81.0876C28.9647 81.6034 29.3969 81.9987 29.9147 81.9987H66.0853C66.6031 81.9987 67.0353 81.6034 67.0813 81.0876L72 25.9987M24 25.9987H36M24 25.9987H16M72 25.9987H60M72 25.9987H80M36 25.9987H48H60M36 25.9987V15.0013C36 14.449 36.4477 14.0013 37 14.0013H59C59.5523 14.0013 60 14.449 60 15.0013V25.9987" stroke="#7F7F88" stroke-width="8" stroke-linecap="round"/>
<path d="M41 42V66" stroke="#7F7F88" stroke-width="8" stroke-linecap="round"/>
<path d="M55 42V66" stroke="#7F7F88" stroke-width="8" stroke-linecap="round"/>
</svg>
